<svg width="55" height="48" viewBox="0 0 55 48" fill="none" xmlns="http://www.w3.org/2000/svg">
<g id="Frame 1618868835">
<rect width="55" height="47" transform="translate(0 0.5)" fill="white"/>
<path id="Vector" d="M11.5013 16.9493C11.5013 15.1924 12.0151 13.6924 13.0932 12.6143L14.9682 14.4893C12.8813 16.5686 14.7039 23.0336 20.6457 28.9812C26.5876 34.9287 33.0564 36.7493 35.1414 34.6662L37.0164 36.5412C33.4989 40.0587 25.487 37.5631 18.7801 30.8543C14.1282 26.2005 11.5013 20.9205 11.5013 16.9493Z" fill="#009A46"/>
<path id="Vector_2" d="M23.325 38.1574C21.5682 38.1574 20.0682 37.6436 18.9882 36.5655L20.8632 34.6905C22.9463 36.7736 29.4113 34.9511 35.3588 29.0055C41.3063 23.0599 43.1251 16.5949 41.042 14.5117L42.917 12.6367C46.4364 16.1542 43.9389 24.1661 37.2301 30.873C32.5763 35.5324 27.2963 38.1574 23.325 38.1574Z" fill="#FF5805"/>
<path id="Vector_3" d="M37.8508 28.1901C36.7126 24.9126 34.3876 21.4101 31.3032 18.3276C24.5964 11.6188 16.5845 9.1213 13.067 12.6407C12.8176 12.8919 13.0332 13.5126 13.5507 14.0301C14.0682 14.5476 14.6888 14.7613 14.9382 14.5119C17.0232 12.4288 23.4882 14.2513 29.4339 20.1988C32.2464 23.0113 34.3426 26.152 35.3533 29.0582C36.2383 31.6063 36.152 33.6613 35.1208 34.6926C34.8695 34.942 35.087 35.5645 35.6026 36.0801C36.1183 36.5957 36.7408 36.8132 36.992 36.562C38.7939 34.7601 39.0995 31.7826 37.8508 28.1901Z" fill="#F5AFCB"/>
<path id="Vector_4" d="M42.9131 12.6405C41.1074 10.8349 38.1337 10.5293 34.5374 11.7799C31.2618 12.9162 27.7574 15.243 24.6749 18.3256C17.968 25.0324 15.4705 33.0443 18.988 36.5637C19.2392 36.8131 19.8599 36.5975 20.3774 36.0818C20.8949 35.5662 21.1105 34.9437 20.8593 34.6925C18.7705 32.6093 20.5986 26.1443 26.5461 20.1968C29.3587 17.3843 32.4993 15.288 35.4055 14.2774C37.9537 13.3943 40.0087 13.4787 41.0418 14.5099C41.2912 14.7593 41.9137 14.5437 42.4293 14.0262C42.9449 13.5087 43.1624 12.8899 42.9131 12.6405Z" fill="#FF9B00"/>
</g>
</svg>
