<svg width="27" height="27" viewBox="0 0 27 27" fill="none" xmlns="http://www.w3.org/2000/svg">
<g id="Frame" clip-path="url(#clip0_971_9023)">
<g id="Clip path group">
<mask id="mask0_971_9023" style="mask-type:luminance" maskUnits="userSpaceOnUse" x="0" y="0" width="27" height="27">
<g id="clip0">
<path id="Vector" d="M0.84845 0.883789H26.6672V26.2807H0.84845V0.883789Z" fill="white"/>
</g>
</mask>
<g mask="url(#mask0_971_9023)">
<g id="Group">
<path id="Vector_2" d="M23.9848 0.883789H2.18967C1.45198 0.883789 0.84845 1.48846 0.84845 2.22755V4.64628C0.84845 5.38536 1.45198 5.99004 2.18967 5.99004H23.9177C24.6554 5.99004 25.2589 5.38536 25.2589 4.64628V2.22755C25.326 1.48846 24.7224 0.883789 23.9848 0.883789ZM23.9848 14.3885H2.18967C1.45198 14.3885 0.84845 14.9931 0.84845 15.7322V18.151C0.84845 18.89 1.45198 19.4947 2.18967 19.4947H23.9177C24.6554 19.4947 25.2589 18.89 25.2589 18.151V15.7322C25.326 14.9931 24.7224 14.3885 23.9848 14.3885ZM14.462 21.1744H2.18967C1.45198 21.1744 0.84845 21.7791 0.84845 22.5182V24.9369C0.84845 25.676 1.45198 26.2807 2.18967 26.2807H14.462C15.1997 26.2807 15.8032 25.676 15.8032 24.9369V22.5182C15.8032 21.7791 15.1997 21.1744 14.462 21.1744ZM25.326 7.66973H2.18967C1.45198 7.66973 0.84845 8.27441 0.84845 9.01345V11.4322C0.84845 12.1713 1.45198 12.776 2.18967 12.776H25.326C26.0637 12.776 26.6672 12.1713 26.6672 11.4322V9.01345C26.6672 8.27441 26.0637 7.66973 25.326 7.66973Z" fill="#0BA4DB"/>
</g>
</g>
</g>
</g>
<defs>
<clipPath id="clip0_971_9023">
<rect width="25.8188" height="25.3969" fill="white" transform="translate(0.84845 0.883789)"/>
</clipPath>
</defs>
</svg>
