<svg width="22" height="24" viewBox="0 0 22 24" fill="none" xmlns="http://www.w3.org/2000/svg">
<path fill-rule="evenodd" clip-rule="evenodd" d="M2 0C1.44772 0 1 0.447716 1 1V23C1 23.5523 1.44772 24 2 24H20C20.5523 24 21 23.5523 21 23V4L17 0H2Z" fill="#E4E7EC"/>
<path fill-rule="evenodd" clip-rule="evenodd" d="M17 0V4H21L17 0Z" fill="#98A2B3"/>
<rect y="10" width="22" height="10" rx="1" fill="#F77A4A"/>
<path d="M9.01065 14.0398C8.96331 13.8864 8.89796 13.7491 8.81463 13.6278C8.73319 13.5047 8.63471 13.3996 8.51918 13.3125C8.40554 13.2254 8.27486 13.16 8.12713 13.1165C7.9794 13.071 7.81842 13.0483 7.64418 13.0483C7.33168 13.0483 7.05327 13.1269 6.80895 13.2841C6.56463 13.4413 6.3724 13.6723 6.23224 13.9773C6.09399 14.2803 6.02486 14.6496 6.02486 15.0852C6.02486 15.5246 6.09399 15.8968 6.23224 16.2017C6.3705 16.5066 6.56274 16.7386 6.80895 16.8977C7.05516 17.0549 7.34115 17.1335 7.6669 17.1335C7.96236 17.1335 8.21804 17.0767 8.43395 16.9631C8.65175 16.8494 8.81937 16.6884 8.93679 16.4801C9.05421 16.2699 9.11293 16.0237 9.11293 15.7415L9.35156 15.7784H7.77202V14.9545H10.1328V15.6534C10.1328 16.1515 10.0268 16.5824 9.81463 16.946C9.60251 17.3097 9.31084 17.59 8.93963 17.7869C8.56842 17.982 8.14228 18.0795 7.66122 18.0795C7.12524 18.0795 6.65459 17.9593 6.24929 17.7188C5.84588 17.4763 5.53054 17.1326 5.30327 16.6875C5.07789 16.2405 4.9652 15.7102 4.9652 15.0966C4.9652 14.6269 5.03149 14.2074 5.16406 13.8381C5.29853 13.4688 5.48603 13.1553 5.72656 12.8977C5.96709 12.6383 6.24929 12.4413 6.57315 12.3068C6.89702 12.1705 7.24929 12.1023 7.62997 12.1023C7.95194 12.1023 8.25213 12.1496 8.53054 12.2443C8.80895 12.3371 9.05611 12.4697 9.27202 12.642C9.48982 12.8144 9.6688 13.0189 9.80895 13.2557C9.9491 13.4924 10.041 13.7538 10.0845 14.0398H9.01065ZM12.206 12.1818V18H11.152V12.1818H12.206ZM13.3473 18V12.1818H17.0746V13.0653H14.4013V14.6449H16.8189V15.5284H14.4013V18H13.3473Z" fill="white"/>
</svg>
