<svg width="28" height="28" viewBox="0 0 28 28" fill="none" xmlns="http://www.w3.org/2000/svg">
<path fill-rule="evenodd" clip-rule="evenodd" d="M3.3335 0C2.78121 0 2.3335 0.447715 2.3335 1V27C2.3335 27.5523 2.78121 28 3.3335 28H24.6668C25.2191 28 25.6668 27.5523 25.6668 27V4.66667L21.0002 0H3.3335Z" fill="#D0D3D9"/>
<path fill-rule="evenodd" clip-rule="evenodd" d="M21.0002 0V4.66667H25.6669L21.0002 0Z" fill="#989FAD"/>
<rect x="1.16675" y="12" width="25.6667" height="10" rx="1" fill="#6941C6"/>
<path d="M5.76918 14.1818H7.05895L8.78622 18.3977H8.8544L10.5817 14.1818H11.8714V20H10.8601V16.0028H10.8061L9.19815 19.983H8.44247L6.83452 15.9943H6.78054V20H5.76918V14.1818ZM13.0192 20V14.1818H15.201C15.648 14.1818 16.023 14.2652 16.326 14.4318C16.6309 14.5985 16.861 14.8277 17.0163 15.1193C17.1735 15.4091 17.2521 15.7386 17.2521 16.108C17.2521 16.4811 17.1735 16.8125 17.0163 17.1023C16.8591 17.392 16.6271 17.6203 16.3203 17.7869C16.0135 17.9517 15.6357 18.0341 15.1868 18.0341H13.7408V17.1676H15.0447C15.3061 17.1676 15.5201 17.1222 15.6868 17.0312C15.8535 16.9403 15.9766 16.8153 16.0561 16.6562C16.1375 16.4972 16.1783 16.3144 16.1783 16.108C16.1783 15.9015 16.1375 15.7197 16.0561 15.5625C15.9766 15.4053 15.8525 15.2831 15.6839 15.196C15.5173 15.107 15.3023 15.0625 15.0391 15.0625H14.0732V20H13.0192ZM20.1989 20.0795C19.7898 20.0795 19.4261 20.0095 19.108 19.8693C18.7917 19.7292 18.5417 19.5341 18.358 19.2841C18.1742 19.0341 18.0767 18.7453 18.0653 18.4176H19.1335C19.143 18.5748 19.1951 18.7121 19.2898 18.8295C19.3845 18.9451 19.5104 19.035 19.6676 19.0994C19.8248 19.1638 20.0009 19.196 20.196 19.196C20.4044 19.196 20.589 19.16 20.75 19.0881C20.911 19.0142 21.0369 18.9119 21.1278 18.7812C21.2188 18.6506 21.2633 18.5 21.2614 18.3295C21.2633 18.1534 21.2178 17.9981 21.125 17.8636C21.0322 17.7292 20.8977 17.6241 20.7216 17.5483C20.5473 17.4725 20.3371 17.4347 20.0909 17.4347H19.5767V16.6222H20.0909C20.2936 16.6222 20.4706 16.5871 20.6222 16.517C20.7756 16.447 20.8958 16.3485 20.983 16.2216C21.0701 16.0928 21.1127 15.9441 21.1108 15.7756C21.1127 15.6108 21.0758 15.4678 21 15.3466C20.9261 15.2235 20.821 15.1278 20.6847 15.0597C20.5502 14.9915 20.392 14.9574 20.2102 14.9574C20.0322 14.9574 19.8674 14.9896 19.7159 15.054C19.5644 15.1184 19.4422 15.2102 19.3494 15.3295C19.2566 15.447 19.2074 15.5871 19.2017 15.75H18.1875C18.1951 15.4242 18.2888 15.1383 18.4688 14.892C18.6506 14.6439 18.893 14.4508 19.196 14.3125C19.4991 14.1723 19.839 14.1023 20.2159 14.1023C20.6042 14.1023 20.9413 14.1752 21.2273 14.321C21.5152 14.465 21.7377 14.6591 21.8949 14.9034C22.0521 15.1477 22.1307 15.4176 22.1307 15.7131C22.1326 16.0407 22.036 16.3153 21.8409 16.5369C21.6477 16.7585 21.3939 16.9034 21.0795 16.9716V17.017C21.4886 17.0739 21.8021 17.2254 22.0199 17.4716C22.2396 17.7159 22.3485 18.0199 22.3466 18.3835C22.3466 18.7093 22.2538 19.0009 22.0682 19.2585C21.8845 19.5142 21.6307 19.715 21.3068 19.8608C20.9848 20.0066 20.6155 20.0795 20.1989 20.0795Z" fill="white"/>
</svg>
