<svg width="26" height="28" viewBox="0 0 26 28" fill="none" xmlns="http://www.w3.org/2000/svg">
<path fill-rule="evenodd" clip-rule="evenodd" d="M2.3335 0C1.78121 0 1.3335 0.447715 1.3335 1V27C1.3335 27.5523 1.78121 28 2.3335 28H23.6668C24.2191 28 24.6668 27.5523 24.6668 27V4.66667L20.0002 0H2.3335Z" fill="#D0D3D9"/>
<path fill-rule="evenodd" clip-rule="evenodd" d="M20.0002 0V4.66667H24.6669L20.0002 0Z" fill="#989FAD"/>
<rect x="0.166748" y="12" width="25.6667" height="10" rx="1" fill="#1671D9"/>
<path d="M5.01527 20V14.1818H7.19709C7.64406 14.1818 8.01906 14.2652 8.32209 14.4318C8.62701 14.5985 8.85713 14.8277 9.01243 15.1193C9.16963 15.4091 9.24822 15.7386 9.24822 16.108C9.24822 16.4811 9.16963 16.8125 9.01243 17.1023C8.85523 17.392 8.62322 17.6203 8.31641 17.7869C8.00959 17.9517 7.63175 18.0341 7.18288 18.0341H5.73686V17.1676H7.04084C7.3022 17.1676 7.51622 17.1222 7.68288 17.0312C7.84955 16.9403 7.97266 16.8153 8.0522 16.6562C8.13364 16.4972 8.17436 16.3144 8.17436 16.108C8.17436 15.9015 8.13364 15.7197 8.0522 15.5625C7.97266 15.4053 7.8486 15.2831 7.68004 15.196C7.51338 15.107 7.29841 15.0625 7.03516 15.0625H6.06925V20H5.01527ZM14.945 14.1818V20H14.0075L11.266 16.0369H11.2177V20H10.1637V14.1818H11.1069L13.8455 18.1477H13.8967V14.1818H14.945ZM19.9911 16.0398C19.9438 15.8864 19.8784 15.7491 19.7951 15.6278C19.7137 15.5047 19.6152 15.3996 19.4996 15.3125C19.386 15.2254 19.2553 15.16 19.1076 15.1165C18.9599 15.071 18.7989 15.0483 18.6246 15.0483C18.3121 15.0483 18.0337 15.1269 17.7894 15.2841C17.5451 15.4413 17.3529 15.6723 17.2127 15.9773C17.0745 16.2803 17.0053 16.6496 17.0053 17.0852C17.0053 17.5246 17.0745 17.8968 17.2127 18.2017C17.351 18.5066 17.5432 18.7386 17.7894 18.8977C18.0356 19.0549 18.3216 19.1335 18.6474 19.1335C18.9428 19.1335 19.1985 19.0767 19.4144 18.9631C19.6322 18.8494 19.7998 18.6884 19.9173 18.4801C20.0347 18.2699 20.0934 18.0237 20.0934 17.7415L20.332 17.7784H18.7525V16.9545H21.1133V17.6534C21.1133 18.1515 21.0072 18.5824 20.7951 18.946C20.583 19.3097 20.2913 19.59 19.9201 19.7869C19.5489 19.982 19.1228 20.0795 18.6417 20.0795C18.1057 20.0795 17.6351 19.9593 17.2298 19.7188C16.8263 19.4763 16.511 19.1326 16.2837 18.6875C16.0584 18.2405 15.9457 17.7102 15.9457 17.0966C15.9457 16.6269 16.012 16.2074 16.1445 15.8381C16.279 15.4688 16.4665 15.1553 16.707 14.8977C16.9476 14.6383 17.2298 14.4413 17.5536 14.3068C17.8775 14.1705 18.2298 14.1023 18.6104 14.1023C18.9324 14.1023 19.2326 14.1496 19.511 14.2443C19.7894 14.3371 20.0366 14.4697 20.2525 14.642C20.4703 14.8144 20.6493 15.0189 20.7894 15.2557C20.9296 15.4924 21.0214 15.7538 21.065 16.0398H19.9911Z" fill="white"/>
</svg>
