<svg width="28" height="28" viewBox="0 0 28 28" fill="none" xmlns="http://www.w3.org/2000/svg">
<path fill-rule="evenodd" clip-rule="evenodd" d="M3.3335 0C2.78121 0 2.3335 0.447715 2.3335 1V27C2.3335 27.5523 2.78121 28 3.3335 28H24.6668C25.2191 28 25.6668 27.5523 25.6668 27V4.66667L21.0002 0H3.3335Z" fill="#D0D3D9"/>
<path fill-rule="evenodd" clip-rule="evenodd" d="M21.0002 0V4.66667H25.6669L21.0002 0Z" fill="#989FAD"/>
<rect x="1.16675" y="12" width="25.6667" height="10" rx="1" fill="#0F973D"/>
<path d="M7.82955 14.1818L9.1108 16.3125H9.15625L10.4432 14.1818H11.6449L9.85227 17.0909L11.6733 20H10.4517L9.15625 17.8835H9.1108L7.81534 20H6.59943L8.4375 17.0909L6.62216 14.1818H7.82955ZM12.4723 20V14.1818H13.5263V19.1165H16.0888V20H12.4723ZM20.1655 15.7812C20.139 15.5331 20.0272 15.34 19.8303 15.2017C19.6352 15.0634 19.3814 14.9943 19.0689 14.9943C18.8492 14.9943 18.6607 15.0275 18.5036 15.0938C18.3464 15.16 18.2261 15.25 18.1428 15.3636C18.0594 15.4773 18.0168 15.607 18.0149 15.7528C18.0149 15.8741 18.0424 15.9792 18.0973 16.0682C18.1541 16.1572 18.2308 16.233 18.3274 16.2955C18.424 16.3561 18.531 16.4072 18.6484 16.4489C18.7659 16.4905 18.8842 16.5256 19.0036 16.554L19.549 16.6903C19.7687 16.7415 19.9799 16.8106 20.1825 16.8977C20.3871 16.9848 20.5698 17.0947 20.7308 17.2273C20.8937 17.3598 21.0225 17.5199 21.1172 17.7074C21.2119 17.8949 21.2592 18.1146 21.2592 18.3665C21.2592 18.7074 21.1721 19.0076 20.9979 19.267C20.8236 19.5246 20.5717 19.7263 20.2422 19.8722C19.9145 20.0161 19.5178 20.0881 19.0518 20.0881C18.5992 20.0881 18.2062 20.018 17.8729 19.8778C17.5414 19.7377 17.282 19.5331 17.0945 19.2642C16.9089 18.9953 16.8085 18.6676 16.7933 18.2812H17.8303C17.8454 18.4839 17.9079 18.6525 18.0178 18.7869C18.1276 18.9214 18.2706 19.0218 18.4467 19.0881C18.6248 19.1544 18.8236 19.1875 19.0433 19.1875C19.2725 19.1875 19.4732 19.1534 19.6456 19.0852C19.8198 19.0152 19.9562 18.9186 20.0547 18.7955C20.1532 18.6705 20.2034 18.5246 20.2053 18.358C20.2034 18.2064 20.1589 18.0814 20.0717 17.983C19.9846 17.8826 19.8625 17.7992 19.7053 17.733C19.55 17.6648 19.3681 17.6042 19.1598 17.5511L18.4979 17.3807C18.0187 17.2576 17.6399 17.071 17.3615 16.821C17.085 16.5691 16.9467 16.2348 16.9467 15.8182C16.9467 15.4754 17.0395 15.1752 17.2251 14.9176C17.4126 14.66 17.6674 14.4602 17.9893 14.3182C18.3113 14.1742 18.6759 14.1023 19.0831 14.1023C19.496 14.1023 19.8577 14.1742 20.1683 14.3182C20.4808 14.4602 20.7261 14.6581 20.9041 14.9119C21.0821 15.1638 21.174 15.4536 21.1797 15.7812H20.1655Z" fill="white"/>
</svg>
