<svg width="396" height="223" viewBox="0 0 396 223" fill="none" xmlns="http://www.w3.org/2000/svg">
<g filter="url(#filter0_dd_2641_26329)">
<rect x="327" y="144" width="42" height="42" rx="8.4" fill="#E6F7FE"/>
<rect x="327.525" y="144.525" width="40.95" height="40.95" rx="7.875" stroke="#00AAF7" stroke-width="1.05"/>
<path fill-rule="evenodd" clip-rule="evenodd" d="M344.821 166.06L345.724 165.613L344.886 166.172C344.14 166.67 343.8 167.593 344.047 168.455L345.024 171.869C345.497 173.525 347.673 173.905 348.68 172.507L356.611 161.5C357.65 160.057 356.499 158.063 354.73 158.242L341.232 159.607C339.518 159.78 338.759 161.854 339.957 163.092L342.424 165.645C343.048 166.29 344.017 166.457 344.821 166.06ZM345.718 167.42L354.913 161.29L347.463 171.63C347.188 172.012 346.595 171.908 346.466 171.456L345.489 168.043C345.422 167.808 345.515 167.556 345.718 167.42ZM344.156 164.715L354.063 159.817L341.383 161.099C340.915 161.146 340.708 161.712 341.035 162.05L343.503 164.602C343.673 164.778 343.937 164.824 344.156 164.715Z" fill="#004768"/>
</g>
<g filter="url(#filter1_dd_2641_26329)">
<rect x="252" y="144" width="42" height="42" rx="8.4" fill="#E6F7FE"/>
<rect x="252.525" y="144.525" width="40.95" height="40.95" rx="7.875" stroke="#00AAF7" stroke-width="1.05"/>
<path fill-rule="evenodd" clip-rule="evenodd" d="M273 158.875C271.067 158.875 269.5 160.442 269.5 162.375C269.5 164.308 271.067 165.875 273 165.875C274.933 165.875 276.5 164.308 276.5 162.375C276.5 160.442 274.933 158.875 273 158.875ZM271.25 162.375C271.25 161.409 272.034 160.625 273 160.625C273.967 160.625 274.75 161.409 274.75 162.375C274.75 163.341 273.967 164.125 273 164.125C272.034 164.125 271.25 163.341 271.25 162.375Z" fill="#004768"/>
<path fill-rule="evenodd" clip-rule="evenodd" d="M273 173.75C272.005 173.75 270.571 173.515 269.483 173.015C268.949 172.769 268.376 172.405 268.038 171.861C267.859 171.573 267.747 171.234 267.75 170.857C267.754 170.484 267.871 170.13 268.063 169.805C268.94 168.32 270.76 166.75 273 166.75C275.241 166.75 277.06 168.32 277.937 169.805C278.129 170.13 278.246 170.484 278.25 170.857C278.254 171.234 278.141 171.573 277.963 171.861C277.625 172.405 277.052 172.769 276.518 173.015C275.429 173.515 273.995 173.75 273 173.75ZM269.57 170.695C269.503 170.809 269.5 170.865 269.5 170.874C269.5 170.881 269.5 170.898 269.525 170.938C269.594 171.05 269.796 171.233 270.213 171.425C271.028 171.799 272.203 172 273 172C273.797 172 274.973 171.799 275.787 171.425C276.205 171.233 276.406 171.05 276.476 170.938C276.5 170.898 276.5 170.881 276.5 170.875C276.5 170.865 276.498 170.809 276.431 170.695C275.751 169.544 274.421 168.5 273 168.5C271.58 168.5 270.25 169.544 269.57 170.695Z" fill="#004768"/>
<path fill-rule="evenodd" clip-rule="evenodd" d="M264.688 165C264.688 163.55 265.863 162.375 267.313 162.375C268.762 162.375 269.938 163.55 269.938 165C269.938 166.45 268.762 167.625 267.313 167.625C265.863 167.625 264.688 166.45 264.688 165ZM267.313 164.125C266.829 164.125 266.438 164.517 266.438 165C266.438 165.483 266.829 165.875 267.313 165.875C267.796 165.875 268.188 165.483 268.188 165C268.188 164.517 267.796 164.125 267.313 164.125Z" fill="#004768"/>
<path d="M265.034 171.514C264.819 171.947 264.294 172.124 263.861 171.909C263.428 171.694 263.252 171.169 263.466 170.736C263.788 170.088 264.274 169.438 264.887 168.94C265.499 168.443 266.283 168.062 267.179 168.062C267.662 168.062 268.054 168.454 268.054 168.937C268.054 169.421 267.662 169.812 267.179 169.812C266.793 169.812 266.386 169.977 265.99 170.298C265.595 170.62 265.258 171.064 265.034 171.514Z" fill="#004768"/>
<path fill-rule="evenodd" clip-rule="evenodd" d="M276.334 165C276.334 163.55 277.509 162.375 278.959 162.375C280.409 162.375 281.584 163.55 281.584 165C281.584 166.45 280.409 167.625 278.959 167.625C277.509 167.625 276.334 166.45 276.334 165ZM278.959 164.125C278.476 164.125 278.084 164.517 278.084 165C278.084 165.483 278.476 165.875 278.959 165.875C279.442 165.875 279.834 165.483 279.834 165C279.834 164.517 279.442 164.125 278.959 164.125Z" fill="#004768"/>
<path d="M282.538 170.736C282.753 171.169 282.576 171.694 282.143 171.909C281.71 172.124 281.185 171.947 280.97 171.514C280.747 171.064 280.41 170.62 280.014 170.298C279.618 169.977 279.211 169.812 278.825 169.812C278.342 169.812 277.95 169.421 277.95 168.937C277.95 168.454 278.342 168.062 278.825 168.062C279.721 168.062 280.505 168.443 281.118 168.94C281.73 169.438 282.216 170.088 282.538 170.736Z" fill="#004768"/>
</g>
<g filter="url(#filter2_dd_2641_26329)">
<rect x="177" y="144" width="42" height="42" rx="8.4" fill="#E6F7FE"/>
<rect x="177.525" y="144.525" width="40.95" height="40.95" rx="7.875" stroke="#00AAF7" stroke-width="1.05"/>
<path d="M193.625 161.063C193.142 161.063 192.75 161.454 192.75 161.938C192.75 162.421 193.142 162.813 193.625 162.813H202.375C202.858 162.813 203.25 162.421 203.25 161.938C203.25 161.454 202.858 161.063 202.375 161.063H193.625Z" fill="#004768"/>
<path d="M192.75 165.875C192.75 165.392 193.142 165 193.625 165H196.25C196.733 165 197.125 165.392 197.125 165.875C197.125 166.358 196.733 166.75 196.25 166.75H193.625C193.142 166.75 192.75 166.358 192.75 165.875Z" fill="#004768"/>
<path d="M200.625 167.188C200.142 167.188 199.75 167.579 199.75 168.063C199.75 168.546 200.142 168.938 200.625 168.938H202.375C202.858 168.938 203.25 168.546 203.25 168.063C203.25 167.579 202.858 167.188 202.375 167.188H200.625Z" fill="#004768"/>
<path d="M199.75 170.25C199.75 169.767 200.142 169.375 200.625 169.375H204.125C204.608 169.375 205 169.767 205 170.25C205 170.733 204.608 171.125 204.125 171.125H200.625C200.142 171.125 199.75 170.733 199.75 170.25Z" fill="#004768"/>
<path fill-rule="evenodd" clip-rule="evenodd" d="M206.75 165.668V160.188C206.75 158.255 205.183 156.688 203.25 156.688H192.75C190.817 156.688 189.25 158.255 189.25 160.188V167.188C189.25 169.12 190.817 170.688 192.75 170.688H194.425C194.834 170.688 195.23 170.831 195.545 171.093L197.44 172.672C197.695 172.885 198.034 172.927 198.322 172.814C198.733 173.08 199.224 173.235 199.75 173.235H200.075C200.44 173.235 200.796 173.349 201.093 173.562L201.844 174.098C202.452 174.533 203.27 174.533 203.879 174.098L204.801 173.439C204.986 173.307 205.209 173.235 205.437 173.235C206.645 173.235 207.625 172.256 207.625 171.047V167.625C207.625 166.848 207.287 166.149 206.75 165.668ZM197.125 170.132V167.625C197.125 166.175 198.3 165 199.75 165H205V160.188C205 159.221 204.216 158.438 203.25 158.438H192.75C191.784 158.438 191 159.221 191 160.188V167.188C191 168.154 191.784 168.938 192.75 168.938H194.425C195.243 168.938 196.036 169.225 196.665 169.749L197.125 170.132ZM203.783 172.016C204.266 171.671 204.844 171.485 205.437 171.485C205.679 171.485 205.875 171.289 205.875 171.047V167.625C205.875 167.142 205.483 166.75 205 166.75H199.75C199.267 166.75 198.875 167.142 198.875 167.625V170.61C198.875 171.094 199.267 171.485 199.75 171.485H200.075C200.805 171.485 201.516 171.713 202.11 172.138L202.861 172.674L203.783 172.016Z" fill="#004768"/>
</g>
<g filter="url(#filter3_dd_2641_26329)">
<rect x="102" y="144" width="42" height="42" rx="8.4" fill="#E6F7FE"/>
<rect x="102.525" y="144.525" width="40.95" height="40.95" rx="7.875" stroke="#00AAF7" stroke-width="1.05"/>
<path d="M120.812 160.625C120.812 161.108 120.421 161.5 119.938 161.5H119.062C118.579 161.5 118.188 161.108 118.188 160.625C118.188 160.142 118.579 159.75 119.062 159.75H119.938C120.421 159.75 120.812 160.142 120.812 160.625Z" fill="#004768"/>
<path d="M123.438 164.125C123.921 164.125 124.312 163.733 124.312 163.25C124.312 162.767 123.921 162.375 123.438 162.375H122.562C122.079 162.375 121.688 162.767 121.688 163.25C121.688 163.733 122.079 164.125 122.562 164.125H123.438Z" fill="#004768"/>
<path d="M120.812 165.875C120.812 166.358 120.421 166.75 119.938 166.75H119.062C118.579 166.75 118.188 166.358 118.188 165.875C118.188 165.392 118.579 165 119.062 165H119.938C120.421 165 120.812 165.392 120.812 165.875Z" fill="#004768"/>
<path d="M123.438 161.5C123.921 161.5 124.312 161.108 124.312 160.625C124.312 160.142 123.921 159.75 123.438 159.75H122.562C122.079 159.75 121.688 160.142 121.688 160.625C121.688 161.108 122.079 161.5 122.562 161.5H123.438Z" fill="#004768"/>
<path d="M120.812 163.25C120.812 163.733 120.421 164.125 119.938 164.125H119.062C118.579 164.125 118.188 163.733 118.188 163.25C118.188 162.767 118.579 162.375 119.062 162.375H119.938C120.421 162.375 120.812 162.767 120.812 163.25Z" fill="#004768"/>
<path d="M123.438 166.75C123.921 166.75 124.312 166.358 124.312 165.875C124.312 165.392 123.921 165 123.438 165H122.562C122.079 165 121.688 165.392 121.688 165.875C121.688 166.358 122.079 166.75 122.562 166.75H123.438Z" fill="#004768"/>
<path d="M120.812 168.5C120.812 168.983 120.421 169.375 119.938 169.375H119.062C118.579 169.375 118.188 168.983 118.188 168.5C118.188 168.017 118.579 167.625 119.062 167.625H119.938C120.421 167.625 120.812 168.017 120.812 168.5Z" fill="#004768"/>
<path d="M123.438 169.375C123.921 169.375 124.312 168.983 124.312 168.5C124.312 168.017 123.921 167.625 123.438 167.625H122.562C122.079 167.625 121.688 168.017 121.688 168.5C121.688 168.983 122.079 169.375 122.562 169.375H123.438Z" fill="#004768"/>
<path fill-rule="evenodd" clip-rule="evenodd" d="M116 158.875C116 157.909 116.784 157.125 117.75 157.125H124.75C125.716 157.125 126.5 157.909 126.5 158.875V162.375H129.125C130.091 162.375 130.875 163.159 130.875 164.125V171.125H131.75C132.233 171.125 132.625 171.517 132.625 172C132.625 172.483 132.233 172.875 131.75 172.875H114.25C113.767 172.875 113.375 172.483 113.375 172C113.375 171.517 113.767 171.125 114.25 171.125H116V158.875ZM117.75 171.125H124.75V158.875H117.75V171.125ZM129.125 167.625V166.75H128.688C128.204 166.75 127.812 166.358 127.812 165.875C127.812 165.392 128.204 165 128.688 165H129.125V164.125H126.5V171.125H129.125V169.375H128.688C128.204 169.375 127.812 168.983 127.812 168.5C127.812 168.017 128.204 167.625 128.688 167.625H129.125Z" fill="#004768"/>
</g>
<g filter="url(#filter4_dd_2641_26329)">
<rect x="27" y="144" width="42" height="42" rx="8.4" fill="#E6F7FE"/>
<rect x="27.525" y="144.525" width="40.95" height="40.95" rx="7.875" stroke="#00AAF7" stroke-width="1.05"/>
<path fill-rule="evenodd" clip-rule="evenodd" d="M51.0625 156.25C49.8544 156.25 48.875 157.229 48.875 158.437V171.562C48.875 172.771 49.8544 173.75 51.0625 173.75H54.5625C55.7706 173.75 56.75 172.771 56.75 171.562V158.438C56.75 157.229 55.7706 156.25 54.5625 156.25H51.0625ZM50.625 158.437C50.625 158.196 50.8209 158 51.0625 158H54.5625C54.8041 158 55 158.196 55 158.438V171.562C55 171.804 54.8041 172 54.5625 172H51.0625C50.8209 172 50.625 171.804 50.625 171.562V158.437Z" fill="#004768"/>
<path fill-rule="evenodd" clip-rule="evenodd" d="M41.4375 164.125C40.2294 164.125 39.25 165.104 39.25 166.312V171.562C39.25 172.771 40.2294 173.75 41.4375 173.75H44.9375C46.1456 173.75 47.125 172.771 47.125 171.562V166.312C47.125 165.104 46.1456 164.125 44.9375 164.125H41.4375ZM41 166.312C41 166.071 41.1959 165.875 41.4375 165.875H44.9375C45.1791 165.875 45.375 166.071 45.375 166.312V171.562C45.375 171.804 45.1791 172 44.9375 172H41.4375C41.1959 172 41 171.804 41 171.562V166.312Z" fill="#004768"/>
</g>
<path d="M198 82.5V144" stroke="#00AAF7" stroke-width="0.75"/>
<rect x="168" y="24.3215" width="60" height="60" rx="12" fill="url(#paint0_linear_2641_26329)"/>
<path d="M205.348 59.1829C204.93 58.3617 204.409 57.5812 203.787 56.8542C203.491 56.5095 196.185 47.9742 196.093 47.8564C195.111 46.5288 194.7 44.9421 194.841 43.3972C194.901 42.6745 195.083 41.97 195.386 41.3019C195.768 40.4582 196.335 39.6874 197.085 39.0439C197.836 38.4004 198.685 37.9593 199.577 37.7109C201.788 37.1007 204.242 37.6917 205.933 39.4079C205.978 39.4507 206.02 39.4893 206.06 39.5364L206.064 39.5407C206.129 39.6071 206.19 39.6777 206.25 39.7495C206.311 39.8201 206.371 39.8908 206.428 39.9657L206.432 39.97C206.462 40.0053 206.488 40.0396 206.512 40.076L206.516 40.0814L212.81 47.4271V47.425C213.911 43.7334 213.217 39.5899 210.616 36.4026C210.616 36.4026 210.616 36.4015 210.615 36.4004C210.576 36.3448 210.527 36.288 210.478 36.2313L210.373 36.1082C210.325 36.0514 210.276 35.9947 210.227 35.9476C207.471 32.8844 203.482 31.5643 199.664 32.0943C198.337 32.2742 197.032 32.6799 195.811 33.318C194.998 33.7356 194.228 34.2495 193.506 34.8683C192.784 35.4872 192.158 36.1703 191.621 36.909C190.804 38.0182 190.198 39.2495 189.816 40.5342C189.472 41.6884 189.305 42.8875 189.314 44.0835C189.331 45.9186 189.763 47.7579 190.629 49.4378C191.046 50.2676 191.571 51.0534 192.202 51.789C192.497 52.1337 199.61 60.4334 199.61 60.4334C200.795 61.8156 201.296 63.5469 201.154 65.2246C201.089 65.9419 200.906 66.656 200.604 67.3241C200.227 68.1721 199.659 68.9526 198.904 69.5993C198.159 70.2385 197.309 70.6796 196.427 70.929C194.279 71.5265 191.9 70.9943 190.212 69.3969C190.133 69.3252 190.064 69.2535 189.991 69.1774C189.905 69.0875 189.579 68.7063 189.504 68.61L183.176 61.2054C182.1 64.8049 182.728 68.8391 185.172 71.9975C185.176 72.0018 185.176 72.0104 185.184 72.0115C185.188 72.0243 185.2 72.0382 185.217 72.0489C185.216 72.0575 185.224 72.0575 185.229 72.0629C185.245 72.0821 185.256 72.1057 185.278 72.1196C185.365 72.2416 185.461 72.3637 185.558 72.4772C185.659 72.5939 185.762 72.7031 185.867 72.8091L185.687 72.5982L185.868 72.8091C185.88 72.8316 185.9 72.8466 185.916 72.8658C185.92 72.8701 185.919 72.8798 185.928 72.8798L185.96 72.9172C185.96 72.9258 185.968 72.9269 185.972 72.9311C188.719 75.8315 192.612 77.0703 196.337 76.5457C197.664 76.3658 198.97 75.96 200.19 75.3219C200.993 74.9033 201.765 74.3894 202.482 73.7748C203.204 73.156 203.839 72.4643 204.373 71.7213C205.19 70.6121 205.793 69.3755 206.17 68.0875C206.513 66.9419 206.685 65.7471 206.672 64.5479C206.659 62.7096 206.219 60.8681 205.349 59.184L205.348 59.1829Z" fill="url(#paint1_linear_2641_26329)"/>
<path d="M185.18 57.8045L192.588 66.449C193.579 67.6053 195.323 67.7391 196.479 66.7488C197.059 66.2509 197.376 65.5711 197.439 64.8709C197.491 64.2049 197.305 63.5293 196.872 62.9672L189.18 53.9919C189.18 53.9919 189.185 53.9877 189.194 53.9887C188.371 52.9994 187.695 51.9341 187.16 50.8217C186.318 49.0958 185.817 47.2586 185.656 45.4C185.628 45.1291 185.61 44.8496 185.604 44.5766C185.613 44.4139 185.616 44.2554 185.598 44.0916L185.594 44.0873L185.589 44.083C185.593 44.0745 185.593 44.0688 185.59 44.0659L185.593 44.0391C185.528 43.5049 185.312 42.9867 184.941 42.552C184.884 42.4856 184.823 42.4235 184.762 42.3614C184.409 42.0167 183.973 41.7854 183.52 41.6666C182.673 41.4514 181.737 41.6398 181.024 42.2501C180.618 42.5981 180.338 43.0349 180.187 43.5081C180.124 43.7019 180.086 43.9053 180.066 44.1023C180.061 44.1066 180.069 44.1162 180.069 44.1162C180.07 44.3282 180.072 44.5306 180.083 44.7426C180.079 44.7469 180.083 44.7511 180.082 44.7597C180.1 45.2683 180.136 45.7683 180.19 46.28C180.281 47.1023 180.416 47.9192 180.601 48.7265C181.047 50.6686 181.764 52.5669 182.772 54.3549C183.4 55.4791 184.136 56.5583 184.992 57.5754C185.052 57.6547 185.116 57.7307 185.181 57.8056L185.18 57.8045Z" fill="url(#paint2_linear_2641_26329)"/>
<path d="M215.936 64.5427L215.933 64.5288C215.932 64.3168 215.929 64.1145 215.919 63.9025C215.923 63.8982 215.919 63.8939 215.92 63.8853C215.902 63.3768 215.865 62.8768 215.812 62.365C215.721 61.5427 215.586 60.7258 215.4 59.9186C214.955 57.9764 214.238 56.0781 213.229 54.2901C212.602 53.1659 211.865 52.0867 211.01 51.0696C210.95 50.9904 210.885 50.9144 210.82 50.8394L203.412 42.195C202.422 41.0387 200.678 40.9048 199.521 41.8952C198.941 42.393 198.624 43.0729 198.561 43.7731C198.51 44.439 198.696 45.1146 199.129 45.6767L206.82 54.652C206.82 54.652 206.816 54.6563 206.806 54.6552C207.63 55.6445 208.305 56.7098 208.841 57.8222C209.682 59.5481 210.183 61.3854 210.345 63.244C210.373 63.5149 210.391 63.7943 210.396 64.0673C210.388 64.2301 210.384 64.3885 210.403 64.5523L210.407 64.5566L210.411 64.5609C210.408 64.5695 210.407 64.5752 210.41 64.578L210.408 64.6048C210.472 65.1391 210.688 65.6573 211.06 66.0919C211.117 66.1583 211.178 66.2204 211.239 66.2825C211.591 66.6273 212.028 66.8585 212.481 66.9774C213.328 67.1926 214.263 67.0041 214.977 66.3939C215.382 66.0459 215.663 65.6091 215.814 65.1359C215.877 64.9421 215.914 64.7386 215.935 64.5416L215.936 64.5427Z" fill="url(#paint3_linear_2641_26329)"/>
<path d="M228 65.2499C228 65.2499 257.219 56.723 272.25 65.2499C298.744 80.2804 272.25 143.25 272.25 143.25M228 42.7499C228 42.7499 315.897 7.77328 345.75 42.7499C371.229 72.6026 345.75 143.25 345.75 143.25M167.25 42.7499C167.25 42.7499 77.3388 6.82258 47.2497 42.7499C22.05 72.8391 47.2497 143.25 47.2497 143.25M167.25 65.2499C167.25 65.2499 138.03 56.723 123 65.2499C96.5053 80.2804 123 143.25 123 143.25" stroke="#00AAF7" stroke-width="0.75"/>
<defs>
<filter id="filter0_dd_2641_26329" x="324.9" y="142.95" width="46.2" height="46.2" filterUnits="userSpaceOnUse" color-interpolation-filters="sRGB">
<feFlood flood-opacity="0" result="BackgroundImageFix"/>
<feColorMatrix in="SourceAlpha" type="matrix" values="0 0 0 0 0 0 0 0 0 0 0 0 0 0 0 0 0 0 127 0" result="hardAlpha"/>
<feMorphology radius="1.05" operator="dilate" in="SourceAlpha" result="effect1_dropShadow_2641_26329"/>
<feOffset/>
<feComposite in2="hardAlpha" operator="out"/>
<feColorMatrix type="matrix" values="0 0 0 0 0.72549 0 0 0 0 0.741176 0 0 0 0 0.780392 0 0 0 0.2 0"/>
<feBlend mode="normal" in2="BackgroundImageFix" result="effect1_dropShadow_2641_26329"/>
<feColorMatrix in="SourceAlpha" type="matrix" values="0 0 0 0 0 0 0 0 0 0 0 0 0 0 0 0 0 0 127 0" result="hardAlpha"/>
<feOffset dy="1.05"/>
<feGaussianBlur stdDeviation="1.05"/>
<feColorMatrix type="matrix" values="0 0 0 0 0.0627451 0 0 0 0 0.0941176 0 0 0 0 0.156863 0 0 0 0.1 0"/>
<feBlend mode="normal" in2="effect1_dropShadow_2641_26329" result="effect2_dropShadow_2641_26329"/>
<feBlend mode="normal" in="SourceGraphic" in2="effect2_dropShadow_2641_26329" result="shape"/>
</filter>
<filter id="filter1_dd_2641_26329" x="249.9" y="142.95" width="46.2" height="46.2" filterUnits="userSpaceOnUse" color-interpolation-filters="sRGB">
<feFlood flood-opacity="0" result="BackgroundImageFix"/>
<feColorMatrix in="SourceAlpha" type="matrix" values="0 0 0 0 0 0 0 0 0 0 0 0 0 0 0 0 0 0 127 0" result="hardAlpha"/>
<feMorphology radius="1.05" operator="dilate" in="SourceAlpha" result="effect1_dropShadow_2641_26329"/>
<feOffset/>
<feComposite in2="hardAlpha" operator="out"/>
<feColorMatrix type="matrix" values="0 0 0 0 0.72549 0 0 0 0 0.741176 0 0 0 0 0.780392 0 0 0 0.2 0"/>
<feBlend mode="normal" in2="BackgroundImageFix" result="effect1_dropShadow_2641_26329"/>
<feColorMatrix in="SourceAlpha" type="matrix" values="0 0 0 0 0 0 0 0 0 0 0 0 0 0 0 0 0 0 127 0" result="hardAlpha"/>
<feOffset dy="1.05"/>
<feGaussianBlur stdDeviation="1.05"/>
<feColorMatrix type="matrix" values="0 0 0 0 0.0627451 0 0 0 0 0.0941176 0 0 0 0 0.156863 0 0 0 0.1 0"/>
<feBlend mode="normal" in2="effect1_dropShadow_2641_26329" result="effect2_dropShadow_2641_26329"/>
<feBlend mode="normal" in="SourceGraphic" in2="effect2_dropShadow_2641_26329" result="shape"/>
</filter>
<filter id="filter2_dd_2641_26329" x="174.9" y="142.95" width="46.2" height="46.2" filterUnits="userSpaceOnUse" color-interpolation-filters="sRGB">
<feFlood flood-opacity="0" result="BackgroundImageFix"/>
<feColorMatrix in="SourceAlpha" type="matrix" values="0 0 0 0 0 0 0 0 0 0 0 0 0 0 0 0 0 0 127 0" result="hardAlpha"/>
<feMorphology radius="1.05" operator="dilate" in="SourceAlpha" result="effect1_dropShadow_2641_26329"/>
<feOffset/>
<feComposite in2="hardAlpha" operator="out"/>
<feColorMatrix type="matrix" values="0 0 0 0 0.72549 0 0 0 0 0.741176 0 0 0 0 0.780392 0 0 0 0.2 0"/>
<feBlend mode="normal" in2="BackgroundImageFix" result="effect1_dropShadow_2641_26329"/>
<feColorMatrix in="SourceAlpha" type="matrix" values="0 0 0 0 0 0 0 0 0 0 0 0 0 0 0 0 0 0 127 0" result="hardAlpha"/>
<feOffset dy="1.05"/>
<feGaussianBlur stdDeviation="1.05"/>
<feColorMatrix type="matrix" values="0 0 0 0 0.0627451 0 0 0 0 0.0941176 0 0 0 0 0.156863 0 0 0 0.1 0"/>
<feBlend mode="normal" in2="effect1_dropShadow_2641_26329" result="effect2_dropShadow_2641_26329"/>
<feBlend mode="normal" in="SourceGraphic" in2="effect2_dropShadow_2641_26329" result="shape"/>
</filter>
<filter id="filter3_dd_2641_26329" x="99.9" y="142.95" width="46.2" height="46.2" filterUnits="userSpaceOnUse" color-interpolation-filters="sRGB">
<feFlood flood-opacity="0" result="BackgroundImageFix"/>
<feColorMatrix in="SourceAlpha" type="matrix" values="0 0 0 0 0 0 0 0 0 0 0 0 0 0 0 0 0 0 127 0" result="hardAlpha"/>
<feMorphology radius="1.05" operator="dilate" in="SourceAlpha" result="effect1_dropShadow_2641_26329"/>
<feOffset/>
<feComposite in2="hardAlpha" operator="out"/>
<feColorMatrix type="matrix" values="0 0 0 0 0.72549 0 0 0 0 0.741176 0 0 0 0 0.780392 0 0 0 0.2 0"/>
<feBlend mode="normal" in2="BackgroundImageFix" result="effect1_dropShadow_2641_26329"/>
<feColorMatrix in="SourceAlpha" type="matrix" values="0 0 0 0 0 0 0 0 0 0 0 0 0 0 0 0 0 0 127 0" result="hardAlpha"/>
<feOffset dy="1.05"/>
<feGaussianBlur stdDeviation="1.05"/>
<feColorMatrix type="matrix" values="0 0 0 0 0.0627451 0 0 0 0 0.0941176 0 0 0 0 0.156863 0 0 0 0.1 0"/>
<feBlend mode="normal" in2="effect1_dropShadow_2641_26329" result="effect2_dropShadow_2641_26329"/>
<feBlend mode="normal" in="SourceGraphic" in2="effect2_dropShadow_2641_26329" result="shape"/>
</filter>
<filter id="filter4_dd_2641_26329" x="24.9" y="142.95" width="46.2" height="46.2" filterUnits="userSpaceOnUse" color-interpolation-filters="sRGB">
<feFlood flood-opacity="0" result="BackgroundImageFix"/>
<feColorMatrix in="SourceAlpha" type="matrix" values="0 0 0 0 0 0 0 0 0 0 0 0 0 0 0 0 0 0 127 0" result="hardAlpha"/>
<feMorphology radius="1.05" operator="dilate" in="SourceAlpha" result="effect1_dropShadow_2641_26329"/>
<feOffset/>
<feComposite in2="hardAlpha" operator="out"/>
<feColorMatrix type="matrix" values="0 0 0 0 0.72549 0 0 0 0 0.741176 0 0 0 0 0.780392 0 0 0 0.2 0"/>
<feBlend mode="normal" in2="BackgroundImageFix" result="effect1_dropShadow_2641_26329"/>
<feColorMatrix in="SourceAlpha" type="matrix" values="0 0 0 0 0 0 0 0 0 0 0 0 0 0 0 0 0 0 127 0" result="hardAlpha"/>
<feOffset dy="1.05"/>
<feGaussianBlur stdDeviation="1.05"/>
<feColorMatrix type="matrix" values="0 0 0 0 0.0627451 0 0 0 0 0.0941176 0 0 0 0 0.156863 0 0 0 0.1 0"/>
<feBlend mode="normal" in2="effect1_dropShadow_2641_26329" result="effect2_dropShadow_2641_26329"/>
<feBlend mode="normal" in="SourceGraphic" in2="effect2_dropShadow_2641_26329" result="shape"/>
</filter>
<linearGradient id="paint0_linear_2641_26329" x1="198" y1="84.3215" x2="198" y2="24.3215" gradientUnits="userSpaceOnUse">
<stop stop-color="#00E9C4"/>
<stop offset="1" stop-color="#00AAF7"/>
</linearGradient>
<linearGradient id="paint1_linear_2641_26329" x1="178.336" y1="68.1592" x2="215.662" y2="41.8828" gradientUnits="userSpaceOnUse">
<stop stop-color="#FDFEFF"/>
<stop offset="0.99" stop-color="#FDFEFF"/>
</linearGradient>
<linearGradient id="paint2_linear_2641_26329" x1="175.357" y1="63.9276" x2="212.683" y2="37.6512" gradientUnits="userSpaceOnUse">
<stop stop-color="#FDFEFF"/>
<stop offset="0.99" stop-color="#FDFEFF"/>
</linearGradient>
<linearGradient id="paint3_linear_2641_26329" x1="181.319" y1="72.3981" x2="218.645" y2="46.1217" gradientUnits="userSpaceOnUse">
<stop stop-color="#FDFEFF"/>
<stop offset="0.99" stop-color="#FDFEFF"/>
</linearGradient>
</defs>
</svg>
