<svg width="150" height="150" viewBox="0 0 150 150" fill="none" xmlns="http://www.w3.org/2000/svg">
<path d="M75 107.001C103.319 107.001 126.276 97.9954 126.276 86.886C126.276 75.7767 103.319 66.7708 75 66.7708C46.6809 66.7708 23.7236 75.7767 23.7236 86.886C23.7236 97.9954 46.6809 107.001 75 107.001Z" fill="#E6F7FE"/>
<path d="M126.092 37.5736L120.754 79.9805C120.592 81.2736 119.704 82.3583 118.471 82.7764L81.1223 95.4028V82.0944L111.107 59.4278L117.901 33.75H122.718C124.764 33.75 126.347 35.5444 126.092 37.5736Z" fill="#B0E5FD"/>
<path d="M81.1223 95.7167C81.0584 95.7167 80.9945 95.6973 80.9404 95.6584C80.8584 95.6001 80.8098 95.5056 80.8098 95.4042V82.0959C80.8098 81.9973 80.8556 81.9056 80.9334 81.8473L110.833 59.2445L117.6 33.6709C117.636 33.5334 117.76 33.439 117.903 33.439H122.72C123.785 33.439 124.799 33.8973 125.503 34.6959C126.207 35.4945 126.535 36.5584 126.401 37.614L121.064 80.0209C120.888 81.4223 119.908 82.6209 118.57 83.0737L81.2223 95.7001C81.1904 95.7112 81.1556 95.7167 81.1223 95.7167ZM81.4348 82.2501V94.9681L118.37 82.4806C119.482 82.1042 120.297 81.1084 120.443 79.9417L125.781 37.5348C125.892 36.657 125.618 35.7723 125.033 35.107C124.447 34.4431 123.604 34.0626 122.718 34.0626H118.142L111.41 59.5084C111.392 59.5765 111.351 59.6362 111.296 59.6779L81.4348 82.2501Z" fill="#E6F7FE"/>
<path d="M81.1237 82.0961L42.9834 76.7961L72.9681 55.478L111.108 59.428L81.1237 82.0961Z" fill="#00AAF7"/>
<path d="M81.1236 82.4085C81.1097 82.4085 81.0945 82.4071 81.0806 82.4057L42.9403 77.1071C42.8139 77.089 42.7097 76.996 42.6792 76.8724C42.6486 76.7474 42.6972 76.6182 42.8014 76.5432L72.7861 55.2252C72.8486 55.1807 72.9236 55.1613 73 55.1696L111.14 59.1196C111.268 59.1335 111.375 59.2224 111.41 59.346C111.444 59.4696 111.4 59.6016 111.297 59.6793L81.3125 82.346C81.257 82.3863 81.1903 82.4085 81.1236 82.4085ZM43.8056 76.5946L81.0375 81.7682L110.286 59.6585L73.0528 55.8029L43.8056 76.5946Z" fill="#E6F7FE"/>
<path d="M73.7652 58.0791L83.3444 59.0722L73.7625 58.0791H73.7652Z" fill="#B0E5FD"/>
<path d="M83.3458 59.3847C83.3347 59.3847 83.3235 59.3847 83.3138 59.3833L73.7319 58.3903C73.5666 58.3736 73.443 58.2292 73.4513 58.0639C73.461 57.8875 73.6208 57.7514 73.7972 57.7694L83.3777 58.7625C83.5499 58.7805 83.6736 58.9333 83.6569 59.1055C83.6388 59.2639 83.5027 59.3847 83.3458 59.3847Z" fill="#E6F7FE"/>
<path d="M104.447 61.257L98.3972 65.832L87.8125 64.7362L94.1958 60.1973H94.1972L104.447 61.257Z" fill="#B0E5FD"/>
<path d="M98.3972 66.1445C98.3861 66.1445 98.3764 66.1445 98.3653 66.1431L87.7806 65.0473C87.6514 65.0334 87.5431 64.9417 87.5111 64.8153C87.4778 64.6889 87.5264 64.557 87.632 64.4806L94.0153 59.9417C94.0764 59.8973 94.1556 59.8778 94.2306 59.8862L104.481 60.9473C104.608 60.9612 104.715 61.0501 104.75 61.1737C104.785 61.2973 104.74 61.4292 104.638 61.507L98.5875 66.082C98.532 66.1223 98.4653 66.1445 98.3972 66.1445ZM88.6695 64.5112L98.307 65.5098L103.626 61.4876L94.282 60.5209L88.6695 64.5112Z" fill="#E6F7FE"/>
<path d="M76.9596 63.6111L70.5735 68.1528L60.9929 67.1597L67.379 62.6208L76.9596 63.6111Z" fill="#B0E5FD"/>
<path d="M70.5735 68.4653C70.5624 68.4653 70.5527 68.4653 70.5415 68.4639L60.961 67.4709C60.8318 67.457 60.7235 67.3653 60.6915 67.2389C60.6582 67.1125 60.7068 66.9806 60.8124 66.9042L67.1985 62.3653C67.261 62.3209 67.336 62.3014 67.411 62.3097L76.9915 63.3C77.1207 63.3139 77.229 63.4056 77.261 63.532C77.2943 63.6584 77.2457 63.7903 77.1402 63.8667L70.754 68.4084C70.7013 68.4445 70.6374 68.4653 70.5735 68.4653ZM61.8499 66.9347L70.4888 67.8292L76.104 63.8361L67.4652 62.9431L61.8499 66.9347Z" fill="#E6F7FE"/>
<path d="M70.5737 68.153L64.1876 72.6932H64.1862L54.6084 71.7002L60.9931 67.1599L70.5737 68.153Z" fill="#B0E5FD"/>
<path d="M64.1876 73.0057C64.1765 73.0057 64.164 73.0057 64.1542 73.0043L54.5765 72.0112C54.4473 71.9973 54.339 71.9057 54.307 71.7793C54.2737 71.6529 54.3223 71.521 54.4279 71.4446L60.8126 66.9029C60.8751 66.8585 60.9501 66.839 61.0265 66.8473L70.607 67.8404C70.7362 67.8543 70.8445 67.946 70.8765 68.0723C70.9098 68.1987 70.8612 68.3307 70.7556 68.4071L64.3709 72.9487C64.3167 72.9862 64.2529 73.0057 64.1876 73.0057ZM55.464 71.4751L64.1029 72.3696L69.7167 68.3765L61.0779 67.4821L55.464 71.4751Z" fill="#E6F7FE"/>
<path d="M92.3472 70.4071L86.2958 74.9821L75.0388 73.8168L81.4263 69.2751L92.3472 70.4071Z" fill="#B0E5FD"/>
<path d="M86.2958 75.2946C86.2847 75.2946 86.275 75.2946 86.2638 75.2932L75.0083 74.1279C74.8791 74.114 74.7708 74.0224 74.7388 73.896C74.7069 73.7696 74.7541 73.6377 74.8597 73.5613L81.2458 69.0196C81.3083 68.9752 81.3833 68.9557 81.4597 68.964L92.3805 70.096C92.5083 70.1099 92.6152 70.1988 92.65 70.3224C92.6847 70.446 92.6402 70.5779 92.5375 70.6557L86.4861 75.2307C86.4291 75.2724 86.3625 75.2946 86.2958 75.2946ZM75.8958 73.5918L86.2055 74.6599L91.5263 70.6377L81.5111 69.6002L75.8958 73.5918Z" fill="#E6F7FE"/>
<path d="M86.2959 74.9819L80.3264 79.4944L69.2236 77.9514L75.0389 73.8167L86.2959 74.9819Z" fill="#B0E5FD"/>
<path d="M80.3264 79.807C80.3125 79.807 80.2972 79.8056 80.2833 79.8042L69.1805 78.2612C69.0541 78.2431 68.95 78.1501 68.9194 78.0265C68.8889 77.9015 68.9375 77.7723 69.0416 77.6973L74.8569 73.5626C74.9194 73.5181 74.9944 73.4987 75.0708 73.507L86.3264 74.6723C86.4541 74.6862 86.5611 74.7751 86.5958 74.8987C86.6305 75.0223 86.5861 75.1542 86.4833 75.232L80.5153 79.7445C80.4611 79.7848 80.3944 79.807 80.3264 79.807ZM70.0458 77.7501L80.2416 79.1667L85.4736 75.2112L75.1236 74.139L70.0458 77.7501Z" fill="#E6F7FE"/>
<path d="M75.0389 73.8167L69.2237 77.9514L58.8223 76.507L64.1862 72.6931H64.1875L75.0389 73.8167Z" fill="#B0E5FD"/>
<path d="M69.2236 78.264C69.2097 78.264 69.1944 78.2626 69.1806 78.2613L58.7792 76.8168C58.6528 76.7988 58.5486 76.7057 58.5181 76.5821C58.4875 76.4571 58.5361 76.3279 58.6403 76.2529L64.0042 72.439C64.0653 72.3946 64.1444 72.3751 64.2194 72.3835L75.0708 73.5071C75.2 73.521 75.3083 73.6126 75.3403 73.739C75.3736 73.8654 75.325 73.9974 75.2194 74.0738L69.4042 78.2085C69.3514 78.2446 69.2889 78.264 69.2236 78.264ZM59.6444 76.3057L69.1431 77.6251L74.1819 74.0418L64.2708 73.0154L59.6444 76.3057Z" fill="#E6F7FE"/>
<path d="M64.186 72.693L58.8222 76.5069L49.6416 75.2305L54.6083 71.7L64.186 72.693Z" fill="#B0E5FD"/>
<path d="M58.8221 76.8195C58.8082 76.8195 58.7929 76.8181 58.7791 76.8167L49.5985 75.5403C49.4721 75.5223 49.3679 75.4292 49.3374 75.3056C49.3068 75.1806 49.3554 75.0514 49.4596 74.9764L54.4263 71.4459C54.4888 71.4014 54.5638 71.382 54.6402 71.3903L64.2179 72.3834C64.3471 72.3973 64.4554 72.4889 64.4874 72.6153C64.5207 72.7417 64.4721 72.8736 64.3666 72.95L59.0027 76.7639C58.9499 76.8 58.8874 76.8195 58.8221 76.8195ZM50.4638 75.0292L58.7416 76.1806L63.3291 72.9195L54.6916 72.025L50.4638 75.0292Z" fill="#E6F7FE"/>
<path d="M94.1958 60.1973L83.3472 59.0723L94.1972 60.1945H94.1999L104.447 61.257L94.1972 60.1973H94.1958Z" fill="#B0E5FD"/>
<path d="M104.449 61.5695C104.438 61.5695 104.426 61.5695 104.417 61.5681L94.1751 60.5084C94.1723 60.5084 94.1681 60.5084 94.1653 60.507L83.3153 59.382C83.1431 59.364 83.0195 59.2112 83.0362 59.039C83.0528 58.8667 83.2084 58.7431 83.3792 58.7598L83.3917 58.7612L94.2223 59.882C94.2251 59.882 94.2292 59.882 94.232 59.8834L104.481 60.9459C104.653 60.964 104.776 61.1167 104.76 61.289C104.742 61.4501 104.606 61.5695 104.449 61.5695Z" fill="#E6F7FE"/>
<path d="M72.8333 55.4779L82.118 32.3057L117.901 33.7501L111.108 59.4293L72.8333 55.4779Z" fill="#00AAF7"/>
<path d="M111.108 59.7417C111.097 59.7417 111.087 59.7417 111.076 59.7403L72.8014 55.7903C72.7042 55.7806 72.6167 55.725 72.5667 55.6417C72.5153 55.5584 72.5069 55.4556 72.5444 55.3639L81.8292 32.1917C81.8778 32.0695 82 31.9903 82.1319 31.9959L117.915 33.4403C118.01 33.4445 118.097 33.4903 118.154 33.5667C118.211 33.6431 118.229 33.7403 118.204 33.832L111.411 59.5098C111.374 59.6473 111.249 59.7417 111.108 59.7417ZM73.2778 55.2098L110.875 59.0903L117.5 34.0473L82.3264 32.6278L73.2778 55.2098Z" fill="#E6F7FE"/>
<path d="M76.1155 54.0792L84.0474 34.282L114.62 35.5153L108.815 57.4542L76.1155 54.0792Z" fill="#E6F7FE"/>
<path d="M108.815 57.7666C108.804 57.7666 108.795 57.7666 108.783 57.7652L76.0834 54.3889C75.9862 54.3791 75.8987 54.3236 75.8487 54.2402C75.7987 54.1569 75.789 54.0541 75.8265 53.9625L83.7584 34.1652C83.8071 34.043 83.9293 33.9625 84.0612 33.9694L114.633 35.2041C114.728 35.2083 114.815 35.2541 114.872 35.3305C114.929 35.4069 114.947 35.5041 114.922 35.5958L109.118 57.5333C109.081 57.6722 108.956 57.7666 108.815 57.7666ZM76.5598 53.8097L108.582 57.1152L114.218 35.8125L84.2557 34.6027L76.5598 53.8097Z" fill="#E6F7FE"/>
<path d="M42.9834 76.7959V90.1042L81.1223 95.4042V82.0945L42.9834 76.7959Z" fill="#00AAF7"/>
<path d="M81.1222 95.7168C81.1083 95.7168 81.093 95.7154 81.0792 95.714L42.9403 90.4154C42.7861 90.3946 42.6708 90.2613 42.6708 90.1057L42.6694 76.7974C42.6694 76.7071 42.7083 76.621 42.7764 76.5613C42.8444 76.5015 42.9347 76.4752 43.025 76.4877L81.1639 81.7863C81.318 81.8071 81.4333 81.9404 81.4333 82.096V95.4043C81.4333 95.4946 81.3944 95.5807 81.3264 95.6404C81.2708 95.689 81.1972 95.7168 81.1222 95.7168ZM43.2958 89.8321L80.8097 95.0446V82.3668L43.2958 77.1543V89.8321Z" fill="#E6F7FE"/>
<path d="M76.711 86.3918V88.1029L46.918 84.3363V82.6238L76.711 86.3918Z" fill="#00AAF7"/>
<path d="M77.0235 88.457L46.6055 84.6126V82.2695L77.0235 86.1167V88.457ZM47.2305 84.0612L76.3985 87.7487V86.6667L47.2305 82.9779V84.0612Z" fill="#00AAF7"/>
<path d="M13.6013 120.418C19.2999 118.967 25.0013 117.534 30.2263 114.738C35.4944 111.92 38.8583 107.785 40.4874 102.034C41.7777 97.4752 42.3444 92.7002 44.9805 88.6877C46.8902 85.7807 49.8471 83.8516 49.8471 83.8516L74.2541 86.9377C71.711 89.6682 69.5235 92.7807 67.636 95.9905C65.9069 98.9307 64.3596 101.689 63.4721 105.013C62.568 108.399 62.0194 111.934 60.386 115.075C58.7485 118.224 56.0985 120.759 53.1485 122.731C47.4249 126.557 40.7041 128.897 34.0763 130.585C34.0763 130.584 13.6013 120.418 13.6013 120.418Z" fill="#B0E5FD"/>
<path d="M34.0764 130.896C34.0292 130.896 33.9806 130.885 33.9375 130.864L13.6931 120.813C13.3833 120.658 13.2417 120.589 13.2972 120.347C13.3236 120.233 13.4111 120.145 13.525 120.115L13.7181 120.067C19.2389 118.661 24.9486 117.208 30.0806 114.463C35.2861 111.678 38.5931 107.585 40.1875 101.949C40.5167 100.786 40.8042 99.589 41.0806 98.4293C41.8917 95.0446 42.7292 91.5446 44.7194 88.5154C46.6431 85.5876 49.5542 83.6682 49.6764 83.589C49.7389 83.5488 49.8125 83.5307 49.8861 83.5404L74.293 86.6265C74.4097 86.6418 74.5083 86.7196 74.5472 86.8307C74.5875 86.9404 74.5625 87.064 74.4819 87.1501C72.1653 89.6376 69.9528 92.6654 67.9056 96.1488C66.1583 99.1224 64.6417 101.847 63.7736 105.093C63.5486 105.933 63.343 106.8 63.1431 107.638C62.5347 110.189 61.9069 112.827 60.6625 115.22C59.1472 118.132 56.6778 120.747 53.3208 122.99C48.3486 126.314 42.2583 128.824 34.1514 130.888C34.1278 130.893 34.1014 130.896 34.0764 130.896ZM14.4958 120.514C18.0181 122.263 32.7319 129.567 34.1111 130.253C42.0903 128.213 48.0861 125.739 52.975 122.471C56.2431 120.286 58.6431 117.75 60.1083 114.931C61.3167 112.607 61.9361 110.007 62.5361 107.493C62.7361 106.652 62.9444 105.781 63.1708 104.932C64.0583 101.61 65.5958 98.846 67.368 95.8321C69.318 92.5154 71.418 89.6043 73.6167 87.1724L49.9264 84.1779C49.4139 84.5307 46.9056 86.3307 45.2431 88.8613C43.3125 91.8001 42.4875 95.246 41.6889 98.5779C41.4097 99.7432 41.1208 100.947 40.7889 102.121C39.1444 107.928 35.7389 112.146 30.375 115.015C25.3694 117.69 19.8569 119.146 14.4958 120.514Z" fill="#E6F7FE"/>
<path d="M87.8124 64.7363L81.4263 69.2752L70.5735 68.153L76.9596 63.6113L87.8124 64.7363Z" fill="#B0E5FD"/>
<path d="M81.4263 69.5876C81.4152 69.5876 81.4054 69.5876 81.3943 69.5863L70.5416 68.4626C70.4124 68.4488 70.3041 68.3571 70.2721 68.2307C70.2388 68.1043 70.2874 67.9724 70.3929 67.896L76.7791 63.3543C76.8416 63.3099 76.9166 63.2904 76.9929 63.2988L87.8457 64.4238C87.9749 64.4376 88.0832 64.5293 88.1152 64.6557C88.1471 64.7821 88.0999 64.914 87.9943 64.9904L81.6082 69.5293C81.5541 69.5682 81.4902 69.5876 81.4263 69.5876ZM71.4291 67.9265L81.3402 68.9529L86.9554 64.9613L77.0443 63.9335L71.4291 67.9265Z" fill="#E6F7FE"/>
<path d="M94.1987 60.1974V60.1943H94.2003" fill="#B0E5FD"/>
<path d="M94.1987 60.5083C94.0265 60.5083 93.8862 60.3694 93.8862 60.1972V60.1958C93.8862 60.0236 94.0265 59.8833 94.1987 59.8833C94.371 59.8833 94.5126 60.0236 94.5126 60.1958C94.5126 60.3222 94.4376 60.4305 94.3307 60.4805C94.289 60.4986 94.2446 60.5083 94.1987 60.5083Z" fill="#E6F7FE"/>
<path d="M83.3444 59.0722L76.9597 63.611L67.3792 62.6208L73.7625 58.0791L83.3444 59.0722Z" fill="#B0E5FD"/>
<path d="M76.9597 63.9236C76.9486 63.9236 76.9389 63.9236 76.9278 63.9222L67.3472 62.932C67.2181 62.9181 67.1097 62.8264 67.0778 62.7014C67.0444 62.575 67.0931 62.4431 67.1986 62.3667L73.5819 57.825C73.6444 57.7806 73.7194 57.7611 73.7958 57.7695L83.3778 58.7625C83.5069 58.7764 83.6153 58.8681 83.6472 58.9945C83.6792 59.1209 83.6319 59.2528 83.5264 59.3292L77.1417 63.8681C77.0875 63.9028 77.025 63.9236 76.9597 63.9236ZM68.2361 62.3945L76.875 63.2875L82.4889 59.2972L73.8486 58.4028L68.2361 62.3945Z" fill="#E6F7FE"/>
<path d="M94.1958 60.1973L87.8125 64.7362L76.9597 63.6112L83.3444 59.0723H83.3472L94.1958 60.1973Z" fill="#B0E5FD"/>
<path d="M87.8125 65.0487C87.8014 65.0487 87.7917 65.0487 87.7806 65.0473L76.9278 63.9223C76.7986 63.9084 76.6903 63.8167 76.6583 63.6903C76.625 63.5639 76.6736 63.432 76.7792 63.3556L83.1639 58.8167C83.225 58.7723 83.3042 58.7528 83.3792 58.7612L94.2292 59.8862C94.3583 59.9001 94.4667 59.9917 94.4986 60.1181C94.532 60.2445 94.4833 60.3764 94.3778 60.4528L87.9945 64.9917C87.9403 65.0292 87.8778 65.0487 87.8125 65.0487ZM77.8167 63.3862L87.7278 64.4139L93.3403 60.4223L83.4306 59.3945L77.8167 63.3862Z" fill="#E6F7FE"/>
<path d="M98.3971 65.8319L92.3471 70.4069L81.4263 69.275L87.8124 64.7361L98.3971 65.8319Z" fill="#B0E5FD"/>
<path d="M92.3471 70.7194C92.336 70.7194 92.3263 70.7194 92.3152 70.718L81.3943 69.5861C81.2652 69.5722 81.1568 69.4805 81.1249 69.3541C81.0916 69.2278 81.1402 69.0958 81.2457 69.0194L87.6318 64.4805C87.6943 64.4361 87.7693 64.4166 87.8457 64.425L98.4305 65.5208C98.5582 65.5347 98.6652 65.6236 98.6999 65.7472C98.7346 65.8708 98.6902 66.0028 98.5874 66.0805L92.5374 70.6555C92.4805 70.6972 92.4152 70.7194 92.3471 70.7194ZM82.2832 69.05L92.2568 70.0833L97.5763 66.0611L87.8985 65.0583L82.2832 69.05Z" fill="#E6F7FE"/>
<path d="M81.4264 69.2751L75.0389 73.8167L64.1875 72.6931L70.5736 68.1528L81.4264 69.2751Z" fill="#B0E5FD"/>
<path d="M75.0389 74.1291C75.0278 74.1291 75.0181 74.1291 75.007 74.1278L64.1556 73.0042C64.0264 72.9903 63.9181 72.8986 63.8861 72.7722C63.8528 72.6458 63.9014 72.5139 64.007 72.4375L70.3917 67.8958C70.4542 67.8514 70.5292 67.8319 70.6056 67.8403L81.4583 68.9639C81.5875 68.9778 81.6958 69.0694 81.7278 69.1958C81.7611 69.3222 81.7125 69.4542 81.607 69.5305L75.2208 74.0722C75.1681 74.1083 75.1042 74.1291 75.0389 74.1291ZM65.0445 72.468L74.9542 73.4944L80.5695 69.5014L70.6583 68.475L65.0445 72.468Z" fill="#E6F7FE"/>
<path d="M106.535 40.4611C106.524 40.4611 106.511 40.4611 106.5 40.4597L89.9444 39.4305C89.6388 39.4111 89.4055 39.1472 89.425 38.8416C89.4444 38.5361 89.7069 38.3027 90.0138 38.3222L106.571 39.3527C106.876 39.3722 107.11 39.6361 107.09 39.9416C107.071 40.2347 106.826 40.4611 106.535 40.4611Z" fill="#B0E5FD"/>
<path d="M104.847 44.5889C104.836 44.5889 104.823 44.5889 104.812 44.5875L88.2554 43.557C87.9499 43.5375 87.7166 43.2736 87.736 42.9681C87.7554 42.6625 88.0179 42.4292 88.3249 42.4486L104.882 43.4792C105.187 43.4986 105.421 43.7625 105.401 44.0681C105.383 44.3611 105.139 44.5889 104.847 44.5889Z" fill="#B0E5FD"/>
<path d="M65.1348 94.1515C65.1057 94.1515 65.0751 94.1488 65.0446 94.1446L46.8279 91.1627C46.5251 91.1127 46.3196 90.8279 46.3696 90.5252C46.4196 90.2224 46.7043 90.0168 47.0071 90.0668L65.2237 93.0488C65.5265 93.0988 65.7321 93.3835 65.6821 93.6863C65.6376 93.9571 65.4029 94.1515 65.1348 94.1515Z" fill="#B0E5FD"/>
<path d="M63.5944 97.3682C63.5653 97.3682 63.5375 97.3654 63.5083 97.3612L45.4139 94.5335C45.1111 94.4862 44.9028 94.2015 44.9514 93.8987C45 93.596 45.2833 93.3876 45.5861 93.4362L63.6805 96.264C63.9833 96.3112 64.1917 96.596 64.143 96.8987C64.1 97.1724 63.8625 97.3682 63.5944 97.3682Z" fill="#B0E5FD"/>
<path d="M61.8153 100.933C61.7861 100.933 61.757 100.931 61.7264 100.927L44.4125 98.1585C44.1097 98.1099 43.9028 97.8252 43.9514 97.5224C44 97.2196 44.2847 97.0127 44.5875 97.0613L61.9014 99.8293C62.2042 99.8779 62.4111 100.163 62.3625 100.465C62.3195 100.739 62.0834 100.933 61.8153 100.933Z" fill="#B0E5FD"/>
<path d="M60.6001 104.499C60.5709 104.499 60.5418 104.496 60.5112 104.492L43.4946 101.772C43.1918 101.724 42.9848 101.439 43.0334 101.136C43.0821 100.833 43.3668 100.626 43.6696 100.675L60.6862 103.394C60.989 103.443 61.1959 103.728 61.1473 104.031C61.1043 104.303 60.8682 104.499 60.6001 104.499Z" fill="#B0E5FD"/>
<path d="M103.16 48.7154C103.148 48.7154 103.136 48.7154 103.125 48.714L86.5679 47.6834C86.2624 47.664 86.0291 47.4001 86.0485 47.0945C86.0679 46.789 86.3304 46.5557 86.6374 46.5751L103.194 47.6057C103.5 47.6251 103.733 47.889 103.714 48.1946C103.696 48.489 103.451 48.7154 103.16 48.7154Z" fill="#B0E5FD"/>
<path d="M101.472 52.8416C101.461 52.8416 101.448 52.8416 101.437 52.8402L84.8804 51.8097C84.5749 51.7902 84.3416 51.5263 84.361 51.2208C84.3804 50.9152 84.6429 50.6819 84.9499 50.7013L101.507 51.7319C101.812 51.7513 102.046 52.0152 102.026 52.3208C102.008 52.6152 101.762 52.8416 101.472 52.8416Z" fill="#B0E5FD"/>
<path d="M132.049 46.814L132.358 48.7487C132.545 49.9084 133.34 50.8167 134.486 51.1751L136.399 51.7709L134.296 52.3667C133.038 52.7251 131.951 53.632 131.395 54.7931L130.468 56.7279L130.157 54.7931C129.971 53.6334 129.175 52.7251 128.029 52.3667L126.118 51.7709L128.22 51.1751C129.478 50.8167 130.564 49.9098 131.121 48.7487L132.049 46.814Z" fill="#00AAF7"/>
<path d="M71.3863 39.2112L71.6238 40.6945C71.7669 41.5834 72.3766 42.2806 73.2558 42.5542L74.7224 43.0112L73.1099 43.4695C72.1447 43.7431 71.3127 44.439 70.8849 45.3278L70.1738 46.8126L69.9363 45.3278C69.7933 44.439 69.1822 43.7431 68.3044 43.4695L66.8391 43.0112L68.4502 42.5542C69.4155 42.2806 70.2474 41.5834 70.6752 40.6945L71.3863 39.2112Z" fill="#00AAF7"/>
<path d="M111.446 87.3083L111.578 88.1361C111.659 88.6306 111.999 89.0195 112.488 89.1722L113.304 89.4278L112.407 89.6833C111.868 89.8361 111.404 90.225 111.167 90.7195L110.771 91.5472L110.639 90.7195C110.559 90.225 110.22 89.8361 109.731 89.6833L108.914 89.4278L109.813 89.1722C110.352 89.0195 110.814 88.6306 111.052 88.1361L111.446 87.3083Z" fill="#00AAF7"/>
<path d="M36.7751 89.4265L36.9071 90.2529C36.9862 90.7487 37.3265 91.1362 37.8168 91.289L38.6334 91.5446L37.7362 91.8001C37.1973 91.9529 36.7334 92.3418 36.4959 92.8376L36.1001 93.664L35.9682 92.8376C35.8904 92.3418 35.5487 91.9543 35.0598 91.8001L34.2432 91.5446L35.1404 91.289C35.6793 91.1376 36.1432 90.7487 36.3793 90.2529L36.7751 89.4265Z" fill="#00AAF7"/>
</svg>
