<svg width="44" height="44" viewBox="0 0 44 44" fill="none" xmlns="http://www.w3.org/2000/svg">
<g id="&#240;&#159;&#166;&#134; icon &#34;grafana&#34;">
<path id="Vector" d="M37.4 0H6.6C2.95492 0 0 2.95492 0 6.6V37.4C0 41.0451 2.95492 44 6.6 44H37.4C41.0451 44 44 41.0451 44 37.4V6.6C44 2.95492 41.0451 0 37.4 0Z" fill="black"/>
<path id="Vector_2" d="M33.5156 12.5469C33.9453 10.6563 32.9141 9.10938 32.9141 9.10938C31.1953 8.9375 29.9922 9.625 29.6484 9.96875C28.5312 9.45313 27.4141 9.19531 26.2969 9.02344C25.5234 6.53125 23.2891 5.5 23.2891 5.5C21.8668 6.37949 20.8247 7.7588 20.3672 9.36719C18.9922 9.79688 17.7031 10.3984 16.6719 11.1719C14.6094 10.3125 12.1172 10.3984 10.0547 11.3438C9.79688 15.0391 11.4297 17.3594 11.7734 17.7031C11.3438 18.9063 11 20.1953 10.9141 21.3125C7.73438 22.9453 6.78906 26.125 6.78906 26.125C8.16406 27.5859 10.4844 29.3906 12.5469 29.3906C13.1484 30.4219 13.8359 31.2813 14.6094 32.1406C13.6641 34.8906 14.6953 37.125 14.6953 37.125C17.7031 37.2969 19.5938 35.8359 20.0234 35.5781C21.6562 36.0078 23.2031 36.3516 24.8359 36.2656C25.7812 37.4688 27.1562 38.2422 28.7031 38.5C29.6484 37.125 30.5078 35.6641 30.5078 34.2891C31.7109 33.4297 32.7422 32.3125 33.5156 31.1094C35.4062 31.2813 36.8672 29.9063 36.8672 29.9063C36.6094 28.7031 36.0078 27.3281 34.9766 26.6406C35.2344 24.6641 34.8047 22.6875 33.8594 21.0547C32.2266 18.4766 29.4766 17.0156 26.5547 17.0156C24.5781 17.0156 22.7734 17.9609 21.5703 19.3359C20.9143 20.0902 20.4537 20.9941 20.2289 21.9681C20.0041 22.9421 20.0221 23.9564 20.2812 24.9219C20.7109 26.5547 22.0859 27.9297 23.5469 28.2734C25.0078 28.6172 26.4688 28.4453 27.2422 27.6719C27.5 27.4141 27.1562 26.9844 26.8125 27.1563C26.2109 27.4141 25.6094 27.5 24.9219 27.4141C19.8516 26.6406 21.0547 20.0234 25.7812 19.7656C26.7266 19.5938 28.0156 20.0234 28.7891 20.3672C31.5391 22.1719 32.1406 24.8359 31.0234 27.5859C30.4119 28.8229 29.4873 29.8783 28.3415 30.6472C27.1957 31.4161 25.8686 31.8717 24.4922 31.9688C22.9453 31.9688 21.4844 31.5391 20.2812 30.9375C17.3594 29.2188 15.4688 26.3828 15.2969 23.0313C15.0391 16.5 18.8203 13.5781 23.0312 12.6328C25.5234 12.1172 28.2734 12.375 30.5078 13.4922C33.6016 15.0391 35.75 17.9609 36.6953 21.3125C36.7812 21.6563 37.2109 21.6563 37.2109 21.2266C37.2109 17.9609 35.75 14.7813 33.5156 12.5469Z" fill="url(#paint0_linear_223_2179)"/>
</g>
<defs>
<linearGradient id="paint0_linear_223_2179" x1="1408.63" y1="5074.3" x2="1408.63" y2="16732.5" gradientUnits="userSpaceOnUse">
<stop stop-color="#F05A28"/>
<stop offset="1" stop-color="#FBCA0A"/>
</linearGradient>
</defs>
</svg>
