<svg width="22" height="37" viewBox="0 0 22 37" fill="none" xmlns="http://www.w3.org/2000/svg">
<path d="M0.330078 6.33008C0.330078 5.77779 0.777793 5.33008 1.33008 5.33008H15.9192C16.1854 5.33008 16.4406 5.43622 16.6283 5.62499L21.3792 10.4031C21.5655 10.5905 21.6701 10.8439 21.6701 11.1082V30.6701C21.6701 31.2224 21.2224 31.6701 20.6701 31.6701H1.33008C0.777792 31.6701 0.330078 31.2224 0.330078 30.6701V6.33008Z" fill="white" stroke="#D9D9DB" stroke-width="0.66"/>
<path d="M16 5.33008C16.2145 5.33008 16.4201 5.4156 16.5713 5.56769L21.4554 10.4797C21.5929 10.618 21.6701 10.8051 21.6701 11.0001H17C16.4477 11.0001 16 10.5524 16 10.0001V5.33008Z" fill="#EFEFEF" stroke="#D9D9DB" stroke-width="0.66"/>
<path d="M5.28516 23.4062V17.7891H5.96484V18.4609H6.02734C6.28516 17.9922 6.75391 17.7148 7.33984 17.7148C8.40625 17.7148 9.10547 18.5781 9.10547 19.8906V19.8984C9.10547 21.2188 8.41016 22.0742 7.33984 22.0742C6.76172 22.0742 6.25781 21.7852 6.02734 21.3359H5.96484V23.4062H5.28516ZM7.18359 21.4727C7.95312 21.4727 8.41016 20.8789 8.41016 19.8984V19.8906C8.41016 18.9102 7.95312 18.3164 7.18359 18.3164C6.41797 18.3164 5.94922 18.918 5.94922 19.8906V19.8984C5.94922 20.8711 6.41797 21.4727 7.18359 21.4727ZM11.7227 22.0742C10.6562 22.0742 9.95703 21.2109 9.95703 19.8984V19.8906C9.95703 18.5703 10.6523 17.7148 11.7227 17.7148C12.3008 17.7148 12.8047 18.0039 13.0352 18.4531H13.0977V16.1172H13.7773V22H13.0977V21.3281H13.0352C12.7773 21.7969 12.3086 22.0742 11.7227 22.0742ZM11.8789 21.4727C12.6445 21.4727 13.1133 20.8711 13.1133 19.8984V19.8906C13.1133 18.918 12.6445 18.3164 11.8789 18.3164C11.1094 18.3164 10.6523 18.9102 10.6523 19.8906V19.8984C10.6523 20.8789 11.1094 21.4727 11.8789 21.4727ZM15.3633 22V18.3516H14.6641V17.7891H15.3633V17.3203C15.3633 16.4805 15.7852 16.0781 16.5859 16.0781C16.75 16.0781 16.8984 16.0898 17.0391 16.1172V16.6602C16.957 16.6445 16.8438 16.6406 16.7227 16.6406C16.2383 16.6406 16.043 16.8789 16.043 17.3398V17.7891H17V18.3516H16.043V22H15.3633Z" fill="#EB362B"/>
</svg>
