<svg width="313" height="313" viewBox="0 0 313 313" fill="none" xmlns="http://www.w3.org/2000/svg">
<path d="M313 156.5C313 242.933 242.933 313 156.5 313C70.0674 313 0 242.933 0 156.5C0 70.0674 70.0674 0 156.5 0C242.933 0 313 70.0674 313 156.5ZM30.4287 156.5C30.4287 226.127 86.8727 282.571 156.5 282.571C226.127 282.571 282.571 226.127 282.571 156.5C282.571 86.8727 226.127 30.4287 156.5 30.4287C86.8727 30.4287 30.4287 86.8727 30.4287 156.5Z" fill="#EFEFEF"/>
<path d="M156.5 15.2143C156.5 6.81169 163.328 -0.0766798 171.691 0.738894C197.278 3.23422 221.941 12.0053 243.447 26.375C269.183 43.5715 289.242 68.0134 301.087 96.6101C312.932 125.207 316.031 156.674 309.993 187.032C303.954 217.39 289.049 245.275 267.162 267.162C245.275 289.049 217.39 303.954 187.032 309.993C156.674 316.032 125.207 312.932 96.61 301.087C68.0134 289.242 43.5714 269.183 26.375 243.447C12.0053 221.941 3.23422 197.278 0.738893 171.691C-0.0766799 163.328 6.81169 156.5 15.2143 156.5C23.617 156.5 30.3339 163.336 31.3455 171.678C33.7175 191.237 40.6512 210.043 51.6755 226.542C65.5284 247.274 85.2181 263.433 108.255 272.975C131.291 282.517 156.64 285.013 181.095 280.149C205.551 275.284 228.015 263.277 245.646 245.646C263.277 228.015 275.284 205.551 280.149 181.095C285.013 156.64 282.517 131.291 272.975 108.255C263.433 85.2181 247.274 65.5284 226.541 51.6755C210.042 40.6512 191.237 33.7175 171.678 31.3455C163.336 30.3339 156.5 23.617 156.5 15.2143Z" fill="#54C6FA"/>
<path d="M260.834 156.5C260.834 214.122 214.122 260.833 156.5 260.833C98.8786 260.833 52.167 214.122 52.167 156.5C52.167 98.8783 98.8786 52.1667 156.5 52.1667C214.122 52.1667 260.834 98.8783 260.834 156.5ZM83.9737 156.5C83.9737 196.555 116.445 229.027 156.5 229.027C196.556 229.027 229.027 196.555 229.027 156.5C229.027 116.445 196.556 83.9734 156.5 83.9734C116.445 83.9734 83.9737 116.445 83.9737 156.5Z" fill="#EFEFEF"/>
<mask id="path-4-inside-1_1695_75248" fill="white">
<path d="M156.5 68.07C156.5 59.2869 163.661 52.0427 172.342 53.3764C184.281 55.2104 195.851 59.1099 206.521 64.9391C221.861 73.3196 234.85 85.4201 244.294 100.129C253.739 114.838 259.336 131.685 260.572 149.121C261.809 166.557 258.644 184.025 251.37 199.92C244.095 215.814 232.944 229.626 218.939 240.087C204.935 250.548 188.527 257.323 171.221 259.79C153.916 262.256 136.268 260.335 119.899 254.203C108.513 249.937 97.9996 243.73 88.8086 235.893C82.125 230.195 82.9271 220.04 89.5744 214.3C96.2217 208.559 106.187 209.47 113.237 214.71C118.672 218.749 124.667 222.023 131.057 224.417C142.436 228.68 154.704 230.016 166.734 228.301C178.763 226.587 190.169 221.877 199.904 214.605C209.639 207.333 217.391 197.732 222.448 186.683C227.505 175.634 229.705 163.491 228.845 151.371C227.986 139.25 224.095 127.539 217.53 117.314C210.964 107.089 201.935 98.6777 191.272 92.852C185.283 89.5803 178.886 87.1831 172.277 85.71C163.704 83.7995 156.5 76.8532 156.5 68.07Z"/>
</mask>
<path d="M156.5 68.07C156.5 59.2869 163.661 52.0427 172.342 53.3764C184.281 55.2104 195.851 59.1099 206.521 64.9391C221.861 73.3196 234.85 85.4201 244.294 100.129C253.739 114.838 259.336 131.685 260.572 149.121C261.809 166.557 258.644 184.025 251.37 199.92C244.095 215.814 232.944 229.626 218.939 240.087C204.935 250.548 188.527 257.323 171.221 259.79C153.916 262.256 136.268 260.335 119.899 254.203C108.513 249.937 97.9996 243.73 88.8086 235.893C82.125 230.195 82.9271 220.04 89.5744 214.3C96.2217 208.559 106.187 209.47 113.237 214.71C118.672 218.749 124.667 222.023 131.057 224.417C142.436 228.68 154.704 230.016 166.734 228.301C178.763 226.587 190.169 221.877 199.904 214.605C209.639 207.333 217.391 197.732 222.448 186.683C227.505 175.634 229.705 163.491 228.845 151.371C227.986 139.25 224.095 127.539 217.53 117.314C210.964 107.089 201.935 98.6777 191.272 92.852C185.283 89.5803 178.886 87.1831 172.277 85.71C163.704 83.7995 156.5 76.8532 156.5 68.07Z" fill="#B0E5FD" stroke="#8AD8FB" stroke-width="2.03143" mask="url(#path-4-inside-1_1695_75248)"/>
<path d="M130.773 131H129.364C129.28 130.595 129.134 130.239 128.926 129.932C128.722 129.625 128.472 129.367 128.176 129.159C127.884 128.947 127.561 128.788 127.205 128.682C126.848 128.576 126.477 128.523 126.091 128.523C125.386 128.523 124.748 128.701 124.176 129.057C123.608 129.413 123.155 129.938 122.818 130.631C122.485 131.324 122.318 132.174 122.318 133.182C122.318 134.189 122.485 135.04 122.818 135.733C123.155 136.426 123.608 136.951 124.176 137.307C124.748 137.663 125.386 137.841 126.091 137.841C126.477 137.841 126.848 137.788 127.205 137.682C127.561 137.576 127.884 137.419 128.176 137.21C128.472 136.998 128.722 136.739 128.926 136.432C129.134 136.121 129.28 135.765 129.364 135.364H130.773C130.667 135.958 130.473 136.491 130.193 136.96C129.913 137.43 129.564 137.83 129.148 138.159C128.731 138.485 128.263 138.733 127.744 138.903C127.229 139.074 126.678 139.159 126.091 139.159C125.098 139.159 124.216 138.917 123.443 138.432C122.67 137.947 122.063 137.258 121.619 136.364C121.176 135.47 120.955 134.409 120.955 133.182C120.955 131.955 121.176 130.894 121.619 130C122.063 129.106 122.67 128.417 123.443 127.932C124.216 127.447 125.098 127.205 126.091 127.205C126.678 127.205 127.229 127.29 127.744 127.46C128.263 127.631 128.731 127.881 129.148 128.21C129.564 128.536 129.913 128.934 130.193 129.403C130.473 129.869 130.667 130.402 130.773 131ZM136.413 139.182C135.625 139.182 134.934 138.994 134.339 138.619C133.749 138.244 133.286 137.72 132.953 137.045C132.624 136.371 132.459 135.583 132.459 134.682C132.459 133.773 132.624 132.979 132.953 132.301C133.286 131.623 133.749 131.097 134.339 130.722C134.934 130.347 135.625 130.159 136.413 130.159C137.201 130.159 137.891 130.347 138.482 130.722C139.076 131.097 139.538 131.623 139.868 132.301C140.201 132.979 140.368 133.773 140.368 134.682C140.368 135.583 140.201 136.371 139.868 137.045C139.538 137.72 139.076 138.244 138.482 138.619C137.891 138.994 137.201 139.182 136.413 139.182ZM136.413 137.977C137.012 137.977 137.504 137.824 137.891 137.517C138.277 137.21 138.563 136.807 138.749 136.307C138.934 135.807 139.027 135.265 139.027 134.682C139.027 134.098 138.934 133.555 138.749 133.051C138.563 132.547 138.277 132.14 137.891 131.83C137.504 131.519 137.012 131.364 136.413 131.364C135.815 131.364 135.322 131.519 134.936 131.83C134.55 132.14 134.264 132.547 134.078 133.051C133.893 133.555 133.8 134.098 133.8 134.682C133.8 135.265 133.893 135.807 134.078 136.307C134.264 136.807 134.55 137.21 134.936 137.517C135.322 137.824 135.815 137.977 136.413 137.977ZM143.756 133.75V139H142.415V130.273H143.71V131.636H143.824C144.028 131.193 144.339 130.837 144.756 130.568C145.172 130.295 145.71 130.159 146.369 130.159C146.96 130.159 147.477 130.28 147.92 130.523C148.364 130.761 148.708 131.125 148.955 131.614C149.201 132.098 149.324 132.712 149.324 133.455V139H147.983V133.545C147.983 132.86 147.805 132.326 147.449 131.943C147.093 131.557 146.604 131.364 145.983 131.364C145.555 131.364 145.172 131.456 144.835 131.642C144.502 131.828 144.239 132.098 144.045 132.455C143.852 132.811 143.756 133.242 143.756 133.75ZM155.57 130.273V131.409H151.047V130.273H155.57ZM152.365 128.182H153.706V136.5C153.706 136.879 153.761 137.163 153.871 137.352C153.984 137.538 154.128 137.663 154.303 137.727C154.481 137.788 154.668 137.818 154.865 137.818C155.013 137.818 155.134 137.811 155.229 137.795C155.323 137.777 155.399 137.761 155.456 137.75L155.729 138.955C155.638 138.989 155.511 139.023 155.348 139.057C155.185 139.095 154.979 139.114 154.729 139.114C154.35 139.114 153.979 139.032 153.615 138.869C153.255 138.706 152.956 138.458 152.717 138.125C152.482 137.792 152.365 137.371 152.365 136.864V128.182ZM160.155 139.205C159.602 139.205 159.1 139.1 158.649 138.892C158.198 138.68 157.84 138.375 157.575 137.977C157.31 137.576 157.178 137.091 157.178 136.523C157.178 136.023 157.276 135.617 157.473 135.307C157.67 134.992 157.933 134.746 158.263 134.568C158.592 134.39 158.956 134.258 159.354 134.17C159.755 134.08 160.159 134.008 160.564 133.955C161.094 133.886 161.524 133.835 161.854 133.801C162.187 133.763 162.429 133.701 162.581 133.614C162.736 133.527 162.814 133.375 162.814 133.159V133.114C162.814 132.553 162.661 132.117 162.354 131.807C162.051 131.496 161.59 131.341 160.973 131.341C160.333 131.341 159.831 131.481 159.467 131.761C159.104 132.042 158.848 132.341 158.7 132.659L157.428 132.205C157.655 131.674 157.958 131.261 158.337 130.966C158.719 130.667 159.136 130.458 159.587 130.341C160.041 130.22 160.488 130.159 160.928 130.159C161.208 130.159 161.53 130.193 161.893 130.261C162.261 130.326 162.615 130.46 162.956 130.665C163.301 130.869 163.587 131.178 163.814 131.591C164.041 132.004 164.155 132.557 164.155 133.25V139H162.814V137.818H162.746C162.655 138.008 162.503 138.21 162.291 138.426C162.079 138.642 161.797 138.826 161.445 138.977C161.092 139.129 160.662 139.205 160.155 139.205ZM160.359 138C160.89 138 161.337 137.896 161.7 137.688C162.068 137.479 162.344 137.21 162.53 136.881C162.719 136.551 162.814 136.205 162.814 135.841V134.614C162.757 134.682 162.632 134.744 162.439 134.801C162.25 134.854 162.03 134.902 161.78 134.943C161.534 134.981 161.293 135.015 161.058 135.045C160.827 135.072 160.64 135.095 160.496 135.114C160.147 135.159 159.821 135.233 159.518 135.335C159.219 135.434 158.977 135.583 158.791 135.784C158.609 135.981 158.518 136.25 158.518 136.591C158.518 137.057 158.691 137.409 159.036 137.648C159.384 137.883 159.825 138 160.359 138ZM170.148 139.182C169.33 139.182 168.625 138.989 168.034 138.602C167.443 138.216 166.989 137.684 166.67 137.006C166.352 136.328 166.193 135.553 166.193 134.682C166.193 133.795 166.356 133.013 166.682 132.335C167.011 131.653 167.47 131.121 168.057 130.739C168.648 130.352 169.337 130.159 170.125 130.159C170.739 130.159 171.292 130.273 171.784 130.5C172.277 130.727 172.68 131.045 172.994 131.455C173.309 131.864 173.504 132.341 173.58 132.886H172.239C172.136 132.489 171.909 132.136 171.557 131.83C171.208 131.519 170.739 131.364 170.148 131.364C169.625 131.364 169.167 131.5 168.773 131.773C168.383 132.042 168.078 132.422 167.858 132.915C167.642 133.403 167.534 133.977 167.534 134.636C167.534 135.311 167.64 135.898 167.852 136.398C168.068 136.898 168.371 137.286 168.761 137.562C169.155 137.839 169.617 137.977 170.148 137.977C170.496 137.977 170.812 137.917 171.097 137.795C171.381 137.674 171.621 137.5 171.818 137.273C172.015 137.045 172.155 136.773 172.239 136.455H173.58C173.504 136.97 173.316 137.434 173.017 137.847C172.722 138.256 172.33 138.581 171.841 138.824C171.356 139.062 170.792 139.182 170.148 139.182ZM179.335 130.273V131.409H174.812V130.273H179.335ZM176.131 128.182H177.472V136.5C177.472 136.879 177.527 137.163 177.636 137.352C177.75 137.538 177.894 137.663 178.068 137.727C178.246 137.788 178.434 137.818 178.631 137.818C178.778 137.818 178.9 137.811 178.994 137.795C179.089 137.777 179.165 137.761 179.222 137.75L179.494 138.955C179.403 138.989 179.277 139.023 179.114 139.057C178.951 139.095 178.744 139.114 178.494 139.114C178.116 139.114 177.744 139.032 177.381 138.869C177.021 138.706 176.722 138.458 176.483 138.125C176.248 137.792 176.131 137.371 176.131 136.864V128.182ZM187.378 132.227L186.173 132.568C186.098 132.367 185.986 132.172 185.838 131.983C185.694 131.79 185.497 131.631 185.247 131.506C184.997 131.381 184.677 131.318 184.287 131.318C183.753 131.318 183.308 131.441 182.952 131.688C182.599 131.93 182.423 132.239 182.423 132.614C182.423 132.947 182.545 133.21 182.787 133.403C183.029 133.597 183.408 133.758 183.923 133.886L185.219 134.205C185.999 134.394 186.58 134.684 186.963 135.074C187.346 135.46 187.537 135.958 187.537 136.568C187.537 137.068 187.393 137.515 187.105 137.909C186.821 138.303 186.423 138.614 185.912 138.841C185.401 139.068 184.806 139.182 184.128 139.182C183.238 139.182 182.501 138.989 181.918 138.602C181.334 138.216 180.965 137.652 180.81 136.909L182.082 136.591C182.204 137.061 182.433 137.413 182.77 137.648C183.111 137.883 183.556 138 184.105 138C184.73 138 185.226 137.867 185.594 137.602C185.965 137.333 186.151 137.011 186.151 136.636C186.151 136.333 186.045 136.08 185.832 135.875C185.62 135.667 185.295 135.511 184.855 135.409L183.401 135.068C182.601 134.879 182.014 134.585 181.639 134.188C181.268 133.786 181.082 133.284 181.082 132.682C181.082 132.189 181.221 131.754 181.497 131.375C181.777 130.996 182.158 130.699 182.639 130.483C183.124 130.267 183.673 130.159 184.287 130.159C185.151 130.159 185.829 130.348 186.321 130.727C186.817 131.106 187.17 131.606 187.378 132.227Z" fill="#667085"/>
<path d="M130.376 161.182V183H127.074V164.484H126.946L121.726 167.893V164.74L127.17 161.182H130.376ZM143.874 183.362C142.191 183.355 140.753 182.911 139.56 182.031C138.366 181.15 137.454 179.868 136.822 178.185C136.19 176.501 135.874 174.474 135.874 172.102C135.874 169.737 136.19 167.716 136.822 166.04C137.461 164.364 138.377 163.085 139.57 162.205C140.771 161.324 142.205 160.884 143.874 160.884C145.543 160.884 146.974 161.327 148.168 162.215C149.361 163.096 150.273 164.374 150.906 166.05C151.545 167.719 151.864 169.737 151.864 172.102C151.864 174.481 151.548 176.512 150.916 178.195C150.284 179.871 149.371 181.153 148.178 182.041C146.985 182.922 145.55 183.362 143.874 183.362ZM143.874 180.518C145.352 180.518 146.506 179.797 147.337 178.355C148.175 176.913 148.594 174.829 148.594 172.102C148.594 170.29 148.402 168.76 148.018 167.51C147.642 166.253 147.099 165.301 146.388 164.655C145.685 164.001 144.847 163.675 143.874 163.675C142.404 163.675 141.25 164.399 140.412 165.848C139.574 167.297 139.151 169.381 139.144 172.102C139.144 173.92 139.332 175.457 139.709 176.714C140.092 177.964 140.636 178.913 141.339 179.559C142.042 180.198 142.887 180.518 143.874 180.518ZM155.186 178.739V176.075L164.614 161.182H166.713V165.102H165.381L158.637 175.777V175.947H171.56V178.739H155.186ZM165.53 183V177.929L165.551 176.714V161.182H168.673V183H165.53ZM182.474 183.298C181.139 183.298 179.939 183.043 178.873 182.531C177.815 182.013 176.97 181.303 176.338 180.401C175.706 179.499 175.368 178.469 175.326 177.311H178.522C178.6 178.249 179.015 179.019 179.768 179.623C180.521 180.227 181.423 180.528 182.474 180.528C183.312 180.528 184.055 180.337 184.701 179.953C185.354 179.562 185.866 179.026 186.235 178.344C186.611 177.663 186.8 176.885 186.8 176.011C186.8 175.124 186.608 174.332 186.224 173.636C185.841 172.94 185.312 172.393 184.637 171.995C183.969 171.597 183.202 171.395 182.336 171.388C181.675 171.388 181.011 171.501 180.344 171.729C179.676 171.956 179.136 172.254 178.724 172.624L175.709 172.176L176.934 161.182H188.93V164.005H179.672L178.98 170.109H179.108C179.534 169.697 180.099 169.353 180.802 169.076C181.512 168.799 182.272 168.661 183.081 168.661C184.41 168.661 185.592 168.977 186.629 169.609C187.673 170.241 188.493 171.104 189.09 172.197C189.694 173.284 189.992 174.534 189.985 175.947C189.992 177.361 189.672 178.621 189.026 179.729C188.387 180.837 187.499 181.711 186.363 182.35C185.233 182.982 183.937 183.298 182.474 183.298Z" fill="#101928"/>
</svg>
