<svg width="150" height="150" viewBox="0 0 150 150" fill="none" xmlns="http://www.w3.org/2000/svg">
<path d="M75 122.697C103.319 122.697 126.276 113.691 126.276 102.582C126.276 91.4725 103.319 82.4666 75 82.4666C46.6809 82.4666 23.7236 91.4725 23.7236 102.582C23.7236 113.691 46.6809 122.697 75 122.697Z" fill="#F9FAFB"/>
<path d="M104.895 62.9419H115.143H116.056L110.629 96.9627L94.6211 87.1016L94.9016 85.3391H98.6378L99.2739 81.3516H101.957L104.328 66.4891C105.872 66.4877 107.316 65.2808 107.553 63.7933H104.759L104.895 62.9419Z" fill="#D0D5DD"/>
<path d="M110.629 97.2405C110.578 97.2405 110.528 97.2266 110.483 97.1988L94.4751 87.3377C94.3793 87.2794 94.3293 87.1682 94.3459 87.0571L94.6265 85.2946C94.6473 85.1599 94.764 85.0599 94.9015 85.0599H98.4001L98.9987 81.3057C99.0196 81.171 99.1362 81.071 99.2737 81.071H101.721L104.054 66.4419C104.075 66.3071 104.192 66.2085 104.328 66.2071C105.625 66.2071 106.849 65.2724 107.206 64.0669H104.758C104.677 64.0669 104.6 64.0307 104.547 63.9696C104.495 63.9071 104.471 63.8266 104.485 63.746L104.621 62.8946C104.642 62.7599 104.758 62.6599 104.896 62.6599H116.057C116.139 62.6599 116.215 62.696 116.268 62.7571C116.321 62.8182 116.345 62.9002 116.331 62.9807L110.904 97.0016C110.889 97.0932 110.831 97.171 110.746 97.2099C110.708 97.2321 110.668 97.2405 110.629 97.2405ZM94.9251 86.9613L110.421 96.5071L115.731 63.2182H105.132L105.085 63.5141H107.554C107.636 63.5141 107.713 63.5502 107.765 63.6113C107.818 63.6724 107.842 63.7544 107.828 63.8349C107.582 65.3724 106.147 66.6377 104.567 66.7557L102.232 81.3933C102.211 81.528 102.095 81.628 101.957 81.628H99.5098L98.9112 85.3821C98.8904 85.5169 98.7737 85.6169 98.6362 85.6169H95.139L94.9251 86.9613Z" fill="#F9FAFB"/>
<path d="M110.628 96.9626L112.978 100.165H95.3978L93.0479 96.9626H110.628Z" fill="#D0D5DD"/>
<path d="M112.979 100.443H95.3979C95.3091 100.443 95.2257 100.402 95.1743 100.329L92.8243 97.1252C92.7618 97.0405 92.7535 96.9294 92.8007 96.8349C92.8479 96.7419 92.9438 96.6821 93.0479 96.6821H110.629C110.717 96.6821 110.801 96.7238 110.852 96.796L113.202 100C113.265 100.085 113.273 100.196 113.226 100.29C113.178 100.385 113.083 100.443 112.979 100.443ZM95.5382 99.8877H112.43L110.488 97.2391H93.5966L95.5382 99.8877Z" fill="#F9FAFB"/>
<path d="M94.6201 87.1016L110.628 96.9627H93.0479L94.6201 87.1016Z" fill="#D0D5DD"/>
<path d="M110.629 97.2404H93.048C92.9661 97.2404 92.8897 97.2043 92.8369 97.1432C92.7841 97.0807 92.7605 97.0001 92.7744 96.9195L94.3466 87.0584C94.3619 86.9668 94.4203 86.889 94.505 86.8501C94.5897 86.8112 94.6869 86.8168 94.7661 86.8654L110.774 96.7265C110.88 96.7918 110.93 96.9195 110.897 97.039C110.863 97.1584 110.754 97.2404 110.629 97.2404ZM93.373 96.6848H109.648L94.8286 87.5557L93.373 96.6848Z" fill="#F9FAFB"/>
<path d="M80.1552 28.1501C80.9885 28.1501 81.5594 28.8001 81.4316 29.6043C81.3038 30.4071 80.5247 31.0585 79.6913 31.0585C78.8594 31.0585 78.2885 30.4071 78.4163 29.6043C78.5455 28.8001 79.3233 28.1501 80.1552 28.1501Z" fill="#D0D5DD"/>
<path d="M79.6916 31.3362C79.2 31.3362 78.768 31.1459 78.4722 30.8015C78.1847 30.4654 78.068 30.0251 78.1416 29.5612C78.2902 28.6306 79.193 27.8723 80.1541 27.8723C80.6472 27.8723 81.0805 28.0626 81.375 28.4084C81.6611 28.7445 81.7791 29.1848 81.7041 29.6487C81.5583 30.5779 80.6541 31.3362 79.6916 31.3362ZM80.1555 28.4279C79.4555 28.4279 78.7986 28.9751 78.6916 29.6487C78.643 29.9487 78.7166 30.2306 78.8958 30.4404C79.0833 30.6598 79.3652 30.7806 79.6916 30.7806C80.393 30.7806 81.05 30.2334 81.1569 29.5598C81.2055 29.2598 81.1319 28.9779 80.9527 28.7681C80.7666 28.5487 80.4833 28.4279 80.1555 28.4279Z" fill="#F9FAFB"/>
<path d="M45.3119 56.7252L35.1494 50.4641H52.73L52.1439 54.1405H45.7244L45.3119 56.7252Z" fill="#D0D5DD"/>
<path d="M45.3119 57.0029C45.2619 57.0029 45.2105 56.9891 45.1661 56.9613L35.0036 50.7002C34.898 50.6349 34.848 50.5071 34.8813 50.3877C34.9147 50.2682 35.0244 50.1863 35.148 50.1863H52.7285C52.8105 50.1863 52.8869 50.2224 52.9397 50.2835C52.9924 50.346 53.016 50.4266 53.0022 50.5071L52.416 54.1835C52.3952 54.3182 52.2786 54.4182 52.1411 54.4182H45.9577L45.5827 56.7682C45.5674 56.8599 45.5091 56.9377 45.4244 56.9766C45.391 56.9946 45.3522 57.0029 45.3119 57.0029ZM36.1299 50.7418L45.1035 56.2696L45.4508 54.096C45.4716 53.9613 45.5883 53.8613 45.7258 53.8613H51.9091L52.4063 50.7404H36.1299V50.7418Z" fill="#F9FAFB"/>
<path d="M106.672 29.2709C106.67 29.2473 106.669 29.2237 106.666 29.2015C106.665 29.1862 106.662 29.1695 106.659 29.1543C106.657 29.1404 106.655 29.1251 106.652 29.1112C106.651 29.1056 106.65 29.1015 106.648 29.0973C106.637 29.0459 106.625 28.9973 106.607 28.9487C106.605 28.9459 106.605 28.9431 106.605 28.9418C106.602 28.9334 106.598 28.9251 106.594 28.9168C106.583 28.8876 106.57 28.8584 106.557 28.8293C106.554 28.8237 106.551 28.8168 106.548 28.8112C106.544 28.8029 106.538 28.7959 106.534 28.7876C106.523 28.7668 106.511 28.7459 106.498 28.7251C106.494 28.7168 106.49 28.7084 106.484 28.7015C106.475 28.6876 106.466 28.6751 106.457 28.6612L104.107 25.457C104.122 25.4779 104.134 25.4987 104.148 25.5209C104.161 25.5418 104.173 25.5626 104.184 25.5834C104.191 25.5973 104.2 25.6112 104.207 25.6251C104.22 25.6529 104.233 25.682 104.244 25.7126C104.248 25.7237 104.252 25.7334 104.257 25.7445C104.273 25.7918 104.287 25.8418 104.298 25.8931C104.302 25.9126 104.305 25.9306 104.309 25.9501C104.312 25.9654 104.315 25.9806 104.316 25.9973C104.319 26.0195 104.32 26.0431 104.322 26.0668C104.323 26.082 104.325 26.0973 104.325 26.1126C104.325 26.139 104.325 26.1654 104.323 26.1918C104.323 26.2056 104.323 26.2181 104.322 26.232C104.319 26.2723 104.315 26.3126 104.308 26.3543L101.277 45.3556L103.627 48.5598L106.658 29.5584C106.665 29.5168 106.669 29.4765 106.672 29.4362C106.673 29.4237 106.672 29.4098 106.673 29.3973C106.675 29.3709 106.675 29.3445 106.675 29.3181C106.675 29.3015 106.673 29.2862 106.672 29.2709Z" fill="#D0D5DD"/>
<path d="M103.628 48.8363C103.541 48.8363 103.458 48.7946 103.405 48.7224L101.055 45.5182C101.01 45.4585 100.992 45.3835 101.005 45.3099L104.035 26.3085C104.041 26.2766 104.044 26.2432 104.047 26.2113V26.1807C104.048 26.1599 104.048 26.1391 104.048 26.1182L104.045 26.0821C104.044 26.0641 104.042 26.046 104.041 26.028L104.037 26.003C104.033 25.978 104.03 25.9627 104.027 25.9488C104.019 25.9071 104.008 25.8696 103.997 25.8363C103.995 25.8349 103.987 25.8141 103.987 25.8127C103.978 25.7905 103.969 25.7682 103.958 25.7474C103.952 25.7363 103.947 25.7266 103.941 25.7155C103.933 25.6988 103.923 25.6835 103.913 25.6682C103.899 25.646 103.891 25.6335 103.883 25.621C103.792 25.4974 103.819 25.3238 103.942 25.2335C104.066 25.1432 104.24 25.1696 104.33 25.2932C104.33 25.2932 104.33 25.2932 104.33 25.2946L106.678 28.4974C106.691 28.5141 106.702 28.5307 106.713 28.5474C106.72 28.5571 106.726 28.5682 106.733 28.5793C106.747 28.6016 106.762 28.628 106.777 28.6543C106.783 28.6627 106.788 28.6724 106.794 28.6835C106.798 28.6918 106.806 28.7085 106.809 28.7168C106.822 28.7418 106.837 28.778 106.852 28.8155C106.856 28.8224 106.86 28.8335 106.865 28.846C106.866 28.8516 106.869 28.8585 106.87 28.8655C106.888 28.9168 106.903 28.9724 106.916 29.0307C106.919 29.0405 106.922 29.0488 106.923 29.0585C106.926 29.0724 106.928 29.0877 106.93 29.1016L106.656 29.1543L106.931 29.1182C106.934 29.1349 106.937 29.1516 106.938 29.1696C106.941 29.1974 106.944 29.2266 106.945 29.2543L106.947 29.2655C106.948 29.2807 106.948 29.2946 106.949 29.3099C106.951 29.3418 106.949 29.3738 106.948 29.4057C106.948 29.428 106.947 29.4405 106.947 29.453C106.944 29.5016 106.938 29.5502 106.93 29.6002L103.899 48.6002C103.881 48.7113 103.799 48.8002 103.691 48.8266C103.672 48.8335 103.649 48.8363 103.628 48.8363ZM101.572 45.2835L103.459 47.8571L106.384 29.5127C106.39 29.4793 106.392 29.4474 106.395 29.4155L106.397 29.3849C106.398 29.3641 106.398 29.3432 106.398 29.3224L106.395 29.2877C106.395 29.2877 106.395 29.2877 106.395 29.2863C106.394 29.2682 106.394 29.2502 106.391 29.2335L106.383 29.1738C106.383 29.1738 106.38 29.1641 106.377 29.1502C106.369 29.1113 106.359 29.0738 106.347 29.0405C106.345 29.0391 106.345 29.0363 106.344 29.0335C106.342 29.0307 106.34 29.0238 106.337 29.0155C106.328 28.9932 106.319 28.971 106.309 28.9502C106.308 28.946 106.303 28.9391 106.301 28.9321C106.298 28.928 106.295 28.9224 106.292 28.9182C106.284 28.9016 106.274 28.8863 106.265 28.871C106.262 28.8668 106.253 28.8516 106.251 28.8474C106.248 28.8432 106.241 28.8335 106.234 28.8238L104.562 26.5432L101.572 45.2835Z" fill="#F9FAFB"/>
<path d="M103.103 24.9792C103.889 24.9792 104.43 25.5945 104.309 26.3529L101.278 45.3542C100.625 45.8056 100.014 46.3154 99.4588 46.8765L102.539 27.564C102.6 27.1848 102.331 26.8765 101.938 26.8765H58.7811C58.388 26.8765 58.0186 27.1848 57.9588 27.564L53.7199 54.139H52.1436L52.7297 50.4626L56.5755 26.3529C56.6963 25.5945 57.4338 24.9792 58.2186 24.9792H103.103Z" fill="#98A2B3"/>
<path d="M53.7201 54.4182H52.1437C52.0618 54.4182 51.9854 54.382 51.9326 54.3209C51.8798 54.2584 51.8562 54.1779 51.8701 54.0973L56.3021 26.3112C56.4437 25.4251 57.3035 24.7029 58.2201 24.7029H103.105C103.574 24.7029 103.987 24.8848 104.269 25.214C104.542 25.5348 104.655 25.9557 104.584 26.3973L101.553 45.3987C101.541 45.4737 101.499 45.5404 101.437 45.5834C100.799 46.0237 100.199 46.5251 99.6562 47.0723C99.5715 47.1584 99.441 47.1793 99.3326 47.1251C99.2257 47.0709 99.1646 46.9529 99.184 46.8334L102.265 27.5209C102.28 27.4209 102.258 27.3307 102.202 27.264C102.142 27.1932 102.048 27.1543 101.938 27.1543H58.7812C58.5229 27.1543 58.2729 27.3626 58.2326 27.6084L53.9937 54.1834C53.9729 54.3182 53.8562 54.4182 53.7201 54.4182ZM52.4701 53.8626H53.484L57.6854 27.5209C57.7673 27.0043 58.2493 26.5987 58.7826 26.5987H101.938C102.21 26.5987 102.46 26.7098 102.626 26.9029C102.79 27.0945 102.856 27.3459 102.815 27.6084L99.8632 46.114C100.233 45.7862 100.62 45.4793 101.024 45.1945L104.035 26.3098C104.08 26.0307 104.013 25.7695 103.845 25.5737C103.672 25.3695 103.408 25.257 103.103 25.257H58.2187C57.5646 25.257 56.9493 25.7682 56.8493 26.3973L52.4701 53.8626Z" fill="#F9FAFB"/>
<path d="M45.3149 96.9626H27.7344L46.8872 87.1001L45.3149 96.9626Z" fill="#D0D5DD"/>
<path d="M45.315 97.2404H27.7344C27.6066 97.2404 27.4941 97.1529 27.465 97.0279C27.4344 96.9029 27.4941 96.7738 27.608 96.7154L46.7622 86.8529C46.8552 86.8043 46.9677 86.814 47.0525 86.8751C47.1372 86.9363 47.1802 87.0404 47.1636 87.1432L45.5914 97.0057C45.5678 97.1404 45.4511 97.2404 45.315 97.2404ZM28.8803 96.6849H45.0775L46.5275 87.5988L28.8803 96.6849Z" fill="#F9FAFB"/>
<path d="M45.3149 96.9626L47.6649 100.165H30.0844L27.7344 96.9626H45.3149Z" fill="#D0D5DD"/>
<path d="M47.665 100.443H30.0845C29.9956 100.443 29.9122 100.402 29.8609 100.329L27.5109 97.1252C27.4484 97.0405 27.44 96.9294 27.4872 96.8349C27.5345 96.7419 27.6303 96.6821 27.7345 96.6821H45.315C45.4039 96.6821 45.4872 96.7238 45.5386 96.796L47.8886 100C47.9511 100.085 47.9595 100.196 47.9122 100.29C47.865 100.385 47.7692 100.443 47.665 100.443ZM30.2247 99.8877H47.1164L45.1747 97.2391H28.2831L30.2247 99.8877Z" fill="#F9FAFB"/>
<path d="M48.7442 85.3389L51.0942 88.5416L47.9428 108.303L45.5928 105.099L48.7442 85.3389Z" fill="#344054"/>
<path d="M47.9429 108.581C47.8554 108.581 47.7721 108.539 47.7193 108.467L45.3693 105.262C45.3249 105.203 45.3068 105.128 45.3193 105.054L48.4707 85.293C48.4887 85.1819 48.5707 85.093 48.679 85.0667C48.7874 85.0403 48.9026 85.0819 48.9679 85.1722L51.3179 88.3764C51.3624 88.4361 51.3804 88.5111 51.3679 88.5847L48.2165 108.346C48.1985 108.457 48.1165 108.546 48.0082 108.572C47.986 108.578 47.9651 108.581 47.9429 108.581ZM45.886 105.028L47.7735 107.601L50.8026 88.6125L48.9151 86.0389L45.886 105.028Z" fill="#F9FAFB"/>
<path d="M48.0444 109.028C47.9583 109.028 47.8749 108.989 47.8208 108.914L45.4708 105.711C45.3346 105.527 45.2819 105.295 45.3194 105.056C45.3374 104.945 45.4194 104.856 45.5277 104.829C45.636 104.803 45.7513 104.845 45.8166 104.935L48.1666 108.139C48.211 108.199 48.2291 108.274 48.2166 108.347C48.2027 108.439 48.2194 108.521 48.2666 108.586C48.3569 108.71 48.3305 108.884 48.2069 108.975C48.1583 109.01 48.1013 109.028 48.0444 109.028Z" fill="#F9FAFB"/>
<mask id="mask0_3456_30961" style="mask-type:luminance" maskUnits="userSpaceOnUse" x="45" y="104" width="4" height="6">
<path d="M48.0444 109.028C47.9583 109.028 47.8749 108.989 47.8208 108.914L45.4708 105.711C45.3346 105.527 45.2819 105.295 45.3194 105.056C45.3374 104.945 45.4194 104.856 45.5277 104.829C45.636 104.803 45.7513 104.845 45.8166 104.935L48.1666 108.139C48.211 108.199 48.2291 108.274 48.2166 108.347C48.2027 108.439 48.2194 108.521 48.2666 108.586C48.3569 108.71 48.3305 108.884 48.2069 108.975C48.1583 109.01 48.1013 109.028 48.0444 109.028Z" fill="white"/>
</mask>
<g mask="url(#mask0_3456_30961)">
<path d="M45.5926 105.099L47.9426 108.303C47.9301 108.381 47.9314 108.456 47.9453 108.525L45.5953 105.321C45.5814 105.252 45.5801 105.177 45.5926 105.099Z" fill="#667185"/>
<path d="M47.9456 108.803C47.8595 108.803 47.7748 108.763 47.722 108.689L45.372 105.485C45.3484 105.451 45.3317 105.414 45.3234 105.374C45.3025 105.27 45.3012 105.163 45.3192 105.054C45.3373 104.943 45.4192 104.854 45.5275 104.828C45.6373 104.802 45.7512 104.843 45.8164 104.933L48.1664 108.138C48.2109 108.197 48.2289 108.272 48.2164 108.346C48.2095 108.389 48.2095 108.432 48.2178 108.471C48.2428 108.599 48.1762 108.727 48.0567 108.779C48.0206 108.795 47.9831 108.803 47.9456 108.803Z" fill="#F9FAFB"/>
<path d="M45.5957 105.321L47.9457 108.525C47.9513 108.554 47.9596 108.582 47.9693 108.61L45.6193 105.406C45.6096 105.379 45.6013 105.35 45.5957 105.321Z" fill="#344054"/>
<path d="M47.9694 108.888C47.8833 108.888 47.7986 108.847 47.7458 108.774L45.3958 105.57C45.3805 105.549 45.368 105.525 45.3583 105.5C45.343 105.46 45.3319 105.417 45.3236 105.374C45.2986 105.246 45.3652 105.118 45.4847 105.065C45.6041 105.013 45.743 105.05 45.8208 105.156L48.1708 108.36C48.1944 108.393 48.2111 108.431 48.2194 108.471C48.2222 108.486 48.2264 108.5 48.2319 108.515C48.2791 108.646 48.2236 108.79 48.1014 108.856C48.0583 108.877 48.0139 108.888 47.9694 108.888Z" fill="#F9FAFB"/>
<path d="M45.6191 105.406L47.9691 108.61C47.9775 108.632 47.9872 108.654 47.9969 108.675L45.6469 105.471C45.6372 105.45 45.6275 105.429 45.6191 105.406Z" fill="#344054"/>
<path d="M47.9969 108.953C47.9107 108.953 47.8274 108.913 47.7732 108.839L45.4232 105.635C45.4149 105.622 45.4066 105.61 45.3996 105.597C45.383 105.565 45.3691 105.533 45.3566 105.5C45.3094 105.37 45.3649 105.225 45.4871 105.161C45.6094 105.096 45.7607 105.131 45.8413 105.242L48.1913 108.446C48.2066 108.467 48.2191 108.49 48.2288 108.515C48.233 108.527 48.2371 108.538 48.2427 108.549C48.308 108.678 48.2649 108.836 48.1413 108.911C48.0982 108.939 48.0469 108.953 47.9969 108.953Z" fill="#F9FAFB"/>
<path d="M45.6475 105.471L47.9975 108.675C48.0072 108.695 48.0183 108.713 48.0294 108.731L45.6794 105.526C45.6683 105.508 45.6572 105.49 45.6475 105.471Z" fill="#101928"/>
<path d="M48.0306 109.007C47.9445 109.007 47.8611 108.968 47.807 108.893L45.457 105.689C45.432 105.653 45.4167 105.625 45.4014 105.596C45.3361 105.467 45.3792 105.308 45.5028 105.233C45.6264 105.157 45.7875 105.189 45.8722 105.306L48.2222 108.51C48.2306 108.522 48.2389 108.535 48.2458 108.547C48.25 108.557 48.2556 108.565 48.2625 108.575C48.3458 108.7 48.3153 108.871 48.1903 108.957C48.1403 108.992 48.0847 109.007 48.0306 109.007Z" fill="#F9FAFB"/>
<path d="M45.6797 105.526L48.0297 108.731C48.0339 108.737 48.0394 108.744 48.0436 108.75L45.6936 105.546C45.688 105.539 45.6839 105.533 45.6797 105.526Z" fill="#344054"/>
<path d="M48.0438 109.028C47.9605 109.028 47.8771 108.99 47.823 108.918C47.823 108.918 47.823 108.917 47.8216 108.917C47.8216 108.915 47.8202 108.915 47.8202 108.914L45.4716 105.713C45.4646 105.703 45.4577 105.693 45.4507 105.683C45.366 105.558 45.398 105.388 45.5216 105.301C45.6452 105.215 45.816 105.243 45.9049 105.364L48.2549 108.568C48.2577 108.572 48.2618 108.578 48.2646 108.582L48.2688 108.588C48.3591 108.711 48.3327 108.885 48.2091 108.975C48.1577 109.01 48.1007 109.028 48.0438 109.028Z" fill="#F9FAFB"/>
</g>
<path d="M48.546 109.267C48.2488 109.267 47.9835 109.138 47.8196 108.914L45.471 105.711C45.471 105.711 45.471 105.711 45.4696 105.71C45.3793 105.586 45.4057 105.413 45.5293 105.321C45.6529 105.231 45.8265 105.257 45.9182 105.381C45.9779 105.461 46.0765 105.507 46.1974 105.507C46.2863 105.507 46.3696 105.549 46.421 105.621L48.771 108.825C48.8335 108.91 48.8418 109.021 48.7946 109.115C48.7474 109.208 48.6515 109.267 48.546 109.267Z" fill="#F9FAFB"/>
<mask id="mask1_3456_30961" style="mask-type:luminance" maskUnits="userSpaceOnUse" x="45" y="105" width="4" height="5">
<path d="M48.546 109.267C48.2488 109.267 47.9835 109.138 47.8196 108.914L45.471 105.711C45.471 105.711 45.471 105.711 45.4696 105.71C45.3793 105.586 45.4057 105.413 45.5293 105.321C45.6529 105.231 45.8265 105.257 45.9182 105.381C45.9779 105.461 46.0765 105.507 46.1974 105.507C46.2863 105.507 46.3696 105.549 46.421 105.621L48.771 108.825C48.8335 108.91 48.8418 109.021 48.7946 109.115C48.7474 109.208 48.6515 109.267 48.546 109.267Z" fill="white"/>
</mask>
<g mask="url(#mask1_3456_30961)">
<path d="M46.1971 105.786L48.5471 108.99C48.3304 108.99 48.1513 108.897 48.0443 108.751L45.6943 105.546C45.8013 105.693 45.9804 105.786 46.1971 105.786Z" fill="#98A2B3"/>
<path d="M48.546 109.267C48.2488 109.267 47.9835 109.138 47.8196 108.914L45.471 105.711C45.471 105.711 45.471 105.711 45.4696 105.71C45.3793 105.586 45.4057 105.413 45.5293 105.321C45.6529 105.231 45.8265 105.257 45.9182 105.381C45.9779 105.461 46.0765 105.507 46.1974 105.507C46.2863 105.507 46.3696 105.549 46.421 105.621L48.771 108.825C48.8335 108.91 48.8418 109.021 48.7946 109.115C48.7474 109.208 48.6515 109.267 48.546 109.267Z" fill="#F9FAFB"/>
</g>
<path d="M93.3242 85.3389L95.6742 88.5416L92.5228 108.303L90.1729 105.099L93.3242 85.3389Z" fill="#D0D5DD"/>
<path d="M92.523 108.581C92.4355 108.581 92.3522 108.539 92.2994 108.467L89.9494 105.262C89.9049 105.203 89.8869 105.128 89.8994 105.054L93.0508 85.293C93.0688 85.1819 93.1508 85.093 93.2591 85.0667C93.3674 85.0403 93.4827 85.0819 93.548 85.1722L95.898 88.3764C95.9424 88.4361 95.9605 88.5111 95.948 88.5847L92.7966 108.346C92.7785 108.457 92.6966 108.546 92.5883 108.572C92.566 108.578 92.5438 108.581 92.523 108.581ZM90.466 105.028L92.3535 107.601L95.3827 88.6125L93.4952 86.0389L90.466 105.028Z" fill="#F9FAFB"/>
<path d="M89.3528 105.786L91.7028 108.989H48.5459L46.1973 105.786H89.3528Z" fill="#98A2B3"/>
<path d="M91.7024 109.267H48.5454C48.4565 109.267 48.3732 109.225 48.3218 109.153L45.9718 105.95C45.9093 105.865 45.901 105.754 45.9482 105.66C45.9954 105.567 46.0912 105.507 46.1954 105.507H89.351C89.4399 105.507 89.5232 105.549 89.5746 105.621L91.9246 108.825C91.9871 108.91 91.9954 109.021 91.9482 109.115C91.9024 109.208 91.8065 109.267 91.7024 109.267ZM48.6871 108.711H91.1537L89.2121 106.063H46.744L48.6871 108.711Z" fill="#F9FAFB"/>
<path d="M90.1733 105.099L93.3247 85.3374H94.9025L94.622 87.0999L93.0497 96.961L91.1081 109.136C90.9872 109.894 90.2497 110.51 89.465 110.51H44.5789C43.7928 110.51 43.2525 109.894 43.3733 109.136L45.315 96.961L46.8872 87.0999L47.1678 85.3374H48.7442L45.5928 105.099C45.5331 105.476 45.8025 105.785 46.1956 105.785H89.3511C89.7456 105.785 90.1122 105.478 90.1733 105.099Z" fill="#98A2B3"/>
<path d="M89.4623 110.788H44.579C44.1095 110.788 43.697 110.606 43.4151 110.276C43.1415 109.956 43.029 109.535 43.0998 109.093L46.8956 85.2945C46.9165 85.1597 47.0331 85.0597 47.1706 85.0597H48.747C48.829 85.0597 48.9053 85.0959 48.9581 85.157C49.0109 85.2181 49.0345 85.3 49.0206 85.3806L45.8692 105.142C45.854 105.24 45.8762 105.331 45.9331 105.397C45.9942 105.468 46.0887 105.507 46.1984 105.507H89.354C89.6109 105.507 89.8609 105.3 89.9012 105.054L93.0526 85.2931C93.0734 85.1583 93.1901 85.0583 93.3276 85.0583H94.904C94.9859 85.0583 95.0623 85.0945 95.1151 85.1556C95.1679 85.2167 95.1915 85.2986 95.1776 85.3792L91.3803 109.181C91.2401 110.067 90.379 110.788 89.4623 110.788ZM47.4053 85.6167L43.647 109.181C43.6026 109.46 43.6692 109.721 43.8359 109.917C44.0095 110.121 44.2734 110.233 44.5776 110.233H89.4623C90.1165 110.233 90.7317 109.722 90.8317 109.093L94.5762 85.6167H93.5623L90.4484 105.143C90.3665 105.66 89.8845 106.064 89.3526 106.064H46.197C45.9248 106.064 45.6734 105.953 45.5081 105.758C45.3442 105.567 45.2776 105.317 45.3192 105.056L48.4192 85.6167H47.4053Z" fill="#F9FAFB"/>
<path d="M35.1497 50.4641L45.3122 56.7252L41.3858 81.3502H44.0691L43.433 85.3391H47.1691L46.8872 87.1002L27.7344 96.9627L35.1497 50.4641Z" fill="#D0D5DD"/>
<path d="M27.7342 97.2404C27.6772 97.2404 27.6189 97.2224 27.5717 97.1876C27.487 97.1265 27.4439 97.0224 27.4606 96.9196L34.8758 50.421C34.8911 50.3293 34.9495 50.2515 35.0342 50.2126C35.1189 50.1738 35.2161 50.1793 35.2953 50.2279L45.4578 56.489C45.5536 56.5474 45.6036 56.6585 45.587 56.7696L41.7106 81.0738H44.0689C44.1508 81.0738 44.2272 81.1099 44.28 81.171C44.3328 81.2321 44.3564 81.314 44.3425 81.3946L43.7578 85.0613H47.1689C47.2508 85.0613 47.3272 85.0974 47.38 85.1585C47.4328 85.221 47.4564 85.3015 47.4425 85.3821L47.162 87.1446C47.1481 87.2321 47.0939 87.3071 47.0147 87.3474L27.8606 97.2099C27.8203 97.2307 27.7772 97.2404 27.7342 97.2404ZM35.3592 50.9182L28.0953 96.464L46.6356 86.9182L46.8439 85.6168H43.4328C43.3508 85.6168 43.2745 85.5807 43.2217 85.5196C43.1689 85.4571 43.1453 85.3765 43.1592 85.296L43.7439 81.6293H41.3856C41.3036 81.6293 41.2272 81.5932 41.1745 81.5321C41.1217 81.4696 41.0981 81.389 41.112 81.3085L45.0106 56.8654L35.3592 50.9182Z" fill="#F9FAFB"/>
<path d="M111.806 46.7501C111.72 46.7501 111.636 46.7112 111.584 46.639L109.234 43.4348C109.185 43.3695 109.168 43.2862 109.188 43.207C109.195 43.1779 109.2 43.1543 109.204 43.1293C109.245 42.8723 109.191 42.6265 109.052 42.4376C108.961 42.314 108.988 42.1404 109.111 42.0487C109.235 41.9584 109.409 41.9848 109.5 42.1084L111.85 45.3112C112.078 45.6209 112.167 46.0154 112.103 46.4195C112.097 46.457 112.089 46.4931 112.079 46.532C112.054 46.6376 111.97 46.7209 111.864 46.7431C111.843 46.7487 111.824 46.7501 111.806 46.7501Z" fill="#F9FAFB"/>
<mask id="mask2_3456_30961" style="mask-type:luminance" maskUnits="userSpaceOnUse" x="108" y="41" width="5" height="6">
<path d="M111.806 46.7501C111.72 46.7501 111.636 46.7112 111.584 46.639L109.234 43.4348C109.185 43.3695 109.168 43.2862 109.188 43.207C109.195 43.1779 109.2 43.1543 109.204 43.1293C109.245 42.8723 109.191 42.6265 109.052 42.4376C108.961 42.314 108.988 42.1404 109.111 42.0487C109.235 41.9584 109.409 41.9848 109.5 42.1084L111.85 45.3112C112.078 45.6209 112.167 46.0154 112.103 46.4195C112.097 46.457 112.089 46.4931 112.079 46.532C112.054 46.6376 111.97 46.7209 111.864 46.7431C111.843 46.7487 111.824 46.7501 111.806 46.7501Z" fill="white"/>
</mask>
<g mask="url(#mask2_3456_30961)">
<path d="M109.275 42.2737L111.625 45.4778C111.635 45.4903 111.645 45.5042 111.653 45.5181L109.303 42.314C109.295 42.3001 109.285 42.2876 109.275 42.2737Z" fill="#667185"/>
<path d="M111.653 45.796C111.567 45.796 111.484 45.7571 111.429 45.6821L109.079 42.4779C109.067 42.4585 109.06 42.4488 109.053 42.439L109.052 42.4377C108.961 42.314 108.988 42.1404 109.111 42.0502C109.235 41.9599 109.409 41.9863 109.499 42.1099C109.499 42.1099 109.499 42.1113 109.5 42.1113L111.849 45.3127C111.861 45.3293 111.872 45.346 111.884 45.3627C111.967 45.4877 111.935 45.6571 111.811 45.7446C111.764 45.7793 111.709 45.796 111.653 45.796Z" fill="#F9FAFB"/>
<path d="M109.303 42.3142L111.653 45.5184C111.676 45.5531 111.699 45.5906 111.718 45.6281L109.368 42.4239C109.349 42.3864 109.326 42.3503 109.303 42.3142Z" fill="#667185"/>
<path d="M111.718 45.9058C111.632 45.9058 111.549 45.8655 111.494 45.7919L109.144 42.5877C109.136 42.5752 109.128 42.5627 109.121 42.5502C109.105 42.521 109.09 42.4946 109.072 42.4683C108.989 42.3433 109.019 42.1724 109.144 42.0863C109.268 42.0002 109.439 42.028 109.528 42.1502L111.878 45.3544C111.914 45.4085 111.942 45.4544 111.965 45.5016C112.032 45.6308 111.987 45.7891 111.864 45.8655C111.818 45.8919 111.768 45.9058 111.718 45.9058Z" fill="#F9FAFB"/>
<path d="M109.368 42.4236L111.718 45.6277C111.74 45.6694 111.758 45.7139 111.775 45.7583L109.425 42.5541C109.408 42.5097 109.389 42.4666 109.368 42.4236Z" fill="#98A2B3"/>
<path d="M111.775 46.0361C111.689 46.0361 111.604 45.9958 111.552 45.9222L109.202 42.7181C109.186 42.6972 109.174 42.6736 109.164 42.6486C109.152 42.6153 109.138 42.5819 109.121 42.55C109.056 42.4208 109.099 42.2625 109.223 42.1875C109.346 42.1111 109.507 42.143 109.592 42.2597L111.942 45.4639C111.95 45.4764 111.959 45.4889 111.966 45.5014C111.992 45.5542 112.017 45.6083 112.036 45.6639C112.084 45.7944 112.028 45.9389 111.906 46.0028C111.864 46.025 111.82 46.0361 111.775 46.0361Z" fill="#F9FAFB"/>
<path d="M109.426 42.5544L111.776 45.7586C111.795 45.8128 111.812 45.8697 111.823 45.9294L109.473 42.7253C109.461 42.6669 109.445 42.61 109.426 42.5544Z" fill="#667185"/>
<path d="M111.823 46.2072C111.736 46.2072 111.652 46.1669 111.599 46.0933L109.249 42.8891C109.225 42.8558 109.209 42.8183 109.2 42.778C109.192 42.7335 109.179 42.6905 109.164 42.6488C109.117 42.5183 109.173 42.3738 109.295 42.3099C109.417 42.2447 109.567 42.2794 109.649 42.3905L111.999 45.5947C112.014 45.6155 112.027 45.6391 112.036 45.6641C112.061 45.7322 112.081 45.803 112.095 45.8752C112.12 46.003 112.053 46.1308 111.934 46.1835C111.898 46.1988 111.86 46.2072 111.823 46.2072Z" fill="#F9FAFB"/>
<path d="M109.472 42.7251L111.822 45.9293C111.85 46.0695 111.853 46.2209 111.828 46.3779C111.822 46.4098 111.815 46.4418 111.807 46.4751L109.457 43.2709C109.465 43.2376 109.472 43.2057 109.478 43.1737C109.503 43.0168 109.5 42.8668 109.472 42.7251Z" fill="#98A2B3"/>
<path d="M111.806 46.7501C111.72 46.7501 111.636 46.7112 111.583 46.639L109.233 43.4348C109.185 43.3695 109.168 43.2862 109.188 43.207C109.195 43.1779 109.2 43.1543 109.204 43.1293C109.224 43.0084 109.222 42.8904 109.2 42.7779C109.175 42.6501 109.242 42.5223 109.361 42.4695C109.481 42.4168 109.62 42.4543 109.697 42.5598L112.047 45.764C112.071 45.7973 112.088 45.8348 112.096 45.8751C112.131 46.0515 112.133 46.2348 112.103 46.4209C112.097 46.457 112.089 46.4945 112.079 46.5334C112.054 46.639 111.97 46.7223 111.864 46.7445C111.843 46.7487 111.824 46.7501 111.806 46.7501Z" fill="#F9FAFB"/>
</g>
<path d="M101.937 26.8764C102.33 26.8764 102.6 27.1847 102.539 27.5639L99.4582 46.8764C97.779 48.5694 96.5943 50.7181 96.2207 53.0569L96.0485 54.1389H53.7207L57.9596 27.5625C58.0207 27.1833 58.3888 26.875 58.7818 26.875H101.937V26.8764ZM79.6915 31.0583C80.5249 31.0583 81.3026 30.4069 81.4318 29.6042C81.5596 28.8 80.9888 28.15 80.1554 28.15C79.3235 28.15 78.5457 28.8 78.4165 29.6042C78.2888 30.4056 78.8596 31.0583 79.6915 31.0583Z" fill="#F9FAFB"/>
<path d="M96.05 54.4181H53.7209C53.6389 54.4181 53.5625 54.382 53.5098 54.3209C53.457 54.2597 53.4334 54.1778 53.4473 54.0972L57.6862 27.5209C57.7681 27.0042 58.25 26.5986 58.7834 26.5986H101.939C102.211 26.5986 102.461 26.7097 102.626 26.9028C102.79 27.0945 102.857 27.3459 102.815 27.6084L99.7348 46.9209C99.7251 46.9778 99.6987 47.032 99.657 47.0722C97.9681 48.775 96.8459 50.9167 96.4973 53.1014L96.325 54.1834C96.3028 54.3181 96.1862 54.4181 96.05 54.4181ZM54.0459 53.8625H95.8125L95.9473 53.0139C96.3153 50.7097 97.4389 48.5431 99.1987 46.7445L102.265 27.5195C102.281 27.4195 102.258 27.3292 102.203 27.2625C102.143 27.1917 102.049 27.1528 101.939 27.1528H58.782C58.5237 27.1528 58.2723 27.3611 58.2334 27.607L54.0459 53.8625ZM79.6917 31.3361C79.2001 31.3361 78.7681 31.1459 78.4723 30.8014C78.1848 30.4653 78.0681 30.025 78.1417 29.5611C78.2903 28.6306 79.1931 27.8736 80.1542 27.8736C80.6473 27.8736 81.0806 28.0639 81.3751 28.4097C81.6612 28.7459 81.7792 29.1861 81.7042 29.65C81.557 30.5778 80.6542 31.3361 79.6917 31.3361ZM80.1556 28.4278C79.4556 28.4278 78.7987 28.975 78.6917 29.6472C78.6445 29.9472 78.7167 30.2292 78.8959 30.4389C79.0834 30.6584 79.3653 30.7792 79.6917 30.7792C80.3931 30.7792 81.0501 30.232 81.157 29.5584C81.2056 29.2584 81.132 28.9764 80.9528 28.7667C80.7667 28.5486 80.4834 28.4278 80.1556 28.4278Z" fill="#F9FAFB"/>
<path d="M118.044 50.4641L120.394 53.6669L119.179 54.2933L116.829 51.0905L118.044 50.4641Z" fill="#98A2B3"/>
<path d="M119.179 54.571C119.093 54.571 119.008 54.5307 118.956 54.4571L116.606 51.2529C116.557 51.1877 116.54 51.1043 116.56 51.0252C116.578 50.946 116.631 50.8793 116.703 50.8418L117.918 50.2154C118.039 50.1529 118.189 50.1877 118.269 50.2988L120.619 53.5029C120.668 53.5682 120.685 53.6515 120.665 53.7307C120.647 53.8099 120.594 53.8765 120.522 53.914L119.307 54.5404C119.265 54.5613 119.222 54.571 119.179 54.571ZM117.246 51.1877L119.262 53.9377L119.978 53.5696L117.961 50.8196L117.246 51.1877Z" fill="#F9FAFB"/>
<path d="M116.776 50.4641H118.046L116.831 51.0905C116.819 50.8794 116.801 50.6697 116.776 50.4641Z" fill="#98A2B3"/>
<path d="M116.829 51.3682C116.781 51.3682 116.733 51.3557 116.69 51.3307C116.608 51.2835 116.556 51.1988 116.551 51.1043C116.542 50.9016 116.524 50.6974 116.5 50.4974C116.49 50.4182 116.515 50.3391 116.568 50.2793C116.621 50.2196 116.696 50.1863 116.776 50.1863H118.046C118.174 50.1863 118.286 50.2738 118.315 50.3988C118.346 50.5238 118.286 50.6529 118.172 50.7113L116.957 51.3377C116.917 51.3571 116.874 51.3682 116.829 51.3682Z" fill="#F9FAFB"/>
<path d="M118.046 50.4639L120.394 53.6666L118.683 64.4014L116.333 61.1972L118.046 50.4639Z" fill="#D0D5DD"/>
<path d="M118.683 64.6792C118.596 64.6792 118.512 64.6376 118.46 64.5653L116.11 61.3612C116.065 61.3015 116.047 61.2265 116.06 61.1528L117.772 50.4195C117.79 50.3084 117.872 50.2195 117.98 50.1931C118.089 50.1667 118.204 50.2084 118.269 50.2987L120.619 53.5028C120.664 53.5626 120.682 53.6376 120.669 53.7112L118.957 64.4445C118.939 64.5556 118.857 64.6445 118.748 64.6709C118.726 64.6765 118.704 64.6792 118.683 64.6792ZM116.626 61.1265L118.514 63.7001L120.103 53.7376L118.215 51.164L116.626 61.1265Z" fill="#F9FAFB"/>
<path d="M104.327 66.4875L106.676 69.6917L104.308 84.5542L101.958 81.35L104.327 66.4875Z" fill="#D0D5DD"/>
<path d="M104.308 84.8321C104.221 84.8321 104.137 84.7904 104.085 84.7182L101.735 81.514C101.69 81.4543 101.672 81.3793 101.685 81.3057L104.054 66.4432C104.072 66.3321 104.154 66.2432 104.262 66.2168C104.371 66.1904 104.486 66.2321 104.551 66.3224L106.901 69.5265C106.946 69.5862 106.964 69.6612 106.951 69.7349L104.582 84.5974C104.564 84.7085 104.482 84.7974 104.373 84.8237C104.351 84.8293 104.329 84.8321 104.308 84.8321ZM102.25 81.2793L104.137 83.8529L106.383 69.7612L104.496 67.1876L102.25 81.2793Z" fill="#F9FAFB"/>
<path d="M104.895 62.9417L104.759 63.7931H101.964C101.727 65.2806 102.785 66.4889 104.328 66.4889L101.959 81.35H99.2753H44.0698H38.3545L42.2823 56.7236L42.6948 54.1389H52.1462H53.7225H96.0517L95.2739 59.0181L94.9448 59.5875H49.6212L49.4462 60.6875H94.3073L93.0031 62.9403H94.6462H104.895V62.9417ZM99.4226 67.3736L99.5975 66.2736H48.5545L48.3795 67.3736H99.4226ZM87.867 74.0584L88.042 72.9584H57.9781L57.8031 74.0584H87.867Z" fill="#E4E7EC"/>
<path d="M101.958 81.6278H38.3527C38.2708 81.6278 38.1944 81.5917 38.1416 81.5306C38.0888 81.4681 38.0652 81.3875 38.0791 81.307L42.4194 54.0973C42.4402 53.9625 42.5569 53.8625 42.6944 53.8625H96.0513C96.1333 53.8625 96.2097 53.8987 96.2624 53.9598C96.3152 54.0223 96.3388 54.1028 96.3249 54.1834L95.5472 59.0625C95.5416 59.0959 95.5305 59.1278 95.5138 59.1584L95.1847 59.7278C95.1347 59.8139 95.043 59.8667 94.9444 59.8667H49.8569L49.7708 60.4112H94.3055C94.4041 60.4112 94.4972 60.4639 94.5458 60.55C94.5958 60.6362 94.5958 60.7417 94.5458 60.8278L93.4833 62.6639H104.893C104.975 62.6639 105.051 62.7001 105.104 62.7612C105.157 62.8237 105.18 62.9042 105.167 62.9848L105.03 63.8362C105.008 63.9709 104.893 64.0709 104.755 64.0709H102.21C102.178 64.6084 102.336 65.1084 102.668 65.4959C103.061 65.957 103.65 66.2112 104.325 66.2112C104.407 66.2112 104.483 66.2473 104.536 66.3084C104.589 66.3709 104.612 66.4514 104.599 66.532L102.229 81.3945C102.211 81.5292 102.094 81.6278 101.958 81.6278ZM38.6791 81.0723H101.721L104.004 66.7487C103.299 66.6764 102.683 66.3653 102.247 65.8556C101.761 65.2862 101.562 64.5375 101.689 63.7487C101.71 63.6139 101.826 63.5139 101.964 63.5139H104.522L104.569 63.2181H93.0027C92.9041 63.2181 92.8111 63.1653 92.7624 63.0792C92.7124 62.9931 92.7124 62.8876 92.7624 62.8014L93.8249 60.9653H49.4458C49.3638 60.9653 49.2874 60.9292 49.2347 60.8681C49.1819 60.8056 49.1583 60.7251 49.1722 60.6445L49.3472 59.5445C49.368 59.4098 49.4847 59.3098 49.6222 59.3098H94.7833L95.0069 58.9237L95.7263 54.4167H42.9305L38.6791 81.0723ZM87.8666 74.3362H57.8027C57.7208 74.3362 57.6444 74.3001 57.5916 74.2389C57.5388 74.1764 57.5152 74.0959 57.5291 74.0153L57.7041 72.9153C57.7249 72.7806 57.8416 72.6806 57.9791 72.6806H88.0416C88.1236 72.6806 88.1999 72.7167 88.2527 72.7778C88.3055 72.8403 88.3291 72.9209 88.3152 73.0014L88.1402 74.1014C88.1194 74.2362 88.0027 74.3362 87.8666 74.3362ZM58.1277 73.7806H87.6291L87.7152 73.2362H58.2138L58.1277 73.7806ZM99.4222 67.6514H48.3791C48.2972 67.6514 48.2208 67.6153 48.168 67.5542C48.1152 67.4917 48.0916 67.4112 48.1055 67.3306L48.2805 66.2306C48.3013 66.0959 48.418 65.9959 48.5555 65.9959H99.5985C99.6805 65.9959 99.7569 66.032 99.8097 66.0931C99.8624 66.1556 99.886 66.2362 99.8722 66.3167L99.6972 67.4167C99.6749 67.5514 99.5597 67.6514 99.4222 67.6514ZM48.7041 67.0959H99.1847L99.2708 66.5514H48.7916L48.7041 67.0959Z" fill="#F9FAFB"/>
<path d="M99.2748 81.3501L101.623 84.5543L100.987 88.5418L98.6387 85.339L99.2748 81.3501Z" fill="#D0D5DD"/>
<path d="M100.987 88.8196C100.899 88.8196 100.816 88.778 100.763 88.7057L98.4133 85.5016C98.3688 85.4419 98.3507 85.3669 98.3632 85.2932L98.9994 81.3057C99.0174 81.1946 99.0994 81.1057 99.2077 81.0794C99.316 81.053 99.4313 81.0946 99.4966 81.1849L101.847 84.3891C101.891 84.4488 101.909 84.5238 101.897 84.5974L101.26 88.5849C101.242 88.696 101.16 88.7849 101.052 88.8113C101.031 88.8169 101.009 88.8196 100.987 88.8196ZM98.9299 85.2682L100.817 87.8419L101.33 84.6252L99.4438 82.0516L98.9299 85.2682Z" fill="#F9FAFB"/>
<path d="M89.4623 110.51H44.5789C44.147 110.51 43.7901 110.324 43.5762 110.032L45.9262 113.236C46.1415 113.529 46.4984 113.714 46.929 113.714H91.8137L89.4623 110.51Z" fill="#667185"/>
<path d="M91.8125 113.992H46.9292C46.425 113.992 45.9778 113.776 45.7014 113.4L43.3514 110.196C43.2612 110.072 43.2875 109.899 43.4112 109.807C43.5348 109.717 43.7084 109.743 43.8 109.867C43.9695 110.099 44.2542 110.232 44.5792 110.232H89.4639C89.5528 110.232 89.6362 110.274 89.6875 110.346L92.0375 113.55C92.1 113.635 92.1084 113.746 92.0612 113.84C92.0139 113.933 91.9181 113.992 91.8125 113.992ZM44.4723 110.785L46.15 113.071C46.3195 113.303 46.6042 113.436 46.9292 113.436H91.2653L89.3237 110.788H44.5792C44.5431 110.788 44.507 110.788 44.4723 110.785Z" fill="#F9FAFB"/>
<path d="M94.6207 87.1015L93.0484 96.9626L91.1068 109.138C91.097 109.196 91.0832 109.253 91.0679 109.308C91.0637 109.325 91.0582 109.34 91.0526 109.357C91.0387 109.4 91.0234 109.442 91.0054 109.482C90.9998 109.496 90.9943 109.51 90.9873 109.525C90.9623 109.578 90.9359 109.631 90.9054 109.681C90.8971 109.695 90.8873 109.707 90.879 109.721C90.8596 109.75 90.8415 109.779 90.8207 109.807C90.8068 109.825 90.7929 109.843 90.7776 109.861C90.7609 109.881 90.7457 109.902 90.729 109.921C90.7123 109.94 90.6957 109.958 90.6776 109.977C90.6623 109.993 90.647 110.008 90.6304 110.025C90.6123 110.043 90.5915 110.06 90.572 110.078C90.5568 110.092 90.5401 110.107 90.5234 110.12C90.504 110.136 90.4832 110.152 90.4623 110.167C90.4443 110.181 90.4276 110.195 90.4082 110.207C90.3887 110.22 90.3693 110.232 90.3498 110.245C90.3276 110.258 90.3054 110.274 90.2832 110.286C90.2665 110.296 90.2498 110.304 90.2332 110.313C90.204 110.328 90.1748 110.345 90.1443 110.358C90.129 110.365 90.1123 110.372 90.0971 110.379C90.0554 110.397 90.0123 110.414 89.9679 110.428C89.9498 110.433 89.9318 110.44 89.9137 110.446C89.8984 110.45 89.8818 110.454 89.8665 110.458C89.8387 110.465 89.8095 110.472 89.7804 110.479C89.7637 110.482 89.7484 110.486 89.7318 110.489C89.7012 110.495 89.6707 110.499 89.6401 110.502C89.6262 110.503 89.6109 110.506 89.597 110.507C89.5526 110.511 89.5068 110.514 89.4609 110.514L91.8109 113.718C91.8568 113.718 91.9012 113.715 91.9471 113.711C91.9609 113.71 91.9762 113.707 91.9901 113.706C92.0207 113.702 92.0512 113.697 92.0818 113.693C92.0984 113.69 92.1137 113.688 92.1304 113.683C92.1596 113.678 92.1873 113.671 92.2165 113.663C92.2318 113.658 92.2484 113.654 92.2637 113.65C92.272 113.647 92.2804 113.646 92.2887 113.643C92.2984 113.64 92.3082 113.635 92.3179 113.632C92.3609 113.617 92.404 113.602 92.4457 113.583C92.4554 113.579 92.4651 113.577 92.4748 113.572C92.4818 113.57 92.4873 113.565 92.4929 113.563C92.5234 113.549 92.5526 113.533 92.5818 113.517C92.5943 113.51 92.6082 113.504 92.6207 113.497C92.6248 113.495 92.6276 113.493 92.6318 113.49C92.654 113.477 92.6762 113.463 92.6984 113.449C92.7137 113.439 92.7304 113.429 92.7457 113.418C92.7484 113.415 92.7526 113.413 92.7554 113.411C92.7734 113.399 92.7915 113.385 92.8095 113.371C92.8262 113.358 92.8443 113.346 92.8596 113.333C92.8637 113.331 92.8665 113.328 92.8707 113.324C92.8873 113.31 92.9026 113.296 92.9193 113.282C92.9346 113.268 92.9512 113.256 92.9651 113.242C92.9693 113.238 92.9734 113.233 92.9762 113.229C92.9929 113.214 93.0082 113.197 93.0234 113.181C93.0359 113.167 93.0512 113.154 93.0637 113.14C93.0679 113.136 93.0707 113.131 93.0748 113.127C93.0915 113.107 93.1082 113.088 93.1234 113.067C93.1345 113.053 93.147 113.04 93.1568 113.027C93.1595 113.022 93.1623 113.018 93.1651 113.014C93.1859 112.986 93.2054 112.957 93.2234 112.928C93.2304 112.917 93.2401 112.906 93.247 112.893C93.2484 112.892 93.2484 112.889 93.2498 112.888C93.2804 112.838 93.3082 112.785 93.3318 112.732C93.3345 112.728 93.3373 112.722 93.3387 112.718C93.3429 112.708 93.3457 112.699 93.3498 112.689C93.3679 112.647 93.3832 112.606 93.3971 112.564C93.4026 112.547 93.4082 112.532 93.4123 112.515C93.429 112.46 93.4429 112.403 93.4512 112.345L95.3929 100.17L96.9651 90.3085L97.2457 88.546L94.8957 85.3418L94.6207 87.1015Z" fill="#98A2B3"/>
<path d="M91.812 113.992C91.7231 113.992 91.6398 113.95 91.5884 113.878L89.2384 110.674C89.1759 110.589 89.1676 110.478 89.2148 110.383C89.262 110.29 89.3578 110.231 89.462 110.231C89.4995 110.231 89.5356 110.228 89.5731 110.225L89.6078 110.221C89.6342 110.218 89.6592 110.214 89.6842 110.21L89.7245 110.202C89.7481 110.196 89.7717 110.19 89.7953 110.185L89.8801 110.158C89.9162 110.146 89.9523 110.132 89.987 110.117L90.0273 110.1C90.0523 110.089 90.0773 110.075 90.1023 110.063L90.1439 110.04C90.1578 110.032 90.1731 110.022 90.187 110.014L90.2203 109.993C90.2301 109.986 90.2412 109.981 90.2509 109.974C90.2606 109.967 90.2703 109.96 90.2787 109.953L90.3092 109.931C90.3217 109.921 90.3356 109.911 90.3481 109.902L90.3884 109.865C90.4092 109.847 90.4231 109.835 90.437 109.821C90.4467 109.811 90.4564 109.802 90.4648 109.792L90.4759 109.779C90.4939 109.76 90.5064 109.747 90.5189 109.733C90.5314 109.72 90.5426 109.706 90.5537 109.69L90.5703 109.67C90.5787 109.658 90.587 109.649 90.5953 109.638C90.612 109.614 90.6287 109.59 90.644 109.565L90.6662 109.532C90.6898 109.492 90.712 109.45 90.7342 109.403L90.7495 109.368C90.7634 109.335 90.7773 109.302 90.7884 109.267L90.8009 109.228C90.8162 109.175 90.8259 109.131 90.8328 109.09L94.6287 85.2918C94.6467 85.1807 94.7287 85.0918 94.837 85.0654C94.9453 85.0391 95.0606 85.0807 95.1259 85.171L97.4759 88.3752C97.5203 88.4349 97.5384 88.5099 97.5259 88.5835L93.7301 112.382C93.7203 112.446 93.7051 112.513 93.6828 112.586C93.6787 112.602 93.6731 112.618 93.6676 112.634C93.6481 112.693 93.6287 112.743 93.6078 112.792C93.6051 112.8 93.6009 112.813 93.5939 112.827C93.5912 112.832 93.587 112.842 93.5828 112.849C93.5551 112.908 93.5259 112.964 93.4939 113.017C93.4926 113.02 93.4912 113.022 93.4898 113.025C93.4787 113.043 93.4717 113.054 93.4634 113.065C93.437 113.104 93.4148 113.139 93.3912 113.171C93.3912 113.171 93.3856 113.179 93.3801 113.186C93.3717 113.199 93.3606 113.21 93.3509 113.222L93.3426 113.234C93.319 113.263 93.3037 113.282 93.2856 113.302C93.2842 113.304 93.2773 113.311 93.2717 113.318C93.2606 113.331 93.2495 113.342 93.237 113.354L93.2259 113.365C93.2023 113.39 93.187 113.406 93.1717 113.421L93.1578 113.435C93.1453 113.447 93.1315 113.46 93.1176 113.471L93.094 113.492C93.0787 113.504 93.0648 113.518 93.0495 113.531C93.0453 113.535 93.0398 113.539 93.0356 113.543C93.0231 113.553 93.0092 113.564 92.9939 113.574L92.9662 113.595C92.9495 113.607 92.9342 113.62 92.9176 113.631C92.8926 113.649 92.8787 113.657 92.8648 113.665L92.8384 113.682C92.8176 113.696 92.7953 113.71 92.7731 113.722L92.7606 113.731C92.7481 113.738 92.7356 113.745 92.7231 113.75C92.6814 113.772 92.6481 113.79 92.6134 113.806C92.6092 113.809 92.6009 113.813 92.5926 113.817C92.5787 113.822 92.5676 113.828 92.5551 113.832C92.5092 113.852 92.4592 113.871 92.4092 113.888C92.4009 113.892 92.3884 113.896 92.3759 113.9C92.3662 113.903 92.3564 113.906 92.3481 113.908C92.3314 113.914 92.3148 113.918 92.2995 113.922C92.2578 113.933 92.2245 113.942 92.1912 113.949C92.1731 113.953 92.1537 113.957 92.1342 113.96C92.0981 113.967 92.062 113.971 92.0259 113.975C92.0009 113.978 91.9884 113.979 91.9759 113.981C91.9189 113.989 91.8662 113.992 91.812 113.992ZM89.9592 110.718L91.9467 113.428L91.9578 113.427C91.9828 113.424 92.0078 113.42 92.0328 113.415L92.0731 113.407C92.0981 113.402 92.1217 113.396 92.1453 113.39L92.1842 113.379C92.187 113.378 92.2023 113.374 92.2051 113.374C92.2092 113.372 92.2189 113.368 92.2301 113.364C92.2662 113.352 92.3023 113.338 92.337 113.322C92.3453 113.32 92.3537 113.315 92.362 113.313C92.3676 113.31 92.3717 113.307 92.3773 113.306C92.4023 113.295 92.4273 113.281 92.4523 113.267L92.4787 113.253C92.4828 113.25 92.4884 113.247 92.4926 113.245C92.5078 113.235 92.5231 113.227 92.537 113.217L92.5912 113.182C92.6092 113.17 92.6176 113.163 92.6273 113.154L92.6856 113.11C92.7037 113.095 92.712 113.086 92.7217 113.079L92.7842 113.022C92.7939 113.013 92.8037 113.003 92.8134 112.992L92.8231 112.982L92.8676 112.935C92.8787 112.922 92.8898 112.909 92.9009 112.895L92.944 112.84C92.962 112.817 92.9773 112.792 92.9926 112.768L93.0092 112.743C93.0106 112.74 93.012 112.739 93.0134 112.736C93.0384 112.696 93.0606 112.653 93.0828 112.607C93.0842 112.604 93.087 112.6 93.0884 112.595C93.0898 112.589 93.0939 112.581 93.0967 112.572C93.112 112.538 93.1245 112.504 93.1356 112.47L93.1481 112.431C93.1634 112.378 93.1731 112.333 93.1801 112.293L96.9578 88.6099L95.0703 86.0363L91.3801 109.181C91.3703 109.245 91.3551 109.31 91.3328 109.385C91.3287 109.402 91.3231 109.418 91.3176 109.435C91.2981 109.493 91.2801 109.542 91.2592 109.59C91.2495 109.615 91.2439 109.628 91.237 109.64C91.2078 109.704 91.1745 109.767 91.1398 109.822C91.1328 109.835 91.1245 109.846 91.1162 109.858C91.087 109.903 91.0648 109.938 91.0398 109.97C91.0273 109.986 91.0134 110.004 90.9995 110.02L90.9898 110.031C90.9676 110.058 90.9509 110.079 90.9328 110.099C90.9148 110.118 90.8967 110.138 90.8787 110.157L90.8634 110.174C90.8495 110.189 90.8342 110.204 90.819 110.218C90.7995 110.238 90.7787 110.256 90.7592 110.274L90.7398 110.29C90.7259 110.303 90.712 110.315 90.6967 110.328C90.6773 110.343 90.6578 110.358 90.6384 110.372L90.612 110.392C90.5967 110.404 90.5801 110.417 90.5634 110.428C90.5467 110.439 90.5301 110.45 90.512 110.461L90.4828 110.479C90.462 110.493 90.4398 110.507 90.419 110.52C90.4051 110.528 90.3898 110.535 90.3759 110.543L90.362 110.55C90.3273 110.568 90.2939 110.586 90.2592 110.603C90.2439 110.61 90.2301 110.615 90.2162 110.622C90.1551 110.649 90.1051 110.668 90.0551 110.685L90.0412 110.69C90.0245 110.696 90.0092 110.702 89.9926 110.707C89.9828 110.713 89.9717 110.715 89.9592 110.718Z" fill="#F9FAFB"/>
<path d="M116.055 62.9417L118.404 66.1444L112.979 100.165L110.629 96.9625L116.055 62.9417Z" fill="#D0D5DD"/>
<path d="M112.979 100.443C112.892 100.443 112.808 100.401 112.755 100.329L110.405 97.125C110.361 97.0653 110.343 96.9903 110.355 96.9167L115.782 62.8958C115.8 62.7847 115.882 62.6958 115.99 62.6694C116.098 62.6431 116.214 62.6847 116.279 62.775L118.629 65.9792C118.673 66.0389 118.692 66.1139 118.679 66.1875L113.253 100.208C113.235 100.319 113.153 100.408 113.044 100.435C113.022 100.442 113 100.443 112.979 100.443ZM110.922 96.8917L112.81 99.4653L118.112 66.2153L116.225 63.6417L110.922 96.8917Z" fill="#F9FAFB"/>
<path d="M118.683 64.4001L119.135 66.1432L116.785 62.9404L116.333 61.1973L115.768 59.021L116.718 53.0585C116.825 52.3848 116.861 51.7279 116.829 51.0904C116.818 50.8793 116.8 50.671 116.776 50.464C116.757 50.3001 116.731 50.139 116.703 49.9807C116.699 49.9529 116.693 49.9265 116.688 49.9001C116.658 49.7473 116.625 49.5973 116.589 49.4473C116.582 49.4182 116.574 49.3876 116.567 49.3598C116.528 49.2085 116.485 49.0571 116.438 48.9085C116.435 48.9015 116.432 48.8932 116.431 48.8862C116.39 48.7612 116.345 48.639 116.297 48.5168C116.268 48.4376 116.236 48.3612 116.204 48.2835C116.171 48.2015 116.136 48.121 116.1 48.0404C116.065 47.964 116.031 47.8904 115.992 47.814C115.953 47.7321 115.911 47.6515 115.867 47.571C115.835 47.5098 115.803 47.4515 115.77 47.3918C115.721 47.3085 115.672 47.2251 115.621 47.1432C115.586 47.0876 115.551 47.0293 115.515 46.9751C115.436 46.8529 115.354 46.7307 115.27 46.614L117.618 49.8168C117.688 49.9112 117.754 50.0043 117.818 50.1015C117.835 50.1251 117.85 50.1515 117.865 50.1779C117.901 50.2321 117.936 50.2904 117.971 50.346C118.022 50.4279 118.071 50.5112 118.12 50.5946C118.153 50.6543 118.185 50.7126 118.217 50.7737C118.238 50.8112 118.261 50.8501 118.281 50.889C118.301 50.9321 118.321 50.9751 118.342 51.0168C118.378 51.0932 118.414 51.1668 118.45 51.2432C118.486 51.3237 118.52 51.4043 118.554 51.4862C118.586 51.564 118.617 51.6404 118.647 51.7196C118.661 51.7543 118.676 51.789 118.69 51.8237C118.722 51.9112 118.751 52.0015 118.779 52.0904C118.782 52.0973 118.785 52.1043 118.789 52.1112C118.836 52.2598 118.878 52.4112 118.918 52.5626C118.925 52.5932 118.933 52.6223 118.94 52.6515C118.972 52.7807 119.003 52.9112 119.028 53.0432C119.032 53.0626 119.035 53.0835 119.039 53.1043C119.045 53.1321 119.049 53.1571 119.054 53.1848C119.083 53.3446 119.108 53.5043 119.128 53.6682C119.151 53.8737 119.171 54.0835 119.181 54.2946C119.213 54.9307 119.178 55.589 119.07 56.264L118.12 62.2251L118.683 64.4001Z" fill="#D0D5DD"/>
<path d="M119.134 66.4223C119.048 66.4223 118.964 66.382 118.911 66.3084L116.561 63.1056C116.54 63.0778 116.525 63.0445 116.516 63.0112L115.5 59.0903C115.49 59.0528 115.489 59.0139 115.494 58.9764L116.444 53.0139C116.547 52.3723 116.583 51.7292 116.551 51.1042C116.541 50.907 116.523 50.7028 116.5 50.4973C116.483 50.357 116.459 50.2042 116.427 50.0306C116.423 50.0056 116.421 49.9848 116.415 49.9639C116.387 49.8167 116.355 49.6723 116.316 49.5125L116.296 49.4306C116.254 49.2709 116.214 49.1292 116.173 49C116.169 48.9875 116.165 48.9764 116.161 48.9639C116.119 48.8375 116.072 48.7112 116.034 48.6153C116.005 48.5375 115.976 48.4639 115.946 48.3917C115.912 48.3084 115.879 48.232 115.843 48.1542C115.809 48.0834 115.776 48.0112 115.74 47.9389C115.701 47.857 115.662 47.782 115.621 47.7056C115.587 47.6431 115.557 47.5862 115.525 47.5306C115.48 47.4528 115.433 47.3723 115.383 47.2931L115.359 47.2556C115.333 47.2139 115.308 47.1723 115.28 47.1306C115.196 46.9987 115.118 46.8848 115.041 46.7792C114.951 46.6556 114.979 46.482 115.102 46.3917C115.226 46.3014 115.4 46.3278 115.49 46.4514L117.839 49.6542C117.918 49.7598 117.986 49.857 118.047 49.9514C118.064 49.975 118.082 50.0056 118.1 50.0362C118.122 50.0695 118.151 50.1153 118.179 50.1612L118.202 50.2C118.255 50.2834 118.305 50.3695 118.355 50.4556C118.391 50.5209 118.425 50.582 118.458 50.6445L118.471 50.6681C118.489 50.7 118.507 50.732 118.523 50.7653C118.537 50.7945 118.551 50.8223 118.565 50.8514L118.615 50.9556C118.643 51.0125 118.669 51.0695 118.696 51.1264C118.726 51.1931 118.752 51.257 118.78 51.3223L118.804 51.3764C118.837 51.4584 118.869 51.5375 118.9 51.6195L118.941 51.7223C118.975 51.8153 119.004 51.9042 119.033 51.9931L119.04 52.0084C119.043 52.0153 119.046 52.0209 119.047 52.0278C119.091 52.1681 119.134 52.3209 119.18 52.4931L119.204 52.5848C119.243 52.7417 119.272 52.8709 119.296 52.9903C119.298 53.0042 119.304 53.0292 119.307 53.0542C119.308 53.0625 119.312 53.0792 119.315 53.0973L119.321 53.1237C119.357 53.3195 119.382 53.482 119.4 53.6348C119.426 53.8542 119.444 54.0709 119.454 54.2806C119.487 54.9445 119.448 55.6264 119.34 56.307L118.398 62.2112L118.95 64.332L119.401 66.075C119.434 66.2042 119.372 66.3389 119.251 66.3959C119.216 66.4125 119.175 66.4223 119.134 66.4223ZM117.04 62.8195L118.502 64.8125L117.848 62.2931C117.839 62.2556 117.837 62.2167 117.843 62.1792L118.793 56.2181C118.896 55.575 118.932 54.932 118.9 54.307C118.89 54.1098 118.872 53.9056 118.848 53.7C118.832 53.5598 118.808 53.407 118.776 53.2334C118.775 53.2264 118.771 53.2084 118.768 53.1903L118.762 53.1639C118.761 53.1584 118.759 53.1514 118.759 53.1459C118.757 53.1264 118.755 53.1167 118.752 53.1056C118.729 52.9848 118.702 52.8653 118.665 52.7181L118.643 52.6292C118.602 52.4737 118.562 52.3348 118.522 52.207L118.516 52.1931C118.514 52.1875 118.512 52.1806 118.509 52.1737C118.482 52.0875 118.454 52.0014 118.423 51.9167L118.383 51.8195C118.352 51.7403 118.323 51.6653 118.293 51.5903L118.271 51.5375C118.244 51.4764 118.219 51.4167 118.191 51.3556C118.168 51.3028 118.141 51.25 118.115 51.1959L118.062 51.0862C118.051 51.0625 118.04 51.0375 118.027 51.0125C118.015 50.9889 118.002 50.9653 117.989 50.9417L117.969 50.9084C117.934 50.8431 117.904 50.7875 117.872 50.7306C117.827 50.6528 117.78 50.5723 117.73 50.4931L117.704 50.4514C117.679 50.4112 117.654 50.3695 117.627 50.3306C117.625 50.3264 117.622 50.3223 117.619 50.3181C117.607 50.2959 117.596 50.2764 117.583 50.2584C117.525 50.1695 117.462 50.0806 117.389 49.982L116.798 49.1778C116.808 49.2139 116.818 49.2514 116.827 49.2889L116.85 49.3764C116.893 49.5514 116.925 49.7042 116.952 49.8487C116.958 49.8681 116.964 49.9014 116.969 49.9348C117.001 50.1153 117.027 50.2792 117.046 50.4306C117.072 50.65 117.09 50.8667 117.1 51.0764C117.133 51.7403 117.094 52.4223 116.986 53.1014L116.044 59.007L117.04 62.8195Z" fill="#F9FAFB"/>
<path d="M99.2743 81.3501L98.6382 85.339H94.9021H93.3243H48.7437H47.1687H43.4326L44.0687 81.3501H99.2743Z" fill="#D0D5DD"/>
<path d="M98.6384 85.6168H43.4328C43.3509 85.6168 43.2745 85.5807 43.2217 85.5196C43.1689 85.4571 43.1453 85.3765 43.1592 85.296L43.7953 81.3085C43.8161 81.1737 43.9328 81.0737 44.0703 81.0737H99.2759C99.3578 81.0737 99.4342 81.1098 99.487 81.171C99.5397 81.2335 99.5634 81.314 99.5495 81.3946L98.9134 85.3821C98.8911 85.5168 98.7745 85.6168 98.6384 85.6168ZM43.7578 85.0612H98.4009L98.9481 81.6293H44.305L43.7578 85.0612Z" fill="#F9FAFB"/>
<path d="M45.5923 105.099L48.7437 85.3376H93.3242L90.1728 105.099C90.1131 105.477 89.7451 105.785 89.352 105.785H46.1964C45.802 105.786 45.5325 105.478 45.5923 105.099Z" fill="#F9FAFB"/>
<path d="M89.3521 106.064H46.1965C45.9243 106.064 45.6729 105.953 45.5076 105.758C45.3437 105.567 45.2771 105.317 45.3187 105.056L48.4701 85.2945C48.491 85.1598 48.6076 85.0598 48.7451 85.0598H93.3257C93.4076 85.0598 93.484 85.0959 93.5368 85.157C93.5896 85.2195 93.6132 85.3001 93.5993 85.3806L90.4479 105.142C90.3646 105.658 89.884 106.064 89.3521 106.064ZM48.9812 85.6168L45.8674 105.143C45.8521 105.242 45.8743 105.332 45.9312 105.399C45.9924 105.47 46.0868 105.508 46.1965 105.508H89.3521C89.609 105.508 89.859 105.301 89.8993 105.056L92.9993 85.6168H48.9812Z" fill="#F9FAFB"/>
<path d="M101.958 81.3501H99.2748H44.0692H38.3525L40.7025 84.5543H46.4178H101.623H104.308L101.958 81.3501Z" fill="#D0D5DD"/>
<path d="M104.308 84.8322H40.7026C40.6137 84.8322 40.5304 84.7905 40.479 84.7183L38.129 81.5141C38.0665 81.4294 38.0582 81.3183 38.1054 81.2238C38.1526 81.1308 38.2485 81.071 38.3526 81.071H101.958C102.047 81.071 102.13 81.1127 102.182 81.1849L104.532 84.3891C104.594 84.4738 104.603 84.5849 104.555 84.6794C104.508 84.7724 104.412 84.8322 104.308 84.8322ZM40.8429 84.2766H103.758L101.817 81.628H38.9012L40.8429 84.2766Z" fill="#F9FAFB"/>
<path d="M100.987 88.5416H45.7826L43.4326 85.3389H98.6382L100.987 88.5416Z" fill="#D0D5DD"/>
<path d="M100.987 88.8195H45.7827C45.6938 88.8195 45.6105 88.7779 45.5591 88.7056L43.2091 85.5029C43.1466 85.4181 43.1383 85.307 43.1855 85.2126C43.2327 85.1195 43.3285 85.0598 43.4327 85.0598H98.6383C98.7272 85.0598 98.8105 85.1015 98.8619 85.1737L101.212 88.3765C101.274 88.4612 101.283 88.5723 101.235 88.6668C101.188 88.7612 101.092 88.8195 100.987 88.8195ZM45.923 88.264H100.44L98.498 85.6168H43.9813L45.923 88.264Z" fill="#F9FAFB"/>
<path d="M94.9421 59.5889L94.306 60.6875H49.4463L49.6213 59.5889H94.9421Z" fill="#98A2B3"/>
<path d="M94.3056 60.9654H49.4445C49.3626 60.9654 49.2862 60.9293 49.2334 60.8681C49.1806 60.807 49.157 60.7251 49.1709 60.6445L49.3459 59.5445C49.3667 59.4098 49.4834 59.3098 49.6209 59.3098H94.9417C95.0403 59.3098 95.1334 59.3626 95.182 59.4487C95.232 59.5348 95.232 59.6404 95.182 59.7265L94.5459 60.8265C94.4973 60.9126 94.4056 60.9654 94.3056 60.9654ZM49.7709 60.4098H94.1459L94.4612 59.8654H49.857L49.7709 60.4098Z" fill="#98A2B3"/>
<path d="M88.0416 72.9585L87.8666 74.0585H57.8027L57.9777 72.9585H88.0416Z" fill="#98A2B3"/>
<path d="M87.8668 74.3362H57.8029C57.721 74.3362 57.6446 74.3001 57.5918 74.239C57.539 74.1765 57.5154 74.0959 57.5293 74.0154L57.7043 72.9154C57.7251 72.7807 57.8418 72.6807 57.9793 72.6807H88.0418C88.1238 72.6807 88.2001 72.7168 88.2529 72.7779C88.3057 72.8404 88.3293 72.9209 88.3154 73.0015L88.1404 74.1015C88.1196 74.2362 88.0029 74.3362 87.8668 74.3362ZM58.1279 73.7807H87.6293L87.7154 73.2362H58.214L58.1279 73.7807Z" fill="#98A2B3"/>
<path d="M99.5984 66.2737L99.422 67.3737H48.3789L48.5539 66.2737H99.5984Z" fill="#98A2B3"/>
<path d="M99.4221 67.6514H48.3791C48.2971 67.6514 48.2208 67.6153 48.168 67.5542C48.1152 67.4931 48.0916 67.4111 48.1055 67.3306L48.2805 66.2306C48.3013 66.0958 48.418 65.9958 48.5555 65.9958H99.5985C99.6805 65.9958 99.7569 66.032 99.8096 66.0931C99.8624 66.1542 99.886 66.2361 99.8721 66.3167L99.6971 67.4167C99.6749 67.5514 99.5596 67.6514 99.4221 67.6514ZM48.7041 67.0958H99.1846L99.2708 66.5514H48.7916L48.7041 67.0958Z" fill="#98A2B3"/>
<path d="M108.266 41.7947C109.057 41.7947 109.598 42.4113 109.477 43.1752C109.472 43.2072 109.465 43.2391 109.457 43.2725C111.668 43.5752 113.53 44.5863 114.832 46.0697C115.886 47.2697 116.57 48.778 116.776 50.4641C116.801 50.6697 116.819 50.8794 116.829 51.0905C116.861 51.7266 116.826 52.385 116.718 53.0586L115.766 59.0197L116.332 61.1975L116.784 62.9405H116.054H115.141H104.893H94.644H93.001L94.3051 60.6877L94.9413 59.5877L95.2704 59.0183L96.0482 54.1391L96.2204 53.0572C96.594 50.7183 97.7788 48.5683 99.4579 46.8766C100.015 46.3155 100.625 45.8058 101.277 45.3544C102.858 44.2627 104.688 43.5225 106.604 43.2697C106.607 43.2377 106.609 43.2058 106.613 43.1738C106.737 42.4113 107.476 41.7947 108.266 41.7947Z" fill="#D0D5DD"/>
<path d="M116.786 63.2196H93.0024C92.9038 63.2196 92.8107 63.1668 92.7621 63.0807C92.7121 62.9946 92.7121 62.8891 92.7621 62.803L95.0052 58.9266L95.9482 53.0155C96.3204 50.6835 97.4663 48.4932 99.2621 46.6821C99.8302 46.1099 100.455 45.5863 101.122 45.1266C102.718 44.0252 104.525 43.3002 106.362 43.0252C106.552 42.1849 107.384 41.5168 108.266 41.5168C108.737 41.5168 109.152 41.6988 109.436 42.0307C109.673 42.3085 109.79 42.6627 109.77 43.0391C111.865 43.3863 113.729 44.3905 115.04 45.8863C116.147 47.1474 116.843 48.7196 117.051 50.4307C117.077 50.6432 117.095 50.8599 117.107 51.0766C117.14 51.7391 117.101 52.421 116.993 53.103L116.051 59.0071L117.055 62.8724C117.077 62.9557 117.058 63.0446 117.007 63.1127C116.955 63.1807 116.872 63.2196 116.786 63.2196ZM93.4829 62.6641H116.426L115.498 59.0905C115.489 59.053 115.487 59.0141 115.493 58.9766L116.444 53.0155C116.547 52.3724 116.583 51.7293 116.552 51.1043C116.543 50.9016 116.525 50.6974 116.501 50.4988C116.307 48.8988 115.658 47.4307 114.623 46.253C113.323 44.771 111.525 43.8363 109.419 43.5474C109.341 43.5363 109.272 43.4932 109.227 43.4293C109.183 43.3655 109.168 43.2849 109.186 43.2085C109.193 43.1793 109.198 43.1557 109.202 43.1307C109.247 42.8502 109.18 42.5877 109.012 42.3905C108.837 42.1849 108.572 42.0724 108.266 42.0724C107.608 42.0724 106.99 42.5863 106.89 43.2182C106.886 43.2432 106.884 43.2682 106.882 43.2932C106.872 43.4238 106.77 43.5293 106.641 43.5474C104.819 43.7877 103.02 44.4918 101.437 45.5849C100.8 46.0252 100.2 46.5266 99.6566 47.0738C97.9677 48.7766 96.8454 50.9182 96.4968 53.103L95.5454 59.0641C95.5399 59.0974 95.5288 59.1293 95.5121 59.1599L93.4829 62.6641Z" fill="#F9FAFB"/>
<path d="M117.392 52.6599C117.882 52.6599 118.22 53.0446 118.145 53.5182C118.068 53.9932 117.61 54.3766 117.118 54.3766C116.626 54.3766 116.289 53.9919 116.364 53.5182C116.44 53.0446 116.9 52.6599 117.392 52.6599Z" fill="#F0F2F5"/>
<path d="M118.98 42.7405C119.526 42.7405 119.904 43.2016 119.776 43.7335L117.915 51.7933C117.869 51.9905 117.676 52.1391 117.476 52.1391C117.468 52.1391 117.458 52.1391 117.45 52.1377C117.258 52.1252 117.13 51.9752 117.147 51.7933L117.857 43.7335C117.901 43.2224 118.372 42.778 118.909 42.7433C118.932 42.7419 118.955 42.7405 118.98 42.7405Z" fill="#F0F2F5"/>
<path d="M119.329 40.5085C123.938 40.5085 127.098 44.1127 126.39 48.5585C125.68 53.0058 121.37 56.6085 116.761 56.6085C112.15 56.6085 108.988 53.0058 109.698 48.5585C110.408 44.1127 114.719 40.5085 119.329 40.5085Z" fill="#98A2B3"/>
<path d="M116.762 56.9765C114.386 56.9765 112.302 56.0695 110.897 54.4223C109.536 52.8265 108.982 50.7237 109.336 48.5001C110.071 43.8904 114.554 40.1404 119.33 40.1404C121.705 40.1404 123.789 41.0473 125.194 42.6945C126.555 44.2904 127.111 46.3932 126.755 48.6168C126.019 53.2265 121.537 56.9765 116.762 56.9765ZM119.329 40.8765C114.9 40.8765 110.743 44.3487 110.062 48.6154C109.743 50.6223 110.237 52.514 111.457 53.9432C112.721 55.4237 114.604 56.239 116.761 56.239C121.189 56.239 125.346 52.7668 126.026 48.5001C126.346 46.4932 125.851 44.6015 124.632 43.1723C123.369 41.6932 121.486 40.8765 119.329 40.8765Z" fill="#F9FAFB"/>
<path d="M119.774 43.7335C119.902 43.2016 119.524 42.7405 118.978 42.7405C118.955 42.7405 118.93 42.7419 118.905 42.7433C118.367 42.778 117.896 43.2224 117.852 43.7335L117.142 51.7933C117.125 51.9766 117.253 52.1252 117.445 52.1377C117.453 52.1377 117.463 52.1391 117.471 52.1391C117.673 52.1391 117.866 51.9905 117.91 51.7933L119.774 43.7335Z" fill="#F9FAFB"/>
<path d="M117.473 52.507C117.455 52.507 117.437 52.507 117.42 52.5057C117.23 52.4932 117.058 52.4084 116.937 52.2681C116.818 52.1293 116.761 51.9487 116.777 51.7612L117.487 43.7015C117.547 43.0056 118.161 42.4223 118.883 42.3765C118.913 42.3737 118.947 42.3723 118.98 42.3723C119.358 42.3723 119.702 42.5348 119.926 42.8168C120.144 43.0945 120.22 43.4598 120.134 43.8181L118.273 51.8765C118.19 52.2362 117.847 52.507 117.473 52.507ZM118.98 43.1084C118.965 43.1084 118.949 43.1084 118.934 43.1098C118.576 43.1334 118.251 43.432 118.222 43.764L117.519 51.7529C117.537 51.7404 117.552 51.7237 117.555 51.7084L119.416 43.6487C119.416 43.6473 119.416 43.6459 119.418 43.6459C119.451 43.5056 119.426 43.3723 119.347 43.2709C119.263 43.1668 119.133 43.1084 118.98 43.1084Z" fill="#F9FAFB"/>
<path d="M117.117 54.3778C117.607 54.3778 118.067 53.9931 118.144 53.5195C118.22 53.0445 117.882 52.6611 117.391 52.6611C116.899 52.6611 116.439 53.0459 116.363 53.5195C116.288 53.9945 116.624 54.3778 117.117 54.3778Z" fill="#F9FAFB"/>
<path d="M117.118 54.7459C116.77 54.7459 116.451 54.6042 116.241 54.3584C116.033 54.114 115.947 53.7945 116 53.4612C116.104 52.8056 116.715 52.2917 117.391 52.2917C117.737 52.2917 118.056 52.4334 118.266 52.6792C118.475 52.9237 118.561 53.2431 118.508 53.5765C118.402 54.2334 117.793 54.7459 117.118 54.7459ZM117.391 53.0292C117.079 53.0292 116.775 53.2806 116.727 53.5779C116.708 53.6973 116.734 53.8015 116.801 53.8806C116.872 53.964 116.984 54.0098 117.116 54.0098C117.427 54.0098 117.731 53.7584 117.779 53.4612C117.798 53.3417 117.772 53.2376 117.705 53.1584C117.634 53.0751 117.523 53.0292 117.391 53.0292Z" fill="#F9FAFB"/>
<path d="M116.786 62.9417H116.056H115.142H104.895H94.646H93.0029L95.3515 66.1444H96.996H107.245H117.492H118.406H119.136L116.786 62.9417Z" fill="#D0D5DD"/>
<path d="M119.136 66.4223H95.3511C95.2622 66.4223 95.1788 66.3807 95.1275 66.3084L92.7775 63.1056C92.715 63.0209 92.7066 62.9098 92.7538 62.8154C92.8011 62.7223 92.8969 62.6626 93.0011 62.6626H116.784C116.873 62.6626 116.957 62.7043 117.008 62.7765L119.358 65.9807C119.421 66.0654 119.429 66.1765 119.382 66.2709C119.336 66.364 119.24 66.4223 119.136 66.4223ZM95.4927 65.8668H118.587L116.646 63.2182H93.5497L95.4927 65.8668Z" fill="#F9FAFB"/>
<path d="M109.632 67.8305C109.642 67.811 109.651 67.7916 109.661 67.7721C109.668 67.7582 109.675 67.7444 109.682 67.7291C109.71 67.668 109.735 67.6069 109.758 67.5444C109.761 67.536 109.764 67.5277 109.767 67.5194C109.792 67.4485 109.815 67.3777 109.835 67.3055C109.84 67.2846 109.846 67.2638 109.851 67.243C109.872 67.1624 109.89 67.0805 109.903 66.9971L107.553 63.793C107.539 63.8763 107.521 63.9569 107.501 64.0388C107.496 64.0596 107.49 64.0805 107.485 64.1013C107.465 64.1735 107.442 64.2457 107.417 64.3152C107.414 64.3235 107.411 64.3319 107.408 64.3402C107.379 64.418 107.346 64.493 107.311 64.568C107.301 64.5874 107.292 64.6069 107.282 64.6263C107.251 64.6888 107.218 64.7499 107.183 64.8096C107.175 64.8235 107.168 64.8374 107.16 64.8513C107.142 64.8805 107.122 64.9082 107.104 64.936C107.067 64.993 107.029 65.0499 106.989 65.1041C106.963 65.1402 106.933 65.1749 106.906 65.2096C106.874 65.2485 106.843 65.2874 106.81 65.3263C106.778 65.3638 106.743 65.3985 106.71 65.4332C106.679 65.4652 106.65 65.4971 106.618 65.5277C106.581 65.5638 106.543 65.5971 106.504 65.6319C106.474 65.6596 106.443 65.6874 106.411 65.7138C106.372 65.7457 106.331 65.7763 106.29 65.8069C106.256 65.8332 106.222 65.8596 106.186 65.8846C106.149 65.911 106.111 65.9332 106.072 65.9582C106.029 65.986 105.986 66.0152 105.942 66.0402C105.91 66.0596 105.875 66.0749 105.843 66.093C105.786 66.1235 105.728 66.1541 105.67 66.1819C105.599 66.2152 105.526 66.2471 105.453 66.2749C105.453 66.2749 105.451 66.2749 105.451 66.2763C105.375 66.3055 105.296 66.3305 105.217 66.3555C105.186 66.3652 105.156 66.3721 105.124 66.3805C105.068 66.3957 105.013 66.4082 104.956 66.4207C104.924 66.4277 104.892 66.4346 104.86 66.4402C104.8 66.4513 104.74 66.4596 104.681 66.4666C104.653 66.4694 104.624 66.4735 104.596 66.4763C104.507 66.4846 104.418 66.4888 104.329 66.4888C104.186 66.4888 104.05 66.4749 103.917 66.4555L101.964 63.793C101.951 63.8735 101.943 63.9527 101.938 64.0319C101.936 64.0582 101.936 64.0832 101.935 64.1096C101.933 64.1624 101.931 64.2138 101.932 64.2652C101.933 64.2957 101.936 64.3249 101.938 64.3555C101.94 64.4013 101.943 64.4471 101.949 64.4916C101.953 64.5221 101.957 64.5527 101.963 64.5832C101.967 64.611 101.97 64.6402 101.975 64.668C101.978 64.6846 101.983 64.6999 101.986 64.7166C101.99 64.7388 101.996 64.7596 102.001 64.7805C102.014 64.8305 102.028 64.8791 102.043 64.9263C102.049 64.9444 102.054 64.9624 102.06 64.9791C102.063 64.986 102.064 64.9944 102.067 65.0013C102.072 65.018 102.082 65.0332 102.088 65.0499C102.11 65.1082 102.135 65.1652 102.161 65.2207C102.167 65.2319 102.171 65.2444 102.176 65.2569C102.185 65.2735 102.196 65.2874 102.204 65.3041C102.226 65.3457 102.25 65.386 102.276 65.4263C102.286 65.4416 102.293 65.4582 102.304 65.4721C102.322 65.4985 102.34 65.5249 102.36 65.5513L104.71 68.7555C104.71 68.7555 104.71 68.7541 104.708 68.7541L104.71 68.7555C105.131 69.3291 105.832 69.693 106.679 69.693C106.768 69.693 106.857 69.6874 106.946 69.6805C106.974 69.6777 107.003 69.6735 107.031 69.6707C107.09 69.6638 107.151 69.6555 107.21 69.6444C107.242 69.6388 107.274 69.6319 107.306 69.6249C107.363 69.6124 107.418 69.5999 107.474 69.5846C107.504 69.5763 107.535 69.568 107.567 69.5596C107.583 69.5555 107.599 69.5513 107.615 69.5457C107.678 69.5263 107.74 69.5041 107.801 69.4805H107.803C107.864 69.4569 107.924 69.4319 107.982 69.4055C107.995 69.3999 108.007 69.393 108.02 69.386C108.079 69.3582 108.136 69.3277 108.193 69.2971C108.218 69.2832 108.245 69.2721 108.27 69.2582C108.276 69.2541 108.285 69.2485 108.292 69.2444C108.336 69.218 108.379 69.1902 108.422 69.1624C108.454 69.143 108.486 69.1249 108.517 69.1027C108.524 69.0985 108.529 69.093 108.536 69.0888C108.572 69.0638 108.606 69.0374 108.64 69.011C108.674 68.986 108.707 68.9624 108.739 68.9374C108.746 68.9319 108.753 68.9249 108.76 68.9194C108.792 68.893 108.822 68.8652 108.853 68.8374C108.883 68.811 108.914 68.786 108.943 68.7582C108.951 68.7499 108.958 68.7416 108.967 68.7346C108.999 68.7041 109.028 68.6721 109.058 68.6402C109.083 68.6138 109.111 68.5874 109.136 68.561C109.145 68.5527 109.151 68.5416 109.16 68.5332C109.193 68.4957 109.224 68.4569 109.256 68.4166C109.278 68.3902 109.3 68.3638 109.321 68.3374C109.326 68.3291 109.332 68.3207 109.338 68.3124C109.378 68.2582 109.415 68.2013 109.453 68.1444C109.468 68.1221 109.485 68.0999 109.499 68.0763C109.501 68.0707 109.506 68.0652 109.508 68.0596C109.517 68.0457 109.524 68.0319 109.532 68.018C109.568 67.9527 109.601 67.8916 109.632 67.8305Z" fill="#D0D5DD"/>
<path d="M106.677 69.9695C105.776 69.9695 104.979 69.5889 104.489 68.9236C104.487 68.9222 104.486 68.9195 104.484 68.9181L102.134 65.7139C102.114 65.6847 102.093 65.6556 102.072 65.625C102.062 65.6111 102.054 65.5959 102.046 65.5806C102.012 65.5278 101.986 65.482 101.961 65.4361C101.947 65.4125 101.937 65.3986 101.93 65.382C101.923 65.3695 101.918 65.3556 101.912 65.3403C101.883 65.2792 101.855 65.2153 101.83 65.15C101.819 65.1278 101.812 65.1111 101.807 65.0945C101.805 65.0903 101.8 65.0736 101.798 65.0695C101.794 65.0556 101.789 65.0417 101.784 65.0278L101.779 65.0111C101.762 64.957 101.746 64.9028 101.732 64.8472C101.726 64.8236 101.721 64.7986 101.715 64.775C101.708 64.7486 101.705 64.7347 101.702 64.7209C101.698 64.6986 101.696 64.675 101.691 64.6528L101.684 64.6084C101.68 64.5806 101.675 64.5514 101.672 64.5222C101.666 64.4722 101.662 64.4209 101.659 64.3695L101.658 64.3445C101.657 64.3195 101.655 64.2945 101.654 64.2695C101.652 64.2125 101.654 64.1542 101.657 64.0972V64.0722C101.657 64.0514 101.658 64.032 101.659 64.0111C101.666 63.9195 101.676 63.832 101.689 63.7472C101.707 63.6361 101.789 63.5472 101.898 63.5209C102.007 63.4945 102.122 63.5361 102.187 63.6264L104.069 66.1931C104.247 66.2139 104.383 66.2139 104.569 66.1972C104.584 66.1959 104.598 66.1945 104.614 66.1917L104.646 66.1875C104.701 66.1806 104.755 66.1736 104.809 66.1639C104.839 66.1584 104.868 66.1528 104.897 66.1472C104.948 66.1361 105 66.1236 105.051 66.1111L105.065 66.107C105.089 66.1 105.112 66.0945 105.136 66.0875C105.221 66.0625 105.287 66.0403 105.347 66.0167C105.348 66.0153 105.351 66.0153 105.352 66.0139C105.419 65.9875 105.486 65.9584 105.551 65.9278C105.605 65.9028 105.658 65.875 105.711 65.8459L105.747 65.8264C105.765 65.8167 105.783 65.807 105.801 65.7972C105.833 65.7792 105.865 65.7584 105.896 65.7375L105.955 65.7C105.979 65.6847 106.002 65.6709 106.026 65.6542C106.048 65.6389 106.071 65.6222 106.091 65.6056L106.147 65.5639C106.176 65.5417 106.205 65.5195 106.233 65.4972C106.252 65.4806 106.272 65.4639 106.291 65.4459L106.33 65.4111C106.362 65.3834 106.393 65.3556 106.423 65.3264C106.446 65.3056 106.465 65.2834 106.486 65.2625L106.507 65.2403C106.544 65.2014 106.572 65.1722 106.6 65.1417C106.626 65.1125 106.65 65.082 106.675 65.0514L106.707 65.0125C106.726 64.9889 106.746 64.9639 106.765 64.9389C106.802 64.8889 106.836 64.8361 106.871 64.7847L106.896 64.7459C106.904 64.7334 106.914 64.7209 106.921 64.707L106.941 64.6695C106.973 64.6139 107.004 64.5584 107.032 64.5014L107.058 64.4472C107.094 64.3722 107.122 64.3042 107.146 64.2403C107.147 64.2375 107.152 64.2209 107.154 64.2167C107.177 64.1528 107.197 64.0875 107.215 64.0222C107.221 64.0028 107.225 63.9847 107.23 63.9653C107.252 63.8806 107.266 63.8097 107.277 63.7445C107.296 63.6334 107.377 63.5445 107.487 63.5181C107.596 63.4917 107.709 63.5334 107.776 63.6236L110.126 66.8278C110.171 66.8875 110.189 66.9625 110.176 67.0361C110.162 67.1195 110.144 67.2042 110.119 67.3056C110.114 67.3278 110.107 67.3514 110.101 67.375C110.077 67.4584 110.054 67.5347 110.026 67.6097L110.016 67.6375C109.99 67.7056 109.964 67.7736 109.933 67.8403C109.927 67.8528 109.922 67.8639 109.916 67.875L109.909 67.8875C109.902 67.9042 109.893 67.9209 109.884 67.9389L109.63 67.8264L109.879 67.95C109.846 68.0181 109.809 68.0847 109.772 68.15L109.765 68.1625C109.759 68.1736 109.752 68.1847 109.746 68.1959L109.736 68.2139C109.725 68.232 109.712 68.25 109.7 68.2667L109.686 68.2875C109.646 68.35 109.605 68.4111 109.561 68.4709C109.555 68.4792 109.55 68.4889 109.541 68.4986C109.526 68.5181 109.509 68.5375 109.494 68.557L109.459 68.5986C109.43 68.6361 109.4 68.6736 109.368 68.7084C109.358 68.7195 109.351 68.7292 109.343 68.7389C109.325 68.7597 109.305 68.7792 109.286 68.7986L109.24 68.8459C109.214 68.8736 109.187 68.9014 109.159 68.9278C109.15 68.9389 109.141 68.9459 109.133 68.9542C109.111 68.975 109.089 68.9945 109.066 69.0139L109.011 69.0625C108.986 69.0847 108.961 69.107 108.936 69.1278C108.927 69.1347 108.921 69.1417 108.914 69.1472C108.89 69.1667 108.865 69.1847 108.84 69.2028L108.779 69.2486C108.751 69.2695 108.723 69.2917 108.694 69.3111C108.689 69.3153 108.682 69.3209 108.673 69.3264C108.651 69.3417 108.627 69.357 108.604 69.3709L108.546 69.407C108.508 69.432 108.469 69.4556 108.43 69.4792C108.423 69.4834 108.415 69.4889 108.405 69.4945C108.387 69.5056 108.366 69.5153 108.347 69.525L108.323 69.5375C108.261 69.5709 108.2 69.6028 108.136 69.6334C108.121 69.6417 108.108 69.6486 108.096 69.6542C108.033 69.682 107.969 69.7097 107.905 69.7334C107.904 69.7334 107.902 69.7347 107.9 69.7347C107.833 69.7597 107.766 69.7834 107.698 69.8056C107.684 69.8097 107.672 69.8139 107.658 69.8167C107.615 69.8292 107.586 69.8375 107.555 69.8445C107.484 69.8639 107.423 69.8778 107.362 69.8903C107.327 69.8972 107.293 69.9042 107.258 69.9111C107.193 69.9222 107.127 69.932 107.062 69.9389L107.034 69.9417C107.012 69.9445 106.991 69.9472 106.969 69.9486C106.864 69.9639 106.769 69.9695 106.677 69.9695ZM104.936 68.5931C105.326 69.1167 105.958 69.4139 106.679 69.4139C106.752 69.4139 106.832 69.4097 106.921 69.4014C106.934 69.4 106.95 69.3986 106.965 69.3959L106.998 69.3917C107.052 69.3847 107.108 69.3778 107.162 69.3681C107.191 69.3625 107.221 69.357 107.25 69.3514C107.301 69.3403 107.352 69.3278 107.402 69.3153C107.439 69.3056 107.462 69.2986 107.487 69.2917L107.519 69.2834C107.589 69.2625 107.644 69.2431 107.7 69.2209C107.705 69.2181 107.711 69.2167 107.715 69.2153C107.759 69.1986 107.814 69.175 107.868 69.1514C107.88 69.1445 107.89 69.1389 107.901 69.1347C107.955 69.1097 108.008 69.082 108.061 69.0528C108.075 69.0445 108.09 69.0375 108.104 69.0306C108.112 69.0264 108.122 69.0222 108.13 69.0167C108.136 69.0125 108.144 69.0084 108.152 69.0028C108.183 68.9847 108.214 68.9653 108.244 68.9459L108.315 68.9014C108.33 68.8931 108.344 68.8834 108.358 68.8736L108.376 68.8611C108.398 68.8459 108.421 68.8292 108.441 68.8125L108.514 68.7584C108.53 68.7459 108.548 68.7334 108.564 68.7209C108.568 68.7181 108.58 68.707 108.583 68.7028C108.602 68.6875 108.621 68.6695 108.64 68.6528L108.705 68.5959C108.721 68.582 108.737 68.5695 108.751 68.5556C108.759 68.5472 108.765 68.5403 108.772 68.5334C108.794 68.5125 108.815 68.4903 108.836 68.4681L108.891 68.4111C108.904 68.3986 108.916 68.3861 108.929 68.3736C108.936 68.3639 108.943 68.3556 108.95 68.3486C108.976 68.3181 109.001 68.2875 109.025 68.257L109.037 68.2417C109.047 68.2292 109.058 68.2167 109.069 68.2028C109.079 68.1917 109.089 68.1806 109.097 68.1681C109.101 68.1625 109.107 68.1542 109.112 68.1459C109.15 68.0945 109.184 68.0431 109.218 67.9903C109.226 67.9764 109.236 67.9639 109.244 67.9514C109.25 67.9445 109.255 67.9361 109.259 67.9292L109.29 67.8764C109.322 67.8209 109.352 67.7653 109.38 67.7097C109.382 67.7084 109.386 67.6972 109.386 67.6972L109.426 67.6167C109.451 67.5625 109.473 67.507 109.494 67.45L109.502 67.425C109.525 67.3625 109.546 67.2986 109.564 67.2334C109.569 67.2139 109.573 67.1959 109.579 67.1764C109.589 67.1361 109.598 67.1 109.605 67.0653L107.671 64.4264L107.666 64.4403C107.637 64.5167 107.602 64.5986 107.561 64.6889L107.534 64.7431C107.496 64.8195 107.461 64.8861 107.422 64.9528L107.397 64.9972C107.383 65.0195 107.369 65.0403 107.355 65.0611L107.337 65.0889C107.297 65.1514 107.257 65.2125 107.212 65.2722C107.189 65.3042 107.165 65.3347 107.14 65.3639L107.109 65.4014C107.08 65.4389 107.05 65.475 107.018 65.5111C106.986 65.5472 106.951 65.5834 106.918 65.6181L106.889 65.6486C106.862 65.6764 106.837 65.7028 106.809 65.7292C106.773 65.7639 106.736 65.7972 106.698 65.8306L106.662 65.8625C106.637 65.8847 106.612 65.907 106.586 65.9292C106.551 65.9584 106.515 65.9847 106.479 66.0111L106.427 66.05C106.4 66.0709 106.372 66.0931 106.343 66.1125C106.312 66.1334 106.282 66.1528 106.251 66.1722L106.197 66.207C106.158 66.232 106.119 66.257 106.08 66.2792C106.055 66.2945 106.029 66.307 106.004 66.3209L105.973 66.3375C105.912 66.3709 105.85 66.4028 105.786 66.4334C105.709 66.4695 105.633 66.5028 105.555 66.5334C105.55 66.5361 105.544 66.5375 105.539 66.5403C105.476 66.5639 105.396 66.5917 105.296 66.6209C105.266 66.6292 105.239 66.6375 105.209 66.6445L105.196 66.6486C105.134 66.6653 105.073 66.6792 105.012 66.6917C104.977 66.6986 104.943 66.7056 104.908 66.7125C104.843 66.7236 104.777 66.7334 104.712 66.7403L104.686 66.7431C104.664 66.7459 104.641 66.7486 104.619 66.7514C104.35 66.775 104.151 66.7695 103.875 66.7292C103.801 66.7181 103.736 66.6792 103.691 66.6181L102.259 64.6653C102.264 64.6806 102.266 64.6972 102.271 64.7125C102.282 64.7556 102.294 64.7986 102.307 64.8403L102.322 64.8875C102.323 64.8917 102.327 64.9056 102.329 64.9097C102.336 64.9236 102.341 64.9361 102.347 64.95C102.366 65 102.387 65.05 102.412 65.0986C102.418 65.1097 102.423 65.1222 102.427 65.1334C102.437 65.1472 102.443 65.1584 102.45 65.1709C102.469 65.207 102.49 65.2431 102.512 65.2778C102.519 65.2889 102.526 65.3014 102.533 65.3125C102.551 65.3417 102.568 65.3639 102.584 65.3875L104.93 68.5861C104.932 68.5875 104.933 68.5903 104.936 68.5931Z" fill="#F9FAFB"/>
<path d="M107.554 63.7917C107.317 65.2792 105.874 66.4862 104.329 66.4876C102.786 66.4876 101.726 65.2792 101.964 63.7917H104.758H107.554Z" fill="#D0D5DD"/>
<path d="M104.329 66.7653C103.487 66.7653 102.748 66.4417 102.247 65.8556C101.761 65.2861 101.562 64.5375 101.689 63.7486C101.709 63.6139 101.826 63.5139 101.964 63.5139H107.554C107.636 63.5139 107.712 63.55 107.765 63.6111C107.818 63.6736 107.841 63.7542 107.827 63.8347C107.57 65.45 106 66.7653 104.329 66.7653ZM102.212 64.0695C102.18 64.607 102.339 65.107 102.67 65.4945C103.064 65.9556 103.652 66.2097 104.329 66.2097C105.626 66.2097 106.85 65.275 107.207 64.0695H102.212Z" fill="#F9FAFB"/>
</svg>
