<svg width="150" height="150" viewBox="0 0 150 150" fill="none" xmlns="http://www.w3.org/2000/svg">
<path d="M75 122.697C103.319 122.697 126.276 113.691 126.276 102.582C126.276 91.4727 103.319 82.4668 75 82.4668C46.6808 82.4668 23.7236 91.4727 23.7236 102.582C23.7236 113.691 46.6808 122.697 75 122.697Z" fill="#F9FAFB"/>
<path d="M56.8486 53.8787C57.2417 51.4148 59.6333 49.4107 62.1889 49.4023L58.8917 57.9385C57.4181 57.2273 56.5625 55.6746 56.8486 53.8787Z" fill="#D0D5DD"/>
<path d="M58.8903 58.251C58.8431 58.251 58.7972 58.2413 58.7542 58.2205C57.1097 57.426 56.2403 55.7024 56.5389 53.8302C56.9542 51.226 59.4875 49.0996 62.1861 49.0913C62.1861 49.0913 62.1861 49.0913 62.1875 49.0913C62.2903 49.0913 62.3861 49.1413 62.4445 49.226C62.5028 49.3108 62.5153 49.4191 62.4792 49.5163L59.1819 58.0524C59.15 58.1344 59.0861 58.1983 59.0056 58.2302C58.9681 58.2441 58.9292 58.251 58.8903 58.251ZM61.7236 49.7399C59.4986 49.9705 57.5028 51.7621 57.1583 53.9274C56.9236 55.4024 57.5347 56.7663 58.7278 57.4941L61.7236 49.7399Z" fill="#F9FAFB"/>
<path d="M105.94 51.5288L107.924 46.3955H63.35L62.7375 47.983C64.7861 48.0816 66.4111 49.1733 67.1847 50.7705C67.4403 50.7052 67.7014 50.6705 67.9556 50.6705C68.6778 50.6705 69.2639 50.9483 69.6 51.4469C69.9389 51.9525 69.9778 52.6469 69.7042 53.3455C69.1722 54.7163 67.6361 55.79 66.2083 55.79C65.4861 55.79 64.9028 55.5163 64.5681 55.0136C64.225 54.5094 64.1875 53.8163 64.4597 53.115C64.7139 52.4663 65.1903 51.8858 65.7736 51.4525C65.1417 50.2191 63.8333 49.4038 62.1889 49.4038L58.8917 57.9386L58.3417 59.3608L57.6347 61.1969C59.6792 61.2913 61.3028 62.3747 62.0847 63.9622C62.3292 63.9052 62.5778 63.8733 62.8194 63.8733C63.5417 63.8733 64.125 64.1469 64.4625 64.6497C64.8028 65.1552 64.8403 65.8469 64.5694 66.5483C64.0361 67.9191 62.5014 68.9913 61.0736 68.9913C60.3514 68.9913 59.7653 68.7177 59.4306 68.2177C59.0903 67.7122 59.05 67.0177 59.3236 66.3163C59.5792 65.658 60.0681 65.0677 60.6653 64.6316C60.3458 64.0247 59.8611 63.5205 59.2528 63.1705C58.6792 62.8413 57.9986 62.6441 57.2375 62.6205C57.1958 62.6191 57.1542 62.6191 57.1111 62.6191H57.0833L53.7875 71.1483L53.2375 72.5705L52.5278 74.4108C54.5764 74.5011 56.2056 75.5802 56.9889 77.1705C57.2375 77.1094 57.4889 77.0761 57.7389 77.0761C58.4611 77.0761 59.0431 77.3525 59.3792 77.8525C59.7194 78.358 59.7611 79.0497 59.4875 79.7511C58.9542 81.1219 57.4181 82.1955 55.9889 82.1955C55.2667 82.1955 54.6847 81.9191 54.3486 81.4191C54.0083 80.9136 53.9681 80.2191 54.2417 79.5205C54.4958 78.8663 54.9778 78.2802 55.5694 77.8469C54.9306 76.633 53.6333 75.8344 51.9722 75.8358L48.5194 84.7761L48.1319 85.7788V85.7802L47.4194 87.6233C49.4639 87.7094 51.0931 88.7788 51.8833 90.3566C52.1153 90.3038 52.35 90.2761 52.5806 90.2761C53.3028 90.2761 53.8861 90.5525 54.2236 91.0525C54.5639 91.558 54.6014 92.2497 54.3278 92.9538C53.7958 94.3233 52.2597 95.3969 50.8333 95.3969C50.1111 95.3969 49.5278 95.1205 49.1903 94.6205C48.85 94.115 48.8125 93.4233 49.0833 92.7191C49.3458 92.0511 49.8458 91.4525 50.4542 91.015C49.8083 89.8275 48.5222 89.0469 46.8681 89.0497L43.5597 97.6122L43.0278 98.9886L40.1208 106.512H84.6944L89.9 93.0372H62.1944L78.3556 51.5302H105.94V51.5288ZM76.0292 102.279H53.8986L54.45 100.851H76.582L76.0292 102.279ZM78.3639 96.24L77.8097 97.6677H55.6806L56.2306 96.24H78.3639Z" fill="#F7F9FC" stroke="#F9FAFB" stroke-width="4.5" stroke-miterlimit="10" stroke-linecap="round" stroke-linejoin="round"/>
<path d="M66.8167 53.8787C67.2708 53.8787 67.675 53.4884 67.6806 53.0565C67.6875 52.6065 67.6389 52.1718 67.5389 51.7593C67.6222 51.7482 67.7042 51.7412 67.7847 51.7412C68.1639 51.7412 68.4625 51.8745 68.6264 52.1148C68.7972 52.3704 68.8097 52.7232 68.6569 53.112C68.3181 53.9815 67.275 54.7176 66.3792 54.7176C66.0014 54.7176 65.7028 54.5843 65.5389 54.3412C65.3667 54.0857 65.3569 53.7329 65.5069 53.344C65.6306 53.0259 65.8486 52.7273 66.1181 52.4745C66.1639 52.7245 66.1861 52.9843 66.1819 53.2523C66.1778 53.6107 66.4444 53.8787 66.8167 53.8787Z" fill="#F7F9FC"/>
<path d="M66.3792 55.0316C65.8931 55.0316 65.5028 54.8497 65.2806 54.5178C65.0514 54.1775 65.0278 53.7205 65.2167 53.233C65.3528 52.8816 65.5917 52.5414 65.9069 52.2483C65.9903 52.1705 66.1097 52.1441 66.2181 52.1803C66.3264 52.2164 66.4069 52.308 66.4278 52.4205C66.4778 52.6928 66.5014 52.9747 66.4972 53.2594C66.4958 53.3469 66.5236 53.4233 66.5778 53.4775C66.6361 53.5358 66.7194 53.5678 66.8181 53.5678C67.0986 53.5678 67.3667 53.3178 67.3694 53.0539C67.375 52.6358 67.3306 52.2261 67.2361 51.8344C67.2153 51.7483 67.2319 51.658 67.2819 51.5858C67.3319 51.5136 67.4097 51.465 67.4972 51.4525C67.5944 51.4386 67.6931 51.4316 67.7861 51.4316C68.2722 51.4316 68.6625 51.6136 68.8861 51.9428C69.1167 52.2886 69.1389 52.7441 68.9486 53.2289C68.5611 54.2233 67.4097 55.0316 66.3792 55.0316ZM65.8722 53.2983C65.8444 53.3511 65.8208 53.4053 65.8 53.4594C65.6875 53.7497 65.6875 54.0025 65.8 54.1691C65.9028 54.3233 66.1097 54.408 66.3806 54.408C67.1472 54.408 68.0764 53.7511 68.3681 53.0025C68.4819 52.7122 68.4819 52.4608 68.3681 52.2914C68.2833 52.1664 68.1264 52.0872 67.9208 52.0636C67.975 52.39 68 52.7247 67.9944 53.0622C67.9861 53.6636 67.4375 54.1928 66.8181 54.1928C66.5514 54.1928 66.3083 54.0941 66.1333 53.9164C65.9708 53.7525 65.8792 53.5358 65.8722 53.2983Z" fill="#F9FAFB"/>
<path d="M66.2083 56.1022C65.3778 56.1022 64.7028 55.7772 64.307 55.1883C63.9083 54.5994 63.8583 53.8022 64.1681 53.0022C64.4333 52.323 64.9375 51.6841 65.5861 51.2022C65.6403 51.1619 65.7056 51.1411 65.7722 51.1411C65.7958 51.1411 65.8195 51.1438 65.8431 51.1494C65.932 51.1702 66.0083 51.23 66.05 51.3119C66.2278 51.6591 66.3542 52.0327 66.425 52.423C66.4445 52.5272 66.4083 52.6355 66.3306 52.7077C66.0833 52.9383 65.9 53.1994 65.7972 53.4619C65.6847 53.7522 65.6847 54.005 65.7972 54.1716C65.9014 54.3258 66.107 54.4105 66.3778 54.4105C67.1445 54.4105 68.0736 53.7536 68.3653 53.005C68.4792 52.7147 68.4792 52.4633 68.3653 52.2938C68.2625 52.1424 68.0556 52.0577 67.7833 52.0577C67.7181 52.0577 67.65 52.0633 67.5806 52.073C67.5653 52.0744 67.5514 52.0758 67.5375 52.0758C67.3944 52.0758 67.2681 51.9786 67.2333 51.8369C67.1556 51.5147 67.0445 51.2036 66.9028 50.9105C66.8611 50.8258 66.8611 50.7272 66.9014 50.6424C66.9417 50.5577 67.0167 50.4938 67.1083 50.4716C67.3944 50.3994 67.6792 50.3633 67.9556 50.3633C68.7847 50.3633 69.4611 50.6883 69.8583 51.2772C70.257 51.8716 70.3056 52.6688 69.9958 53.4647C69.4194 54.9411 67.7556 56.1022 66.2083 56.1022Z" fill="#D0D5DD"/>
<path d="M67.9569 50.6704C68.6792 50.6704 69.2639 50.9468 69.6 51.4468C69.9389 51.9524 69.9792 52.6454 69.7056 53.3454C69.1722 54.7162 67.6361 55.7885 66.2097 55.7885C65.4875 55.7885 64.9042 55.5135 64.5681 55.0121C64.2264 54.5079 64.1889 53.8149 64.4611 53.1135C64.7139 52.4649 65.1903 51.8843 65.7736 51.451C65.9361 51.7676 66.0528 52.1107 66.1194 52.476C65.8486 52.7287 65.6319 53.0274 65.5083 53.3454C65.3583 53.7343 65.3681 54.0871 65.5403 54.3426C65.7028 54.5857 66.0014 54.719 66.3792 54.719C67.275 54.719 68.3194 53.9829 68.6569 53.1135C68.8083 52.7246 68.7972 52.3718 68.6264 52.1162C68.4625 51.876 68.1653 51.7426 67.7847 51.7426C67.7042 51.7426 67.6222 51.7482 67.5389 51.7607C67.4556 51.4135 67.3361 51.0829 67.1847 50.7704C67.4417 50.7051 67.7014 50.6704 67.9569 50.6704ZM67.9569 50.0454C67.6556 50.0454 67.3458 50.0857 67.0347 50.1635C66.8528 50.2093 66.7 50.3343 66.6208 50.5051C66.5417 50.676 66.5431 50.8732 66.625 51.0426C66.7569 51.3162 66.8611 51.6065 66.9333 51.9065C67.0014 52.1912 67.2556 52.3857 67.5403 52.3857C67.5694 52.3857 67.5986 52.3843 67.6278 52.3801C67.6819 52.3718 67.7361 52.369 67.7875 52.369C67.9458 52.369 68.0694 52.4079 68.1111 52.469C68.15 52.5274 68.1625 52.6704 68.0778 52.8885C67.8319 53.5204 67.0236 54.0954 66.3819 54.0954C66.225 54.0954 66.1028 54.0579 66.0611 53.9968C66.0222 53.9385 66.0069 53.794 66.0931 53.5732C66.1778 53.3551 66.3361 53.1343 66.5486 52.9357C66.7042 52.7899 66.775 52.576 66.7361 52.3662C66.6583 51.9454 66.5222 51.544 66.3306 51.169C66.2472 51.0051 66.0958 50.8871 65.9167 50.8454C65.8694 50.8343 65.8222 50.8287 65.775 50.8287C65.6417 50.8287 65.5111 50.8718 65.4028 50.9524C64.7069 51.469 64.1667 52.1565 63.8806 52.8899C63.5319 53.7885 63.5958 54.6912 64.0514 55.3662C64.5056 56.044 65.2736 56.4176 66.2111 56.4176C67.9056 56.4176 69.6597 55.1954 70.2903 53.576C70.6389 52.6843 70.5778 51.7815 70.1222 51.1024C69.6611 50.419 68.8931 50.0454 67.9569 50.0454Z" fill="#F9FAFB"/>
<path d="M53.3708 20.5054L63.3514 46.3956L62.7375 47.9831C62.6361 47.979 62.5319 47.9762 62.4292 47.9762C59.0528 47.9762 55.8875 50.622 55.3681 53.879C54.9722 56.3623 56.2264 58.4887 58.3417 59.3595L57.632 61.1943C57.5347 61.1901 57.4375 61.1873 57.3389 61.1873C53.9625 61.1873 50.7958 63.8345 50.2778 67.0901C49.8819 69.5693 51.1306 71.6929 53.2389 72.5665L52.5278 74.4068C52.4361 74.404 52.3431 74.3998 52.2486 74.3998C48.8722 74.3998 45.7042 77.047 45.1847 80.304C44.7903 82.7762 46.0347 84.897 48.1347 85.7734L47.4222 87.6179C47.3069 87.6137 47.2361 87.6123 47.1667 87.6123C43.9833 87.6123 40.8875 90.0165 40.1764 93.1012C39.5667 95.7415 40.8236 98.0512 43.0319 98.9818L40.125 106.507L30.0556 80.6498L53.3708 20.5054Z" fill="#98A2B3"/>
<path d="M40.1222 106.823C39.9931 106.823 39.8778 106.744 39.8306 106.625L29.7611 80.7679C29.7333 80.6957 29.7333 80.6137 29.7611 80.5415L53.0792 20.3929C53.1264 20.272 53.2417 20.1929 53.3708 20.1929C53.5 20.1929 53.6153 20.272 53.6625 20.3929L63.6431 46.2831C63.6708 46.3554 63.6708 46.4359 63.6431 46.5081L63.0292 48.0957C62.9806 48.2207 62.8583 48.3012 62.7222 48.2957C62.6264 48.2915 62.5264 48.2901 62.4292 48.2901C59.2014 48.2901 56.1722 50.8193 55.6764 53.929C55.3125 56.2068 56.4056 58.2262 58.4597 59.072C58.6167 59.1373 58.6931 59.3151 58.6319 59.4734L57.9222 61.3082C57.8736 61.4345 57.75 61.5137 57.6153 61.5081C57.5236 61.504 57.4306 61.5026 57.3375 61.5026C54.1097 61.5026 51.0806 64.0318 50.5847 67.1415C50.2222 69.4137 51.3097 71.4318 53.3569 72.2804C53.5139 72.3456 53.5903 72.5234 53.5292 72.6818L52.8181 74.522C52.7694 74.6456 52.6486 74.7248 52.5153 74.722C52.4222 74.7193 52.3361 74.7165 52.2472 74.7165C49.0181 74.7165 45.9889 77.247 45.4917 80.3582C45.1306 82.6248 46.2139 84.6387 48.2528 85.4901C48.4083 85.5554 48.4847 85.7331 48.4236 85.8915L47.7111 87.7359C47.6639 87.8568 47.5486 87.9359 47.4194 87.9359C47.4153 87.9359 47.4125 87.9359 47.4083 87.9359C47.2986 87.9318 47.2306 87.9304 47.1639 87.9304C44.0931 87.9304 41.1569 90.2345 40.4778 93.1762C39.925 95.5734 40.9986 97.7929 43.15 98.6998C43.3056 98.7651 43.3806 98.9429 43.3194 99.0998L40.4125 106.625C40.3681 106.743 40.2514 106.823 40.1222 106.823ZM30.3889 80.654L40.1208 105.647L42.6319 99.1498C40.3764 98.0526 39.2708 95.6345 39.8708 93.0359C40.6125 89.822 43.8167 87.3054 47.1667 87.3054C47.1806 87.3054 47.1958 87.3054 47.2097 87.3054L47.7361 85.9415C45.6014 84.9123 44.4847 82.7151 44.8764 80.2581C45.4181 76.8568 48.7264 74.0901 52.2486 74.0901C52.2708 74.0901 52.2931 74.0901 52.3153 74.0901L52.8403 72.7331C50.6986 71.7068 49.5764 69.5068 49.9694 67.0429C50.5111 63.6429 53.8181 60.8762 57.3403 60.8762C57.3681 60.8762 57.3944 60.8762 57.4222 60.8762L57.9444 59.5248C55.7931 58.5012 54.6667 56.2998 55.0611 53.829C55.6028 50.429 58.9097 47.6637 62.4306 47.6637C62.4625 47.6637 62.4944 47.6637 62.5264 47.6637L63.0167 46.3943L53.3708 21.3706L30.3889 80.654Z" fill="#F9FAFB"/>
<path d="M57.0833 62.6177L53.7875 71.1468C52.3194 70.4316 51.4708 68.8843 51.7569 67.0913C52.1472 64.6413 54.5153 62.6455 57.0833 62.6177Z" fill="#D0D5DD"/>
<path d="M53.7875 71.4593C53.7403 71.4593 53.6944 71.4482 53.65 71.4274C52.0139 70.6302 51.15 68.9093 51.4472 67.0413C51.8583 64.458 54.3847 62.3343 57.0778 62.3052C57.0792 62.3052 57.0806 62.3052 57.0806 62.3052C57.1833 62.3052 57.2792 62.3552 57.3375 62.4399C57.3972 62.5246 57.4097 62.6343 57.3722 62.7302L54.0764 71.2593C54.0444 71.3413 53.9806 71.4052 53.8986 71.4371C53.8653 71.4524 53.8264 71.4593 53.7875 71.4593ZM56.6167 62.9593C54.3972 63.2052 52.4069 64.9955 52.0667 67.1399C51.8319 68.6107 52.4389 69.9718 53.6264 70.701L56.6167 62.9593Z" fill="#F9FAFB"/>
<path d="M61.7264 67.0929C62.1792 67.0929 62.5847 66.704 62.5903 66.2706C62.5972 65.8137 62.5458 65.3734 62.4444 64.9554C62.5139 64.947 62.5819 64.9429 62.6486 64.9429C63.0264 64.9429 63.325 65.0762 63.4889 65.3193C63.6611 65.5748 63.6722 65.9276 63.5208 66.3165C63.1819 67.1859 62.1389 67.9193 61.2431 67.9193C60.8639 67.9193 60.5653 67.7859 60.4014 67.5443C60.2306 67.2887 60.2181 66.9359 60.3708 66.547C60.5 66.2151 60.7319 65.9026 61.0194 65.6429C61.0708 65.9082 61.0972 66.1832 61.0931 66.4679C61.0875 66.8234 61.3528 67.0929 61.7264 67.0929Z" fill="#F7F9FC"/>
<path d="M61.2431 68.2318C60.7569 68.2318 60.3667 68.0499 60.1431 67.7207C59.9125 67.3763 59.8903 66.9193 60.0806 66.4346C60.2236 66.0693 60.475 65.7152 60.8111 65.4124C60.8944 65.3374 61.0125 65.3124 61.1194 65.3471C61.2264 65.3832 61.3056 65.4735 61.3278 65.5832C61.3847 65.8721 61.4111 66.1707 61.4069 66.4735C61.4056 66.561 61.4333 66.636 61.4875 66.6902C61.5458 66.7485 61.6292 66.7804 61.7278 66.7804C62.0083 66.7804 62.2764 66.5304 62.2792 66.2666C62.2847 65.8429 62.2389 65.4277 62.1417 65.0304C62.1208 64.9429 62.1375 64.8513 62.1889 64.7777C62.2403 64.7041 62.3194 64.6554 62.4083 64.6457C62.4889 64.636 62.5708 64.6318 62.65 64.6318C63.1361 64.6318 63.5264 64.8152 63.7486 65.1457C63.9778 65.486 64.0014 65.9429 63.8125 66.4304C63.425 67.4235 62.2722 68.2318 61.2431 68.2318ZM60.7806 66.4166C60.7333 66.4971 60.6931 66.5791 60.6611 66.661C60.5472 66.9513 60.5472 67.2027 60.6611 67.3707C60.7639 67.5221 60.9708 67.6068 61.2431 67.6068C62.0097 67.6068 62.9389 66.9513 63.2306 66.2027C63.3431 65.9124 63.3431 65.6596 63.2306 65.4929C63.1514 65.3749 63.0111 65.2971 62.8292 65.2679C62.8847 65.5957 62.9097 65.9332 62.9042 66.2735C62.8958 66.8763 62.3458 67.4041 61.7278 67.4041C61.4611 67.4041 61.2181 67.3054 61.0417 67.1277C60.8708 66.9541 60.7778 66.7179 60.7806 66.4638C60.7806 66.4485 60.7806 66.4332 60.7806 66.4166Z" fill="#F9FAFB"/>
<path d="M46.6653 80.3065C47.0569 77.851 49.4347 75.8552 51.9764 75.8315L48.5222 84.7718L48.6833 84.3538C47.225 83.6371 46.3806 82.0913 46.6653 80.3065Z" fill="#D0D5DD"/>
<path d="M48.5222 85.0843C48.4847 85.0843 48.4472 85.0774 48.4097 85.0635C48.2486 85.001 48.1681 84.8204 48.2306 84.6593L48.2931 84.4982C46.8319 83.651 46.0764 82.0177 46.3569 80.2565C46.7694 77.6677 49.2903 75.5427 51.9736 75.519C51.975 75.519 51.975 75.519 51.9764 75.519C52.0792 75.519 52.175 75.569 52.2333 75.6538C52.2917 75.7385 52.3056 75.8482 52.2681 75.944L48.8139 84.8843C48.7653 85.0093 48.6472 85.0843 48.5222 85.0843ZM46.9736 80.3552C46.7403 81.819 47.3431 83.176 48.5208 83.9065L51.5097 76.1718C49.3 76.4163 47.3167 78.2065 46.9736 80.3552Z" fill="#F9FAFB"/>
<path d="M56.6347 80.3071C57.0875 80.3071 57.4931 79.9168 57.4986 79.4835C57.5056 79.0238 57.4528 78.5793 57.35 78.1599C57.4236 78.1502 57.4972 78.146 57.5694 78.146C57.9486 78.146 58.2458 78.2793 58.4097 78.5224C58.5819 78.7779 58.5917 79.1307 58.4417 79.5196C58.1028 80.389 57.0597 81.1224 56.1639 81.1224C55.7861 81.1224 55.4875 80.989 55.3236 80.7474C55.1514 80.4918 55.1389 80.1363 55.2917 79.7502C55.4194 79.4238 55.6458 79.1154 55.9278 78.8585C55.9792 79.1238 56.0042 79.3988 56 79.6835C55.9944 80.039 56.2625 80.3071 56.6347 80.3071Z" fill="#F7F9FC"/>
<path d="M56.1639 81.4333C55.6792 81.4333 55.2889 81.2513 55.0653 80.9208C54.8333 80.5777 54.8097 80.1208 55 79.6347C55.1403 79.2749 55.3889 78.9249 55.7167 78.6249C55.8 78.5485 55.9181 78.5235 56.025 78.5583C56.1319 78.593 56.2125 78.6847 56.2333 78.7944C56.2903 79.0819 56.3167 79.3805 56.3125 79.6833C56.3111 79.7708 56.3389 79.8458 56.3931 79.9013C56.4514 79.961 56.5347 79.9916 56.6347 79.9916C56.9153 79.9916 57.1833 79.7402 57.1861 79.4749C57.1917 79.0485 57.1444 78.6305 57.0458 78.2305C57.025 78.1444 57.0417 78.0527 57.0917 77.9791C57.1417 77.9055 57.2222 77.8569 57.3097 77.8458C57.3958 77.8347 57.4833 77.8291 57.5681 77.8291C58.0542 77.8291 58.4444 78.011 58.6667 78.343C58.8972 78.6833 58.9194 79.1402 58.7306 79.6277C58.3458 80.6249 57.1931 81.4333 56.1639 81.4333ZM55.6889 79.6416C55.6472 79.7152 55.6125 79.7888 55.5833 79.8624C55.4694 80.1513 55.4708 80.4041 55.5833 80.5722C55.6861 80.7249 55.8931 80.8097 56.1639 80.8097C56.9306 80.8097 57.8597 80.1541 58.1514 79.4055C58.2639 79.1152 58.2639 78.8624 58.1514 78.6958C58.0708 78.5749 57.925 78.4972 57.7347 78.4694C57.7917 78.8027 57.8181 79.143 57.8125 79.4874C57.8042 80.0902 57.2542 80.6194 56.6361 80.6194C56.3694 80.6194 56.125 80.5208 55.9486 80.343C55.7764 80.1694 55.6847 79.9319 55.6875 79.6777C55.6875 79.6652 55.6875 79.6527 55.6889 79.6416Z" fill="#F9FAFB"/>
<path d="M55.9931 82.5051C55.1639 82.5051 54.4889 82.1801 54.0917 81.5912C53.6931 80.9982 53.6417 80.2009 53.9528 79.4037C54.2194 78.719 54.7278 78.0746 55.3861 77.5912C55.4403 77.5509 55.5056 77.5301 55.5708 77.5301C55.5944 77.5301 55.6181 77.5329 55.6403 77.5385C55.7292 77.5593 55.8042 77.6162 55.8472 77.6982C56.0278 78.0412 56.1569 78.4107 56.2333 78.7968C56.2542 78.9037 56.2181 79.0134 56.1375 79.0871C55.8792 79.3232 55.6875 79.5898 55.5819 79.8621C55.4681 80.1509 55.4681 80.4037 55.5819 80.5718C55.6847 80.7246 55.8917 80.8079 56.1625 80.8079C56.9292 80.8079 57.8583 80.1523 58.15 79.4037C58.2625 79.1134 58.2625 78.8607 58.15 78.694C58.0472 78.5398 57.8403 78.4551 57.5694 78.4551C57.5111 78.4551 57.4514 78.4593 57.3889 78.4662C57.3764 78.4676 57.3625 78.469 57.35 78.469C57.2083 78.469 57.0819 78.3718 57.0472 78.2315C56.9681 77.9093 56.8542 77.5982 56.7097 77.3051C56.6681 77.2204 56.6667 77.1204 56.7069 77.0343C56.7472 76.9482 56.8236 76.8857 56.9153 76.8621C57.1931 76.794 57.4708 76.7593 57.7403 76.7593C58.5708 76.7593 59.2458 77.0843 59.6417 77.6732C60.0403 78.2648 60.0917 79.0621 59.7806 79.8593C59.2042 81.344 57.5403 82.5051 55.9931 82.5051Z" fill="#D0D5DD"/>
<path d="M57.7403 77.0747C58.4625 77.0747 59.0458 77.3497 59.3819 77.8511C59.7222 78.3567 59.7625 79.0483 59.4889 79.7497C58.9556 81.1205 57.4194 82.1928 55.9931 82.1928C55.2708 82.1928 54.6875 81.9164 54.3514 81.4164C54.0111 80.9108 53.9708 80.2178 54.2444 79.5178C54.4986 78.8636 54.9819 78.2775 55.5722 77.8428C55.7361 78.1553 55.8569 78.4955 55.9278 78.8567C55.6458 79.1136 55.4194 79.4219 55.2917 79.7483C55.1403 80.1358 55.1514 80.49 55.3236 80.7455C55.4861 80.9872 55.7847 81.1205 56.1639 81.1205C57.0597 81.1205 58.1028 80.3858 58.4417 79.5178C58.5917 79.1289 58.5819 78.7761 58.4097 78.5205C58.2472 78.2775 57.95 78.1442 57.5708 78.1442C57.4986 78.1442 57.425 78.1483 57.3514 78.158C57.2653 77.8108 57.1444 77.4803 56.9903 77.1678C57.2389 77.1066 57.4917 77.0747 57.7403 77.0747ZM57.7403 76.4497C57.4458 76.4497 57.1444 76.4872 56.8403 76.5608C56.6556 76.6053 56.5028 76.7317 56.4222 76.9039C56.3417 77.0761 56.3444 77.2747 56.4278 77.4441C56.5625 77.7178 56.6681 78.008 56.7417 78.308C56.8111 78.59 57.0639 78.783 57.3472 78.783C57.3736 78.783 57.4 78.7817 57.4264 78.7775C57.475 78.7719 57.5222 78.7678 57.5667 78.7678C57.7236 78.7678 57.8458 78.8053 57.8875 78.8664C57.9264 78.9247 57.9417 79.0692 57.8556 79.29C57.6111 79.9192 56.8028 80.4942 56.1611 80.4942C56.0069 80.4942 55.8806 80.4553 55.8389 80.3942C55.8 80.3372 55.7847 80.1928 55.8708 79.9747C55.9583 79.7497 56.1278 79.5164 56.3458 79.3164C56.5069 79.1692 56.5792 78.9483 56.5375 78.7344C56.4556 78.3178 56.3167 77.9191 56.1222 77.5497C56.0375 77.3886 55.8861 77.2719 55.7097 77.2317C55.6639 77.2205 55.6167 77.2164 55.5694 77.2164C55.4375 77.2164 55.3069 77.258 55.1986 77.3386C54.4931 77.858 53.9458 78.5511 53.6583 79.29C53.3097 80.183 53.3722 81.0858 53.8292 81.765C54.2861 82.4428 55.0542 82.8164 55.9903 82.8164C57.6847 82.8164 59.4389 81.5942 60.0694 79.9747C60.4181 79.0803 60.3556 78.1789 59.8986 77.4997C59.4458 76.8233 58.6778 76.4497 57.7403 76.4497Z" fill="#F9FAFB"/>
<path d="M107.925 46.3955L110.978 50.558L108.994 55.6913L105.942 51.5288L107.925 46.3955Z" fill="#D0D5DD"/>
<path d="M108.994 56.0038C108.896 56.0038 108.801 55.9566 108.743 55.8761L105.69 51.7136C105.628 51.6274 105.613 51.515 105.651 51.4163L107.635 46.283C107.676 46.1761 107.772 46.1011 107.885 46.0858C107.999 46.0705 108.11 46.1191 108.178 46.2108L111.231 50.3733C111.293 50.4594 111.308 50.5719 111.269 50.6705L109.286 55.8038C109.244 55.9108 109.149 55.9858 109.036 56.0011C109.021 56.0024 109.007 56.0038 108.994 56.0038ZM106.294 51.4816L108.908 55.0455L110.624 50.6038L108.01 47.04L106.294 51.4816Z" fill="#F9FAFB"/>
<path d="M41.575 93.5191C41.9653 91.0691 44.3333 89.076 46.8708 89.0469L43.5625 97.6094L43.5805 97.5622C42.1292 96.8413 41.2903 95.301 41.575 93.5191Z" fill="#D0D5DD"/>
<path d="M43.5625 97.922C43.525 97.922 43.4875 97.915 43.45 97.9011C43.3792 97.8734 43.325 97.8234 43.2903 97.7623C41.7722 96.9303 40.9805 95.265 41.2667 93.4706C41.6778 90.89 44.1903 88.765 46.8681 88.7345C46.9694 88.7317 47.0694 88.7831 47.1292 88.8692C47.1889 88.9539 47.2014 89.0636 47.1639 89.1595L43.8556 97.722C43.8056 97.8456 43.6875 97.922 43.5625 97.922ZM41.8833 93.5678C41.6472 95.0498 42.2305 96.3775 43.418 97.1136L46.4042 89.3873C44.2 89.6373 42.225 91.4261 41.8833 93.5678Z" fill="#F9FAFB"/>
<path d="M51.5444 93.5193C51.9972 93.5193 52.4014 93.1304 52.4083 92.6971C52.4153 92.229 52.3611 91.779 52.2556 91.3526C52.3083 91.3485 52.3597 91.3457 52.4111 91.3457C52.7903 91.3457 53.0889 91.479 53.2528 91.7221C53.4236 91.9763 53.4361 92.3304 53.2833 92.7179C52.9445 93.5888 51.9028 94.3235 51.0069 94.3235C50.6278 94.3235 50.3292 94.1901 50.1653 93.9471C49.9944 93.6929 49.9819 93.3388 50.1347 92.9513C50.2708 92.6026 50.5181 92.2763 50.825 92.0096C50.8847 92.2929 50.9153 92.5901 50.9097 92.8957C50.9042 93.2513 51.1708 93.5193 51.5444 93.5193Z" fill="#F7F9FC"/>
<path d="M51.0069 94.6345C50.5194 94.6345 50.1292 94.4512 49.9069 94.1206C49.6764 93.779 49.6542 93.322 49.8444 92.8359C49.9931 92.4526 50.2611 92.0845 50.6194 91.7734C50.7028 91.7012 50.8194 91.6776 50.9236 91.7123C51.0292 91.747 51.1069 91.8359 51.1306 91.9442C51.1958 92.254 51.2278 92.5762 51.2222 92.8998C51.2208 92.9859 51.2486 93.0609 51.3028 93.1151C51.3611 93.1748 51.4444 93.2054 51.5444 93.2054C51.8236 93.2054 52.0917 92.9553 52.0958 92.6901C52.1014 92.2581 52.0542 91.8331 51.9514 91.4276C51.9292 91.3387 51.9472 91.2456 52 91.1706C52.0528 91.0956 52.1361 91.0484 52.2264 91.0401C52.2875 91.0345 52.35 91.0317 52.4111 91.0317C52.8986 91.0317 53.2889 91.2151 53.5111 91.5456C53.7417 91.8873 53.7639 92.3442 53.5736 92.8304C53.1875 93.8262 52.0361 94.6345 51.0069 94.6345ZM50.5958 92.7373C50.525 92.8456 50.4681 92.9553 50.425 93.0637C50.3111 93.354 50.3111 93.6053 50.4236 93.772C50.5264 93.9262 50.7333 94.0095 51.0056 94.0095C51.275 94.0095 51.5639 93.929 51.8375 93.7915C51.7431 93.8178 51.6431 93.8317 51.5431 93.8317C51.2764 93.8317 51.0319 93.7331 50.8556 93.5553C50.6847 93.3817 50.5917 93.1456 50.5944 92.8915C50.5972 92.8401 50.5972 92.7887 50.5958 92.7373ZM52.6431 91.6817C52.7 92.0151 52.725 92.3554 52.7208 92.7012C52.7167 92.9123 52.6472 93.1151 52.5319 93.2873C52.7347 93.0817 52.8972 92.8484 52.9917 92.604C53.1056 92.3137 53.1056 92.0637 52.9931 91.8956C52.9222 91.7901 52.8014 91.7165 52.6431 91.6817Z" fill="#F9FAFB"/>
<path d="M50.8361 95.7069C50.0056 95.7069 49.3306 95.3819 48.9333 94.793C48.5347 94.2013 48.4847 93.4027 48.7958 92.6041C49.0694 91.9027 49.5944 91.2471 50.275 90.7582C50.3292 90.7194 50.3917 90.6999 50.4569 90.6999C50.4806 90.6999 50.5042 90.7027 50.5264 90.7082C50.6139 90.7277 50.6889 90.7846 50.7306 90.8638C50.9139 91.1999 51.0472 91.5638 51.1292 91.9443C51.1528 92.0555 51.1139 92.1707 51.0292 92.2457C50.7514 92.4874 50.5375 92.7777 50.425 93.0638C50.3111 93.3541 50.3111 93.6041 50.4236 93.7721C50.5264 93.9263 50.7333 94.0096 51.0056 94.0096C51.7722 94.0096 52.7 93.3527 52.9903 92.6041C53.1042 92.3138 53.1042 92.0638 52.9917 91.8957C52.8889 91.7416 52.6819 91.6582 52.4097 91.6582C52.3681 91.6582 52.325 91.661 52.2819 91.6638C52.2722 91.6652 52.2639 91.6652 52.2542 91.6652C52.1125 91.6652 51.9861 91.5693 51.9514 91.4291C51.8694 91.1041 51.7542 90.7902 51.6056 90.4957C51.5625 90.4096 51.5611 90.3096 51.6028 90.2221C51.6431 90.136 51.7222 90.0721 51.8153 90.0513C52.0736 89.9916 52.3319 89.9624 52.5806 89.9624C53.4111 89.9624 54.0861 90.2874 54.4833 90.8763C54.8819 91.468 54.9319 92.2666 54.6208 93.0652C54.0444 94.5457 52.3819 95.7069 50.8361 95.7069Z" fill="#D0D5DD"/>
<path d="M52.5819 90.2734C53.3042 90.2734 53.8889 90.5498 54.225 91.0498C54.5653 91.5554 54.6042 92.2484 54.3306 92.9498C53.7972 94.3207 52.2611 95.3929 50.8361 95.3929C50.1125 95.3929 49.5292 95.1165 49.1931 94.6165C48.8528 94.1109 48.8139 93.4179 49.0875 92.7165C49.3486 92.0471 49.8486 91.4484 50.4583 91.0109C50.625 91.3179 50.75 91.6526 50.825 92.0082C50.5194 92.2748 50.2708 92.6012 50.1347 92.9498C49.9833 93.3373 49.9944 93.6915 50.1653 93.9457C50.3278 94.1887 50.6264 94.3221 51.0069 94.3221C51.9028 94.3221 52.9444 93.5873 53.2833 92.7165C53.4347 92.329 53.4236 91.9748 53.2528 91.7207C53.0903 91.4776 52.7917 91.3443 52.4111 91.3443C52.3597 91.3443 52.3083 91.347 52.2556 91.3512C52.1681 91.0012 52.0431 90.6665 51.8861 90.354C52.1181 90.3026 52.3514 90.2734 52.5819 90.2734ZM52.5819 89.6484C52.3097 89.6484 52.0292 89.6804 51.7472 89.7457C51.5597 89.7887 51.4028 89.9151 51.3208 90.0887C51.2389 90.2623 51.2417 90.4637 51.3278 90.6359C51.4653 90.9096 51.5736 91.2026 51.65 91.5054C51.7208 91.7859 51.9722 91.9776 52.2556 91.9776C52.275 91.9776 52.2931 91.9762 52.3125 91.9748C52.3472 91.972 52.3806 91.9707 52.4111 91.9707C52.5694 91.9707 52.6917 92.0082 52.7333 92.0693C52.7722 92.1276 52.7875 92.2707 52.7014 92.4887C52.4556 93.1221 51.6472 93.6971 51.0069 93.6971C50.8486 93.6971 50.7264 93.6595 50.6847 93.5984C50.6458 93.5401 50.6306 93.3971 50.7167 93.179C50.8111 92.9373 50.9944 92.6901 51.2347 92.4818C51.4056 92.3332 51.4833 92.1026 51.4361 91.8804C51.3486 91.4707 51.2042 91.079 51.0069 90.7151C50.9208 90.5582 50.7722 90.4443 50.5972 90.404C50.5514 90.3929 50.5042 90.3887 50.4569 90.3887C50.3278 90.3887 50.2 90.429 50.0931 90.5054C49.3639 91.029 48.8 91.7346 48.5042 92.4915C48.1556 93.3873 48.2167 94.2901 48.6736 94.9679C49.1306 95.6457 49.8986 96.0193 50.8361 96.0193C52.5292 96.0193 54.2819 94.7971 54.9139 93.1776C55.2625 92.2818 55.2014 91.379 54.7444 90.7012C54.2861 90.0221 53.5194 89.6484 52.5819 89.6484Z" fill="#F9FAFB"/>
<path d="M78.3625 96.2417L77.8097 97.6695H55.6806L56.2306 96.2417H78.3625Z" fill="#D0D5DD"/>
<path d="M77.8097 97.982H55.6806C55.5778 97.982 55.4806 97.9306 55.4222 97.8459C55.3639 97.7611 55.3514 97.6528 55.3889 97.557L55.9403 96.1292C55.9861 96.0084 56.1028 95.9292 56.2319 95.9292H78.3639C78.4667 95.9292 78.5639 95.9806 78.6222 96.0653C78.6806 96.15 78.6931 96.2584 78.6556 96.3542L78.1028 97.782C78.0556 97.9028 77.9389 97.982 77.8097 97.982ZM56.1361 97.357H77.5958L77.9069 96.5542H56.4458L56.1361 97.357Z" fill="#D0D5DD"/>
<path d="M76.5819 100.853L76.0292 102.28H53.8986L54.45 100.853H76.5819Z" fill="#D0D5DD"/>
<path d="M76.0292 102.593H53.8986C53.7958 102.593 53.6986 102.541 53.6403 102.457C53.5819 102.372 53.5694 102.264 53.6069 102.168L54.1583 100.74C54.2042 100.619 54.3208 100.54 54.45 100.54H76.5819C76.6847 100.54 76.7819 100.591 76.8403 100.676C76.8986 100.761 76.9111 100.869 76.8736 100.965L76.3208 102.393C76.2736 102.514 76.1583 102.593 76.0292 102.593ZM54.3542 101.968H75.8139L76.125 101.165H54.6639L54.3542 101.968Z" fill="#D0D5DD"/>
<path d="M89.9028 93.0361L92.9556 97.1986L87.7486 110.672L84.6958 106.511L89.9028 93.0361Z" fill="#D0D5DD"/>
<path d="M87.7486 110.985C87.65 110.985 87.5556 110.938 87.4972 110.857L84.4444 106.696C84.3819 106.61 84.3667 106.497 84.4056 106.399L89.6125 92.9236C89.6542 92.8167 89.75 92.7417 89.8625 92.7264C89.9764 92.7111 90.0875 92.7597 90.1556 92.8514L93.2083 97.0139C93.2708 97.1 93.2861 97.2125 93.2472 97.3111L88.0403 110.786C87.9986 110.893 87.9028 110.968 87.7903 110.983C87.7764 110.985 87.7625 110.985 87.7486 110.985ZM85.0486 106.464L87.6625 110.028L92.6014 97.2445L89.9875 93.6806L85.0486 106.464Z" fill="#F9FAFB"/>
<path d="M84.6958 106.511L87.7486 110.672H43.175L40.1222 106.511H84.6958Z" fill="#D0D5DD"/>
<path d="M87.7486 110.985H43.175C43.075 110.985 42.9819 110.938 42.9236 110.857L39.8708 106.694C39.8014 106.6 39.7903 106.474 39.8444 106.368C39.8972 106.263 40.0056 106.197 40.1236 106.197H84.6972C84.7972 106.197 84.8903 106.244 84.9486 106.325L88.0014 110.488C88.0708 110.582 88.0819 110.708 88.0278 110.814C87.9736 110.919 87.8667 110.985 87.7486 110.985ZM43.3333 110.36H87.1319L84.5375 106.822H40.7389L43.3333 110.36Z" fill="#F9FAFB"/>
<path d="M116.893 63.083L119.946 67.2455L108.285 97.1983L105.232 93.0358L116.893 63.083Z" fill="#D0D5DD"/>
<path d="M108.285 97.5108C108.186 97.5108 108.092 97.4636 108.033 97.383L104.981 93.2205C104.917 93.1344 104.903 93.0219 104.942 92.9219L116.603 62.9691C116.644 62.8622 116.74 62.7872 116.853 62.7733C116.965 62.758 117.078 62.8066 117.146 62.8983L120.199 67.0608C120.263 67.1469 120.276 67.2594 120.238 67.3594L108.576 97.3122C108.535 97.4191 108.439 97.4941 108.326 97.508C108.311 97.5094 108.299 97.5108 108.285 97.5108ZM105.585 92.9886L108.2 96.5538L119.593 67.2927L116.978 63.7275L105.585 92.9886Z" fill="#F9FAFB"/>
<path d="M105.232 93.0361H89.9028H62.1944L65.2472 97.1986H92.9556H108.285L105.232 93.0361Z" fill="#D0D5DD"/>
<path d="M108.285 97.5111H65.2472C65.1472 97.5111 65.0542 97.4639 64.9958 97.3834L61.9431 93.2209C61.8736 93.1264 61.8625 93 61.9167 92.8945C61.9694 92.7889 62.0778 92.7236 62.1958 92.7236H105.233C105.333 92.7236 105.426 92.7709 105.485 92.8514L108.538 97.0139C108.607 97.1084 108.618 97.2347 108.564 97.3403C108.51 97.4445 108.403 97.5111 108.285 97.5111ZM65.4056 96.8861H107.668L105.074 93.3486H62.8111L65.4056 96.8861Z" fill="#F9FAFB"/>
<path d="M97.9305 56.5264C100.846 56.5264 102.831 57.9986 103.415 60.2139C103.642 61.0736 103.657 62.0444 103.435 63.0847C103.343 63.5153 103.21 63.9569 103.035 64.4083C101.468 68.4347 97.0458 71.7555 92.8208 72.2333C92.4958 72.2139 92.1653 72.2041 91.8278 72.2041C91.4903 72.2041 91.1514 72.2139 90.8125 72.2333C86.9583 71.7555 85.1222 68.4347 86.6903 64.4083C88.3819 60.0541 93.4153 56.5264 97.9305 56.5264Z" fill="#98A2B3"/>
<path d="M90.8083 72.5443C90.7958 72.5443 90.7833 72.543 90.7694 72.5416C88.8889 72.3082 87.3917 71.4055 86.5514 69.9985C85.6222 68.443 85.5667 66.4166 86.3931 64.293C88.1278 59.8374 93.3028 56.2124 97.9278 56.2124C100.904 56.2124 103.067 57.6777 103.714 60.1332C103.958 61.0624 103.967 62.0763 103.736 63.1485C103.64 63.5999 103.5 64.061 103.321 64.5207C101.735 68.5985 97.2333 72.0471 92.85 72.543C92.8319 72.5443 92.8139 72.5457 92.7958 72.5443C92.1569 72.5068 91.4903 72.5068 90.8222 72.5443C90.8208 72.5443 90.8153 72.5443 90.8083 72.5443ZM91.825 71.8902C92.1556 71.8902 92.4875 71.8999 92.8097 71.918C96.9708 71.436 101.236 68.1624 102.742 64.2943C102.908 63.8666 103.039 63.4374 103.128 63.018C103.336 62.0416 103.332 61.1249 103.112 60.293C102.542 58.1305 100.606 56.8388 97.9306 56.8388C93.5417 56.8388 88.6278 60.286 86.9778 64.5221C86.2222 66.4624 86.2625 68.2943 87.0903 69.6805C87.825 70.911 89.1486 71.7055 90.8208 71.9193C91.1569 71.8999 91.4944 71.8902 91.825 71.8902Z" fill="#F9FAFB"/>
<path d="M106.756 51.5288L116.893 63.083H103.433C103.656 62.0427 103.64 61.0719 103.414 60.2121L106.756 51.5288Z" fill="#D0D5DD"/>
<path d="M116.893 63.3957H103.433C103.339 63.3957 103.25 63.3526 103.19 63.279C103.131 63.2054 103.108 63.1096 103.128 63.0165C103.336 62.0401 103.332 61.1235 103.112 60.2915C103.096 60.2276 103.1 60.161 103.124 60.0998L106.465 51.4151C106.504 51.3123 106.594 51.2387 106.703 51.2193C106.81 51.1998 106.921 51.2387 106.993 51.3207L117.131 62.8748C117.211 62.9665 117.231 63.0985 117.181 63.2096C117.128 63.3248 117.017 63.3957 116.893 63.3957ZM103.811 62.7707H116.204L106.862 52.1235L103.742 60.2318C103.935 61.0235 103.957 61.8748 103.811 62.7707Z" fill="#F9FAFB"/>
<path d="M91.825 72.2026C92.1625 72.2026 92.4931 72.2124 92.8181 72.2318C101.224 72.7332 105.357 79.6193 102.079 88.0401H69.2375C72.5167 79.6193 82.0125 72.7318 90.8083 72.2318C91.1486 72.2124 91.4875 72.2026 91.825 72.2026Z" fill="#98A2B3"/>
<path d="M102.079 88.3541H69.2375C69.1347 88.3541 69.0375 88.3027 68.9792 88.218C68.9208 88.1333 68.9083 88.0249 68.9458 87.9277C72.2431 79.461 81.8375 72.4291 90.7903 71.9208C91.4833 71.8819 92.1736 71.8819 92.8361 71.9208C96.8653 72.161 100.089 73.8624 101.915 76.7097C103.885 79.7833 104.047 83.8485 102.369 88.1555C102.324 88.2749 102.208 88.3541 102.079 88.3541ZM69.7 87.7291H101.864C103.385 83.6874 103.218 79.9013 101.389 77.0472C99.6736 74.3722 96.6236 72.7735 92.8 72.5444C92.1611 72.5069 91.4944 72.5069 90.8264 72.5444C82.25 73.0319 73.0667 79.6638 69.7 87.7291Z" fill="#F9FAFB"/>
<path d="M106.756 51.5288L103.414 60.2135C102.829 57.9983 100.844 56.526 97.9292 56.526C93.4153 56.526 88.3806 60.0538 86.6861 64.408C85.1181 68.4344 86.9542 71.7552 90.8083 72.233C82.0125 72.733 72.5167 79.6205 69.2375 88.0413H102.079C105.358 79.6205 101.224 72.7344 92.8181 72.233C97.0444 71.7552 101.467 68.4344 103.032 64.408C103.208 63.9566 103.34 63.5149 103.432 63.0844H116.892L105.231 93.0371H89.9028H62.1944L78.3556 51.5302H105.94H106.756V51.5288Z" fill="#D0D5DD"/>
<path d="M105.232 93.3483H62.1944C62.0917 93.3483 61.9944 93.2969 61.9361 93.2121C61.8778 93.1274 61.8653 93.0191 61.9028 92.9219L78.0639 51.4149C78.1111 51.2955 78.2264 51.2163 78.3556 51.2163H106.756C106.858 51.2163 106.956 51.2677 107.013 51.3524C107.071 51.4371 107.083 51.5455 107.047 51.6413L103.706 60.326C103.657 60.4524 103.529 60.5344 103.397 60.526C103.263 60.5191 103.147 60.4246 103.112 60.2941C102.542 58.1302 100.606 56.8399 97.9306 56.8399C93.5417 56.8399 88.6278 60.2871 86.9778 64.5233C86.2222 66.4635 86.2625 68.2955 87.0903 69.6816C87.8292 70.9191 89.1625 71.7149 90.8472 71.9246C91.0083 71.9441 91.1264 72.083 91.1208 72.2455C91.1153 72.4066 90.9875 72.5385 90.8264 72.5469C82.25 73.0344 73.0667 79.6663 69.7 87.7316H101.864C103.385 83.6899 103.218 79.9038 101.389 77.0496C99.6736 74.3746 96.6236 72.776 92.8 72.5469C92.6375 72.5371 92.5111 72.4052 92.5056 72.2427C92.5 72.0802 92.6222 71.9427 92.7833 71.9233C96.9528 71.4524 101.233 68.1733 102.742 64.2955C102.908 63.8677 103.039 63.4385 103.128 63.0191C103.158 62.8746 103.286 62.7719 103.433 62.7719H116.893C116.996 62.7719 117.093 62.8233 117.151 62.908C117.21 62.9927 117.222 63.101 117.185 63.1983L105.524 93.151C105.476 93.2691 105.361 93.3483 105.232 93.3483ZM62.6514 92.7233H105.018L116.436 63.3955H103.682C103.59 63.7677 103.471 64.1441 103.324 64.5205C101.965 68.0121 98.4695 71.0427 94.7417 72.1524C97.8806 72.7455 100.388 74.3246 101.915 76.708C103.885 79.7816 104.047 83.8469 102.369 88.1538C102.322 88.2733 102.207 88.3524 102.078 88.3524H69.2375C69.1347 88.3524 69.0375 88.301 68.9792 88.2163C68.9208 88.1316 68.9083 88.0233 68.9458 87.926C72.0292 80.008 80.6222 73.3441 89.0458 72.0983C87.9736 71.658 87.1153 70.9413 86.5528 69.9983C85.6236 68.4427 85.5681 66.4163 86.3944 64.2927C88.1292 59.8371 93.3042 56.2121 97.9292 56.2121C100.556 56.2121 102.549 57.3538 103.426 59.3094L106.3 51.8413H78.5694L62.6514 92.7233Z" fill="#F9FAFB"/>
<path d="M58.3444 59.6733C58.3042 59.6733 58.2639 59.665 58.225 59.6497C55.8917 58.69 54.6486 56.4052 55.0597 53.8302C55.6028 50.4302 58.9083 47.6636 62.4292 47.6636C62.5528 47.6636 62.6611 47.6664 62.7569 47.6719C64.8556 47.7733 66.6167 48.8802 67.4667 50.6344C67.6264 50.9622 67.7542 51.3164 67.8431 51.6858C67.95 52.1344 68 52.5983 67.9917 53.0636C67.9861 53.6636 67.4375 54.1914 66.8167 54.1914C66.55 54.1914 66.3069 54.0941 66.1319 53.9164C65.9597 53.7427 65.8667 53.5066 65.8694 53.2511C65.8736 53.0052 65.8528 52.7636 65.8111 52.5316C65.7514 52.2052 65.6444 51.89 65.4931 51.5941C64.8903 50.4191 63.6542 49.7164 62.1861 49.7164C59.7819 49.7233 57.525 51.6136 57.1556 53.9289C56.9014 55.5233 57.6361 56.9872 59.025 57.658C59.1708 57.7289 59.2389 57.8997 59.1806 58.0511L58.6333 59.4733C58.6028 59.5525 58.5431 59.615 58.4653 59.6483C58.4278 59.665 58.3861 59.6733 58.3444 59.6733Z" fill="#D0D5DD"/>
<path d="M62.4292 47.9761C62.5333 47.9761 62.6375 47.9775 62.7389 47.9844C64.7875 48.083 66.4125 49.1747 67.1861 50.7719C67.3375 51.083 67.4556 51.4136 67.5403 51.7608C67.6389 52.1747 67.6875 52.608 67.6806 53.0594C67.6764 53.4914 67.2722 53.8802 66.8181 53.8802C66.4444 53.8802 66.1806 53.6122 66.1833 53.2552C66.1875 52.9872 66.1653 52.7275 66.1208 52.4775C66.0542 52.1136 65.9361 51.7705 65.7736 51.4539C65.1417 50.2205 63.8194 49.4052 62.1889 49.4052C59.6347 49.4136 57.2431 51.4164 56.8486 53.8802C56.5625 55.6761 57.4181 57.2289 58.8917 57.94L58.3444 59.3622C56.2264 58.4914 54.9722 56.365 55.3681 53.8802C55.8875 50.6233 59.0528 47.9761 62.4292 47.9761ZM62.4292 47.3511C60.65 47.3511 58.8736 48.0177 57.4264 49.2275C55.9764 50.44 55.0264 52.0566 54.75 53.7802C54.5361 55.1219 54.7486 56.4177 55.3667 57.5289C55.9722 58.6177 56.9194 59.4511 58.1056 59.9386C58.1819 59.9705 58.2625 59.9858 58.3431 59.9858C58.4278 59.9858 58.5111 59.9691 58.5903 59.9344C58.7444 59.8677 58.8653 59.7414 58.9264 59.5844L59.4736 58.1622C59.5903 57.858 59.4556 57.5164 59.1625 57.3747C57.8806 56.7566 57.2306 55.4539 57.4653 53.9761C57.8125 51.8066 59.9319 50.0344 62.1903 50.0275C63.5361 50.0275 64.6681 50.6664 65.2167 51.7358C65.3528 52.0039 65.45 52.2914 65.5042 52.5872C65.5431 52.7983 65.5597 53.0191 65.5569 53.2427C65.5528 53.5844 65.6778 53.8997 65.9097 54.133C66.1444 54.3705 66.4667 54.5011 66.8167 54.5011C67.6153 54.5011 68.2972 53.8414 68.3042 53.0608C68.3125 52.5747 68.2597 52.0858 68.1472 51.6122C68.0514 51.2177 67.9167 50.8427 67.7458 50.4941C66.8458 48.6372 64.9833 47.4636 62.7667 47.3566C62.6722 47.3539 62.5597 47.3511 62.4292 47.3511Z" fill="#F9FAFB"/>
<path d="M48.1347 86.0903C48.0944 86.0903 48.0528 86.082 48.0139 86.0667C45.6986 85.1001 44.4667 82.8195 44.875 80.2584C45.4167 76.857 48.725 74.0903 52.2472 74.0903C52.3458 74.0903 52.4417 74.0931 52.5375 74.0973C54.6417 74.1903 56.4097 75.2876 57.2694 77.0306C57.4333 77.3639 57.5639 77.7181 57.6542 78.0848C57.7653 78.5362 57.8194 79.0084 57.8125 79.4889C57.8042 80.0917 57.2542 80.6209 56.6361 80.6209C56.3694 80.6209 56.125 80.5223 55.9486 80.3445C55.7764 80.1709 55.6847 79.9334 55.6875 79.6792C55.6917 79.4209 55.6694 79.1653 55.6208 78.9195C55.5569 78.5917 55.4472 78.2806 55.2958 77.9917C54.6875 76.8362 53.4639 76.1459 52.0208 76.1459L51.9889 76.1473C49.5875 76.1681 47.3417 78.0584 46.975 80.3584C46.7222 81.9417 47.4472 83.4 48.8222 84.0764C48.9681 84.1473 49.0347 84.3181 48.9764 84.4695L48.4278 85.8931C48.3972 85.9723 48.3361 86.0348 48.2583 86.0681C48.2181 86.082 48.1764 86.0903 48.1347 86.0903Z" fill="#D0D5DD"/>
<path d="M52.2486 74.4028C52.3431 74.4028 52.4347 74.4056 52.5278 74.4098C54.5792 74.5001 56.2069 75.5806 56.9903 77.1695C57.1444 77.482 57.2653 77.8126 57.3514 78.1598C57.4556 78.5806 57.5069 79.0237 57.5 79.4834C57.4944 79.9167 57.0889 80.307 56.6361 80.307C56.2625 80.307 55.9958 80.0389 56.0014 79.682C56.0056 79.3973 55.9806 79.1223 55.9292 78.857C55.8583 78.4959 55.7375 78.1556 55.5736 77.8431C54.9361 76.6306 53.6375 75.8306 52.0222 75.8306L51.9792 75.832C49.4361 75.8542 47.0597 77.8514 46.6681 80.307C46.3833 82.0917 47.2278 83.6375 48.6861 84.3542L48.525 84.7723L48.1375 85.7764C46.0361 84.8987 44.7931 82.7778 45.1875 80.3056C45.7042 77.0501 48.8708 74.4028 52.2486 74.4028ZM52.2486 73.7778C48.5792 73.7778 45.1333 76.6626 44.5681 80.2084C44.3556 81.5431 44.5653 82.8348 45.1778 83.9417C45.7778 85.0278 46.7167 85.8612 47.8944 86.3528C47.9708 86.3848 48.0542 86.4014 48.1347 86.4014C48.2181 86.4014 48.3014 86.3848 48.3806 86.3514C48.5361 86.2848 48.6569 86.1584 48.7181 86.0014L49.1056 84.9973L49.2667 84.5778C49.3833 84.2764 49.25 83.9348 48.9597 83.7917C47.6917 83.1681 47.0486 81.8709 47.2833 80.4042C47.6278 78.2473 49.7361 76.4764 51.9833 76.457C51.9889 76.457 51.9958 76.457 52.0014 76.457L52.0333 76.4556C53.3528 76.4598 54.4694 77.0862 55.0208 78.1348C55.1583 78.3973 55.2583 78.6806 55.3167 78.9778C55.3611 79.2028 55.3819 79.4362 55.3778 79.6737C55.3722 80.0126 55.4972 80.3278 55.7278 80.5626C55.9625 80.8014 56.2861 80.932 56.6375 80.932C57.4347 80.932 58.1167 80.2723 58.1264 79.4917C58.1333 78.9862 58.0778 78.4862 57.9597 78.0098C57.8639 77.6223 57.7278 77.2473 57.5528 76.8931C56.6403 75.0459 54.7736 73.8834 52.5569 73.7862C52.4528 73.7806 52.3528 73.7778 52.2486 73.7778Z" fill="#F9FAFB"/>
<path d="M43.032 99.3C42.9903 99.3 42.95 99.2917 42.9111 99.275C40.4695 98.2459 39.2472 95.7375 39.8708 93.0347C40.6125 89.8209 43.8167 87.3042 47.1667 87.3042C47.2403 87.3042 47.3139 87.3056 47.3875 87.3084L47.4333 87.3098C49.5292 87.3973 51.2986 88.4847 52.1667 90.2153C52.3347 90.5514 52.4667 90.9084 52.5597 91.2764C52.675 91.7334 52.7292 92.2139 52.7222 92.7014C52.7111 93.3042 52.1625 93.832 51.5458 93.832C51.2792 93.832 51.0347 93.7334 50.8583 93.5556C50.6861 93.382 50.5945 93.1459 50.5972 92.8917C50.6014 92.6125 50.575 92.3375 50.5195 92.075C50.4514 91.7528 50.3375 91.4459 50.1833 91.1625C49.5695 90.032 48.3528 89.3584 46.9292 89.3584C46.925 89.3584 46.8806 89.3598 46.8736 89.3598C44.4875 89.3875 42.2486 91.275 41.8833 93.5695C41.6278 95.1709 42.332 96.5945 43.7195 97.282C43.8639 97.3542 43.9306 97.5236 43.8722 97.6736L43.3236 99.0986C43.2931 99.1778 43.232 99.2403 43.1542 99.2736C43.1153 99.2917 43.0736 99.3 43.032 99.3Z" fill="#D0D5DD"/>
<path d="M47.1653 87.6167C47.2347 87.6167 47.3056 87.6181 47.3764 87.6209L47.4208 87.6223C49.4667 87.7084 51.0944 88.7778 51.8861 90.3556C52.0431 90.6695 52.1681 91.0028 52.2556 91.3528C52.3625 91.7792 52.4153 92.2292 52.4083 92.6972C52.4014 93.1306 51.9972 93.5195 51.5444 93.5195C51.1708 93.5195 50.9042 93.2514 50.9097 92.8959C50.9139 92.5889 50.8847 92.2931 50.825 92.0097C50.75 91.6542 50.625 91.3209 50.4583 91.0125C49.8125 89.825 48.5264 89.0445 46.9306 89.0445C46.9125 89.0445 46.8903 89.0445 46.8722 89.0459C44.3347 89.075 41.9667 91.0681 41.5764 93.5181C41.2917 95.3 42.1306 96.8403 43.5819 97.5597L43.5639 97.607L43.0333 98.9848C40.8236 98.0528 39.5681 95.7431 40.1764 93.1028C40.8875 90.0209 43.9819 87.6167 47.1653 87.6167ZM47.1653 86.9917C43.6764 86.9917 40.3389 89.6153 39.5653 92.9639C38.9056 95.8195 40.2014 98.4722 42.7875 99.5625C42.8653 99.5959 42.9472 99.6111 43.0306 99.6111C43.1139 99.6111 43.1972 99.5945 43.275 99.5611C43.4306 99.4945 43.5528 99.3681 43.6139 99.2111L44.1444 97.8334L44.1625 97.7861C44.2792 97.4847 44.1458 97.1445 43.8569 97.0014C42.5958 96.3764 41.9569 95.0792 42.1903 93.6181C42.5333 91.4681 44.6347 89.6973 46.8764 89.6723C46.8889 89.6723 46.9014 89.6723 46.9139 89.6709H46.9278C48.2347 89.6709 49.3472 90.2848 49.9069 91.3125C50.0472 91.5695 50.15 91.8486 50.2111 92.1403C50.2625 92.3806 50.2861 92.632 50.2819 92.8875C50.2778 93.2264 50.4014 93.5417 50.6319 93.775C50.8667 94.0139 51.1903 94.1445 51.5417 94.1445C52.3347 94.1445 53.0167 93.4861 53.0306 92.7084C53.0375 92.1917 52.9806 91.6861 52.8583 91.2014C52.7597 90.8098 52.6194 90.432 52.4417 90.0764C51.5222 88.2417 49.6542 87.0917 47.4444 86.9986L47.3944 86.9973C47.3208 86.9931 47.2431 86.9917 47.1653 86.9917Z" fill="#F9FAFB"/>
<path d="M61.0722 69.3039C60.2403 69.3039 59.5639 68.9789 59.1708 68.3887C58.7722 67.797 58.7222 66.9998 59.0333 66.2026C59.3014 65.5123 59.8167 64.8651 60.4806 64.3789C60.5347 64.3401 60.5986 64.3192 60.6653 64.3192C60.6889 64.3192 60.7125 64.322 60.7361 64.3276C60.825 64.3484 60.9 64.4067 60.9417 64.4859C61.1222 64.8275 61.2514 65.197 61.3278 65.5831C61.3486 65.6914 61.3125 65.8012 61.2306 65.8748C60.9667 66.1123 60.7708 66.3845 60.6639 66.6595C60.55 66.9498 60.55 67.2012 60.6639 67.3706C60.7667 67.522 60.9736 67.6067 61.2458 67.6067C62.0125 67.6067 62.9417 66.9512 63.2333 66.2026C63.3458 65.9123 63.3458 65.6595 63.2333 65.4928C63.1306 65.3387 62.9236 65.2539 62.6528 65.2539C62.5986 65.2539 62.5417 65.2567 62.4847 65.2637C62.4722 65.265 62.4597 65.2664 62.4486 65.2664C62.307 65.2664 62.1792 65.1692 62.1458 65.0276C62.0667 64.7053 61.9542 64.3928 61.8097 64.0984C61.7681 64.0137 61.7667 63.9137 61.807 63.8276C61.8472 63.7414 61.925 63.6789 62.0167 63.6567C62.2889 63.5914 62.5611 63.5581 62.825 63.5581C63.6556 63.5581 64.3306 63.8831 64.7264 64.472C65.1236 65.0623 65.175 65.8595 64.8653 66.6581C64.282 68.1428 62.6195 69.3039 61.0722 69.3039Z" fill="#D0D5DD"/>
<path d="M62.8194 63.8721C63.5417 63.8721 64.125 64.1471 64.4611 64.6485C64.8014 65.154 64.8403 65.8471 64.5681 66.5471C64.0347 67.9179 62.4986 68.9901 61.0722 68.9901C60.35 68.9901 59.7653 68.7151 59.4306 68.2137C59.0903 67.7082 59.05 67.0151 59.3236 66.3151C59.5806 65.6568 60.0681 65.0665 60.6639 64.6304C60.8278 64.9429 60.9486 65.2818 61.0194 65.6429C60.7319 65.9026 60.5 66.2151 60.3708 66.5471C60.2195 66.936 60.2306 67.2887 60.4014 67.5443C60.5653 67.786 60.8625 67.9193 61.2431 67.9193C62.1389 67.9193 63.182 67.1846 63.5208 66.3165C63.6708 65.9276 63.6611 65.5748 63.4889 65.3193C63.3264 65.0762 63.0278 64.9429 62.65 64.9429C62.5819 64.9429 62.5139 64.9471 62.4458 64.9554C62.3611 64.6068 62.2403 64.2748 62.0861 63.9623C62.3292 63.904 62.575 63.8721 62.8194 63.8721ZM62.8194 63.2471C62.5319 63.2471 62.2347 63.2832 61.9389 63.354C61.7542 63.3985 61.6 63.5248 61.5195 63.6957C61.4389 63.8665 61.4403 64.0665 61.5236 64.2373C61.6583 64.511 61.7639 64.8026 61.8375 65.1026C61.907 65.3846 62.1597 65.579 62.4445 65.579C62.4695 65.579 62.4931 65.5776 62.5181 65.5748C62.5625 65.5693 62.6069 65.5665 62.65 65.5665C62.8069 65.5665 62.9292 65.604 62.9708 65.6651C63.0097 65.7235 63.025 65.8679 62.9389 66.0887C62.6945 66.7179 61.8861 67.2929 61.2444 67.2929C61.0861 67.2929 60.9625 67.254 60.9208 67.1929C60.882 67.1346 60.8694 66.9915 60.9542 66.7735C61.0431 66.5457 61.2153 66.3082 61.4403 66.1054C61.6028 65.9582 61.6764 65.736 61.6347 65.5207C61.5528 65.1054 61.4125 64.7068 61.2195 64.3387C61.1347 64.1776 60.9847 64.0623 60.807 64.0207C60.7597 64.0096 60.7125 64.004 60.6653 64.004C60.5333 64.004 60.4042 64.0457 60.2972 64.1248C59.5847 64.6443 59.032 65.3415 58.7417 66.0873C58.3931 66.9804 58.4556 67.8832 58.9125 68.5623C59.3653 69.2401 60.1333 69.6137 61.0736 69.6137C62.7681 69.6137 64.5222 68.3915 65.1528 66.7721C65.5 65.8762 65.4375 64.9748 64.9819 64.2971C64.525 63.6221 63.7569 63.2471 62.8194 63.2471Z" fill="#F9FAFB"/>
<path d="M53.2389 72.8817C53.1986 72.8817 53.1569 72.8734 53.1194 72.8581C50.7958 71.8942 49.5597 69.6109 49.9708 67.0428C50.5125 63.6442 53.8181 60.8789 57.3403 60.8789C57.4403 60.8789 57.5431 60.8789 57.6458 60.8845C57.6472 60.8845 57.6486 60.8845 57.65 60.8845C59.7444 60.9817 61.5069 62.0803 62.3653 63.8234C62.3694 63.8303 62.3722 63.8372 62.375 63.8456C62.5319 64.1678 62.6583 64.515 62.7486 64.8789C62.8583 65.3234 62.9097 65.7928 62.9042 66.2747C62.8958 66.8761 62.3458 67.4039 61.7264 67.4039C61.4597 67.4039 61.2167 67.3053 61.0403 67.1275C60.8694 66.9539 60.7778 66.7178 60.7819 66.4636C60.7861 66.2067 60.7625 65.9511 60.7125 65.7053C60.6486 65.3789 60.5389 65.0664 60.3875 64.7761C60.0958 64.2206 59.6486 63.7595 59.0958 63.4414C58.5444 63.122 57.9167 62.9511 57.2292 62.9331C57.1903 62.9317 57.1583 62.9317 57.1236 62.9317C57.1195 62.9317 57.0833 62.9317 57.0833 62.9317C54.6833 62.9581 52.4319 64.8456 52.0667 67.1414C51.8139 68.7303 52.5431 70.1928 53.925 70.8664C54.0708 70.9372 54.1389 71.1081 54.0792 71.2595L53.5292 72.6817C53.4986 72.7609 53.4375 72.8234 53.3611 72.8567C53.3222 72.8734 53.2806 72.8817 53.2389 72.8817Z" fill="#D0D5DD"/>
<path d="M57.3389 61.1899C57.4375 61.1899 57.5361 61.1899 57.632 61.1955H57.6333C59.6778 61.2899 61.3014 62.3733 62.0833 63.9608V63.9622C62.2375 64.2733 62.357 64.6066 62.4431 64.9524C62.5458 65.3705 62.5945 65.8108 62.5889 66.2677C62.5833 66.7011 62.1778 67.0886 61.7236 67.0886C61.3514 67.0886 61.0861 66.8205 61.0917 66.4663C61.0958 66.183 61.0695 65.9066 61.0167 65.6413C60.9458 65.2802 60.825 64.9427 60.6625 64.6288C60.3431 64.0219 59.8583 63.5177 59.25 63.1677C58.675 62.8344 57.9917 62.6386 57.2347 62.6177C57.1931 62.6163 57.1514 62.6163 57.1083 62.6163H57.0833C54.5153 62.6441 52.1472 64.6386 51.7569 67.0899C51.4708 68.8816 52.3208 70.4302 53.7875 71.1455L53.2375 72.5677C51.1306 71.6927 49.8806 69.5705 50.2778 67.0899C50.7958 63.8372 53.9611 61.1899 57.3389 61.1899ZM57.3389 60.5649C55.5597 60.5649 53.782 61.2316 52.3347 62.4413C50.8847 63.6538 49.9347 65.2705 49.6597 66.9927C49.4458 68.3316 49.6569 69.6261 50.2722 70.7344C50.8736 71.8219 51.8167 72.6552 52.9986 73.1455C53.075 73.1774 53.157 73.1927 53.2375 73.1927C53.3208 73.1927 53.4056 73.1761 53.4833 73.1427C53.6375 73.0761 53.7597 72.951 53.8208 72.7927L54.3708 71.3705C54.4875 71.0677 54.3542 70.7261 54.0611 70.583C52.7861 69.9622 52.1389 68.6608 52.3736 67.1872C52.7167 65.0358 54.832 63.2649 57.0889 63.2399H57.1097C57.1181 63.2399 57.125 63.2399 57.1333 63.2399C57.1583 63.2399 57.1833 63.2399 57.207 63.2413C57.2111 63.2413 57.2153 63.2413 57.2195 63.2413C57.8542 63.258 58.432 63.4149 58.9375 63.7066C59.4403 63.9955 59.8445 64.4149 60.1097 64.9177C60.2472 65.1802 60.3458 65.4636 60.4042 65.7594C60.45 65.9858 60.4708 66.2191 60.4667 66.4552C60.4611 66.7913 60.5847 67.1066 60.8153 67.3413C61.05 67.5802 61.3722 67.7122 61.7236 67.7122C62.5208 67.7122 63.2028 67.0538 63.2139 66.2747C63.2208 65.7663 63.1653 65.2705 63.05 64.8011C62.9542 64.4163 62.8222 64.0511 62.657 63.7122C62.6528 63.7011 62.6472 63.6913 62.6431 63.6816C61.7333 61.8344 59.8708 60.6705 57.6611 60.5677C57.6597 60.5677 57.6583 60.5677 57.657 60.5677C57.5486 60.5649 57.4417 60.5649 57.3389 60.5649Z" fill="#F9FAFB"/>
<path d="M118.349 49.2808L118.622 50.9933C118.788 52.0196 119.492 52.8238 120.506 53.1405L122.199 53.6683L120.337 54.196C119.224 54.5127 118.262 55.3169 117.769 56.3433L116.949 58.0558L116.674 56.3433C116.508 55.3169 115.804 54.5127 114.79 54.196L113.099 53.6683L114.958 53.1405C116.072 52.8238 117.033 52.0196 117.526 50.9933L118.349 49.2808Z" fill="#98A2B3"/>
<path d="M40.6583 36.5083L40.8681 37.8208C40.9944 38.6083 41.5347 39.225 42.3125 39.4666L43.6097 39.8708L42.1833 40.2777C41.3292 40.5194 40.5917 41.1361 40.2139 41.9222L39.5847 43.2361L39.375 41.9222C39.2486 41.1347 38.7083 40.5194 37.9306 40.2777L36.6333 39.8722L38.0597 39.468C38.9139 39.2264 39.6514 38.6083 40.0292 37.8222L40.6583 36.5083Z" fill="#98A2B3"/>
<path d="M96.0069 82.1929L96.1236 82.9248C96.1944 83.3623 96.4958 83.7068 96.9292 83.8415L97.6514 84.0665L96.8569 84.2915C96.3806 84.4276 95.9694 84.7707 95.7583 85.2082L95.4069 85.9401L95.2903 85.2082C95.2194 84.7707 94.9194 84.4262 94.4861 84.2915L93.7625 84.0665L94.5583 83.8415C95.0347 83.7054 95.4444 83.3623 95.6556 82.9248L96.0069 82.1929Z" fill="#F7F9FC"/>
<path d="M31.8792 94.3667L31.9958 95.0986C32.0667 95.5375 32.3681 95.8806 32.8014 96.0153L33.5236 96.2403L32.7292 96.4653C32.2528 96.6014 31.8417 96.9445 31.6306 97.3834L31.2806 98.1153L31.1639 97.3834C31.0944 96.9445 30.7931 96.6014 30.3597 96.4653L29.6375 96.2403L30.4319 96.0153C30.9083 95.8806 31.3194 95.5375 31.5292 95.0986L31.8792 94.3667Z" fill="#98A2B3"/>
</svg>
