<svg width="48" height="48" viewBox="0 0 48 48" fill="none" xmlns="http://www.w3.org/2000/svg">
<path fill-rule="evenodd" clip-rule="evenodd" d="M6 0C4.89543 0 4 0.895431 4 2V46C4 47.1046 4.89543 48 6 48H42C43.1046 48 44 47.1046 44 46V8L36 0H6Z" fill="#E4E7EC"/>
<path fill-rule="evenodd" clip-rule="evenodd" d="M36 0V8H44L36 0Z" fill="#989FAD"/>
<rect x="2" y="20" width="44" height="20" rx="2" fill="#D42620"/>
<path d="M9.32715 35.818V24.1816H13.6908C14.5847 24.1816 15.3347 24.3483 15.9408 24.6816C16.5506 25.015 17.0109 25.4733 17.3215 26.0566C17.6359 26.6362 17.7931 27.2953 17.7931 28.0339C17.7931 28.7801 17.6359 29.443 17.3215 30.0226C17.0071 30.6021 16.5431 31.0585 15.9294 31.3919C15.3158 31.7214 14.5601 31.8862 13.6624 31.8862H10.7703V30.1532H13.3783C13.901 30.1532 14.329 30.0623 14.6624 29.8805C14.9957 29.6987 15.2419 29.4487 15.401 29.1305C15.5639 28.8123 15.6453 28.4468 15.6453 28.0339C15.6453 27.621 15.5639 27.2574 15.401 26.943C15.2419 26.6286 14.9938 26.3843 14.6567 26.21C14.3234 26.032 13.8934 25.943 13.3669 25.943H11.4351V35.818H9.32715Z" fill="white"/>
<path d="M23.5672 35.818H19.624V24.1816H23.6468C24.8021 24.1816 25.7945 24.4146 26.624 24.8805C27.4574 25.3426 28.0975 26.0074 28.5445 26.8748C28.9914 27.7422 29.2149 28.7801 29.2149 29.9885C29.2149 31.2006 28.9896 32.2422 28.5388 33.1135C28.0918 33.9847 27.446 34.6532 26.6013 35.1191C25.7604 35.585 24.749 35.818 23.5672 35.818ZM21.732 33.9941H23.4649C24.2755 33.9941 24.9517 33.8464 25.4933 33.551C26.035 33.2517 26.4422 32.8066 26.7149 32.2157C26.9877 31.621 27.124 30.8786 27.124 29.9885C27.124 29.0983 26.9877 28.3597 26.7149 27.7725C26.4422 27.1816 26.0388 26.7404 25.5047 26.4487C24.9744 26.1532 24.3153 26.0055 23.5274 26.0055H21.732V33.9941Z" fill="white"/>
<path d="M31.2178 35.818V24.1816H38.6723V25.9487H33.3257V29.1078H38.161V30.8748H33.3257V35.818H31.2178Z" fill="white"/>
</svg>
