<svg width="150" height="150" viewBox="0 0 150 150" fill="none" xmlns="http://www.w3.org/2000/svg">
<path d="M75 128.201C103.319 128.201 126.276 119.195 126.276 108.086C126.276 96.9766 103.319 87.9707 75 87.9707C46.6809 87.9707 23.7236 96.9766 23.7236 108.086C23.7236 119.195 46.6809 128.201 75 128.201Z" fill="#F9FAFB"/>
<path d="M79.139 45.793L77.4167 56.5902H66.2223L79.0737 45.793H79.139Z" fill="#D0D5DD"/>
<path d="M77.4168 56.9027H66.2223C66.0904 56.9027 65.9737 56.8207 65.9292 56.6971C65.8848 56.5735 65.9209 56.436 66.0223 56.3513L78.8737 45.5541C78.9306 45.5069 79.0015 45.4805 79.0751 45.4805H79.1404C79.232 45.4805 79.3181 45.5207 79.3779 45.5902C79.4376 45.6596 79.4626 45.7513 79.4487 45.8416L77.7265 56.6388C77.7015 56.7916 77.5709 56.9027 77.4168 56.9027ZM67.0806 56.2777H77.1501L78.7084 46.5082L67.0806 56.2777Z" fill="#F9FAFB"/>
<path d="M113.974 49.4805L113.271 53.8832L105.6 101.979L108.972 102.642L116.128 57.7791L116.831 53.3749L113.974 49.4805Z" fill="#E4E7EC"/>
<path d="M108.972 102.954C108.953 102.954 108.932 102.953 108.913 102.949L105.54 102.286C105.375 102.254 105.265 102.096 105.292 101.931L113.665 49.4308C113.685 49.3058 113.778 49.2058 113.9 49.1766C114.022 49.1474 114.151 49.1933 114.225 49.2961L117.082 53.1905C117.132 53.2572 117.151 53.3419 117.139 53.4238L109.282 102.691C109.268 102.774 109.222 102.849 109.153 102.897C109.099 102.935 109.036 102.954 108.972 102.954ZM105.957 101.731L108.715 102.272L116.501 53.4544L114.164 50.2683L105.957 101.731Z" fill="#F9FAFB"/>
<path d="M113.974 49.4805L113.271 53.8846L104.304 110.108L92.1139 108.96L56.4362 106.521C56.4362 106.521 64.3653 65.1957 64.4292 64.5916L65.1167 60.2777H76.3112L78.0334 49.4805H113.974Z" fill="#F7F9FC"/>
<path d="M104.304 110.419C104.294 110.419 104.285 110.419 104.275 110.418L92.0848 109.269L56.4153 106.83C56.3264 106.825 56.2431 106.78 56.1889 106.709C56.1348 106.639 56.1125 106.548 56.1292 106.459C58.8612 92.2248 64.0445 65.1484 64.1181 64.5553C64.1181 64.5512 64.1195 64.5442 64.1195 64.54L64.807 60.2262C64.8306 60.0748 64.9625 59.9623 65.1153 59.9623H76.0431L77.7223 49.4289C77.7459 49.2775 77.8778 49.165 78.0306 49.165H113.971C114.063 49.165 114.149 49.2053 114.208 49.2748C114.268 49.3442 114.293 49.4359 114.279 49.5262L104.61 110.153C104.589 110.309 104.457 110.419 104.304 110.419ZM56.8098 106.232L92.1362 108.647L104.042 109.769L113.607 49.7928H78.3L76.6209 60.3262C76.5973 60.4775 76.4653 60.59 76.3125 60.59H65.3848L64.7389 64.6387C64.5917 65.6609 57.6223 101.994 56.8098 106.232Z" fill="#F9FAFB"/>
<path d="M74.3667 42.3457L72.6445 53.1415H61.4501L74.3015 42.3457H74.3667Z" fill="#D0D5DD"/>
<path d="M72.6445 53.4544H61.4501C61.3181 53.4544 61.2015 53.3725 61.157 53.2489C61.1126 53.1253 61.1487 52.9878 61.2501 52.9031L74.1015 42.1058C74.1584 42.0586 74.2293 42.0322 74.3029 42.0322H74.3681C74.4598 42.0322 74.5459 42.0725 74.6056 42.1419C74.6654 42.2114 74.6904 42.3031 74.6765 42.3933L72.9543 53.1906C72.9293 53.3433 72.7987 53.4544 72.6445 53.4544ZM62.3084 52.8294H72.3779L73.9362 43.06L62.3084 52.8294Z" fill="#F9FAFB"/>
<path d="M109.754 44.1885L109.051 48.5913L101.381 96.6871L104.753 97.3496L111.908 52.4871L112.611 48.0829L109.754 44.1885Z" fill="#E4E7EC"/>
<path d="M104.753 97.6624C104.733 97.6624 104.713 97.661 104.693 97.6568L101.321 96.9943C101.156 96.9624 101.046 96.8041 101.072 96.6388L109.446 44.1388C109.465 44.0138 109.558 43.9138 109.681 43.8846C109.803 43.8555 109.932 43.9013 110.006 44.0041L112.863 47.8985C112.913 47.9652 112.932 48.0499 112.92 48.1332L105.063 97.3999C105.049 97.4832 105.003 97.5582 104.933 97.6068C104.879 97.643 104.817 97.6624 104.753 97.6624ZM101.738 96.4388L104.496 96.9805L112.282 48.1624L109.944 44.9763L101.738 96.4388Z" fill="#F9FAFB"/>
<path d="M109.754 44.1895L109.051 48.5936L100.085 104.817L87.8945 103.669L52.2167 101.23C52.2167 101.23 60.1458 59.9047 60.2097 59.3006L60.8972 54.9867H72.0917L73.8139 44.1895H109.754Z" fill="#F7F9FC"/>
<path d="M100.085 105.128C100.075 105.128 100.065 105.128 100.056 105.127L87.8653 103.978L52.1958 101.539C52.1069 101.534 52.0236 101.489 51.9694 101.418C51.9153 101.348 51.8931 101.257 51.9097 101.168C54.6417 86.9337 59.825 59.8574 59.8986 59.2643C59.8986 59.2601 59.9 59.2532 59.9 59.249L60.5875 54.9351C60.6111 54.7837 60.7431 54.6712 60.8958 54.6712H71.8236L73.5042 44.1379C73.5278 43.9865 73.6597 43.874 73.8125 43.874H109.753C109.844 43.874 109.931 43.9143 109.99 43.9837C110.05 44.0532 110.075 44.1449 110.061 44.2351L100.392 104.862C100.369 105.018 100.237 105.128 100.085 105.128ZM52.5903 100.941L87.9167 103.356L99.8222 104.478L109.388 44.5018H74.0806L72.4 55.0351C72.3764 55.1865 72.2444 55.299 72.0917 55.299H61.1639L60.5181 59.3476C60.3722 60.3699 53.4028 96.7032 52.5903 100.941Z" fill="#F9FAFB"/>
<path d="M69.5945 38.8965L67.8723 49.6923H56.6779L69.5292 38.8965H69.5945Z" fill="#D0D5DD"/>
<path d="M67.8723 50.0052H56.6779C56.5459 50.0052 56.4293 49.9233 56.3848 49.7997C56.3404 49.6761 56.3765 49.5386 56.4779 49.4538L69.3293 38.6566C69.3862 38.6094 69.457 38.583 69.5306 38.583H69.5959C69.6876 38.583 69.7737 38.6233 69.8334 38.6927C69.8931 38.7622 69.9181 38.8538 69.9043 38.9441L68.182 49.7413C68.157 49.8941 68.0265 50.0052 67.8723 50.0052ZM57.5362 49.3802H67.6056L69.164 39.6108L57.5362 49.3802Z" fill="#F9FAFB"/>
<path d="M105.535 38.8975L104.832 43.3002L97.1613 91.3961L100.535 92.0586L107.689 47.1961L108.392 42.7919L105.535 38.8975Z" fill="#E4E7EC"/>
<path d="M100.535 92.3714C100.515 92.3714 100.495 92.37 100.475 92.3658L97.1029 91.7033C96.9376 91.6714 96.8279 91.5131 96.8543 91.3478L105.228 38.8478C105.247 38.7228 105.34 38.6228 105.463 38.5936C105.585 38.5644 105.714 38.6103 105.788 38.7131L108.645 42.6075C108.695 42.6742 108.714 42.7589 108.701 42.8422L100.845 92.1089C100.831 92.1922 100.785 92.2672 100.715 92.3158C100.66 92.3519 100.597 92.3714 100.535 92.3714ZM97.5181 91.1478L100.276 91.6894L108.063 42.8714L105.725 39.6853L97.5181 91.1478Z" fill="#F9FAFB"/>
<path d="M105.535 38.8975L104.832 43.3016L95.8654 99.5252L83.6751 98.3766L47.9973 95.9377C47.9973 95.9377 55.9265 54.6127 55.9904 54.0086L56.6779 49.6947H67.8723L69.5945 38.8975H105.535Z" fill="#F7F9FC"/>
<path d="M95.8654 99.8362C95.8556 99.8362 95.8459 99.8362 95.8362 99.8348L83.6459 98.6862L47.9765 96.2473C47.8876 96.2417 47.8043 96.1973 47.7501 96.1265C47.6959 96.0556 47.6737 95.9654 47.6904 95.8765C50.4209 81.6418 55.6056 54.5654 55.6793 53.9723C55.6793 53.9681 55.6806 53.9612 55.6806 53.957L56.3681 49.6431C56.3918 49.4918 56.5237 49.3793 56.6765 49.3793H67.6043L69.2848 38.8459C69.3084 38.6945 69.4404 38.582 69.5931 38.582H105.533C105.625 38.582 105.711 38.6223 105.771 38.6918C105.831 38.7612 105.856 38.8529 105.842 38.9431L96.1723 99.5695C96.1501 99.7265 96.0181 99.8362 95.8654 99.8362ZM48.3709 95.6487L83.6973 98.064L95.6029 99.1862L105.168 39.2098H69.8612L68.1806 49.7431C68.157 49.8945 68.0251 50.007 67.8723 50.007H56.9445L56.2987 54.0556C56.1529 55.082 49.1848 91.4112 48.3709 95.6487Z" fill="#F9FAFB"/>
<path d="M60.1611 54.1758L63.0181 58.0702C63.4389 58.6438 63.6292 59.3897 63.4986 60.2063C63.3681 61.023 63.5584 61.7702 63.9792 62.3438L61.1222 58.4494C60.7014 57.8758 60.5111 57.1286 60.6417 56.3119C60.7722 55.4952 60.582 54.7494 60.1611 54.1758Z" fill="#D0D5DD"/>
<path d="M63.9806 62.656C63.8847 62.656 63.7889 62.6115 63.7278 62.5282L60.8709 58.6338C60.3861 57.9726 60.1945 57.1296 60.3334 56.2615C60.4445 55.5615 60.2945 54.8865 59.9097 54.3615L59.9084 54.3601C59.807 54.2213 59.8361 54.0254 59.975 53.9226C60.1139 53.8212 60.3097 53.8504 60.4125 53.9893C60.4125 53.9907 60.4139 53.9907 60.4139 53.9907L63.2695 57.8838C63.7542 58.5449 63.9445 59.3865 63.807 60.2532C63.6959 60.9546 63.8459 61.6296 64.2292 62.1546L64.2306 62.1574C64.332 62.2963 64.3028 62.4921 64.1639 62.5949C64.1097 62.6365 64.0445 62.656 63.9806 62.656ZM60.9945 55.8393C60.9931 56.0115 60.9792 56.1851 60.9514 56.3601C60.8389 57.0615 60.9903 57.7379 61.3764 58.2643L63.1472 60.6796C63.1486 60.5074 63.1625 60.3324 63.1917 60.1574C63.3042 59.456 63.1528 58.781 62.7681 58.256L60.9945 55.8393Z" fill="#F9FAFB"/>
<mask id="mask0_1201_31694" style="mask-type:luminance" maskUnits="userSpaceOnUse" x="60" y="54" width="4" height="9">
<mask id="mask1_1201_31694" style="mask-type:luminance" maskUnits="userSpaceOnUse" x="60" y="54" width="4" height="9">
<path d="M60.1611 54.1758L63.0181 58.0702C63.4389 58.6438 63.6292 59.3897 63.4986 60.2063C63.3681 61.023 63.5584 61.7702 63.9792 62.3438L61.1222 58.4494C60.7014 57.8758 60.5111 57.1286 60.6417 56.3119C60.7722 55.4952 60.582 54.7494 60.1611 54.1758Z" fill="white"/>
</mask>
<g mask="url(#mask1_1201_31694)">
<path d="M63.9806 62.656C63.8847 62.656 63.7889 62.6115 63.7278 62.5282L60.8709 58.6338C60.3861 57.9726 60.1945 57.1296 60.3334 56.2615C60.4445 55.5615 60.2945 54.8865 59.9097 54.3615L59.9084 54.3601C59.807 54.2213 59.8361 54.0254 59.975 53.9226C60.1139 53.8212 60.3097 53.8504 60.4125 53.9893C60.4125 53.9907 60.4139 53.9907 60.4139 53.9907L63.2695 57.8838C63.7542 58.5449 63.9445 59.3865 63.807 60.2532C63.6959 60.9546 63.8459 61.6296 64.2292 62.1546L64.2306 62.1574C64.332 62.2963 64.3028 62.4921 64.1639 62.5949C64.1097 62.6365 64.0445 62.656 63.9806 62.656ZM60.9945 55.8393C60.9931 56.0115 60.9792 56.1851 60.9514 56.3601C60.8389 57.0615 60.9903 57.7379 61.3764 58.2643L63.1472 60.6796C63.1486 60.5074 63.1625 60.3324 63.1917 60.1574C63.3042 59.456 63.1528 58.781 62.7681 58.256L60.9945 55.8393Z" fill="white"/>
</g>
</mask>
<g mask="url(#mask0_1201_31694)">
<path d="M60.1611 54.1758L63.0181 58.0702C63.0403 58.1008 63.0625 58.1327 63.0847 58.1647L60.2278 54.2702C60.207 54.2383 60.1847 54.2063 60.1611 54.1758Z" fill="#D0D5DD"/>
<path d="M63.0847 58.477C62.9889 58.477 62.8931 58.4325 62.832 58.3492L59.975 54.4548C59.9486 54.4159 59.9292 54.3881 59.9084 54.3603C59.807 54.2214 59.8361 54.0256 59.975 53.9242C60.1139 53.8214 60.3097 53.852 60.4125 53.9909L63.2695 57.8853C63.2945 57.92 63.3195 57.9548 63.3431 57.9909C63.4375 58.1325 63.4014 58.3228 63.2625 58.42C63.2097 58.4589 63.1472 58.477 63.0847 58.477Z" fill="#F9FAFB"/>
<path d="M60.2278 54.2695L63.0847 58.164C63.1403 58.2473 63.1917 58.3348 63.2389 58.4251L60.3819 54.5306C60.3347 54.4404 60.2833 54.3529 60.2278 54.2695Z" fill="#D0D5DD"/>
<path d="M63.2389 58.7379C63.1431 58.7379 63.0473 58.6935 62.9861 58.6101L60.1292 54.7157C60.1195 54.7018 60.1111 54.6879 60.1028 54.674C60.0625 54.5949 60.0167 54.5171 59.9667 54.4435C59.8723 54.3018 59.9084 54.1115 60.0473 54.0143C60.1861 53.9171 60.3778 53.949 60.4778 54.0851L63.3348 57.9796C63.4056 58.0837 63.4625 58.1824 63.5139 58.2824C63.5889 58.4268 63.5389 58.6046 63.4 58.6907C63.3514 58.7226 63.2945 58.7379 63.2389 58.7379Z" fill="#F9FAFB"/>
<path d="M60.382 54.5312L63.2389 58.4257C63.2903 58.5257 63.3347 58.6285 63.3736 58.7354L60.5167 54.841C60.4778 54.734 60.432 54.6313 60.382 54.5312Z" fill="#D0D5DD"/>
<path d="M63.3736 59.0475C63.2764 59.0475 63.182 59.003 63.1208 58.9197L60.2639 55.0253C60.2458 55.0017 60.232 54.9753 60.2222 54.9475C60.1889 54.8544 60.1486 54.7628 60.1028 54.6739C60.0278 54.5294 60.0778 54.3517 60.2167 54.2655C60.3556 54.1794 60.5361 54.2155 60.6333 54.3461L63.4903 58.2405C63.5 58.2544 63.5083 58.2683 63.5167 58.2822C63.5736 58.3933 63.625 58.51 63.6667 58.628C63.7195 58.7739 63.657 58.9364 63.5195 59.01C63.4736 59.0364 63.4236 59.0475 63.3736 59.0475Z" fill="#F9FAFB"/>
<path d="M60.5167 54.8408L63.3737 58.7353C63.4209 58.8658 63.4584 59.0005 63.4862 59.1394L60.6292 55.245C60.6014 55.1061 60.5639 54.9714 60.5167 54.8408Z" fill="#D0D5DD"/>
<path d="M63.4861 59.4529C63.3889 59.4529 63.2945 59.4071 63.2334 59.3252L60.3764 55.4307C60.35 55.3932 60.3306 55.3515 60.3223 55.3057C60.2986 55.1835 60.2653 55.0626 60.2223 54.9474C60.1695 54.8015 60.232 54.639 60.3695 54.5654C60.507 54.4918 60.6764 54.5307 60.7681 54.6557L63.625 58.5501C63.6431 58.5738 63.657 58.6001 63.6667 58.6279C63.7195 58.7738 63.7611 58.9251 63.7917 59.0793C63.8195 59.2224 63.7445 59.3668 63.6111 59.4251C63.5709 59.4446 63.5278 59.4529 63.4861 59.4529Z" fill="#F9FAFB"/>
<path d="M60.6292 55.2451L63.4861 59.1396C63.5514 59.4729 63.5598 59.8326 63.5 60.2048C63.4403 60.5784 63.4472 60.9368 63.5139 61.2701L60.657 57.3757C60.5917 57.0423 60.5834 56.684 60.6431 56.3104C60.7014 55.9382 60.6945 55.5798 60.6292 55.2451Z" fill="#D0D5DD"/>
<path d="M63.5126 61.5843C63.4153 61.5843 63.3209 61.5385 63.2598 61.4565L60.4028 57.5621C60.3751 57.5246 60.357 57.4829 60.3487 57.4371C60.2751 57.0593 60.2695 56.6635 60.3334 56.2621C60.3862 55.9329 60.382 55.6121 60.3223 55.3065C60.2945 55.1635 60.3695 55.019 60.5028 54.9607C60.6362 54.9024 60.7931 54.944 60.8806 55.0621L63.7376 58.9565C63.764 58.994 63.7834 59.0357 63.7917 59.0815C63.8667 59.4593 63.8723 59.8552 63.807 60.2565C63.7542 60.5857 63.7584 60.9065 63.8181 61.2121C63.8459 61.3552 63.7709 61.4996 63.6376 61.5579C63.5973 61.576 63.5556 61.5843 63.5126 61.5843ZM60.9501 57.2496L63.1723 60.2802C63.1778 60.2399 63.1834 60.1982 63.1903 60.1565C63.239 59.8524 63.239 59.5524 63.1903 59.2677L60.9681 56.2371C60.9626 56.2774 60.957 56.319 60.9501 56.3593C60.9028 56.6649 60.9028 56.9635 60.9501 57.2496Z" fill="#F9FAFB"/>
<path d="M60.6556 57.375L63.5126 61.2694C63.5404 61.4083 63.5779 61.5444 63.6251 61.675L60.7681 57.7806C60.7209 57.65 60.6834 57.5153 60.6556 57.375Z" fill="#D0D5DD"/>
<path d="M63.625 61.9892C63.5278 61.9892 63.4334 61.9448 63.3723 61.8614L60.5153 57.967C60.4972 57.9434 60.4834 57.917 60.4736 57.8878C60.4209 57.742 60.3792 57.5906 60.3486 57.4364C60.3209 57.2934 60.3959 57.1489 60.5292 57.0906C60.6639 57.0323 60.8195 57.0739 60.907 57.192L63.7639 61.0864C63.7917 61.1239 63.8097 61.1656 63.8181 61.2114C63.8417 61.3336 63.875 61.4545 63.9181 61.5711C63.9709 61.717 63.9084 61.8795 63.7709 61.9531C63.725 61.9767 63.675 61.9892 63.625 61.9892Z" fill="#F9FAFB"/>
<path d="M60.7681 57.7812L63.625 61.6757C63.6639 61.7826 63.7083 61.8868 63.7597 61.9854L60.9028 58.091C60.8514 57.9924 60.807 57.8882 60.7681 57.7812Z" fill="#D0D5DD"/>
<path d="M63.7597 62.2995C63.6639 62.2995 63.568 62.255 63.5069 62.1717L60.65 58.2773C60.6403 58.2634 60.6319 58.2495 60.6236 58.2356C60.5666 58.1245 60.5153 58.0078 60.4736 57.8898C60.4208 57.7439 60.4833 57.5814 60.6208 57.5078C60.7583 57.4342 60.9278 57.4731 61.0194 57.5981L63.8764 61.4925C63.8944 61.5161 63.9083 61.5425 63.918 61.5717C63.9514 61.6648 63.9916 61.7578 64.0375 61.8453C64.1125 61.9898 64.0625 62.1675 63.9236 62.2536C63.8736 62.2842 63.8166 62.2995 63.7597 62.2995Z" fill="#F9FAFB"/>
<path d="M60.9028 58.0928L63.7598 61.9872C63.8056 62.0775 63.857 62.165 63.9139 62.2483L61.057 58.3539C61.0001 58.2692 60.9501 58.1831 60.9028 58.0928Z" fill="#D0D5DD"/>
<path d="M63.9139 62.5608C63.8181 62.5608 63.7222 62.5164 63.6611 62.433L60.8042 58.5386C60.7333 58.4344 60.6764 58.3358 60.625 58.2344C60.55 58.09 60.6 57.9122 60.7389 57.8261C60.8778 57.74 61.0583 57.7761 61.1556 57.9066L64.0125 61.8011C64.0222 61.815 64.0306 61.8289 64.0389 61.8428C64.0792 61.9219 64.125 61.9997 64.175 62.0733C64.2694 62.215 64.2333 62.4053 64.0945 62.5025C64.0375 62.5428 63.975 62.5608 63.9139 62.5608Z" fill="#F9FAFB"/>
<path d="M61.0569 58.3535L63.9138 62.248C63.9361 62.2799 63.9583 62.3118 63.9805 62.3438L61.1236 58.4493C61.0999 58.4174 61.0777 58.3855 61.0569 58.3535Z" fill="#D0D5DD"/>
<path d="M63.9806 62.6561C63.8847 62.6561 63.7903 62.6116 63.7292 62.5283V62.5269C63.7292 62.5255 63.7278 62.5255 63.7278 62.5241L60.8736 58.6324C60.8486 58.5977 60.8236 58.5616 60.7986 58.5255C60.7042 58.3838 60.7403 58.1936 60.8792 58.0963C61.0181 57.9991 61.2097 58.0311 61.3097 58.1672L64.1667 62.0616C64.1931 62.1005 64.2111 62.1269 64.2306 62.1533L64.2319 62.1561C64.3333 62.2949 64.3042 62.4908 64.1653 62.5922C64.1097 62.6366 64.0444 62.6561 63.9806 62.6561Z" fill="#F9FAFB"/>
</g>
<path d="M66.3723 63.7943C65.282 63.7943 64.3181 63.3332 63.7278 62.5276L60.8709 58.6332C60.7695 58.4943 60.7987 58.2985 60.9375 58.1957C61.0764 58.0929 61.2723 58.1235 61.375 58.2624L61.3764 58.2638C61.8473 58.9054 62.6264 59.2735 63.5153 59.2735C63.6153 59.2735 63.7084 59.3207 63.7667 59.4013L66.6237 63.2957C66.6931 63.3901 66.7042 63.5165 66.65 63.6221C66.5973 63.7276 66.4903 63.7943 66.3723 63.7943ZM62.4625 59.7457L64.232 62.1582C64.5806 62.6332 65.0959 62.9582 65.7014 63.0957L63.3542 59.8957C63.0431 59.8818 62.7445 59.8318 62.4625 59.7457Z" fill="#F9FAFB"/>
<mask id="mask2_1201_31694" style="mask-type:luminance" maskUnits="userSpaceOnUse" x="60" y="58" width="7" height="6">
<path d="M66.3723 63.7943C65.282 63.7943 64.3181 63.3332 63.7278 62.5276L60.8709 58.6332C60.7695 58.4943 60.7987 58.2985 60.9375 58.1957C61.0764 58.0929 61.2723 58.1235 61.375 58.2624L61.3764 58.2638C61.8473 58.9054 62.6264 59.2735 63.5153 59.2735C63.6153 59.2735 63.7084 59.3207 63.7667 59.4013L66.6237 63.2957C66.6931 63.3901 66.7042 63.5165 66.65 63.6221C66.5973 63.7276 66.4903 63.7943 66.3723 63.7943ZM62.4625 59.7457L64.232 62.1582C64.5806 62.6332 65.0959 62.9582 65.7014 63.0957L63.3542 59.8957C63.0431 59.8818 62.7445 59.8318 62.4625 59.7457Z" fill="white"/>
</mask>
<g mask="url(#mask2_1201_31694)">
<path d="M63.5153 59.5862L66.3723 63.4806C65.3431 63.4806 64.4917 63.0389 63.9806 62.3417L61.1237 58.4473C61.6348 59.1459 62.4862 59.5862 63.5153 59.5862Z" fill="#667185"/>
<path d="M66.3723 63.7943C65.282 63.7943 64.3181 63.3332 63.7278 62.5276L60.8709 58.6332C60.7695 58.4943 60.7987 58.2985 60.9375 58.1957C61.0764 58.0929 61.2723 58.1235 61.375 58.2624L61.3764 58.2638C61.8473 58.9054 62.6264 59.2735 63.5153 59.2735C63.6153 59.2735 63.7084 59.3207 63.7667 59.4013L66.6237 63.2957C66.6931 63.3901 66.7042 63.5165 66.65 63.6221C66.5973 63.7276 66.4903 63.7943 66.3723 63.7943ZM62.4625 59.7457L64.232 62.1582C64.5806 62.6332 65.0959 62.9582 65.7014 63.0957L63.3542 59.8957C63.0431 59.8818 62.7445 59.8318 62.4625 59.7457Z" fill="#F9FAFB"/>
</g>
<path d="M90.5043 59.5869L93.3612 63.4828H66.3723L63.5154 59.5869H90.5043Z" fill="#98A2B3"/>
<path d="M93.3612 63.7948H66.3723C66.2723 63.7948 66.1793 63.7476 66.1209 63.6671L63.264 59.7726C63.1945 59.6782 63.1834 59.5518 63.2376 59.4462C63.2904 59.3407 63.3987 59.2754 63.5168 59.2754H90.5056C90.6056 59.2754 90.6987 59.3226 90.757 59.4032L93.614 63.2976C93.6834 63.3921 93.6945 63.5184 93.6404 63.624C93.5862 63.7282 93.4793 63.7948 93.3612 63.7948ZM66.5306 63.1698H92.7445L90.3459 59.9004H64.132L66.5306 63.1698Z" fill="#F9FAFB"/>
<path d="M95.7543 64.9318C95.6584 64.9318 95.5626 64.8873 95.5015 64.804C95.0306 64.1609 94.2501 63.7929 93.3612 63.7929C93.2612 63.7929 93.1682 63.7457 93.1098 63.6651L90.2529 59.7707C90.1834 59.6762 90.1723 59.5498 90.2265 59.4443C90.2793 59.3387 90.3876 59.2734 90.5057 59.2734C91.5959 59.2734 92.5598 59.7346 93.1501 60.5401L96.007 64.4345C96.1084 64.5734 96.0793 64.7693 95.9404 64.872C95.882 64.9123 95.8181 64.9318 95.7543 64.9318ZM93.5223 63.172C93.8334 63.1845 94.132 63.2359 94.414 63.3221L92.6445 60.9095C92.2959 60.4345 91.7793 60.1095 91.1751 59.972L93.5223 63.172Z" fill="#F9FAFB"/>
<mask id="mask3_1201_31694" style="mask-type:luminance" maskUnits="userSpaceOnUse" x="90" y="59" width="7" height="6">
<path d="M95.7543 64.9318C95.6584 64.9318 95.5626 64.8873 95.5015 64.804C95.0306 64.1609 94.2501 63.7929 93.3612 63.7929C93.2612 63.7929 93.1682 63.7457 93.1098 63.6651L90.2529 59.7707C90.1834 59.6762 90.1723 59.5498 90.2265 59.4443C90.2793 59.3387 90.3876 59.2734 90.5057 59.2734C91.5959 59.2734 92.5598 59.7346 93.1501 60.5401L96.007 64.4345C96.1084 64.5734 96.0793 64.7693 95.9404 64.872C95.882 64.9123 95.8181 64.9318 95.7543 64.9318ZM93.5223 63.172C93.8334 63.1845 94.132 63.2359 94.414 63.3221L92.6445 60.9095C92.2959 60.4345 91.7793 60.1095 91.1751 59.972L93.5223 63.172Z" fill="white"/>
</mask>
<g mask="url(#mask3_1201_31694)">
<path d="M92.8959 60.7248L95.7529 64.6193C95.2418 63.9221 94.3904 63.4804 93.3612 63.4804L90.5043 59.5859C91.5334 59.5859 92.3848 60.0276 92.8959 60.7248Z" fill="#667185"/>
<path d="M95.7543 64.9318C95.6584 64.9318 95.5626 64.8873 95.5015 64.804C95.0306 64.1609 94.2501 63.7929 93.3612 63.7929C93.2612 63.7929 93.1682 63.7457 93.1098 63.6651L90.2529 59.7707C90.1834 59.6762 90.1723 59.5498 90.2265 59.4443C90.2793 59.3387 90.3876 59.2734 90.5057 59.2734C91.5959 59.2734 92.5598 59.7346 93.1501 60.5401L96.007 64.4345C96.1084 64.5734 96.0793 64.7693 95.9404 64.872C95.882 64.9123 95.8181 64.9318 95.7543 64.9318ZM93.5223 63.172C93.8334 63.1845 94.132 63.2359 94.414 63.3221L92.6445 60.9095C92.2959 60.4345 91.7793 60.1095 91.1751 59.972L93.5223 63.172Z" fill="#F9FAFB"/>
</g>
<path d="M78.1945 78.6318L76.675 88.1638H48.3931L49.9139 78.6318H78.1945Z" fill="#F9FAFB"/>
<path d="M96.2694 66.371C96.2722 66.3085 96.2736 66.2446 96.2722 66.1821C96.2708 66.1446 96.268 66.1099 96.2653 66.0724C96.2625 66.0168 96.2583 65.9613 96.2514 65.9071C96.2472 65.8696 96.2403 65.8321 96.2347 65.7946C96.2291 65.7599 96.2264 65.7252 96.2194 65.6918C96.2153 65.6724 96.2097 65.6529 96.2055 65.6335C96.2 65.6071 96.193 65.5807 96.1875 65.5557C96.1722 65.496 96.1555 65.4363 96.1375 65.3793C96.1305 65.3571 96.1236 65.3363 96.1166 65.3141C96.1139 65.3057 96.1111 65.296 96.1083 65.2877C96.1014 65.2668 96.0903 65.2488 96.0819 65.228C96.0541 65.1571 96.025 65.0877 95.9916 65.021C95.9847 65.0071 95.9805 64.9918 95.9722 64.9779C95.9625 64.9585 95.95 64.9404 95.9389 64.921C95.9111 64.871 95.8819 64.821 95.8514 64.7724C95.8403 64.7543 95.8305 64.7349 95.818 64.7168C95.7972 64.6849 95.775 64.6529 95.7514 64.621L92.8944 60.7266C92.9305 60.7752 92.9625 60.8266 92.9944 60.878C93.025 60.9266 93.0541 60.9752 93.0819 61.0266C93.1 61.0599 93.118 61.0932 93.1347 61.1266C93.168 61.1932 93.1972 61.2627 93.225 61.3335C93.2361 61.3627 93.2486 61.3905 93.2597 61.4196C93.2666 61.4405 93.2736 61.4627 93.2805 61.4849C93.2986 61.5432 93.3166 61.6016 93.3305 61.6613C93.3375 61.6877 93.343 61.7127 93.3486 61.7391C93.3597 61.7918 93.3694 61.846 93.3778 61.9002C93.3833 61.9377 93.3903 61.9752 93.3944 62.0127C93.4014 62.0668 93.4041 62.1224 93.4083 62.1779C93.4111 62.2141 93.4139 62.2502 93.4153 62.2877C93.4167 62.3502 93.4139 62.4127 93.4125 62.4766C93.4111 62.5085 93.4125 62.5391 93.4097 62.571C93.4028 62.6668 93.393 62.7627 93.3778 62.8613L87.7139 98.3752L90.5708 102.27L96.2347 66.7557C96.25 66.6585 96.2611 66.5613 96.2666 66.4654C96.2694 66.4335 96.268 66.4029 96.2694 66.371Z" fill="#D0D5DD"/>
<path d="M90.5695 102.584C90.4709 102.584 90.3778 102.538 90.3181 102.456L87.4611 98.5613C87.4111 98.4947 87.3917 98.4099 87.4042 98.3266L93.0681 62.8127C93.082 62.728 93.0917 62.6419 93.0972 62.5502C93.0986 62.5363 93.0986 62.5224 93.0986 62.5086L93.1 62.4655C93.1028 62.4086 93.1042 62.3516 93.1028 62.2961C93.1028 62.2752 93.1014 62.2558 93.1 62.2349L93.0972 62.1988C93.0945 62.1488 93.0917 62.0988 93.0861 62.0502C93.0834 62.0252 93.0792 62.0002 93.075 61.9752L93.0709 61.9488C93.0639 61.9016 93.0556 61.853 93.0445 61.8058C93.0389 61.7836 93.0334 61.7599 93.0278 61.7377C93.0139 61.6836 93 61.6322 92.9834 61.5808L92.9653 61.5224C92.9611 61.5113 92.9556 61.4988 92.9514 61.4863L92.9347 61.4461C92.9084 61.3766 92.882 61.3169 92.8556 61.2627C92.8403 61.2322 92.825 61.203 92.8097 61.1738C92.7861 61.1294 92.7597 61.0863 92.7334 61.0433L92.7181 61.0197C92.6945 60.9822 92.6709 60.9447 92.6459 60.9099C92.5445 60.7711 92.5736 60.5752 92.7125 60.4724C92.8514 60.3711 93.0472 60.4002 93.15 60.5391L96.007 64.4336C96.0334 64.4683 96.057 64.5044 96.082 64.5405C96.0931 64.5572 96.1028 64.5752 96.1125 64.5919C96.1528 64.6558 96.1847 64.7113 96.2153 64.7683C96.2334 64.7974 96.2431 64.8141 96.2528 64.8336C96.2598 64.8474 96.2667 64.8641 96.2736 64.8808C96.307 64.9502 96.3403 65.0266 96.3736 65.1113C96.3861 65.1391 96.3959 65.1586 96.4028 65.178C96.407 65.1891 96.4097 65.1988 96.4125 65.2086C96.4181 65.2266 96.4236 65.2433 96.4292 65.2613L96.4348 65.2808C96.4556 65.3447 96.475 65.4113 96.4917 65.478C96.4986 65.5072 96.5056 65.5349 96.5125 65.5655L96.5167 65.5822C96.5209 65.5974 96.525 65.6141 96.5278 65.6294C96.5334 65.6572 96.5375 65.6849 96.5403 65.7113L96.5486 65.7669C96.5542 65.8002 96.5597 65.8336 96.5639 65.8683C96.5709 65.9294 96.575 65.9905 96.5792 66.053L96.582 66.0863C96.5848 66.1155 96.5861 66.1447 96.5861 66.1738C96.5875 66.2433 96.5861 66.3127 96.5834 66.3808V66.4099C96.5834 66.4349 96.582 66.4599 96.5806 66.4863C96.5736 66.5947 96.5611 66.7016 96.5445 66.803L90.8806 102.317C90.8611 102.442 90.7681 102.542 90.6459 102.571C90.6195 102.579 90.5945 102.584 90.5695 102.584ZM88.0417 98.2961L90.3792 101.482L95.925 66.7072C95.9389 66.6238 95.9486 66.5349 95.9542 66.4447C95.9556 66.4294 95.9556 66.4169 95.9556 66.403L95.957 66.3599C95.957 66.3599 95.957 66.3599 95.957 66.3586C95.9598 66.3016 95.9611 66.2447 95.9597 66.1891C95.9597 66.1697 95.9584 66.1502 95.957 66.1308L95.9542 66.0905C95.9514 66.0405 95.9486 65.9905 95.9431 65.9419C95.9403 65.9169 95.9361 65.8919 95.932 65.8669L95.9209 65.7961C95.9195 65.7808 95.9167 65.7655 95.9139 65.7502L95.9014 65.6988C95.8959 65.6766 95.8903 65.653 95.8847 65.6308C95.8709 65.5766 95.857 65.5252 95.8403 65.4738L95.8222 65.4169C95.8209 65.4127 95.8153 65.3961 95.8139 65.3919C95.8042 65.3724 95.7972 65.3572 95.7917 65.3405C95.7653 65.2711 95.7389 65.2113 95.7125 65.1572C95.7056 65.1433 95.7 65.1294 95.6945 65.1169C95.682 65.0961 95.6736 65.0836 95.6667 65.0697C95.6431 65.0252 95.6167 64.9822 95.5903 64.9391C95.582 64.9252 95.5736 64.9127 95.5667 64.8988C95.5431 64.8613 95.5236 64.8336 95.5028 64.8058L93.7292 62.3877C93.7278 62.4211 93.7278 62.4544 93.7264 62.4877V62.5183C93.7264 62.5433 93.725 62.5683 93.7236 62.5933C93.7167 62.7044 93.7042 62.8086 93.6875 62.9113L88.0417 98.2961Z" fill="#F9FAFB"/>
<path d="M112.097 83.3975L108.3 107.209H86.3043L87.714 98.3752L90.1015 83.3975H102.475H105.275H108.072H112.097Z" fill="#D0D5DD"/>
<path d="M108.3 107.521H86.3043C86.2126 107.521 86.1265 107.481 86.0668 107.411C86.007 107.342 85.982 107.25 85.9959 107.16L89.7932 83.3488C89.8168 83.1975 89.9487 83.085 90.1015 83.085H112.097C112.189 83.085 112.275 83.1252 112.335 83.1947C112.395 83.2641 112.42 83.3558 112.406 83.4461L108.608 107.257C108.585 107.41 108.454 107.521 108.3 107.521ZM86.6709 106.896H108.033L111.731 83.71H90.3682L86.6709 106.896Z" fill="#F9FAFB"/>
<path d="M90.5043 59.5865C92.3793 59.5865 93.6654 61.0518 93.3779 62.8615L87.714 98.3754L86.3057 107.209H36.0848C34.2098 107.209 32.9223 105.743 33.2098 103.934L40.282 59.5865L40.8043 56.3102C41.0932 54.5018 42.8473 53.0352 44.7237 53.0352H57.7668C58.7112 53.0352 59.507 53.406 60.0265 54.006C60.539 54.5977 60.7848 55.4115 60.6418 56.3088C60.3529 58.1185 61.639 59.5852 63.514 59.5852H90.5043V59.5865ZM76.6751 88.1643L78.1945 78.6324H49.914L48.3932 88.1643H76.6751Z" fill="#D0D5DD"/>
<path d="M86.3042 107.521H36.0848C35.0695 107.521 34.1778 107.131 33.5737 106.424C32.9889 105.738 32.75 104.836 32.9014 103.885L40.4973 56.2611C40.8084 54.3097 42.7056 52.7236 44.725 52.7236H57.7681C58.775 52.7236 59.6612 53.107 60.2639 53.8028C60.8598 54.4903 61.1042 55.3986 60.9514 56.3597C60.8292 57.1292 61.0167 57.8528 61.482 58.3972C61.9639 58.9625 62.6862 59.2736 63.5153 59.2736H90.5042C91.5195 59.2736 92.4112 59.6625 93.0139 60.3695C93.5987 61.0556 93.8375 61.957 93.6861 62.9097L86.6139 107.257C86.5889 107.41 86.4584 107.521 86.3042 107.521ZM44.725 53.3486C42.9986 53.3486 41.3792 54.7 41.1139 56.3597L33.5181 103.983C33.3959 104.751 33.5834 105.474 34.0486 106.018C34.532 106.585 35.2542 106.896 36.0848 106.896H86.0375L93.0681 62.8125C93.1903 62.0445 93.0028 61.3209 92.5375 60.7764C92.0556 60.2111 91.332 59.9 90.5028 59.9H63.5153C62.5 59.9 61.6098 59.5111 61.0056 58.8042C60.4209 58.1181 60.182 57.2153 60.3334 56.2625C60.457 55.4861 60.2639 54.7584 59.7917 54.2125C59.3084 53.6556 58.5903 53.3486 57.7681 53.3486H44.725ZM76.675 88.4764H48.3931C48.3014 88.4764 48.2153 88.4361 48.1556 88.3667C48.0959 88.2972 48.0709 88.2056 48.0848 88.1153L49.6056 78.5834C49.6292 78.432 49.7612 78.3195 49.9139 78.3195H78.1945C78.2862 78.3195 78.3723 78.3597 78.432 78.4292C78.4917 78.4986 78.5167 78.5903 78.5028 78.6806L76.982 88.2125C76.9584 88.3639 76.8278 88.4764 76.675 88.4764ZM48.7598 87.8514H76.4084L77.8292 78.9445H50.1806L48.7598 87.8514Z" fill="#F9FAFB"/>
<path d="M112.097 83.3975L114.954 87.2919L111.157 111.103L108.3 107.209L112.097 83.3975Z" fill="#D0D5DD"/>
<path d="M111.157 111.416C111.058 111.416 110.965 111.37 110.906 111.288L108.049 107.394C107.999 107.327 107.979 107.242 107.992 107.159L111.789 83.3478C111.808 83.2228 111.901 83.1228 112.024 83.0936C112.146 83.0644 112.275 83.1103 112.349 83.213L115.206 87.1075C115.256 87.1742 115.275 87.2589 115.263 87.3422L111.465 111.153C111.446 111.278 111.353 111.378 111.231 111.407C111.206 111.413 111.182 111.416 111.157 111.416ZM108.629 107.13L110.967 110.316L114.626 87.3728L112.289 84.1867L108.629 107.13Z" fill="#F9FAFB"/>
<path d="M111.157 111.104L108.3 107.209H86.3042H36.0847C35.0555 107.209 34.2028 106.768 33.6917 106.07L36.5486 109.965C37.0611 110.662 37.9125 111.104 38.943 111.104H89.1625H111.157Z" fill="#667185"/>
<path d="M111.157 111.416H38.9417C37.8514 111.416 36.8861 110.953 36.2958 110.149L33.4389 106.255C33.3375 106.116 33.3667 105.92 33.5055 105.817C33.6444 105.716 33.8403 105.745 33.943 105.884C34.4153 106.527 35.1958 106.896 36.0847 106.896H108.3C108.4 106.896 108.493 106.944 108.551 107.024L111.408 110.919C111.478 111.013 111.489 111.139 111.435 111.245C111.383 111.351 111.275 111.416 111.157 111.416ZM35.0305 107.367L36.8 109.78C37.2722 110.423 38.0528 110.792 38.9417 110.792H110.54L108.142 107.523H36.0847C35.7153 107.521 35.3611 107.469 35.0305 107.367Z" fill="#F9FAFB"/>
<path d="M118.897 66.6861C120.039 66.6861 120.964 65.7608 120.964 64.6194C120.964 63.478 120.039 62.5527 118.897 62.5527C117.756 62.5527 116.831 63.478 116.831 64.6194C116.831 65.7608 117.756 66.6861 118.897 66.6861Z" fill="#F9FAFB"/>
<path d="M34.4584 73.9956C35.5998 73.9956 36.5251 73.0704 36.5251 71.929C36.5251 70.7876 35.5998 69.8623 34.4584 69.8623C33.317 69.8623 32.3917 70.7876 32.3917 71.929C32.3917 73.0704 33.317 73.9956 34.4584 73.9956Z" fill="#F9FAFB"/>
<path d="M35.493 75.6665C35.895 75.6665 36.2208 75.3407 36.2208 74.9387C36.2208 74.5368 35.895 74.2109 35.493 74.2109C35.0911 74.2109 34.7653 74.5368 34.7653 74.9387C34.7653 75.3407 35.0911 75.6665 35.493 75.6665Z" fill="#F9FAFB"/>
<path d="M52.2167 49.3484C54.1804 49.3484 55.7722 47.7565 55.7722 45.7929C55.7722 43.8292 54.1804 42.2373 52.2167 42.2373C50.253 42.2373 48.6611 43.8292 48.6611 45.7929C48.6611 47.7565 50.253 49.3484 52.2167 49.3484Z" fill="#E4E7EC"/>
<path d="M48.6625 44.0394C49.5976 44.0394 50.3556 43.2814 50.3556 42.3464C50.3556 41.4113 49.5976 40.6533 48.6625 40.6533C47.7275 40.6533 46.9695 41.4113 46.9695 42.3464C46.9695 43.2814 47.7275 44.0394 48.6625 44.0394Z" fill="#F9FAFB"/>
<path d="M106.01 31.9121C110.951 31.9121 114.339 35.7732 113.579 40.5399C112.819 45.3038 108.2 49.1663 103.258 49.1663C98.318 49.1663 94.9305 45.3052 95.6902 40.5399C96.4499 35.7732 101.069 31.9121 106.01 31.9121ZM106.489 35.3677C106.625 34.7954 106.221 34.3024 105.635 34.3024C105.608 34.3024 105.582 34.3038 105.555 34.3052C104.982 34.3427 104.476 34.8191 104.426 35.3677L103.668 44.0038C103.651 44.1996 103.786 44.3593 103.992 44.3732C104.001 44.3746 104.012 44.3746 104.022 44.3746C104.237 44.3746 104.443 44.2135 104.492 44.0038L106.489 35.3677ZM103.639 46.7746C104.167 46.7746 104.658 46.3635 104.74 45.8538C104.821 45.3468 104.46 44.9329 103.933 44.9329C103.407 44.9329 102.912 45.3454 102.832 45.8538C102.75 46.3635 103.112 46.7746 103.639 46.7746Z" fill="#D0D5DD"/>
<path d="M103.258 49.4774C100.736 49.4774 98.5264 48.5149 97.0361 46.7691C95.593 45.0774 95.0055 42.8482 95.3819 40.4899C96.1639 35.5871 100.932 31.5996 106.01 31.5996C108.532 31.5996 110.743 32.5621 112.233 34.3093C113.676 36.001 114.264 38.2316 113.887 40.5899C113.106 45.4899 108.337 49.4774 103.258 49.4774ZM106.01 32.2246C101.225 32.2246 96.7347 35.9774 95.9986 40.5885C95.6514 42.7621 96.1889 44.8135 97.5111 46.3635C98.8805 47.9691 100.922 48.8524 103.258 48.8524C108.043 48.8524 112.535 45.101 113.271 40.4899C113.618 38.3149 113.081 36.2635 111.758 34.7135C110.387 33.1079 108.346 32.2246 106.01 32.2246ZM103.639 47.0871C103.292 47.0871 102.972 46.9454 102.762 46.6996C102.554 46.4566 102.469 46.1385 102.522 45.8052C102.618 45.201 103.14 44.7163 103.749 44.6343C103.657 44.5954 103.575 44.5371 103.51 44.4607C103.396 44.3288 103.343 44.1566 103.358 43.9788L104.117 35.3427C104.179 34.6343 104.803 34.0427 105.536 33.9954C105.568 33.9927 105.601 33.9913 105.635 33.9913C106.014 33.9913 106.36 34.1524 106.582 34.4343C106.801 34.7121 106.878 35.0788 106.792 35.4399L104.797 44.076C104.733 44.3566 104.506 44.5816 104.233 44.6593C104.46 44.7163 104.661 44.8371 104.808 45.0093C105.017 45.2538 105.101 45.5704 105.049 45.9038C104.943 46.5677 104.324 47.0871 103.639 47.0871ZM103.932 45.2454C103.56 45.2454 103.196 45.5468 103.139 45.9024C103.115 46.0524 103.15 46.1913 103.237 46.2927C103.331 46.401 103.472 46.4607 103.639 46.4607C104.011 46.4607 104.375 46.1593 104.432 45.8038C104.456 45.6538 104.421 45.5149 104.333 45.4121C104.24 45.3052 104.099 45.2454 103.932 45.2454ZM105.635 34.6149C105.617 34.6149 105.597 34.6163 105.579 34.6177C105.157 34.6454 104.774 35.0024 104.739 35.3968L103.981 44.0329C103.979 44.0427 103.981 44.051 103.983 44.0538C103.986 44.0579 103.997 44.0621 104.014 44.0635C104.089 44.0649 104.174 44.0024 104.189 43.9357L106.183 35.2996V35.2982C106.225 35.1204 106.193 34.9524 106.092 34.8232C105.987 34.6871 105.825 34.6149 105.635 34.6149Z" fill="#F9FAFB"/>
<path d="M105.635 34.3027C106.221 34.3027 106.624 34.7958 106.489 35.368L104.494 44.0041C104.446 44.2138 104.24 44.375 104.025 44.375C104.015 44.375 104.004 44.375 103.994 44.3736C103.789 44.3597 103.653 44.2 103.671 44.0041L104.429 35.368C104.478 34.818 104.983 34.343 105.558 34.3055C105.583 34.3027 105.61 34.3027 105.635 34.3027Z" fill="#F7F9FC"/>
<path d="M104.025 44.6875C104.007 44.6875 103.989 44.6875 103.971 44.6861C103.789 44.6736 103.624 44.5944 103.51 44.4597C103.396 44.3277 103.343 44.1555 103.358 43.9777L104.117 35.3416C104.179 34.6333 104.803 34.0416 105.536 33.9944C105.568 33.9916 105.601 33.9902 105.635 33.9902C106.014 33.9902 106.36 34.1513 106.582 34.4333C106.801 34.7111 106.878 35.0777 106.792 35.4402L104.797 44.075C104.718 44.4236 104.385 44.6875 104.025 44.6875ZM105.635 34.6152C105.617 34.6152 105.597 34.6166 105.579 34.618C105.157 34.6458 104.774 35.0027 104.739 35.3972L103.981 44.0333C103.979 44.043 103.981 44.0513 103.983 44.0541C103.986 44.0583 103.997 44.0625 104.014 44.0638C104.089 44.0652 104.174 44.0027 104.189 43.9361L106.183 35.3C106.226 35.1208 106.193 34.9513 106.092 34.8236C105.987 34.6875 105.825 34.6152 105.635 34.6152Z" fill="#F7F9FC"/>
<path d="M103.932 44.9336C104.46 44.9336 104.821 45.3461 104.739 45.8544C104.658 46.3628 104.165 46.7753 103.637 46.7753C103.111 46.7753 102.749 46.3642 102.831 45.8544C102.912 45.3475 103.407 44.9336 103.932 44.9336Z" fill="#F7F9FC"/>
<path d="M103.639 47.0873C103.292 47.0873 102.972 46.9457 102.763 46.6998C102.554 46.4568 102.469 46.1387 102.522 45.8054C102.628 45.1415 103.247 44.6221 103.932 44.6221C104.279 44.6221 104.599 44.7637 104.808 45.0096C105.017 45.254 105.101 45.5707 105.049 45.9054C104.943 46.5679 104.324 47.0873 103.639 47.0873ZM103.932 45.2457C103.56 45.2457 103.196 45.5471 103.139 45.9026C103.115 46.0526 103.15 46.1915 103.238 46.2929C103.331 46.4012 103.472 46.461 103.639 46.461C104.011 46.461 104.375 46.1596 104.432 45.804C104.456 45.654 104.421 45.5151 104.333 45.4123C104.24 45.3054 104.099 45.2457 103.932 45.2457Z" fill="#F7F9FC"/>
</svg>
