<svg width="150" height="150" viewBox="0 0 150 150" fill="none" xmlns="http://www.w3.org/2000/svg">
<path d="M75 122.697C103.319 122.697 126.276 113.691 126.276 102.582C126.276 91.4727 103.319 82.4668 75 82.4668C46.6808 82.4668 23.7236 91.4727 23.7236 102.582C23.7236 113.691 46.6808 122.697 75 122.697Z" fill="#F9FAFB"/>
<path d="M53.825 56.9932L55.9778 59.9279H44.6097L42.4569 56.9932H53.825Z" fill="#475367"/>
<path d="M55.9778 60.1361H44.6097C44.5431 60.1361 44.4806 60.1041 44.4417 60.0513L42.2889 57.1166C42.2431 57.0527 42.2361 56.9694 42.2708 56.8986C42.3056 56.8291 42.3778 56.7847 42.4569 56.7847H53.825C53.8917 56.7847 53.9542 56.8166 53.9931 56.8694L56.1458 59.8041C56.1917 59.868 56.1986 59.9513 56.1639 60.0222C56.1278 60.0916 56.0569 60.1361 55.9778 60.1361ZM44.7153 59.7194H55.5667L53.7194 57.2013H42.8681L44.7153 59.7194Z" fill="#F9FAFB"/>
<path d="M53.825 56.9932C53.4639 61.9071 52.5361 66.4779 50.3958 70.3154H40.3333H31.75C33.0542 67.7918 34.2069 63.4557 35.1792 56.9932H42.4569H53.825ZM50.3653 60.4154C50.6528 60.4154 50.9222 60.1904 50.9667 59.9112C51.0111 59.6334 50.8125 59.4084 50.525 59.4084H37.4278C37.1403 59.4084 36.8708 59.6334 36.8264 59.9112C36.7819 60.1904 36.9792 60.4154 37.2681 60.4154H50.3653ZM48.9319 66.2459C49.2194 66.2459 49.4889 66.0209 49.5333 65.7418C49.5778 65.464 49.3792 65.239 49.0917 65.239H35.9944C35.7069 65.239 35.4375 65.464 35.3931 65.7418C35.3486 66.0209 35.5458 66.2459 35.8347 66.2459H48.9319ZM49.9 63.3307C50.1875 63.3307 50.4569 63.1057 50.5014 62.8279C50.5458 62.5501 50.3472 62.3251 50.0597 62.3251H36.9625C36.675 62.3251 36.4056 62.5501 36.3611 62.8279C36.3167 63.1057 36.5153 63.3307 36.8028 63.3307H49.9Z" fill="#F7F9FC"/>
<path d="M50.3958 70.5235H31.75C31.6778 70.5235 31.6097 70.486 31.5722 70.4235C31.5347 70.361 31.532 70.2846 31.5653 70.2193C32.8875 67.6624 34.0347 63.2013 34.9736 56.961C34.9889 56.8596 35.0764 56.7832 35.1792 56.7832H53.825C53.8833 56.7832 53.9389 56.8068 53.9778 56.8499C54.0167 56.8929 54.0375 56.9499 54.0333 57.0068C53.6167 62.6735 52.5195 66.9346 50.5778 70.4151C50.5403 70.4832 50.4708 70.5235 50.3958 70.5235ZM32.0861 70.1068H50.2722C52.1208 66.7457 53.1806 62.6346 53.6 57.2013H35.3583C34.4528 63.1568 33.3528 67.4943 32.0861 70.1068ZM48.932 66.454H35.8347C35.6347 66.454 35.45 66.3721 35.3278 66.229C35.2069 66.0874 35.157 65.9026 35.1875 65.7082C35.2486 65.3276 35.6028 65.029 35.9945 65.029H49.0917C49.2917 65.029 49.4778 65.111 49.5986 65.254C49.7194 65.3957 49.7694 65.5804 49.7389 65.7735C49.6778 66.1554 49.3236 66.454 48.932 66.454ZM35.9945 65.4471C35.8083 65.4471 35.6264 65.5971 35.5986 65.7749C35.5875 65.8471 35.6028 65.911 35.6445 65.9596C35.6875 66.0096 35.7556 66.0374 35.8347 66.0374H48.932C49.1181 66.0374 49.3 65.8874 49.3278 65.7082C49.3389 65.636 49.3236 65.5735 49.2819 65.5249C49.2389 65.4749 49.1708 65.4457 49.0917 65.4457H35.9945V65.4471ZM49.9 63.5388H36.8028C36.6028 63.5388 36.4167 63.4568 36.2958 63.3138C36.175 63.1721 36.125 62.9874 36.1556 62.7943C36.2167 62.4138 36.5708 62.1151 36.9625 62.1151H50.0597C50.2597 62.1151 50.4458 62.1971 50.5667 62.3401C50.6875 62.4818 50.7375 62.6665 50.7056 62.8596C50.6472 63.2401 50.2931 63.5388 49.9 63.5388ZM36.9639 62.5318C36.7778 62.5318 36.5958 62.6818 36.5681 62.8596C36.557 62.9318 36.5722 62.9943 36.6139 63.0429C36.6569 63.0929 36.725 63.1221 36.8042 63.1221H49.9014C50.0875 63.1221 50.2695 62.9721 50.2972 62.7943C50.3083 62.7221 50.2931 62.6596 50.2514 62.611C50.2083 62.561 50.1403 62.5318 50.0611 62.5318H36.9639ZM50.3653 60.6235H37.2681C37.0681 60.6235 36.8833 60.5415 36.7611 60.3985C36.6403 60.2568 36.5903 60.0721 36.6208 59.8776C36.682 59.4971 37.0361 59.1985 37.4278 59.1985H50.525C50.725 59.1985 50.9111 59.2804 51.0319 59.4235C51.1528 59.5651 51.2028 59.7499 51.1708 59.9429C51.1125 60.3249 50.757 60.6235 50.3653 60.6235ZM37.4292 59.6165C37.2431 59.6165 37.0611 59.7665 37.0333 59.9443C37.0222 60.0165 37.0375 60.0804 37.0792 60.129C37.1222 60.179 37.1903 60.2068 37.2694 60.2068H50.3667C50.5528 60.2068 50.7347 60.0568 50.7625 59.8776C50.7736 59.8054 50.7583 59.7429 50.7167 59.6943C50.6736 59.6443 50.6056 59.6151 50.5264 59.6151H37.4292V59.6165Z" fill="#F9FAFB"/>
<path d="M49.0917 65.2393C49.3792 65.2393 49.5778 65.4643 49.5333 65.742C49.4889 66.0212 49.2194 66.2462 48.9319 66.2462H35.8347C35.5472 66.2462 35.3486 66.0212 35.3931 65.742C35.4375 65.4643 35.7069 65.2393 35.9944 65.2393H49.0917Z" fill="#D0D5DD"/>
<path d="M48.9319 66.4543H35.8347C35.6347 66.4543 35.45 66.3724 35.3278 66.2293C35.2069 66.0876 35.1569 65.9029 35.1875 65.7085C35.2486 65.3279 35.6028 65.0293 35.9944 65.0293H49.0917C49.2917 65.0293 49.4778 65.1112 49.5986 65.2543C49.7194 65.396 49.7694 65.5807 49.7389 65.7737C49.6778 66.1557 49.3236 66.4543 48.9319 66.4543ZM35.9944 65.4474C35.8083 65.4474 35.6264 65.5974 35.5986 65.7751C35.5875 65.8474 35.6028 65.9112 35.6444 65.9599C35.6875 66.0099 35.7556 66.0376 35.8347 66.0376H48.9319C49.1181 66.0376 49.3 65.8876 49.3278 65.7085C49.3389 65.6362 49.3236 65.5737 49.2819 65.5251C49.2389 65.4751 49.1708 65.446 49.0917 65.446H35.9944V65.4474Z" fill="#D0D5DD"/>
<path d="M78.2667 49.5879L77.1306 56.7115C74.2556 56.7115 71.5681 58.9587 71.125 61.7309C70.6833 64.5046 72.6542 66.7504 75.5292 66.7504L74.3931 73.874H62.2833C61.8417 76.6462 59.1528 78.8934 56.2764 78.8934C53.4028 78.8934 51.4306 76.6462 51.8722 73.874H39.7625L40.3306 70.3157H50.3931C52.5333 66.4768 53.4625 61.9073 53.8222 56.9934H42.4542L43.4347 50.8476C43.5458 50.1518 44.2208 49.5879 44.9403 49.5879H78.2667Z" fill="#D0D5DD"/>
<path d="M56.2778 79.1016C54.8028 79.1016 53.5097 78.5391 52.6375 77.5155C51.8417 76.5836 51.4903 75.3711 51.6361 74.0822H39.7653C39.7042 74.0822 39.6458 74.0558 39.6069 74.0086C39.5681 73.9627 39.55 73.9002 39.5597 73.8405L40.1278 70.2822C40.1444 70.1808 40.2306 70.1072 40.3333 70.1072H50.2736C52.1222 66.7461 53.1819 62.635 53.6014 57.2016H42.4583C42.3972 57.2016 42.3389 57.1752 42.3 57.128C42.2611 57.0822 42.2431 57.0197 42.2528 56.9599L43.2333 50.8141C43.3597 50.0224 44.1278 49.3794 44.9444 49.3794H78.2681C78.3292 49.3794 78.3875 49.4058 78.4264 49.453C78.4653 49.4988 78.4833 49.5613 78.4736 49.6211L77.3375 56.7447C77.3208 56.8461 77.2347 56.9197 77.1319 56.9197C74.3597 56.9197 71.7583 59.0933 71.3319 61.7641C71.1319 63.0225 71.4417 64.2086 72.2056 65.103C72.9972 66.0308 74.1778 66.5419 75.5292 66.5419C75.5903 66.5419 75.6486 66.5683 75.6875 66.6155C75.7264 66.6613 75.7444 66.7238 75.7347 66.7836L74.5986 73.9072C74.5819 74.0086 74.4958 74.0822 74.3931 74.0822H62.4583C61.9194 76.8669 59.1861 79.1016 56.2778 79.1016ZM40.0097 73.6655H51.875C51.9361 73.6655 51.9944 73.6919 52.0333 73.7391C52.0722 73.7849 52.0903 73.8475 52.0806 73.9072C51.8806 75.1641 52.1903 76.3502 52.9556 77.2461C53.7472 78.1738 54.9278 78.6863 56.2792 78.6863C59.0514 78.6863 61.6542 76.5127 62.0806 73.8419C62.0972 73.7405 62.1833 73.6669 62.2861 73.6669H74.2181L75.2889 66.9544C73.9139 66.8961 72.7153 66.3405 71.8917 65.3738C71.0472 64.3836 70.7028 63.078 70.9236 61.6988C71.3708 58.8919 74.0556 56.5975 76.9569 56.5058L78.0278 49.7961H44.9431C44.3208 49.7961 43.7389 50.2822 43.6431 50.8808L42.7014 56.785H53.825C53.8833 56.785 53.9389 56.8086 53.9778 56.8516C54.0167 56.8947 54.0375 56.9516 54.0333 57.0086C53.6167 62.6752 52.5194 66.9363 50.5778 70.4169C50.5403 70.4836 50.4708 70.5238 50.3958 70.5238H40.5111L40.0097 73.6655Z" fill="#F9FAFB"/>
<path d="M53.2861 98.1611H37.1972C37.0486 98.1611 36.9097 98.1375 36.7847 98.0931C36.575 98.0195 36.4014 97.8903 36.2778 97.7236L38.4305 100.658C38.6278 100.926 38.9542 101.096 39.35 101.096H55.4403L53.2861 98.1611Z" fill="#D0D5DD"/>
<path d="M55.4389 101.304H39.3486C38.9014 101.304 38.5056 101.114 38.2611 100.782L36.1097 97.8487L36.1083 97.8474C36.0403 97.7543 36.0611 97.6238 36.1528 97.5557C36.2444 97.4876 36.3764 97.5071 36.4444 97.6001C36.5444 97.7349 36.6847 97.8376 36.8514 97.896C36.9583 97.9335 37.0736 97.9515 37.1958 97.9515H53.2861C53.3528 97.9515 53.4153 97.9835 53.4542 98.0362L55.6069 100.971C55.6528 101.035 55.6597 101.118 55.625 101.189C55.5889 101.26 55.5181 101.304 55.4389 101.304ZM37 98.3571L38.5972 100.535C38.7611 100.758 39.0361 100.888 39.3486 100.888H55.0278L53.1806 98.3696H37.1972C37.1306 98.3696 37.0639 98.3654 37 98.3571Z" fill="#F9FAFB"/>
<path d="M114.86 53.6332C114.861 53.6082 114.861 53.5846 114.861 53.561C114.861 53.5471 114.86 53.5332 114.858 53.5193C114.857 53.4985 114.856 53.4763 114.853 53.4555C114.851 53.4402 114.849 53.4263 114.846 53.4124C114.843 53.3999 114.843 53.386 114.84 53.3721C114.839 53.368 114.838 53.3638 114.836 53.3596C114.826 53.3124 114.814 53.268 114.799 53.2235C114.797 53.2207 114.797 53.2193 114.797 53.2166C114.794 53.2082 114.79 53.2013 114.787 53.193C114.776 53.1666 114.765 53.1388 114.753 53.1138C114.75 53.1082 114.749 53.1027 114.746 53.0971C114.742 53.0902 114.738 53.0832 114.733 53.0749C114.722 53.0555 114.711 53.036 114.7 53.018C114.696 53.011 114.692 53.0027 114.688 52.9957C114.679 52.9832 114.671 52.9707 114.663 52.9596L112.51 50.0249C112.524 50.0443 112.536 50.0638 112.549 50.0832C112.56 50.1013 112.571 50.1207 112.582 50.1402C112.589 50.1527 112.596 50.1652 112.603 50.1791C112.615 50.2055 112.626 50.2318 112.637 50.2582C112.642 50.268 112.646 50.2777 112.65 50.2888C112.665 50.3332 112.678 50.3777 112.687 50.4249C112.692 50.443 112.694 50.4596 112.697 50.4777C112.7 50.4916 112.701 50.5068 112.704 50.5207C112.707 50.5416 112.708 50.5638 112.71 50.5846C112.711 50.5985 112.713 50.6124 112.713 50.6263C112.713 50.6499 112.713 50.6749 112.711 50.6999C112.711 50.7124 112.711 50.7235 112.71 50.736C112.707 50.7735 112.703 50.8096 112.697 50.8485L111.403 58.9624L113.556 61.8971L114.85 53.7832C114.856 53.7457 114.86 53.7082 114.863 53.6721C114.86 53.6582 114.86 53.6457 114.86 53.6332Z" fill="#D0D5DD"/>
<path d="M113.553 62.1043C113.488 62.1043 113.425 62.0737 113.385 62.0195L111.232 59.0848C111.199 59.0404 111.186 58.9834 111.194 58.9293L112.489 50.8154C112.494 50.7834 112.497 50.7529 112.5 50.7223L112.501 50.6918C112.501 50.6723 112.503 50.6529 112.503 50.632L112.501 50.5973C112.5 50.5806 112.499 50.5626 112.497 50.5459L112.493 50.5195C112.489 50.4973 112.488 50.4834 112.485 50.4681C112.476 50.4293 112.467 50.3918 112.454 50.3584C112.454 50.357 112.444 50.3362 112.444 50.3348C112.436 50.3126 112.426 50.2918 112.417 50.2709L112.4 50.2404C112.392 50.2265 112.383 50.2098 112.374 50.1959C112.361 50.1751 112.353 50.1626 112.344 50.1501C112.276 50.057 112.296 49.9265 112.389 49.8584C112.482 49.7904 112.612 49.8098 112.681 49.9029L112.682 49.9043L114.833 52.8376C114.844 52.8529 114.854 52.8668 114.864 52.882C114.869 52.889 114.875 52.8987 114.879 52.9084C114.893 52.9306 114.907 52.9529 114.919 52.9765C114.925 52.9862 114.931 52.9945 114.935 53.0029C114.938 53.0084 114.944 53.0223 114.946 53.0293C114.958 53.0556 114.972 53.0876 114.985 53.1195C114.989 53.1265 114.992 53.1362 114.996 53.1445C114.997 53.1501 115 53.1556 115.001 53.1626C115.018 53.2098 115.032 53.2598 115.043 53.3126C115.044 53.3181 115.047 53.3265 115.047 53.3307C115.05 53.3459 115.051 53.3584 115.054 53.3709L115.057 53.389C115.06 53.4043 115.061 53.4181 115.064 53.4334C115.067 53.4598 115.068 53.4848 115.069 53.5098C115.071 53.5306 115.072 53.5445 115.072 53.5584C115.072 53.5862 115.072 53.6112 115.071 53.6376C115.071 53.639 115.071 53.6459 115.071 53.6459V53.6556C115.071 53.6654 115.071 53.6765 115.069 53.6862C115.067 53.7293 115.061 53.7737 115.054 53.8168L113.76 61.9306C113.746 62.014 113.685 62.0806 113.603 62.1001C113.585 62.1015 113.569 62.1043 113.553 62.1043ZM111.619 58.907L113.425 61.3695L114.64 53.7487C114.646 53.7168 114.649 53.6862 114.651 53.6556V53.6265V53.6209C114.651 53.6029 114.653 53.5834 114.653 53.5654L114.651 53.5445C114.651 53.5431 114.65 53.532 114.65 53.5307C114.649 53.514 114.649 53.4959 114.646 53.4793L114.638 53.4223C114.638 53.4182 114.635 53.407 114.632 53.3973C114.625 53.3626 114.614 53.3265 114.603 53.2931C114.603 53.2918 114.601 53.289 114.6 53.2862C114.599 53.282 114.594 53.2765 114.593 53.2695C114.585 53.2473 114.575 53.2265 114.565 53.2056C114.564 53.2029 114.561 53.1959 114.558 53.1918C114.554 53.1862 114.55 53.1779 114.549 53.1751C114.54 53.1598 114.532 53.1445 114.522 53.1293C114.521 53.1265 114.512 53.114 114.511 53.1098C114.506 53.1015 114.499 53.0918 114.492 53.082L112.894 50.9043L111.619 58.907Z" fill="#F9FAFB"/>
<path d="M70.5208 98.1611L72.6736 101.096H55.4389L53.2861 98.1611H70.5208Z" fill="#98A2B3"/>
<path d="M72.6736 101.304H55.4389C55.3722 101.304 55.3097 101.272 55.2708 101.219L53.1181 98.2846C53.0722 98.2207 53.0653 98.1374 53.1 98.0665C53.1347 97.9971 53.2069 97.9526 53.2861 97.9526H70.5194C70.5861 97.9526 70.6486 97.9846 70.6875 98.0374L72.8403 100.972C72.8861 101.036 72.8931 101.119 72.8583 101.19C72.8236 101.26 72.7514 101.304 72.6736 101.304ZM55.5444 100.887H72.2611L70.4139 98.3693H53.6972L55.5444 100.887Z" fill="#F9FAFB"/>
<path d="M74.3945 73.8735L73.2583 80.9971C76.132 80.9971 78.1042 83.2444 77.6625 86.0166C77.2208 88.7902 74.532 91.036 71.657 91.036L70.5208 98.1596H53.2861H37.1972C36.4778 98.1596 35.982 97.5971 36.0931 96.9013L39.7653 73.8735H51.875C51.4333 76.6458 53.4042 78.893 56.2792 78.893C59.1542 78.893 61.8431 76.6458 62.2861 73.8735H74.3945Z" fill="#F7F9FC"/>
<path d="M70.5208 98.3693H37.1972C36.7806 98.3693 36.4139 98.2082 36.1653 97.9165C35.9236 97.6332 35.825 97.2609 35.8875 96.8693L39.5597 73.8415C39.5764 73.7401 39.6625 73.6665 39.7653 73.6665H51.875C51.9361 73.6665 51.9944 73.6929 52.0333 73.7401C52.0722 73.7859 52.0903 73.8484 52.0806 73.9082C51.8806 75.1651 52.1903 76.3512 52.9556 77.2471C53.7472 78.1748 54.9278 78.6873 56.2792 78.6873C59.0514 78.6873 61.6542 76.5137 62.0806 73.8429C62.0972 73.7415 62.1833 73.6679 62.2861 73.6679H74.3958C74.4569 73.6679 74.5153 73.6943 74.5542 73.7415C74.5931 73.7873 74.6111 73.8498 74.6014 73.9096L73.5028 80.7971C74.8764 80.8554 76.0764 81.4123 76.9 82.3776C77.7444 83.3679 78.0889 84.6734 77.8681 86.0526C77.4208 88.8596 74.7361 91.154 71.8347 91.2457L70.7264 98.1971C70.7097 98.2943 70.6222 98.3693 70.5208 98.3693ZM39.9431 74.0818L36.2986 96.9346C36.2556 97.204 36.3208 97.4568 36.4819 97.6457C36.65 97.8429 36.9042 97.9526 37.1972 97.9526H70.3431L71.4514 91.004C71.4681 90.9026 71.5542 90.829 71.6569 90.829C74.4292 90.829 77.0306 88.6554 77.4569 85.9846C77.6569 84.7276 77.3472 83.5415 76.5833 82.6457C75.7917 81.7179 74.6111 81.2068 73.2597 81.2068C73.1986 81.2068 73.1403 81.1804 73.1014 81.1332C73.0625 81.0873 73.0444 81.0248 73.0542 80.9651L74.1514 74.0832H62.4611C61.9208 76.8665 59.1875 79.1026 56.2806 79.1026C54.8056 79.1026 53.5125 78.5401 52.6403 77.5165C51.8444 76.5846 51.4931 75.3721 51.6389 74.0832H39.9431V74.0818Z" fill="#F9FAFB"/>
<path d="M107.981 80.4014L110.133 83.3361H92.3875L90.2361 80.4014H107.981Z" fill="#98A2B3"/>
<path d="M110.133 83.5443H92.3875C92.3208 83.5443 92.2583 83.5123 92.2194 83.4595L90.0667 80.5248C90.0208 80.4609 90.0139 80.3776 90.0486 80.3068C90.0833 80.2373 90.1556 80.1929 90.2347 80.1929H107.979C108.046 80.1929 108.108 80.2248 108.147 80.2776L110.3 83.2123C110.346 83.2762 110.353 83.3595 110.318 83.4304C110.283 83.4998 110.211 83.5443 110.133 83.5443ZM92.4931 83.1276H109.722L107.875 80.6095H90.6472L92.4931 83.1276Z" fill="#F9FAFB"/>
<path d="M118.225 58.9609L120.378 61.8957L119.144 69.629L116.992 66.6929L118.225 58.9609Z" fill="#E4E7EC"/>
<path d="M119.143 69.8374C119.078 69.8374 119.015 69.8069 118.975 69.7527L116.822 66.818C116.789 66.7736 116.776 66.7166 116.785 66.6624L118.018 58.9291C118.032 58.8458 118.093 58.7791 118.175 58.7597C118.257 58.7402 118.343 58.7708 118.392 58.8388L120.544 61.7736C120.578 61.818 120.59 61.875 120.582 61.9291L119.349 69.6624C119.335 69.7458 119.274 69.8125 119.192 69.8319C119.176 69.8347 119.16 69.8374 119.143 69.8374ZM117.211 66.6402L119.017 69.1027L120.157 61.9486L118.351 59.4861L117.211 66.6402Z" fill="#F9FAFB"/>
<path d="M111.4 58.9614H118.225L116.992 66.6948H110.167H106.115L107.349 58.9614H111.4ZM115.582 64.2462C115.869 64.2462 116.139 64.0211 116.183 63.742C116.228 63.4642 116.029 63.2392 115.742 63.2392H108.44C108.153 63.2392 107.883 63.4642 107.839 63.742C107.794 64.0211 107.992 64.2462 108.281 64.2462H115.582ZM115.96 61.8781C116.247 61.8781 116.517 61.6531 116.561 61.3753C116.606 61.0961 116.408 60.8711 116.119 60.8711H108.819C108.532 60.8711 108.262 61.0961 108.218 61.3753C108.174 61.6531 108.372 61.8781 108.66 61.8781H115.96Z" fill="#F7F9FC"/>
<path d="M116.992 66.9015H106.115C106.054 66.9015 105.996 66.8751 105.957 66.8279C105.918 66.782 105.9 66.7195 105.91 66.6598L107.143 58.9265C107.16 58.8251 107.246 58.7515 107.349 58.7515H118.225C118.286 58.7515 118.344 58.7779 118.383 58.8251C118.422 58.8709 118.44 58.9334 118.431 58.9931L117.197 66.7265C117.181 66.8279 117.093 66.9015 116.992 66.9015ZM106.36 66.4848H116.814L117.981 59.1681H107.526L106.36 66.4848ZM115.582 64.4542H108.281C108.081 64.4542 107.896 64.3723 107.774 64.2292C107.653 64.0876 107.603 63.9029 107.633 63.7084C107.694 63.3279 108.049 63.0292 108.44 63.0292H115.742C115.942 63.0292 116.128 63.1112 116.249 63.2542C116.369 63.3959 116.419 63.5806 116.389 63.7737C116.329 64.1556 115.974 64.4542 115.582 64.4542ZM108.442 63.4473C108.256 63.4473 108.074 63.5973 108.046 63.7751C108.035 63.8473 108.05 63.9112 108.092 63.9598C108.135 64.0098 108.203 64.0376 108.282 64.0376H115.583C115.769 64.0376 115.951 63.8876 115.979 63.7084C115.99 63.6362 115.975 63.5737 115.933 63.5251C115.89 63.4751 115.822 63.4459 115.743 63.4459H108.442V63.4473ZM115.96 62.0862H108.658C108.458 62.0862 108.272 62.0042 108.151 61.8612C108.031 61.7195 107.981 61.5348 108.012 61.3417C108.074 60.9612 108.428 60.6626 108.819 60.6626H116.121C116.321 60.6626 116.506 60.7445 116.628 60.8876C116.749 61.0292 116.799 61.214 116.768 61.4084C116.707 61.7876 116.351 62.0862 115.96 62.0862ZM108.819 61.0792C108.633 61.0792 108.451 61.2292 108.424 61.4084C108.412 61.4806 108.428 61.5431 108.469 61.5917C108.512 61.6417 108.581 61.6709 108.66 61.6709H115.961C116.147 61.6709 116.329 61.5209 116.357 61.3431C116.368 61.2709 116.353 61.207 116.311 61.1584C116.268 61.1084 116.2 61.0806 116.121 61.0806H108.819V61.0792Z" fill="#F9FAFB"/>
<path d="M111.59 49.5879C112.311 49.5879 112.806 50.1518 112.694 50.8476L111.4 58.9615H107.349L106.115 66.6948H110.167L109.021 73.8754H97.6528C98.0944 71.1018 96.1236 68.8559 93.2486 68.8559C90.375 68.8559 87.6861 71.1018 87.2431 73.8754H74.3944L75.5306 66.7518C72.6556 66.7518 70.6847 64.5046 71.1264 61.7323C71.5681 58.9601 74.2556 56.7129 77.1319 56.7129L78.2681 49.5893H111.59V49.5879Z" fill="#D0D5DD"/>
<path d="M109.022 74.0821H97.6528C97.5917 74.0821 97.5333 74.0557 97.4944 74.0085C97.4556 73.9627 97.4375 73.9002 97.4472 73.8404C97.6472 72.5821 97.3375 71.3974 96.5736 70.5015C95.7819 69.5738 94.6014 69.0627 93.2486 69.0627C90.4764 69.0627 87.875 71.2363 87.4486 73.9071C87.4319 74.0085 87.3458 74.0821 87.2431 74.0821H74.3944C74.3333 74.0821 74.275 74.0557 74.2361 74.0085C74.1972 73.9627 74.1792 73.9002 74.1889 73.8404L75.2875 66.9529C73.9125 66.8946 72.7139 66.339 71.8903 65.3724C71.0458 64.3821 70.7014 63.0765 70.9222 61.6974C71.3694 58.8904 74.0542 56.596 76.9556 56.5043L78.0639 49.5529C78.0806 49.4515 78.1667 49.3779 78.2694 49.3779H111.592C112.008 49.3779 112.374 49.539 112.624 49.8307C112.865 50.114 112.965 50.4877 112.901 50.8793L111.607 58.9932C111.59 59.0946 111.504 59.1682 111.401 59.1682H107.528L106.361 66.4849H110.168C110.229 66.4849 110.287 66.5113 110.326 66.5585C110.365 66.6043 110.383 66.6668 110.374 66.7265L109.228 73.9071C109.211 74.0085 109.124 74.0821 109.022 74.0821ZM97.8917 73.6654H108.844L109.924 66.9015H106.117C106.056 66.9015 105.997 66.8752 105.958 66.8279C105.919 66.7821 105.901 66.7196 105.911 66.6599L107.144 58.9265C107.161 58.8252 107.247 58.7515 107.35 58.7515H111.224L112.489 50.8127C112.532 50.5432 112.467 50.289 112.306 50.1002C112.137 49.9029 111.883 49.7946 111.592 49.7946H78.4444L77.3361 56.7432C77.3194 56.8446 77.2333 56.9182 77.1306 56.9182C74.3583 56.9182 71.7569 59.0918 71.3306 61.7627C71.1306 63.021 71.4403 64.2071 72.2042 65.1015C72.9958 66.0293 74.1764 66.5404 75.5278 66.5404C75.5889 66.5404 75.6472 66.5668 75.6861 66.614C75.725 66.6599 75.7431 66.7224 75.7333 66.7821L74.6361 73.664H87.0667C87.6069 70.8807 90.3403 68.6446 93.2472 68.6446C94.7236 68.6446 96.0167 69.2071 96.8889 70.2307C97.6847 71.164 98.0361 72.3752 97.8917 73.6654Z" fill="#F9FAFB"/>
<path d="M110.167 66.6929L112.319 69.629L111.174 76.8082L109.021 73.8734L110.167 66.6929Z" fill="#D0D5DD"/>
<path d="M111.174 77.0166C111.108 77.0166 111.046 76.986 111.006 76.9319L108.853 73.9972C108.819 73.9527 108.807 73.8958 108.815 73.8416L109.961 66.6611C109.975 66.5777 110.036 66.5111 110.118 66.4916C110.2 66.4722 110.286 66.5027 110.335 66.5708L112.487 69.5055C112.521 69.5499 112.533 69.6069 112.525 69.6611L111.379 76.8416C111.365 76.9249 111.304 76.9916 111.222 77.0111C111.207 77.0152 111.19 77.0166 111.174 77.0166ZM109.242 73.8208L111.047 76.2833L112.1 69.6819L110.294 67.2194L109.242 73.8208Z" fill="#F9FAFB"/>
<path d="M109.021 73.8735L111.174 76.8083L110.133 83.336L107.981 80.4013L109.021 73.8735Z" fill="#D0D5DD"/>
<path d="M110.133 83.5445C110.068 83.5445 110.006 83.5139 109.965 83.4598L107.813 80.5251C107.779 80.4806 107.767 80.4237 107.775 80.3695L108.817 73.8417C108.831 73.7584 108.892 73.6917 108.974 73.6723C109.056 73.6528 109.142 73.6834 109.19 73.7514L111.343 76.6862C111.376 76.7306 111.389 76.7875 111.381 76.8417L110.339 83.3695C110.325 83.4528 110.264 83.5195 110.182 83.5389C110.165 83.5431 110.15 83.5445 110.133 83.5445ZM108.2 80.3487L110.006 82.8112L110.954 76.8625L109.149 74.4L108.2 80.3487Z" fill="#F9FAFB"/>
<path d="M87.7528 98.1611L89.9056 101.096H72.6736L70.5208 98.1611H87.7528Z" fill="#98A2B3"/>
<path d="M89.9056 101.304H72.6736C72.6069 101.304 72.5444 101.272 72.5055 101.219L70.3528 98.2846C70.3069 98.2207 70.3 98.1374 70.3347 98.0665C70.3694 97.9971 70.4417 97.9526 70.5208 97.9526H87.7542C87.8208 97.9526 87.8833 97.9846 87.9222 98.0374L90.075 100.972C90.1208 101.036 90.1278 101.119 90.0931 101.19C90.0569 101.26 89.9847 101.304 89.9056 101.304ZM72.7792 100.887H89.4958L87.6486 98.3693H70.9319L72.7792 100.887Z" fill="#F9FAFB"/>
<path d="M87.7528 98.1611L89.9056 101.096L88.8528 107.699L86.7 104.764L87.7528 98.1611Z" fill="#D0D5DD"/>
<path d="M88.8528 107.907C88.7875 107.907 88.725 107.876 88.6847 107.822L86.5319 104.888C86.4986 104.843 86.4861 104.786 86.4944 104.732L87.5472 98.1279C87.5611 98.0445 87.6222 97.9778 87.7042 97.9584C87.7861 97.939 87.8708 97.9695 87.9208 98.0376L90.0736 100.972C90.1069 101.017 90.1194 101.074 90.1111 101.128L89.0583 107.732C89.0444 107.815 88.9833 107.882 88.9014 107.901C88.8847 107.906 88.8694 107.907 88.8528 107.907ZM86.9194 104.711L88.725 107.174L89.6861 101.149L87.8806 98.6862L86.9194 104.711Z" fill="#F9FAFB"/>
<path d="M86.7 104.764L88.8528 107.699H54.3861L52.2333 104.764H86.7Z" fill="#D0D5DD"/>
<path d="M88.8528 107.907H54.3861C54.3194 107.907 54.2569 107.875 54.2181 107.822L52.0653 104.888C52.0194 104.824 52.0125 104.74 52.0472 104.67C52.0819 104.6 52.1542 104.556 52.2333 104.556H86.7C86.7667 104.556 86.8292 104.588 86.8681 104.64L89.0208 107.575C89.0667 107.639 89.0736 107.722 89.0389 107.793C89.0028 107.864 88.9306 107.907 88.8528 107.907ZM54.4917 107.49H88.4417L86.5944 104.972H52.6444L54.4917 107.49Z" fill="#F9FAFB"/>
<path d="M87.7528 98.1611L86.7 104.764H52.2333L53.2861 98.1611H70.5208H87.7528Z" fill="#98A2B3"/>
<path d="M86.7 104.972H52.2333C52.1722 104.972 52.1139 104.946 52.075 104.898C52.0347 104.853 52.0181 104.79 52.0278 104.73L53.0806 98.1262C53.0972 98.0248 53.1833 97.9512 53.2861 97.9512H87.7528C87.8139 97.9512 87.8722 97.9776 87.9111 98.0248C87.95 98.0706 87.9681 98.1331 87.9583 98.1928L86.9055 104.797C86.8903 104.898 86.8028 104.972 86.7 104.972ZM52.4778 104.555H86.5222L87.5083 98.3678H53.4639L52.4778 104.555Z" fill="#F9FAFB"/>
<path d="M110.333 94.6291C110.418 94.4235 110.5 94.218 110.578 94.0096C110.581 94.0027 110.583 93.9957 110.585 93.9888C110.661 93.7846 110.735 93.5777 110.807 93.3707C110.821 93.3305 110.835 93.2902 110.849 93.2499C110.918 93.0443 110.986 92.8374 111.051 92.6291C111.064 92.5888 111.076 92.5485 111.089 92.5068C111.151 92.3013 111.214 92.0943 111.272 91.8846C111.275 91.8721 111.279 91.861 111.283 91.8485C111.343 91.6318 111.4 91.4138 111.456 91.1957C111.467 91.1513 111.478 91.1068 111.489 91.0624C111.542 90.8485 111.593 90.6318 111.642 90.4152C111.65 90.3777 111.658 90.3416 111.665 90.3041C111.711 90.0985 111.754 89.8902 111.794 89.6832C111.8 89.6568 111.806 89.6305 111.81 89.6041C111.853 89.3832 111.893 89.1596 111.932 88.936C111.94 88.8888 111.949 88.8416 111.957 88.793C111.994 88.5693 112.031 88.3457 112.064 88.1207C112.068 88.0902 112.072 88.0596 112.076 88.0291C112.107 87.8166 112.136 87.6041 112.164 87.3902C112.168 87.3541 112.174 87.3193 112.178 87.2832C112.206 87.0568 112.232 86.8291 112.257 86.5999C112.263 86.5513 112.267 86.5027 112.272 86.4555C112.296 86.2235 112.318 85.9916 112.339 85.7582C112.34 85.7388 112.342 85.7193 112.343 85.6999C112.362 85.4763 112.379 85.2527 112.394 85.0277C112.397 84.9846 112.4 84.9416 112.403 84.8985C112.418 84.6666 112.432 84.4346 112.444 84.2013C112.447 84.1541 112.449 84.1068 112.451 84.0596C112.463 83.818 112.474 83.5777 112.482 83.3346L110.329 80.3999C110.321 80.643 110.31 80.8846 110.299 81.1249C110.296 81.1721 110.294 81.2193 110.292 81.2666C110.279 81.4999 110.267 81.7332 110.25 81.9638C110.247 82.0068 110.244 82.0499 110.242 82.093C110.226 82.318 110.21 82.5416 110.19 82.7652C110.189 82.7846 110.188 82.8041 110.186 82.8235C110.165 83.0568 110.143 83.2902 110.119 83.5221C110.114 83.5707 110.11 83.618 110.104 83.6666C110.079 83.8957 110.054 84.1235 110.025 84.3499C110.021 84.386 110.015 84.4221 110.011 84.4568C109.983 84.6707 109.954 84.8832 109.924 85.0957C109.919 85.1263 109.915 85.1568 109.911 85.1874C109.878 85.4124 109.842 85.636 109.804 85.8596C109.796 85.9068 109.787 85.9541 109.779 86.0013C109.74 86.2249 109.7 86.4485 109.657 86.6693C109.651 86.6957 109.646 86.7207 109.642 86.7457C109.6 86.9541 109.557 87.1624 109.512 87.368C109.504 87.4055 109.497 87.4416 109.489 87.4791C109.44 87.6957 109.39 87.911 109.336 88.1263C109.325 88.1707 109.314 88.2152 109.303 88.261C109.247 88.4791 109.19 88.6971 109.131 88.9138C109.128 88.9263 109.124 88.9374 109.119 88.9499C109.061 89.1582 109 89.3652 108.936 89.5721C108.924 89.6124 108.911 89.6527 108.899 89.693C108.833 89.9013 108.767 90.1082 108.696 90.3138C108.682 90.3541 108.668 90.3943 108.654 90.4346C108.582 90.6416 108.508 90.8471 108.432 91.0527C108.429 91.0596 108.426 91.0666 108.425 91.0735C108.346 91.2818 108.264 91.4874 108.181 91.693C108.164 91.7346 108.147 91.7763 108.129 91.8166C108.046 92.0166 107.96 92.2152 107.871 92.411C107.853 92.4513 107.835 92.4902 107.817 92.5305C107.751 92.6735 107.685 92.8152 107.617 92.9555C107.596 92.9985 107.575 93.043 107.553 93.086C107.468 93.2582 107.381 93.4291 107.292 93.5999C107.276 93.6277 107.261 93.6568 107.246 93.6846C107.168 93.8305 107.089 93.9749 107.008 94.118C106.982 94.1638 106.957 94.2096 106.931 94.2555C106.835 94.4235 106.736 94.5902 106.635 94.7568C106.635 94.7568 106.635 94.7582 106.633 94.7582L108.786 97.693C108.888 97.5263 108.986 97.3596 109.083 97.1902C109.11 97.1443 109.135 97.0999 109.161 97.0541C109.242 96.9096 109.322 96.7652 109.399 96.6207C109.414 96.593 109.429 96.5652 109.444 96.536C109.535 96.3666 109.621 96.1943 109.706 96.0221C109.726 95.9791 109.747 95.9346 109.769 95.8916C109.838 95.7513 109.904 95.6096 109.969 95.4666C109.982 95.4388 109.996 95.4124 110.008 95.3846C110.014 95.3721 110.019 95.3596 110.025 95.3471C110.114 95.1499 110.2 94.9513 110.283 94.7527C110.299 94.711 110.315 94.6693 110.333 94.6291Z" fill="#D0D5DD"/>
<path d="M108.785 97.9013C108.718 97.9013 108.656 97.8693 108.617 97.8165L106.464 94.8818C106.414 94.8138 106.41 94.7221 106.454 94.6499C106.556 94.4846 106.651 94.3193 106.747 94.1527L106.825 94.0165C106.906 93.8749 106.983 93.7318 107.06 93.5874L107.106 93.5026C107.194 93.3346 107.281 93.1652 107.364 92.9943L107.426 92.8652C107.494 92.7249 107.561 92.5846 107.625 92.4443L107.679 92.3263C107.764 92.1374 107.85 91.9388 107.935 91.7374L107.983 91.6193C108.076 91.3915 108.157 91.1915 108.228 90.9999L108.236 90.979C108.312 90.7777 108.385 90.5735 108.456 90.3679L108.497 90.2485C108.567 90.0443 108.633 89.8388 108.699 89.6318L108.735 89.5124C108.797 89.3082 108.858 89.1027 108.917 88.8957L108.926 88.8596C108.986 88.6443 109.043 88.429 109.097 88.2124L109.131 88.079C109.183 87.8665 109.233 87.6527 109.282 87.4374L109.306 87.3277C109.35 87.1221 109.393 86.9165 109.435 86.7082L109.45 86.6318C109.493 86.4124 109.533 86.1901 109.572 85.9679L109.596 85.8263C109.633 85.604 109.669 85.3818 109.703 85.1582L109.715 85.0665C109.746 84.8554 109.775 84.6443 109.801 84.4318L109.815 84.3249C109.843 84.0999 109.869 83.8721 109.894 83.6457L109.91 83.5013C109.933 83.2707 109.956 83.0388 109.976 82.8068L109.981 82.7471C109.999 82.5263 110.017 82.3026 110.032 82.079L110.04 81.9513C110.056 81.7207 110.069 81.4888 110.081 81.2568L110.088 81.1179C110.099 80.8749 110.11 80.6346 110.118 80.3929C110.121 80.304 110.181 80.2277 110.265 80.2013C110.35 80.1749 110.442 80.2054 110.494 80.2777L112.647 83.2124C112.675 83.2499 112.689 83.2957 112.687 83.3429C112.679 83.586 112.668 83.829 112.657 84.0707L112.65 84.2138C112.638 84.4485 112.624 84.6818 112.608 84.9152L112.599 85.0443C112.583 85.2707 112.565 85.4957 112.547 85.7193L112.543 85.779C112.524 86.0124 112.5 86.2457 112.476 86.479L112.461 86.6249C112.436 86.854 112.41 87.0832 112.382 87.311L112.368 87.4179C112.34 87.6332 112.311 87.8471 112.281 88.061L112.267 88.154C112.233 88.379 112.197 88.604 112.16 88.829L112.135 88.9721C112.096 89.1971 112.056 89.4221 112.011 89.6443L111.994 89.7249C111.953 89.9332 111.91 90.1415 111.864 90.3499L111.84 90.4624C111.792 90.6804 111.74 90.8971 111.688 91.1138L111.656 91.2415C111.599 91.4693 111.54 91.6888 111.481 91.9068L111.469 91.9429C111.411 92.1527 111.349 92.3624 111.285 92.5693L111.247 92.6915C111.182 92.9013 111.114 93.1096 111.043 93.3179L111.001 93.4402C110.929 93.6485 110.856 93.8568 110.778 94.0624L110.769 94.0832C110.699 94.2721 110.618 94.4763 110.522 94.7082L110.329 94.629L110.519 94.7124L110.469 94.8332C110.383 95.0402 110.296 95.2429 110.208 95.4332L110.153 95.5526C110.086 95.6971 110.019 95.8402 109.95 95.9818L109.886 96.1138C109.8 96.2888 109.713 96.461 109.621 96.6332L109.575 96.7179C109.497 96.8652 109.417 97.011 109.335 97.1554L109.257 97.2929C109.16 97.4638 109.06 97.6332 108.957 97.7999C108.921 97.8596 108.857 97.8957 108.788 97.8999C108.792 97.9013 108.789 97.9013 108.785 97.9013ZM106.883 94.7471L108.768 97.3165C108.813 97.2402 108.857 97.1638 108.901 97.086L108.978 96.9513C109.058 96.8082 109.138 96.6652 109.214 96.5221L109.258 96.4388C109.347 96.2693 109.433 96.0999 109.518 95.929L109.581 95.7999C109.649 95.661 109.714 95.5207 109.779 95.379L109.833 95.261C109.918 95.0735 110.004 94.8749 110.089 94.6707L110.137 94.5527L110.14 94.5471C110.233 94.3193 110.314 94.1179 110.383 93.9332L110.586 93.986L110.392 93.9124C110.468 93.7096 110.54 93.5054 110.611 93.2999L110.653 93.1804C110.722 92.9763 110.789 92.7707 110.854 92.5638L110.89 92.4429C110.953 92.2374 111.014 92.0332 111.072 91.8263L111.082 91.7902C111.142 91.5749 111.199 91.3596 111.253 91.1415L111.286 91.0096C111.339 90.7957 111.389 90.5818 111.437 90.3679L111.461 90.2582C111.506 90.0527 111.549 89.8471 111.59 89.6401L111.606 89.5624C111.649 89.3429 111.689 89.1221 111.728 88.8999L111.751 88.7582C111.789 88.5374 111.825 88.3152 111.857 88.0915L111.869 87.9999C111.9 87.7888 111.929 87.5777 111.956 87.3652L111.969 87.2582C111.997 87.0332 112.024 86.8068 112.047 86.579L112.061 86.4415C112.086 86.204 112.108 85.9735 112.128 85.7415L112.132 85.6832C112.151 85.461 112.168 85.2374 112.183 85.0138L112.192 84.886C112.207 84.6554 112.221 84.4235 112.232 84.1915L112.239 84.0499C112.25 83.8332 112.26 83.6165 112.267 83.3999L110.508 81.0026C110.506 81.0471 110.504 81.0915 110.501 81.1346L110.494 81.2777C110.482 81.5124 110.468 81.7457 110.453 81.979L110.443 82.1082C110.428 82.3346 110.41 82.5596 110.392 82.7832L110.387 82.8415C110.367 83.0763 110.344 83.311 110.321 83.5429L110.306 83.6888C110.281 83.9179 110.254 84.1471 110.226 84.3749L110.213 84.4832C110.185 84.6985 110.156 84.9124 110.125 85.1249L110.112 85.2165C110.079 85.4429 110.043 85.6679 110.004 85.8929L109.979 86.036C109.94 86.261 109.9 86.4846 109.856 86.7082L109.84 86.786C109.799 86.9957 109.756 87.204 109.71 87.4124L109.686 87.5235C109.637 87.7415 109.586 87.9596 109.533 88.1749L109.501 88.304C109.444 88.5304 109.388 88.7499 109.326 88.9679L109.315 89.004C109.257 89.2138 109.194 89.4235 109.131 89.6304L109.093 89.7526C109.028 89.9624 108.96 90.1721 108.889 90.379L108.847 90.5013C108.775 90.7096 108.701 90.9179 108.624 91.1235L108.618 91.1388C108.543 91.3388 108.461 91.5429 108.368 91.7693L108.317 91.8943C108.231 92.0999 108.143 92.3013 108.057 92.4943L108.001 92.6138C107.935 92.7582 107.868 92.9013 107.799 93.0429L107.735 93.1749C107.649 93.3485 107.561 93.5221 107.471 93.6943L107.425 93.779C107.347 93.9263 107.267 94.0721 107.185 94.2165L107.106 94.3554C107.036 94.4902 106.96 94.6193 106.883 94.7471Z" fill="#F9FAFB"/>
<path d="M110.329 80.4014C110.149 85.6847 109.174 90.6069 106.632 94.7583H105.69H86.5403C88.5958 91.5486 90.0792 86.6944 90.2361 80.4014H107.981H110.329ZM107.661 83.8569C107.989 83.8569 108.296 83.6 108.347 83.2833C108.397 82.9666 108.172 82.7097 107.844 82.7097H92.1667C91.8375 82.7097 91.5319 82.9666 91.4806 83.2833C91.4306 83.6 91.6542 83.8569 91.9833 83.8569H107.661ZM107.132 87.1736C107.46 87.1736 107.767 86.918 107.818 86.6014C107.868 86.2847 107.643 86.0278 107.315 86.0278H92.1306C91.8014 86.0278 91.4958 86.2833 91.4444 86.6014C91.3944 86.918 91.6181 87.1736 91.9472 87.1736H107.132ZM105.525 90.4916C105.854 90.4916 106.16 90.2361 106.211 89.918C106.261 89.6014 106.037 89.3458 105.708 89.3458H91.3083C90.9792 89.3458 90.6736 89.6014 90.6222 89.918C90.5722 90.2347 90.7958 90.4916 91.125 90.4916H105.525Z" fill="#D0D5DD"/>
<path d="M106.633 94.9665H86.5403C86.4639 94.9665 86.3944 94.9248 86.3569 94.8581C86.3208 94.7915 86.3236 94.7095 86.3639 94.6456C88.5833 91.1804 89.8847 86.1193 90.0264 80.3956C90.0292 80.2831 90.1222 80.1929 90.2347 80.1929H110.329C110.386 80.1929 110.44 80.2165 110.479 80.2568C110.518 80.297 110.539 80.3526 110.537 80.4081C110.333 86.3748 109.114 91.104 106.81 94.8665C106.772 94.929 106.706 94.9665 106.633 94.9665ZM86.9153 94.5498H106.515C108.714 90.9123 109.892 86.3484 110.114 80.6095H90.4389C90.2736 86.1512 89.0278 91.0762 86.9153 94.5498ZM105.525 90.6998H91.1264C90.9056 90.6998 90.7028 90.6109 90.5694 90.454C90.4375 90.2998 90.3833 90.097 90.4167 89.8845C90.4833 89.4651 90.875 89.1373 91.3083 89.1373H105.708C105.929 89.1373 106.132 89.2276 106.265 89.3831C106.397 89.5373 106.451 89.7387 106.417 89.9512C106.35 90.372 105.958 90.6998 105.525 90.6998ZM91.3083 89.5554C91.0819 89.5554 90.8625 89.7373 90.8278 89.9526C90.8139 90.0429 90.8333 90.1248 90.8861 90.1859C90.9403 90.2498 91.0264 90.2859 91.125 90.2859H105.525C105.751 90.2859 105.971 90.104 106.006 89.8887C106.019 89.7998 106 89.7179 105.947 89.6568C105.893 89.5929 105.807 89.5568 105.707 89.5568H91.3083V89.5554ZM107.132 87.3818H91.9472C91.7264 87.3818 91.5236 87.2915 91.3903 87.1359C91.2583 86.9818 91.2042 86.7804 91.2375 86.5679C91.3042 86.1484 91.6958 85.8193 92.1292 85.8193H107.314C107.533 85.8193 107.736 85.9095 107.869 86.0651C108.001 86.2193 108.056 86.422 108.022 86.6331C107.956 87.054 107.565 87.3818 107.132 87.3818ZM92.1306 86.2373C91.9042 86.2373 91.6847 86.4193 91.65 86.6345C91.6361 86.7234 91.6556 86.8054 91.7083 86.8665C91.7625 86.9304 91.8486 86.9665 91.9486 86.9665H107.133C107.36 86.9665 107.579 86.7845 107.614 86.5693C107.628 86.4804 107.608 86.397 107.556 86.3373C107.501 86.2734 107.415 86.2373 107.317 86.2373H92.1306ZM107.661 84.0651H91.9833C91.7639 84.0651 91.5611 83.9762 91.4278 83.8193C91.2958 83.6651 91.2417 83.4623 91.275 83.2512C91.3417 82.8318 91.7333 82.5026 92.1667 82.5026H107.844C108.064 82.5026 108.267 82.5929 108.4 82.7484C108.532 82.904 108.586 83.1054 108.553 83.3165C108.485 83.7359 108.094 84.0651 107.661 84.0651ZM92.1667 82.9179C91.9403 82.9179 91.7208 83.0998 91.6861 83.3151C91.6722 83.404 91.6931 83.4873 91.7444 83.547C91.7986 83.6109 91.8847 83.647 91.9833 83.647H107.661C107.887 83.647 108.107 83.4651 108.142 83.2498C108.156 83.1609 108.135 83.0776 108.083 83.0179C108.028 82.954 107.943 82.9179 107.844 82.9179H92.1667Z" fill="#F9FAFB"/>
<path d="M103.843 98.1611L105.996 101.096H89.9056L87.7528 98.1611H103.843Z" fill="#D0D5DD"/>
<path d="M105.996 101.304H89.9056C89.8389 101.304 89.7764 101.272 89.7375 101.219L87.5847 98.2846C87.5389 98.2207 87.5319 98.1374 87.5667 98.0665C87.6014 97.9971 87.6736 97.9526 87.7528 97.9526H103.843C103.91 97.9526 103.972 97.9846 104.011 98.0374L106.164 100.972C106.21 101.036 106.217 101.119 106.182 101.19C106.146 101.26 106.074 101.304 105.996 101.304ZM90.0111 100.887H105.585L103.737 98.3693H88.1639L90.0111 100.887Z" fill="#F9FAFB"/>
<path d="M93.2486 68.8545C96.1236 68.8545 98.0944 71.1003 97.6528 73.8739H109.022L107.981 80.4017H90.2361C90.0792 86.6948 88.5958 91.5489 86.5403 94.7587H105.692L105.35 96.9017C105.239 97.5975 104.565 98.16 103.844 98.16H87.7528H70.5208L71.6569 91.0364C74.5306 91.0364 77.2194 88.7906 77.6625 86.017C78.1042 83.2434 76.1333 80.9975 73.2583 80.9975L74.3944 73.8739H87.2431C87.6847 71.1003 90.375 68.8545 93.2486 68.8545Z" fill="#E4E7EC"/>
<path d="M103.843 98.3697H70.5208C70.4597 98.3697 70.4014 98.3433 70.3625 98.2961C70.3236 98.2502 70.3056 98.1877 70.3153 98.128L71.4514 91.0044C71.4681 90.903 71.5542 90.8294 71.6569 90.8294C74.4292 90.8294 77.0306 88.6558 77.457 85.985C77.657 84.728 77.3472 83.5419 76.5833 82.6461C75.7917 81.7183 74.6111 81.2072 73.2597 81.2072C73.1986 81.2072 73.1403 81.1808 73.1014 81.1336C73.0625 81.0877 73.0444 81.0252 73.0542 80.9655L74.1903 73.8419C74.2069 73.7405 74.2931 73.6669 74.3958 73.6669H87.0708C87.6111 70.8836 90.3444 68.6475 93.2514 68.6475C94.7278 68.6475 96.0208 69.21 96.8931 70.2336C97.6889 71.1655 98.0403 72.378 97.8945 73.6683H109.025C109.086 73.6683 109.144 73.6947 109.183 73.7419C109.222 73.7877 109.24 73.8502 109.231 73.91L108.189 80.4377C108.172 80.5391 108.086 80.6127 107.983 80.6127H90.4417C90.2764 86.1544 89.0306 91.0794 86.9181 94.553H105.693C105.754 94.553 105.813 94.5794 105.851 94.6266C105.89 94.6725 105.908 94.735 105.899 94.7947L105.557 96.9377C105.428 97.7252 104.661 98.3697 103.843 98.3697ZM70.7639 97.953H103.843C104.465 97.953 105.047 97.4669 105.143 96.8697L105.446 94.9669H86.5403C86.4639 94.9669 86.3945 94.9252 86.357 94.8586C86.3208 94.7919 86.3236 94.71 86.3639 94.6461C88.5833 91.1808 89.8847 86.1197 90.0264 80.3961C90.0292 80.2836 90.1222 80.1933 90.2347 80.1933H107.801L108.776 74.0822H97.6514C97.5903 74.0822 97.532 74.0558 97.4931 74.0086C97.4542 73.9627 97.4361 73.9002 97.4458 73.8405C97.6458 72.5822 97.3361 71.3975 96.5722 70.5016C95.7806 69.5738 94.6 69.0627 93.2472 69.0627C90.475 69.0627 87.8736 71.2363 87.4472 73.9072C87.4306 74.0086 87.3445 74.0822 87.2417 74.0822H74.5708L73.5 80.7947C74.8736 80.853 76.0736 81.41 76.8972 82.3752C77.7417 83.3655 78.0861 84.6711 77.8653 86.0502C77.4181 88.8572 74.7333 91.1516 71.832 91.2433L70.7639 97.953Z" fill="#F9FAFB"/>
<path d="M107.465 99.9945C107.481 99.9431 107.493 99.8903 107.501 99.8375L107.843 97.6945L105.69 94.7598L105.349 96.9028C105.34 96.9556 105.328 97.0084 105.312 97.0598C105.308 97.075 105.303 97.0889 105.299 97.1042C105.286 97.1431 105.271 97.182 105.256 97.2195C105.25 97.232 105.244 97.2459 105.239 97.2584C105.217 97.307 105.192 97.3542 105.164 97.4C105.156 97.4125 105.147 97.425 105.139 97.4375C105.122 97.4639 105.104 97.4903 105.086 97.5153C105.074 97.532 105.06 97.5486 105.047 97.5653C105.033 97.5834 105.018 97.6014 105.003 97.6195C104.988 97.6361 104.971 97.6528 104.956 97.6695C104.942 97.6848 104.928 97.6987 104.914 97.7125C104.897 97.7292 104.878 97.7459 104.86 97.7612C104.846 97.7737 104.831 97.7875 104.817 97.7987C104.799 97.8139 104.779 97.8278 104.76 97.8417C104.743 97.8542 104.728 97.8667 104.711 97.8778C104.694 97.8903 104.676 97.9014 104.658 97.9125C104.637 97.925 104.618 97.9389 104.597 97.95C104.582 97.9584 104.567 97.9667 104.551 97.975C104.525 97.9889 104.497 98.0028 104.471 98.0167C104.457 98.0236 104.442 98.0292 104.428 98.0361C104.389 98.0528 104.35 98.0681 104.31 98.0806C104.293 98.0862 104.276 98.0917 104.26 98.0973C104.246 98.1014 104.231 98.1056 104.217 98.1098C104.19 98.1167 104.164 98.1223 104.139 98.1278C104.124 98.1306 104.11 98.1334 104.094 98.1362C104.067 98.1417 104.039 98.1445 104.01 98.1486C103.997 98.15 103.983 98.1528 103.971 98.1528C103.929 98.157 103.887 98.1584 103.846 98.1584L105.999 101.093C106.04 101.093 106.082 101.09 106.124 101.088C106.136 101.086 106.15 101.085 106.162 101.083C106.19 101.081 106.219 101.076 106.247 101.071C106.262 101.068 106.276 101.065 106.292 101.063C106.318 101.057 106.344 101.051 106.369 101.044C106.383 101.04 106.399 101.036 106.412 101.032C106.421 101.029 106.428 101.028 106.436 101.025C106.446 101.022 106.454 101.018 106.464 101.015C106.504 101.001 106.543 100.988 106.582 100.971C106.59 100.967 106.6 100.964 106.608 100.961C106.614 100.958 106.619 100.956 106.625 100.953C106.653 100.94 106.679 100.926 106.706 100.911C106.718 100.904 106.731 100.9 106.742 100.893C106.746 100.892 106.749 100.889 106.751 100.886C106.772 100.874 106.792 100.861 106.812 100.849C106.828 100.839 106.843 100.831 106.857 100.821C106.86 100.819 106.862 100.817 106.865 100.814C106.882 100.803 106.897 100.79 106.914 100.778C106.929 100.767 106.946 100.756 106.961 100.743C106.964 100.74 106.968 100.738 106.971 100.735C106.986 100.722 107 100.71 107.014 100.697C107.028 100.685 107.043 100.672 107.057 100.66C107.061 100.656 107.064 100.653 107.068 100.649C107.082 100.635 107.096 100.619 107.11 100.606C107.122 100.593 107.135 100.581 107.146 100.568C107.15 100.564 107.153 100.56 107.157 100.556C107.172 100.538 107.186 100.519 107.201 100.501C107.211 100.489 107.222 100.476 107.232 100.464C107.235 100.46 107.237 100.456 107.24 100.451C107.258 100.426 107.276 100.4 107.293 100.374C107.3 100.363 107.308 100.353 107.315 100.342C107.317 100.34 107.317 100.338 107.318 100.336C107.346 100.29 107.371 100.243 107.393 100.193C107.394 100.189 107.397 100.185 107.4 100.181C107.404 100.172 107.406 100.163 107.41 100.154C107.426 100.117 107.44 100.078 107.453 100.039C107.456 100.024 107.461 100.01 107.465 99.9945Z" fill="#D0D5DD"/>
<path d="M105.996 101.304C105.929 101.304 105.867 101.272 105.828 101.22L103.675 98.285C103.629 98.2211 103.622 98.1377 103.657 98.0669C103.692 97.9975 103.764 97.953 103.843 97.953C103.879 97.953 103.914 97.9516 103.95 97.9475L103.967 97.9461L103.982 97.9447C104.007 97.9419 104.031 97.9391 104.054 97.935L104.093 97.928C104.115 97.9239 104.138 97.9183 104.161 97.9114L104.242 97.8864C104.276 97.8752 104.31 97.8614 104.343 97.8475L104.357 97.8419L104.381 97.8322C104.404 97.8211 104.428 97.8086 104.451 97.7961L104.492 97.7752C104.506 97.7669 104.519 97.7586 104.532 97.7502C104.532 97.7502 104.543 97.7433 104.544 97.7419L104.561 97.7322C104.571 97.7252 104.582 97.7197 104.592 97.7127C104.6 97.7072 104.608 97.7002 104.617 97.6933L104.633 97.6808C104.657 97.6627 104.669 97.653 104.682 97.6433L104.719 97.61C104.74 97.5919 104.754 97.5794 104.767 97.5669C104.776 97.5572 104.785 97.5489 104.793 97.5391L104.803 97.5294C104.818 97.5141 104.832 97.5002 104.844 97.485C104.856 97.4725 104.865 97.4586 104.876 97.4461L104.892 97.428C104.9 97.4183 104.908 97.4072 104.917 97.3961C104.933 97.3739 104.947 97.3516 104.962 97.328L104.985 97.2961C105.008 97.2572 105.031 97.2155 105.049 97.1739L105.057 97.1558L105.063 97.1419C105.076 97.1086 105.089 97.0752 105.1 97.0419L105.111 97.0044C105.125 96.9544 105.136 96.9127 105.142 96.8725L105.483 94.7294C105.497 94.6461 105.558 94.5794 105.64 94.56C105.722 94.5405 105.807 94.5711 105.857 94.6391L108.01 97.5739C108.043 97.6183 108.056 97.6752 108.047 97.7294L107.706 99.8725C107.696 99.9294 107.683 99.9877 107.664 100.054C107.658 100.071 107.654 100.086 107.649 100.103C107.633 100.15 107.617 100.193 107.599 100.238C107.596 100.247 107.592 100.259 107.586 100.27C107.583 100.275 107.578 100.286 107.575 100.291C107.553 100.338 107.526 100.391 107.496 100.439C107.492 100.446 107.489 100.453 107.485 100.459C107.483 100.461 107.476 100.471 107.469 100.481C107.444 100.518 107.425 100.547 107.404 100.577C107.403 100.579 107.399 100.585 107.393 100.592C107.386 100.602 107.376 100.613 107.368 100.622L107.358 100.634C107.337 100.66 107.324 100.678 107.308 100.695C107.307 100.697 107.303 100.703 107.297 100.709C107.287 100.72 107.278 100.729 107.267 100.741L107.256 100.752C107.236 100.772 107.222 100.786 107.208 100.8L107.196 100.813C107.185 100.824 107.172 100.834 107.161 100.843L107.149 100.854C107.125 100.875 107.112 100.886 107.099 100.897L107.088 100.907C107.076 100.916 107.064 100.925 107.05 100.935L107.022 100.956C107.008 100.967 106.994 100.977 106.981 100.986C106.958 101.002 106.946 101.01 106.933 101.017L106.907 101.034C106.889 101.046 106.869 101.057 106.851 101.068C106.851 101.068 106.84 101.075 106.839 101.075C106.829 101.081 106.818 101.086 106.807 101.092C106.768 101.113 106.737 101.128 106.707 101.143C106.701 101.146 106.694 101.15 106.686 101.153C106.678 101.157 106.667 101.161 106.657 101.164C106.612 101.184 106.568 101.2 106.524 101.216C106.514 101.22 106.503 101.224 106.493 101.227C106.489 101.228 106.474 101.232 106.469 101.234C106.453 101.239 106.439 101.242 106.424 101.246C106.388 101.256 106.358 101.263 106.328 101.27C106.311 101.274 106.293 101.277 106.276 101.279C106.244 101.285 106.213 101.289 106.181 101.293L106.136 101.299C106.092 101.302 106.043 101.304 105.996 101.304ZM104.221 98.3239L106.097 100.882C106.099 100.882 106.1 100.882 106.101 100.882L106.119 100.879C106.121 100.879 106.135 100.878 106.136 100.878C106.16 100.875 106.185 100.872 106.208 100.868L106.247 100.861C106.269 100.857 106.293 100.852 106.315 100.845L106.353 100.835C106.356 100.834 106.369 100.831 106.371 100.829C106.379 100.827 106.387 100.822 106.397 100.82C106.431 100.809 106.465 100.795 106.499 100.781C106.503 100.779 106.519 100.772 106.524 100.771C106.528 100.77 106.533 100.766 106.538 100.764C106.56 100.753 106.583 100.741 106.607 100.728L106.647 100.706C106.66 100.699 106.674 100.691 106.686 100.681L106.739 100.647C106.756 100.636 106.764 100.629 106.772 100.622L106.828 100.581C106.846 100.566 106.854 100.559 106.862 100.55L106.922 100.496C106.931 100.488 106.94 100.477 106.95 100.467L106.997 100.417C107.01 100.403 107.019 100.391 107.029 100.378L107.064 100.336C107.064 100.336 107.068 100.329 107.072 100.324C107.086 100.304 107.101 100.282 107.115 100.259L107.129 100.238C107.129 100.236 107.132 100.235 107.133 100.232C107.135 100.231 107.135 100.229 107.136 100.228C107.161 100.186 107.182 100.146 107.201 100.104C107.203 100.102 107.206 100.097 107.207 100.093C107.21 100.086 107.214 100.075 107.215 100.072C107.229 100.041 107.242 100.007 107.253 99.9739L107.265 99.9363C107.281 99.8863 107.29 99.8433 107.296 99.8044L107.624 97.7475L105.818 95.285L105.556 96.935C105.547 96.9905 105.533 97.0502 105.514 97.1169L105.5 97.1586C105.482 97.2127 105.465 97.2572 105.447 97.3002C105.439 97.3211 105.433 97.3336 105.428 97.3447C105.403 97.4002 105.374 97.4544 105.342 97.5058C105.335 97.5169 105.328 97.528 105.321 97.5391C105.294 97.5794 105.275 97.61 105.253 97.6377C105.242 97.653 105.229 97.6683 105.218 97.6822L105.21 97.6933C105.19 97.7183 105.175 97.7364 105.16 97.7544C105.142 97.7752 105.124 97.7933 105.106 97.8127C105.085 97.835 105.072 97.8488 105.058 97.8613C105.042 97.878 105.024 97.8933 105.006 97.9086L104.986 97.9252C104.974 97.9364 104.961 97.9475 104.949 97.9572C104.931 97.9725 104.912 97.985 104.894 97.9989L104.871 98.0169C104.857 98.0266 104.844 98.0377 104.831 98.0475C104.815 98.0586 104.8 98.0683 104.785 98.078L104.771 98.0863C104.742 98.1058 104.722 98.1183 104.703 98.1294C104.69 98.1364 104.678 98.1433 104.665 98.1502L104.651 98.1572C104.621 98.1738 104.59 98.1891 104.56 98.203C104.547 98.2086 104.535 98.2141 104.521 98.2197C104.467 98.2433 104.422 98.26 104.376 98.2752L104.364 98.2794C104.35 98.285 104.335 98.2891 104.321 98.2933C104.306 98.2975 104.289 98.3016 104.274 98.3058C104.253 98.3155 104.238 98.3197 104.221 98.3239Z" fill="#F9FAFB"/>
<path d="M50.3958 70.3154H40.3319H31.75L33.9028 73.2502H42.4847H52.5486L50.3958 70.3154Z" fill="#D0D5DD"/>
<path d="M52.5486 73.4583H33.9028C33.8361 73.4583 33.7736 73.4264 33.7347 73.3736L31.5819 70.4389C31.5361 70.375 31.5292 70.2917 31.5639 70.2208C31.5986 70.1514 31.6708 70.1069 31.75 70.1069H50.3958C50.4625 70.1069 50.525 70.1389 50.5639 70.1917L52.7167 73.1264C52.7625 73.1903 52.7694 73.2736 52.7347 73.3444C52.6986 73.4139 52.6264 73.4583 52.5486 73.4583ZM34.0083 73.0417H52.1375L50.2903 70.5236H32.1611L34.0083 73.0417Z" fill="#F9FAFB"/>
<path d="M53.2694 71.8321C53.2833 71.803 53.2972 71.7738 53.3111 71.7446C53.3222 71.721 53.3333 71.6974 53.3444 71.6738C53.4403 71.4641 53.5319 71.2516 53.6208 71.0377C53.6236 71.0307 53.6278 71.0238 53.6306 71.0155C53.7306 70.7752 53.8264 70.5307 53.9194 70.2863C53.95 70.2071 53.9778 70.1266 54.0069 70.0474C54.0681 69.8794 54.1292 69.7113 54.1875 69.5419C54.2208 69.446 54.2514 69.3502 54.2833 69.2544C54.3347 69.0974 54.3861 68.9405 54.4347 68.7821C54.4667 68.6807 54.4972 68.5794 54.5278 68.478C54.575 68.321 54.6208 68.1627 54.6653 68.0044C54.6931 67.903 54.7222 67.8016 54.75 67.7002C54.7944 67.5335 54.8375 67.3669 54.8792 67.1988C54.9028 67.1044 54.9278 67.0099 54.95 66.9155C54.9972 66.7182 55.0431 66.5182 55.0875 66.3182C55.1028 66.253 55.1181 66.1877 55.1319 66.121C55.1889 65.8544 55.2431 65.5863 55.2958 65.3169C55.3083 65.2516 55.3194 65.1835 55.3319 65.1182C55.3694 64.9127 55.4069 64.7071 55.4417 64.5002C55.4583 64.4002 55.4736 64.3002 55.4903 64.2002C55.5181 64.0252 55.5458 63.8488 55.5722 63.6724C55.5889 63.5627 55.6042 63.453 55.6194 63.3432C55.6431 63.1724 55.6667 63.0016 55.6889 62.8294C55.7028 62.7182 55.7181 62.6057 55.7306 62.4946C55.7514 62.3196 55.7722 62.1432 55.7917 61.9669C55.8042 61.8599 55.8153 61.7516 55.8264 61.6446C55.8458 61.4516 55.8653 61.2585 55.8833 61.0641C55.8917 60.9724 55.9014 60.8807 55.9097 60.7891C55.9347 60.503 55.9583 60.2169 55.9792 59.9294L53.8264 56.9946C53.8056 57.2821 53.7819 57.5696 53.7569 57.8544C53.7486 57.946 53.7403 58.0377 53.7306 58.1294C53.7125 58.3238 53.6944 58.5169 53.6736 58.7099C53.6625 58.8182 53.65 58.9252 53.6389 59.0321C53.6194 59.2085 53.5986 59.3849 53.5778 59.5599C53.5639 59.6724 53.55 59.7835 53.5361 59.8946C53.5139 60.0669 53.4903 60.2377 53.4667 60.4085C53.4514 60.5182 53.4361 60.628 53.4194 60.7377C53.3931 60.9141 53.3653 61.0905 53.3375 61.2655C53.3208 61.3655 53.3056 61.4669 53.2889 61.5655C53.2542 61.7724 53.2167 61.978 53.1792 62.1835C53.1667 62.2502 53.1556 62.3169 53.1431 62.3821C53.0917 62.6516 53.0375 62.9196 52.9792 63.1863C52.9653 63.253 52.9486 63.3182 52.9347 63.3835C52.8903 63.5835 52.8458 63.7821 52.7972 63.9807C52.7736 64.0766 52.75 64.1696 52.7264 64.2655C52.6847 64.4335 52.6417 64.6002 52.5972 64.7669C52.5694 64.8696 52.5417 64.971 52.5125 65.0724C52.4681 65.2307 52.4222 65.3891 52.3764 65.546C52.3458 65.6474 52.3153 65.7502 52.2833 65.8502C52.2347 66.0085 52.1833 66.1655 52.1319 66.3224C52.1 66.4182 52.0681 66.5155 52.0361 66.6099C51.9778 66.7794 51.9167 66.9474 51.8556 67.1155C51.8264 67.1946 51.7986 67.2752 51.7681 67.3544C51.675 67.6002 51.5792 67.8432 51.4792 68.0835C51.4764 68.0919 51.4722 68.0988 51.4694 68.1071C51.3708 68.3446 51.2667 68.5794 51.1597 68.8127C51.1458 68.8419 51.1319 68.871 51.1181 68.9016C51.0125 69.128 50.9056 69.353 50.7931 69.5738C50.7833 69.5932 50.7736 69.6113 50.7639 69.6294C50.6458 69.8613 50.5236 70.0919 50.3972 70.3182L52.55 73.253C52.6764 73.0252 52.7986 72.796 52.9167 72.5627C52.9264 72.5446 52.9361 72.5252 52.9458 72.5071C53.0556 72.2835 53.1639 72.0585 53.2694 71.8321Z" fill="#E4E7EC"/>
<path d="M52.5486 73.4584C52.4819 73.4584 52.4194 73.4264 52.3806 73.3737L50.2278 70.4389C50.1792 70.3737 50.175 70.2848 50.2139 70.2139C50.3333 70.0001 50.4514 69.7778 50.5764 69.532L50.6056 69.4764C50.7125 69.2653 50.8167 69.0487 50.9278 68.8098L50.9681 68.7223C51.0736 68.4917 51.1778 68.2556 51.275 68.0223C51.275 68.0209 51.2819 68.007 51.2819 68.0056C51.3764 67.7778 51.4708 67.5417 51.5722 67.2765C51.5903 67.2292 51.6069 67.182 51.625 67.1348L51.6597 67.0403C51.7208 66.8737 51.7819 66.707 51.8389 66.5389C51.8639 66.4667 51.8889 66.3931 51.9125 66.3195L51.9347 66.2528C51.9861 66.0973 52.0361 65.9417 52.0847 65.7848C52.1153 65.6848 52.1472 65.5834 52.1764 65.482C52.2236 65.3264 52.2681 65.1695 52.3125 65.0126L52.3208 64.9834C52.3458 64.8931 52.3722 64.8014 52.3958 64.7098C52.4403 64.5445 52.4819 64.3792 52.525 64.2126L52.5472 64.1223C52.5639 64.0584 52.5792 63.9945 52.5958 63.9292C52.6431 63.732 52.6875 63.5348 52.7319 63.3362L52.7528 63.2459C52.7611 63.2112 52.7694 63.1751 52.7764 63.1403C52.8319 62.8806 52.8875 62.6126 52.9389 62.3403C52.9458 62.3042 52.9514 62.2695 52.9583 62.2334L52.975 62.1431C53.0125 61.9389 53.05 61.7348 53.0847 61.5292C53.0972 61.4584 53.1083 61.3876 53.1194 61.3181L53.1333 61.2306C53.1611 61.0556 53.1889 60.8806 53.2153 60.7056C53.2319 60.5973 53.2472 60.4876 53.2625 60.3778C53.2861 60.2084 53.3097 60.0376 53.3319 59.8667C53.3458 59.7556 53.3597 59.6445 53.3736 59.5334C53.3944 59.3584 53.4153 59.1834 53.4347 59.0084L53.4403 58.9612C53.45 58.8695 53.4611 58.7792 53.4694 58.6876C53.4889 58.4959 53.5083 58.3028 53.5264 58.1098L53.5528 57.8362C53.5778 57.5515 53.6014 57.2667 53.6222 56.9792C53.6292 56.8917 53.6889 56.8181 53.7722 56.7945C53.8556 56.7709 53.9458 56.8014 53.9972 56.8709L56.15 59.8056C56.1792 59.8459 56.1931 59.8945 56.1903 59.9445C56.1694 60.2334 56.1458 60.5209 56.1208 60.807L56.0944 61.0834C56.0764 61.2778 56.0583 61.4723 56.0375 61.6653C56.0278 61.757 56.0181 61.8487 56.0069 61.9403L56.0014 61.9889C55.9819 62.1667 55.9611 62.3431 55.9403 62.5195C55.9264 62.632 55.9125 62.7445 55.8986 62.8556C55.8764 63.0278 55.8528 63.2001 55.8292 63.3709C55.8139 63.4806 55.7986 63.5917 55.7819 63.7014C55.7556 63.8792 55.7278 64.0556 55.6986 64.232L55.6819 64.3376C55.6708 64.4028 55.6611 64.4681 55.65 64.5334C55.6153 64.7417 55.5778 64.9487 55.5389 65.1542L55.5236 65.2417C55.5167 65.2792 55.5097 65.3167 55.5028 65.3542C55.4514 65.6209 55.3958 65.8931 55.3389 66.1626C55.3306 66.2014 55.3208 66.2403 55.3125 66.2792L55.2944 66.3612C55.25 66.5626 55.2042 66.7626 55.1569 66.9612C55.1417 67.0278 55.125 67.0931 55.1083 67.1584L55.0861 67.2473C55.0444 67.4167 55.0014 67.5848 54.9556 67.7514C54.9306 67.8445 54.9042 67.9376 54.8792 68.0306L54.8708 68.0584C54.8264 68.2181 54.7806 68.3778 54.7333 68.5362C54.7028 68.6389 54.6722 68.7417 54.6403 68.8431C54.5903 69.0028 54.5389 69.1612 54.4875 69.3181L54.4708 69.3681C54.4444 69.4487 54.4181 69.5278 54.3903 69.6084C54.3319 69.7792 54.2694 69.9487 54.2083 70.1181L54.1764 70.207C54.1583 70.2584 54.1403 70.3084 54.1208 70.3584C54.0194 70.6251 53.925 70.8653 53.8292 71.0945C53.8292 71.0959 53.8236 71.1084 53.8222 71.1098C53.7264 71.3403 53.6319 71.5556 53.5403 71.7598L53.4653 71.9195C53.3528 72.1626 53.2458 72.3848 53.1375 72.5987L53.1083 72.6556C52.9806 72.907 52.8597 73.1348 52.7375 73.3528C52.7028 73.4153 52.6389 73.4542 52.5681 73.4598C52.5569 73.4584 52.5528 73.4584 52.5486 73.4584ZM50.6417 70.3001L52.5222 72.8639C52.5903 72.7376 52.6583 72.6056 52.7292 72.4667L52.7569 72.4126C52.8639 72.2028 52.9681 71.9848 53.0792 71.7459L53.1528 71.5889C53.2431 71.3889 53.3361 71.1778 53.4278 70.9584C53.4278 70.957 53.4333 70.9445 53.4347 70.9431C53.5306 70.7126 53.625 70.4751 53.7236 70.2139C53.7417 70.1653 53.7597 70.1167 53.7764 70.0681L53.8097 69.9764C53.8708 69.8098 53.9319 69.6431 53.9889 69.4751C54.0153 69.3973 54.0417 69.3181 54.0681 69.2403L54.0847 69.1889C54.1361 69.0334 54.1875 68.8778 54.2361 68.7209C54.2681 68.6209 54.2986 68.5195 54.3278 68.4181C54.375 68.2626 54.4194 68.1056 54.4639 67.9473L54.4722 67.9195C54.4972 67.8278 54.5236 67.7362 54.5486 67.6445C54.5931 67.4792 54.6347 67.3126 54.6764 67.1459L54.6986 67.057C54.7153 66.9931 54.7306 66.9292 54.7472 66.8639C54.7944 66.6681 54.8389 66.4695 54.8833 66.2709L54.9028 66.1862C54.9111 66.1487 54.9194 66.1126 54.9278 66.0751C54.9847 65.8084 55.0403 65.5389 55.0903 65.2764L55.1264 65.0778C55.1639 64.8737 55.2014 64.6695 55.2361 64.464C55.2472 64.4001 55.2569 64.3362 55.2681 64.2709L55.2847 64.1639C55.3125 63.989 55.3403 63.814 55.3667 63.639C55.3833 63.5306 55.3986 63.4209 55.4139 63.3112C55.4375 63.1417 55.4611 62.9709 55.4833 62.8001C55.4972 62.6889 55.5111 62.5778 55.525 62.4667C55.5458 62.2917 55.5667 62.1167 55.5861 61.9417L55.5917 61.8931C55.6014 61.8028 55.6125 61.7112 55.6208 61.6209C55.6403 61.4292 55.6597 61.2362 55.6778 61.0431L55.7042 60.7695C55.7264 60.5098 55.7486 60.2501 55.7681 59.989L53.9931 57.5681C53.9847 57.6695 53.9764 57.7695 53.9667 57.8709L53.9403 58.1473C53.9222 58.3417 53.9042 58.5362 53.8833 58.7292C53.8736 58.8223 53.8639 58.9139 53.8528 59.0056L53.8472 59.0528C53.8278 59.2292 53.8069 59.407 53.7861 59.582C53.7722 59.6945 53.7583 59.807 53.7431 59.9181C53.7208 60.0903 53.6972 60.2626 53.6736 60.4334C53.6583 60.5431 53.6431 60.6542 53.6264 60.7639C53.6 60.9417 53.5722 61.1181 53.5431 61.2945L53.5292 61.3806C53.5181 61.4528 53.5056 61.5251 53.4944 61.5959C53.4597 61.8042 53.4222 62.0112 53.3833 62.2167L53.3681 62.3042C53.3611 62.3417 53.3542 62.3792 53.3472 62.4167C53.2944 62.6903 53.2389 62.9626 53.1833 63.2251C53.175 63.2626 53.1667 63.3001 53.1583 63.3362L53.1389 63.4223C53.0944 63.6237 53.0486 63.8237 53.0014 64.0223C52.9861 64.0876 52.9694 64.1542 52.9528 64.2195L52.9306 64.3084C52.8889 64.4778 52.8458 64.6459 52.8 64.8126C52.775 64.9056 52.75 64.9973 52.7236 65.0903L52.7153 65.1195C52.6708 65.2792 52.625 65.4389 52.5778 65.5959C52.5472 65.6987 52.5167 65.8014 52.4847 65.9028C52.4347 66.0626 52.3833 66.2209 52.3319 66.3778L52.3097 66.4445C52.2847 66.5195 52.2597 66.5945 52.2347 66.6681C52.1764 66.8389 52.1139 67.0084 52.0528 67.1778L52.0194 67.2695C52.0014 67.3195 51.9833 67.3695 51.9653 67.4181C51.8625 67.6889 51.7667 67.9292 51.6736 68.1542C51.6736 68.1556 51.6681 68.1681 51.6667 68.1695C51.5639 68.4153 51.4583 68.6542 51.3514 68.8889L51.3097 68.9778C51.1972 69.2195 51.0903 69.4417 50.9819 69.657L50.9528 69.7139C50.8431 69.9264 50.7431 70.1167 50.6417 70.3001Z" fill="#F9FAFB"/>
<path d="M116.992 66.6934H110.167H106.115L108.268 69.6295H112.319H119.144L116.992 66.6934Z" fill="#D0D5DD"/>
<path d="M119.143 69.8377H108.268C108.201 69.8377 108.139 69.8058 108.1 69.753L105.947 66.8183C105.901 66.7544 105.894 66.671 105.929 66.6002C105.964 66.5308 106.036 66.4863 106.115 66.4863H116.992C117.058 66.4863 117.121 66.5183 117.16 66.571L119.312 69.5058C119.358 69.5697 119.365 69.653 119.331 69.7238C119.294 69.7933 119.222 69.8377 119.143 69.8377ZM108.374 69.421H118.732L116.885 66.903H106.525L108.374 69.421Z" fill="#F9FAFB"/>
<path d="M106.633 94.7583H105.69H86.5403L88.6931 97.693H107.843H108.785L106.633 94.7583Z" fill="#D0D5DD"/>
<path d="M108.785 97.9012H88.6917C88.625 97.9012 88.5625 97.8693 88.5236 97.8165L86.3708 94.8818C86.325 94.8179 86.3181 94.7345 86.3528 94.6637C86.3875 94.5943 86.4597 94.5498 86.5389 94.5498H106.632C106.699 94.5498 106.761 94.5817 106.8 94.6345L108.953 97.5692C108.999 97.6331 109.006 97.7165 108.971 97.7873C108.936 97.8581 108.864 97.9012 108.785 97.9012ZM88.7972 97.4845H108.374L106.528 94.9665H86.9514L88.7972 97.4845Z" fill="#F9FAFB"/>
<path d="M107.843 82.7114C108.171 82.7114 108.396 82.9684 108.346 83.285C108.296 83.6017 107.988 83.8586 107.66 83.8586H91.9833C91.6542 83.8586 91.4306 83.6017 91.4806 83.285C91.5306 82.9684 91.8375 82.7114 92.1667 82.7114H107.843Z" fill="#98A2B3"/>
<path d="M107.661 84.0654H91.9833C91.7639 84.0654 91.5611 83.9765 91.4278 83.8196C91.2958 83.6654 91.2417 83.4626 91.275 83.2515C91.3417 82.8321 91.7333 82.5029 92.1667 82.5029H107.844C108.064 82.5029 108.267 82.5932 108.4 82.7488C108.532 82.9043 108.586 83.1057 108.553 83.3168C108.485 83.7363 108.094 84.0654 107.661 84.0654ZM92.1667 82.9196C91.9403 82.9196 91.7208 83.1015 91.6861 83.3168C91.6722 83.4057 91.6931 83.489 91.7444 83.5488C91.7986 83.6126 91.8847 83.6488 91.9833 83.6488H107.661C107.887 83.6488 108.107 83.4668 108.142 83.2515C108.156 83.1626 108.135 83.0793 108.083 83.0196C108.029 82.9557 107.943 82.9196 107.844 82.9196H92.1667Z" fill="#98A2B3"/>
<path d="M107.314 86.0293C107.642 86.0293 107.868 86.2849 107.817 86.6029C107.767 86.9196 107.458 87.1751 107.131 87.1751H91.9472C91.6181 87.1751 91.3931 86.9196 91.4445 86.6029C91.4945 86.2862 91.8014 86.0293 92.1306 86.0293H107.314Z" fill="#98A2B3"/>
<path d="M107.132 87.3818H91.9472C91.7264 87.3818 91.5236 87.2916 91.3903 87.136C91.2583 86.9818 91.2042 86.7804 91.2375 86.5679C91.3042 86.1485 91.6958 85.8193 92.1292 85.8193H107.314C107.533 85.8193 107.736 85.9096 107.869 86.0652C108.001 86.2193 108.056 86.4221 108.022 86.6332C107.956 87.0541 107.565 87.3818 107.132 87.3818ZM92.1306 86.2374C91.9042 86.2374 91.6847 86.4193 91.65 86.6346C91.6361 86.7235 91.6556 86.8054 91.7083 86.8666C91.7625 86.9304 91.8486 86.9666 91.9486 86.9666H107.133C107.36 86.9666 107.579 86.7846 107.614 86.5693C107.628 86.4804 107.608 86.3971 107.556 86.3374C107.501 86.2735 107.415 86.2374 107.317 86.2374H92.1306Z" fill="#98A2B3"/>
<path d="M105.708 89.3477C106.038 89.3477 106.262 89.6032 106.211 89.9199C106.161 90.2365 105.854 90.4935 105.525 90.4935H91.1264C90.7972 90.4935 90.5722 90.2379 90.6236 89.9199C90.6736 89.6032 90.9806 89.3477 91.3097 89.3477H105.708Z" fill="#98A2B3"/>
<path d="M105.525 90.7002H91.1264C90.9056 90.7002 90.7028 90.6113 90.5694 90.4544C90.4375 90.3002 90.3833 90.0974 90.4167 89.8849C90.4833 89.4655 90.875 89.1377 91.3083 89.1377H105.708C105.929 89.1377 106.132 89.2266 106.265 89.3835C106.397 89.5377 106.451 89.7391 106.418 89.9516C106.35 90.3724 105.958 90.7002 105.525 90.7002ZM91.3083 89.5558C91.0819 89.5558 90.8625 89.7377 90.8278 89.953C90.8139 90.0433 90.8333 90.1252 90.8861 90.1863C90.9403 90.2502 91.0264 90.2863 91.125 90.2863H105.525C105.751 90.2863 105.971 90.1044 106.006 89.8891C106.019 89.8002 106 89.7183 105.947 89.6571C105.893 89.5933 105.807 89.5571 105.707 89.5571H91.3083V89.5558Z" fill="#98A2B3"/>
<path d="M115.743 63.2393C116.031 63.2393 116.229 63.4643 116.185 63.742C116.14 64.0212 115.871 64.2462 115.583 64.2462H108.282C107.994 64.2462 107.796 64.0212 107.84 63.742C107.885 63.4643 108.154 63.2393 108.442 63.2393H115.743Z" fill="#D0D5DD"/>
<path d="M115.582 64.4543H108.281C108.081 64.4543 107.896 64.3724 107.774 64.2293C107.653 64.0876 107.603 63.9029 107.633 63.7085C107.694 63.3279 108.049 63.0293 108.44 63.0293H115.742C115.942 63.0293 116.128 63.1112 116.249 63.2543C116.369 63.396 116.419 63.5807 116.389 63.7737C116.329 64.1557 115.974 64.4543 115.582 64.4543ZM108.442 63.4474C108.256 63.4474 108.074 63.5974 108.046 63.7751C108.035 63.8474 108.05 63.9112 108.092 63.9599C108.135 64.0099 108.203 64.0376 108.282 64.0376H115.583C115.769 64.0376 115.951 63.8876 115.979 63.7085C115.99 63.6362 115.975 63.5737 115.933 63.5251C115.89 63.4751 115.822 63.446 115.743 63.446H108.442V63.4474Z" fill="#D0D5DD"/>
<path d="M50.5264 59.4087C50.8139 59.4087 51.0125 59.6337 50.9681 59.9115C50.9236 60.1906 50.6542 60.4156 50.3667 60.4156H37.2694C36.9819 60.4156 36.7833 60.1906 36.8278 59.9115C36.8722 59.6337 37.1417 59.4087 37.4292 59.4087H50.5264Z" fill="#D0D5DD"/>
<path d="M50.3653 60.6237H37.2681C37.0681 60.6237 36.8833 60.5418 36.7611 60.3987C36.6403 60.2571 36.5903 60.0723 36.6208 59.8779C36.6819 59.4973 37.0361 59.1987 37.4278 59.1987H50.525C50.725 59.1987 50.9111 59.2807 51.0319 59.4237C51.1528 59.5654 51.2028 59.7501 51.1708 59.9432C51.1125 60.3251 50.7569 60.6237 50.3653 60.6237ZM37.4292 59.6168C37.2431 59.6168 37.0611 59.7668 37.0333 59.9446C37.0222 60.0168 37.0375 60.0807 37.0792 60.1293C37.1222 60.1793 37.1903 60.2071 37.2694 60.2071H50.3667C50.5528 60.2071 50.7347 60.0571 50.7625 59.8779C50.7736 59.8057 50.7583 59.7432 50.7167 59.6946C50.6736 59.6446 50.6056 59.6154 50.5264 59.6154H37.4292V59.6168Z" fill="#D0D5DD"/>
<path d="M50.0611 62.3237C50.3486 62.3237 50.5472 62.5487 50.5028 62.8265C50.4583 63.1043 50.1889 63.3293 49.9014 63.3293H36.8042C36.5167 63.3293 36.3181 63.1043 36.3625 62.8265C36.4069 62.5487 36.6764 62.3237 36.9639 62.3237H50.0611Z" fill="#D0D5DD"/>
<path d="M49.9 63.5388H36.8028C36.6028 63.5388 36.4167 63.4569 36.2958 63.3138C36.175 63.1722 36.125 62.9875 36.1555 62.7944C36.2167 62.4138 36.5708 62.1152 36.9625 62.1152H50.0597C50.2597 62.1152 50.4458 62.1972 50.5667 62.3402C50.6875 62.4819 50.7375 62.6666 50.7055 62.8597C50.6472 63.2402 50.293 63.5388 49.9 63.5388ZM36.9639 62.5319C36.7778 62.5319 36.5958 62.6819 36.568 62.8597C36.5569 62.9319 36.5722 62.9944 36.6139 63.043C36.6569 63.093 36.725 63.1222 36.8042 63.1222H49.9014C50.0875 63.1222 50.2694 62.9722 50.2972 62.7944C50.3083 62.7222 50.293 62.6597 50.2514 62.6111C50.2083 62.5611 50.1403 62.5319 50.0611 62.5319H36.9639Z" fill="#D0D5DD"/>
<path d="M116.121 60.8711C116.408 60.8711 116.607 61.0961 116.562 61.3753C116.518 61.653 116.249 61.878 115.961 61.878H108.66C108.372 61.878 108.174 61.653 108.218 61.3753C108.262 61.0961 108.532 60.8711 108.819 60.8711H116.121Z" fill="#D0D5DD"/>
<path d="M115.96 62.0862H108.658C108.458 62.0862 108.272 62.0043 108.151 61.8612C108.031 61.7195 107.981 61.5348 108.011 61.3418C108.072 60.9612 108.426 60.6626 108.819 60.6626H116.121C116.321 60.6626 116.506 60.7445 116.628 60.8876C116.749 61.0293 116.799 61.214 116.768 61.4084C116.707 61.7876 116.351 62.0862 115.96 62.0862ZM108.819 61.0793C108.633 61.0793 108.451 61.2293 108.424 61.4084C108.413 61.4807 108.428 61.5432 108.469 61.5918C108.512 61.6418 108.581 61.6709 108.66 61.6709H115.961C116.147 61.6709 116.329 61.5209 116.357 61.3432C116.368 61.2709 116.353 61.207 116.311 61.1584C116.268 61.1084 116.2 61.0807 116.121 61.0807H108.819V61.0793Z" fill="#D0D5DD"/>
<path d="M118.925 41.5181L119.199 43.2306C119.364 44.257 120.068 45.0611 121.082 45.3778L122.775 45.9056L120.914 46.4333C119.8 46.75 118.839 47.5542 118.346 48.5806L117.525 50.2931L117.25 48.5806C117.085 47.5542 116.381 46.75 115.367 46.4333L113.675 45.9056L115.535 45.3778C116.649 45.0611 117.61 44.257 118.103 43.2306L118.925 41.5181Z" fill="#D0D5DD"/>
<path d="M40.9389 43.2529L41.1486 44.5654C41.275 45.3529 41.8153 45.9696 42.593 46.2113L43.8903 46.6154L42.4639 47.021C41.6097 47.2626 40.8722 47.8793 40.4944 48.6654L39.8653 49.9793L39.6555 48.6654C39.5292 47.8779 38.9889 47.2626 38.2111 47.021L36.9139 46.6154L38.3403 46.2113C39.1944 45.9696 39.9319 45.3515 40.3097 44.5654L40.9389 43.2529Z" fill="#D0D5DD"/>
<path d="M113.974 94.146L114.09 94.8779C114.161 95.3154 114.462 95.6599 114.896 95.7946L115.618 96.0196L114.824 96.2446C114.347 96.3807 113.936 96.7238 113.725 97.1613L113.374 97.8932L113.257 97.1613C113.186 96.7238 112.886 96.3793 112.453 96.2446L111.729 96.0196L112.525 95.7946C113.001 95.6585 113.411 95.3154 113.622 94.8779L113.974 94.146Z" fill="#D0D5DD"/>
<path d="M33.8222 91.314L33.9389 92.0459C34.0097 92.4848 34.3111 92.8279 34.7444 92.9626L35.4667 93.1876L34.6722 93.4126C34.1958 93.5487 33.7847 93.8917 33.5736 94.3306L33.2236 95.0626L33.1069 94.3306C33.0375 93.8917 32.7361 93.5487 32.3028 93.4126L31.5806 93.1876L32.375 92.9626C32.8514 92.8279 33.2625 92.4848 33.4722 92.0459L33.8222 91.314Z" fill="#D0D5DD"/>
</svg>
