<svg width="150" height="150" viewBox="0 0 150 150" fill="none" xmlns="http://www.w3.org/2000/svg">
<path d="M75 122.697C103.319 122.697 126.276 113.691 126.276 102.582C126.276 91.4727 103.319 82.4668 75 82.4668C46.6808 82.4668 23.7236 91.4727 23.7236 102.582C23.7236 113.691 46.6808 122.697 75 122.697Z" fill="#F9FAFB"/>
<path d="M100.174 99.8359L102.546 103.072H58.3236L55.95 99.8359H100.174Z" fill="#D0D5DD"/>
<path d="M102.546 103.384H58.3236C58.2236 103.384 58.1306 103.337 58.0722 103.256L55.6986 100.022C55.6292 99.9272 55.6181 99.8008 55.6722 99.6952C55.725 99.5897 55.8333 99.5244 55.9514 99.5244H100.175C100.275 99.5244 100.368 99.5716 100.426 99.6522L102.8 102.887C102.869 102.981 102.881 103.108 102.826 103.213C102.772 103.317 102.664 103.384 102.546 103.384ZM58.4819 102.759H101.931L100.015 100.149H56.5667L58.4819 102.759Z" fill="#F9FAFB"/>
<path d="M111.069 31.5176L113.442 34.7537L102.546 103.072L100.174 99.8356L111.069 31.5176Z" fill="#D0D5DD"/>
<path d="M102.546 103.384C102.447 103.384 102.354 103.338 102.294 103.256L99.9208 100.022C99.8708 99.955 99.8514 99.8703 99.8639 99.7869L110.76 31.4689C110.779 31.3439 110.872 31.2439 110.994 31.2147C111.117 31.1855 111.246 31.2314 111.319 31.3341L113.693 34.5689C113.743 34.6355 113.763 34.7203 113.75 34.8036L102.854 103.122C102.835 103.247 102.742 103.347 102.619 103.376C102.596 103.381 102.571 103.384 102.546 103.384ZM100.503 99.7564L102.356 102.283L113.112 34.8328L111.26 32.3064L100.503 99.7564Z" fill="#F9FAFB"/>
<path d="M111.069 31.5176L100.174 99.8356H55.95L56.6458 95.4704H95.9069L106.107 31.5176H111.069Z" fill="#F7F9FC"/>
<path d="M100.174 100.149H55.95C55.8583 100.149 55.7722 100.108 55.7125 100.039C55.6528 99.9694 55.6278 99.8777 55.6417 99.7874L56.3375 95.4208C56.3611 95.2694 56.4931 95.1569 56.6458 95.1569H95.6403L105.797 31.468C105.821 31.3166 105.953 31.2041 106.106 31.2041H111.068C111.16 31.2041 111.246 31.2444 111.306 31.3138C111.365 31.3833 111.39 31.4749 111.376 31.5652L100.481 99.8833C100.457 100.037 100.326 100.149 100.174 100.149ZM56.3167 99.5235H99.9069L110.703 31.8305H106.374L96.2167 95.5194C96.1931 95.6708 96.0611 95.7833 95.9083 95.7833H56.9125L56.3167 99.5235Z" fill="#F9FAFB"/>
<path d="M47.1111 100.636L49.4833 103.87L39.2333 113.525L36.8597 110.29L47.1111 100.636Z" fill="#D0D5DD"/>
<path d="M39.2333 113.837C39.2236 113.837 39.2139 113.837 39.2042 113.836C39.1153 113.827 39.0333 113.782 38.9806 113.709L36.607 110.475C36.5139 110.347 36.5292 110.17 36.6445 110.062L46.8945 100.408C46.9597 100.347 47.0486 100.316 47.1375 100.325C47.2264 100.333 47.3083 100.379 47.3611 100.451L49.7347 103.686C49.8278 103.813 49.8125 103.99 49.6972 104.098L39.4472 113.752C39.3889 113.807 39.3125 113.837 39.2333 113.837ZM37.275 110.327L39.275 113.055L49.0667 103.833L47.0667 101.105L37.275 110.327Z" fill="#F9FAFB"/>
<path d="M56.6458 95.4707L55.95 99.836L54.2833 110.29L47.1111 100.636L36.8597 110.29L39.2236 95.4707H56.6458Z" fill="#E4E7EC"/>
<path d="M54.2833 110.603C54.1861 110.603 54.0917 110.557 54.0319 110.477L47.0694 101.104L37.075 110.517C36.9778 110.609 36.8333 110.628 36.7139 110.566C36.5958 110.503 36.5306 110.373 36.5514 110.241L38.9153 95.4211C38.9389 95.2697 39.0708 95.1572 39.2236 95.1572H56.6458C56.7375 95.1572 56.8236 95.1975 56.8833 95.2669C56.9431 95.3364 56.9681 95.4281 56.9542 95.5183L54.5903 110.338C54.5708 110.461 54.4778 110.563 54.3556 110.592C54.3319 110.599 54.3069 110.603 54.2833 110.603ZM47.1111 100.324C47.1208 100.324 47.1292 100.324 47.1389 100.325C47.2278 100.334 47.3083 100.378 47.3625 100.45L54.0931 109.509L56.2819 95.7836H39.4903L37.3125 109.435L46.8958 100.41C46.9542 100.353 47.0306 100.324 47.1111 100.324Z" fill="#F9FAFB"/>
<path d="M56.6458 95.4707L55.95 99.836L54.2833 110.29L56.6556 113.525L58.3236 103.072L59.0194 98.7054L56.6458 95.4707Z" fill="#D0D5DD"/>
<path d="M56.6556 113.837C56.5569 113.837 56.4639 113.791 56.4042 113.709L54.0319 110.475C53.9819 110.408 53.9625 110.323 53.975 110.241L56.3389 95.422C56.3583 95.297 56.4514 95.197 56.5736 95.1678C56.6958 95.1387 56.825 95.1845 56.8986 95.2873L59.2722 98.522C59.3222 98.5887 59.3417 98.6734 59.3292 98.7567L56.9653 113.576C56.9458 113.701 56.8528 113.801 56.7306 113.83C56.7056 113.834 56.6806 113.837 56.6556 113.837ZM54.6125 110.209L56.4653 112.736L58.6903 98.7845L56.8375 96.2581L54.6125 110.209Z" fill="#F9FAFB"/>
<path d="M106.803 27.1523L106.107 31.5176L95.9069 95.4704H56.6458H39.2236H34.2597L45.1556 27.1523H106.803Z" fill="#D0D5DD"/>
<path d="M73.9944 78.0869C74.3917 78.0869 74.6639 78.3966 74.6028 78.78C74.5417 79.1633 74.1708 79.4744 73.7736 79.4744H50.3861C49.9889 79.4744 49.7167 79.1633 49.7778 78.78C49.8389 78.3966 50.2097 78.0869 50.6069 78.0869H73.9944Z" fill="#98A2B3"/>
<path d="M73.7722 79.7869H50.3861C50.1028 79.7869 49.8403 79.6702 49.6681 79.4689C49.4958 79.2675 49.4264 79.005 49.4694 78.7314C49.5542 78.1952 50.0542 77.7744 50.6069 77.7744H73.9944C74.2792 77.7744 74.5403 77.8911 74.7139 78.0925C74.8847 78.2939 74.9556 78.555 74.9111 78.8286C74.825 79.3661 74.325 79.7869 73.7722 79.7869ZM50.6069 78.3994C50.3625 78.3994 50.1236 78.5966 50.0861 78.8286C50.0708 78.9203 50.0917 79.0022 50.1431 79.0619C50.1972 79.1258 50.2833 79.1605 50.3861 79.1605H73.7736C74.0181 79.1605 74.2569 78.9633 74.2944 78.73C74.3097 78.6383 74.2903 78.5578 74.2389 78.498C74.1847 78.4341 74.0986 78.3994 73.9958 78.3994H50.6069Z" fill="#98A2B3"/>
<path d="M86.4986 69.3525C86.8958 69.3525 87.1681 69.6623 87.1069 70.0456C87.0458 70.4289 86.675 70.74 86.2778 70.74H51.7792C51.3819 70.74 51.1097 70.4289 51.1708 70.0456C51.2319 69.6623 51.6028 69.3525 52 69.3525H86.4986Z" fill="#98A2B3"/>
<path d="M86.2778 71.0525H51.7792C51.4958 71.0525 51.2333 70.9359 51.0611 70.7345C50.8889 70.5331 50.8194 70.2706 50.8625 69.997C50.9486 69.4609 51.4472 69.04 52 69.04H86.4986C86.7833 69.04 87.0444 69.1567 87.2181 69.3581C87.3889 69.5595 87.4597 69.8206 87.4153 70.0942C87.3292 70.6317 86.8292 71.0525 86.2778 71.0525ZM52 69.665C51.7556 69.665 51.5167 69.8623 51.4792 70.0942C51.4639 70.1859 51.4847 70.2678 51.5361 70.3275C51.5903 70.3914 51.6764 70.4262 51.7792 70.4262H86.2778C86.5222 70.4262 86.7611 70.2289 86.7986 69.9956C86.8139 69.9039 86.7944 69.8234 86.7431 69.7636C86.6889 69.6998 86.6028 69.665 86.5 69.665H52Z" fill="#98A2B3"/>
<path d="M87.8917 60.6182C88.2889 60.6182 88.5611 60.9293 88.5 61.3112C88.4389 61.6946 88.0681 62.0057 87.6708 62.0057H53.1722C52.775 62.0057 52.5028 61.6946 52.5639 61.3112C52.625 60.9293 52.9958 60.6182 53.3931 60.6182H87.8917Z" fill="#98A2B3"/>
<path d="M87.6708 62.3182H53.1722C52.8889 62.3182 52.6264 62.2015 52.4542 62.0001C52.2819 61.7987 52.2125 61.5362 52.2556 61.2626C52.3417 60.7265 52.8403 60.3057 53.3931 60.3057H87.8917C88.175 60.3057 88.4375 60.4223 88.6097 60.6237C88.7806 60.8251 88.8514 61.0862 88.8083 61.3598C88.7222 61.8973 88.2222 62.3182 87.6708 62.3182ZM53.3931 60.9307C53.1486 60.9307 52.9097 61.1279 52.8722 61.3612C52.8569 61.4529 52.8778 61.5348 52.9292 61.5946C52.9833 61.6584 53.0694 61.6932 53.1722 61.6932H87.6708C87.9153 61.6932 88.1542 61.4959 88.1917 61.2626C88.2056 61.1709 88.1861 61.0904 88.1347 61.0307C88.0806 60.9668 87.9944 60.9321 87.8917 60.9321H53.3931V60.9307Z" fill="#98A2B3"/>
<path d="M89.2847 51.8838C89.6819 51.8838 89.9542 52.1949 89.8931 52.5782C89.8319 52.9602 89.4611 53.2713 89.0639 53.2713H54.5653C54.1681 53.2713 53.8958 52.9602 53.9569 52.5782C54.0181 52.1949 54.3889 51.8838 54.7861 51.8838H89.2847Z" fill="#98A2B3"/>
<path d="M89.0639 53.5834H54.5653C54.2819 53.5834 54.0194 53.4667 53.8472 53.2653C53.6764 53.0639 53.6056 52.8028 53.6486 52.5292C53.7347 51.9917 54.2333 51.5723 54.7861 51.5723H89.2847C89.5681 51.5723 89.8306 51.6889 90.0028 51.8903C90.175 52.0917 90.2444 52.3528 90.2014 52.6278C90.1153 53.1625 89.6153 53.5834 89.0639 53.5834ZM54.7861 52.1959C54.5417 52.1959 54.3028 52.3931 54.2653 52.6264C54.25 52.7181 54.2708 52.7987 54.3222 52.8584C54.3764 52.9223 54.4625 52.957 54.5653 52.957H89.0639C89.3083 52.957 89.5472 52.7598 89.5847 52.5278C89.6 52.4362 89.5792 52.3542 89.5278 52.2945C89.4736 52.2306 89.3875 52.1959 89.2847 52.1959H54.7861Z" fill="#98A2B3"/>
<path d="M90.6778 43.1484C91.075 43.1484 91.3472 43.4595 91.2861 43.8429C91.225 44.2262 90.8542 44.5359 90.4569 44.5359H55.9583C55.5611 44.5359 55.2889 44.2262 55.35 43.8429C55.4111 43.4595 55.7819 43.1484 56.1792 43.1484H90.6778Z" fill="#98A2B3"/>
<path d="M90.4569 44.8484H55.9583C55.6736 44.8484 55.4125 44.7318 55.2389 44.5304C55.0681 44.329 54.9972 44.0679 55.0417 43.7943C55.1278 43.2568 55.6278 42.8359 56.1792 42.8359H90.6778C90.9611 42.8359 91.2236 42.9526 91.3958 43.154C91.5681 43.3554 91.6375 43.6179 91.5944 43.8915C91.5083 44.4276 91.0083 44.8484 90.4569 44.8484ZM56.1792 43.4609C55.9347 43.4609 55.6958 43.6582 55.6583 43.8915C55.6431 43.9832 55.6625 44.0637 55.7139 44.1234C55.7681 44.1873 55.8542 44.222 55.9569 44.222H90.4556C90.7 44.222 90.9389 44.0248 90.9764 43.7929C90.9917 43.7012 90.9708 43.6193 90.9194 43.5595C90.8653 43.4957 90.7792 43.4609 90.6764 43.4609H56.1792Z" fill="#98A2B3"/>
<path d="M106.803 27.1523L106.107 31.5176L95.907 95.4704L98.2806 98.7051L108.479 34.7537L109.176 30.3871L106.803 27.1523Z" fill="#E4E7EC"/>
<path d="M98.2806 99.0179C98.182 99.0179 98.0889 98.9721 98.0292 98.8902L95.6556 95.6554C95.6056 95.5888 95.5861 95.5041 95.5986 95.4207L106.494 27.1027C106.514 26.9777 106.607 26.8777 106.729 26.8485C106.851 26.8193 106.981 26.8652 107.054 26.9679L109.428 30.2027C109.478 30.2693 109.497 30.354 109.485 30.4374L98.5889 98.7554C98.5695 98.8804 98.4764 98.9804 98.3542 99.0096C98.3292 99.0152 98.3042 99.0179 98.2806 99.0179ZM96.2361 95.3902L98.0903 97.9165L108.847 30.4665L106.994 27.9402L96.2361 95.3902Z" fill="#F9FAFB"/>
<path d="M95.907 95.4707H56.6458H36.3708H34.2597L36.6333 98.7054H38.7431H59.0194H98.2806L95.907 95.4707Z" fill="#D0D5DD"/>
<path d="M98.2806 99.0179H36.6333C36.5333 99.0179 36.4403 98.9707 36.3819 98.8901L34.0083 95.6554C33.9389 95.561 33.9278 95.4346 33.9819 95.329C34.0347 95.2235 34.1431 95.1582 34.2611 95.1582H95.9083C96.0083 95.1582 96.1014 95.2054 96.1597 95.286L98.5333 98.5207C98.6028 98.6151 98.6139 98.7415 98.5597 98.8471C98.5056 98.9513 98.3986 99.0179 98.2806 99.0179ZM36.7917 98.3929H97.6639L95.7486 95.7832H34.8764L36.7917 98.3929Z" fill="#F9FAFB"/>
<path d="M118.621 39.6982L118.924 41.5857C119.106 42.7177 119.882 43.6038 120.999 43.9524L122.865 44.5344L120.814 45.1163C119.586 45.4649 118.526 46.351 117.983 47.483L117.079 49.3705L116.775 47.483C116.593 46.351 115.817 45.4649 114.7 45.1163L112.835 44.5344L114.885 43.9524C116.112 43.6038 117.172 42.7177 117.715 41.5857L118.621 39.6982Z" fill="#D0D5DD"/>
<path d="M39.3417 28.6875L39.5736 30.1347C39.7139 31.0028 40.3083 31.6819 41.1653 31.95L42.5958 32.3958L41.0222 32.8431C40.0805 33.1097 39.2681 33.7889 38.8514 34.6569L38.1583 36.1056L37.9264 34.6569C37.7861 33.7889 37.1917 33.1111 36.3347 32.8431L34.9042 32.3958L36.4764 31.95C37.418 31.6833 38.2306 31.0028 38.6472 30.1347L39.3417 28.6875Z" fill="#D0D5DD"/>
<path d="M91.6236 82.5713L91.7528 83.3782C91.8306 83.8616 92.1625 84.2393 92.6403 84.3893L93.4361 84.638L92.5611 84.8866C92.0361 85.0366 91.5819 85.4143 91.35 85.8977L90.9639 86.7046L90.8347 85.8977C90.7569 85.4143 90.4264 85.0366 89.9472 84.8866L89.15 84.638L90.0264 84.3893C90.5514 84.2393 91.0042 83.8616 91.2361 83.3782L91.6236 82.5713Z" fill="#F7F9FC"/>
<path d="M29.6056 88.3232L29.7347 89.1288C29.8125 89.6121 30.1444 89.9913 30.6222 90.1399L31.4181 90.3885L30.5431 90.6371C30.0181 90.7871 29.5639 91.1649 29.3319 91.6496L28.9458 92.4552L28.8167 91.6496C28.7403 91.1663 28.4083 90.7871 27.9306 90.6371L27.1347 90.3885L28.0097 90.1399C28.5347 89.9913 28.9875 89.6135 29.2194 89.1288L29.6056 88.3232Z" fill="#D0D5DD"/>
</svg>
