<svg width="107" height="107" viewBox="0 0 107 107" fill="none" xmlns="http://www.w3.org/2000/svg">
<rect width="106.2" height="106.2" rx="21.24" fill="url(#paint0_linear_4495_75088)"/>
<path d="M66.1052 61.7046C65.3661 60.2511 64.4432 58.8696 63.3422 57.5828C62.8191 56.9726 49.8871 41.8652 49.7241 41.6568C47.9863 39.3069 47.2586 36.4984 47.5088 33.7639C47.6149 32.4847 47.9371 31.2378 48.4734 30.0552C49.1499 28.5619 50.1524 27.1975 51.4809 26.0586C52.8093 24.9196 54.3121 24.1389 55.8907 23.6992C59.8041 22.619 64.1476 23.6651 67.1418 26.7029C67.2214 26.7787 67.2953 26.8469 67.3654 26.9303L67.373 26.9379C67.4886 27.0554 67.5966 27.1804 67.7028 27.3074C67.8108 27.4325 67.9169 27.5576 68.0173 27.6902L68.0249 27.6978C68.078 27.7603 68.1235 27.821 68.167 27.8854L68.1727 27.8949L79.3139 40.8969V40.8931C81.262 34.3589 80.034 27.0251 75.4309 21.3835C75.4309 21.3835 75.4309 21.3816 75.429 21.3797C75.3589 21.2811 75.2736 21.1807 75.1864 21.0803L75.0007 20.8623C74.9154 20.7619 74.8283 20.6615 74.7411 20.5781C69.8631 15.1563 62.804 12.8197 56.0461 13.7578C53.6962 14.0761 51.3861 14.7944 49.2257 15.9238C47.7874 16.6629 46.4229 17.5725 45.1456 18.6679C43.8683 19.7632 42.7597 20.9722 41.8084 22.2798C40.3624 24.2431 39.2898 26.4224 38.6152 28.6965C38.005 30.7394 37.7093 32.8618 37.7264 34.9786C37.7567 38.2267 38.5204 41.4824 40.0535 44.4558C40.7907 45.9244 41.7212 47.3154 42.8374 48.6173C43.3605 49.2275 55.9495 63.918 55.9495 63.918C58.0473 66.3645 58.9342 69.4288 58.6822 72.3984C58.5685 73.6681 58.2444 74.9321 57.71 76.1146C57.041 77.6155 56.0366 78.997 54.7006 80.1416C53.3816 81.2729 51.8769 82.0537 50.3154 82.4953C46.5139 83.5527 42.303 82.6109 39.3145 79.7834C39.1761 79.6565 39.0529 79.5295 38.9241 79.3949C38.7725 79.2358 38.1945 78.5611 38.0618 78.3906L26.8619 65.2843C24.9573 71.6555 26.0679 78.7961 30.3943 84.3865C30.4019 84.3941 30.4019 84.4093 30.4152 84.4112C30.4227 84.4339 30.4436 84.4585 30.4739 84.4775C30.472 84.4926 30.4872 84.4926 30.4948 84.5021C30.5232 84.5362 30.544 84.5779 30.5819 84.6026C30.7354 84.8186 30.906 85.0346 31.0784 85.2355C31.2566 85.4421 31.4385 85.6354 31.6242 85.823L31.3059 85.4496L31.6261 85.823C31.647 85.8628 31.683 85.8893 31.7114 85.9234C31.719 85.931 31.7171 85.9481 31.7322 85.9481L31.7891 86.0144C31.7891 86.0295 31.8043 86.0314 31.8099 86.039C36.6727 91.1727 43.5632 93.3653 50.1562 92.4367C52.5061 92.1184 54.8162 91.4001 56.9766 90.2707C58.3979 89.5297 59.7643 88.6201 61.034 87.5323C62.3113 86.437 63.435 85.2128 64.3807 83.8976C65.8266 81.9343 66.8936 79.7455 67.5606 77.4658C68.1689 75.4381 68.4722 73.3232 68.4494 71.2007C68.4267 67.9469 67.6478 64.6874 66.1071 61.7065L66.1052 61.7046Z" fill="url(#paint1_linear_4495_75088)"/>
<path d="M30.4086 59.265L43.5207 74.5657C45.2737 76.6123 48.3607 76.8492 50.4074 75.0963C51.4346 74.2151 51.9955 73.0117 52.1073 71.7723C52.1983 70.5936 51.8685 69.3978 51.1029 68.4029L37.4887 52.5167C37.4887 52.5167 37.4962 52.5091 37.5133 52.511C36.056 50.76 34.8602 48.8744 33.9127 46.9054C32.4231 43.8506 31.5362 40.5987 31.2501 37.3088C31.2008 36.8294 31.1686 36.3348 31.1591 35.8515C31.1743 35.5635 31.1799 35.283 31.1477 34.9931L31.1402 34.9855L31.1326 34.9779C31.1389 34.9628 31.1395 34.9527 31.1345 34.9476L31.1383 34.9002C31.0246 33.9546 30.6417 33.0374 29.9842 32.268C29.8837 32.1505 29.7757 32.0406 29.6677 31.9307C29.0442 31.3205 28.271 30.9111 27.4694 30.7008C25.9704 30.3199 24.3141 30.6534 23.052 31.7336C22.3337 32.3495 21.8372 33.1227 21.57 33.9603C21.4582 34.3033 21.3919 34.6633 21.3559 35.012C21.3483 35.0196 21.3615 35.0367 21.3615 35.0367C21.3634 35.4119 21.3672 35.7701 21.3862 36.1453C21.3786 36.1529 21.3862 36.1604 21.3843 36.1756C21.4165 37.0758 21.4809 37.9607 21.5757 38.8666C21.7368 40.322 21.9755 41.7679 22.3034 43.1968C23.0917 46.6344 24.3615 49.9944 26.1466 53.1591C27.2571 55.1489 28.5609 57.0591 30.0751 58.8594C30.1812 58.9997 30.2949 59.1342 30.4105 59.2669L30.4086 59.265Z" fill="url(#paint2_linear_4495_75088)"/>
<path d="M84.8462 71.1913L84.8405 71.1667C84.8386 70.7915 84.8348 70.4333 84.8159 70.0581C84.8235 70.0505 84.8159 70.0429 84.8178 70.0278C84.7856 69.1276 84.7211 68.2426 84.6264 67.3368C84.4653 65.8814 84.2265 64.4355 83.8987 63.0066C83.1103 59.569 81.8406 56.209 80.0554 53.0443C78.9449 51.0545 77.6411 49.1442 76.1269 47.3439C76.0208 47.2037 75.9071 47.0692 75.7915 46.9365L62.6795 31.6358C60.9265 29.5892 57.8394 29.3523 55.7927 31.1052C54.7656 31.9864 54.2047 33.1898 54.0929 34.4291C54.0019 35.6079 54.3316 36.8036 55.0972 37.7985L68.7115 53.6848C68.7115 53.6848 68.7039 53.6924 68.6869 53.6905C70.1442 55.4415 71.34 57.3271 72.2875 59.2961C73.777 62.3509 74.6639 65.6028 74.9501 68.8926C74.9994 69.3721 75.0316 69.8667 75.0411 70.3499C75.0259 70.638 75.0202 70.9184 75.0524 71.2084L75.06 71.216L75.0676 71.2236C75.0613 71.2387 75.0606 71.2488 75.0657 71.2539L75.0619 71.3013C75.1756 72.2469 75.5584 73.1641 76.216 73.9335C76.3165 74.051 76.4245 74.1609 76.5325 74.2708C77.156 74.881 77.9292 75.2903 78.7308 75.5007C80.2298 75.8816 81.8861 75.5481 83.1482 74.4679C83.8665 73.852 84.363 73.0788 84.6302 72.2412C84.742 71.8982 84.8083 71.5381 84.8443 71.1894L84.8462 71.1913Z" fill="url(#paint3_linear_4495_75088)"/>
<defs>
<linearGradient id="paint0_linear_4495_75088" x1="53.1" y1="106.2" x2="53.1" y2="5.34454e-06" gradientUnits="userSpaceOnUse">
<stop stop-color="#00E9C4"/>
<stop offset="1" stop-color="#00AAF7"/>
</linearGradient>
<linearGradient id="paint1_linear_4495_75088" x1="18.2942" y1="77.5927" x2="84.3619" y2="31.0835" gradientUnits="userSpaceOnUse">
<stop stop-color="#FDFEFF"/>
<stop offset="0.99" stop-color="#FDFEFF"/>
</linearGradient>
<linearGradient id="paint2_linear_4495_75088" x1="13.0213" y1="70.1028" x2="79.0889" y2="23.5936" gradientUnits="userSpaceOnUse">
<stop stop-color="#FDFEFF"/>
<stop offset="0.99" stop-color="#FDFEFF"/>
</linearGradient>
<linearGradient id="paint3_linear_4495_75088" x1="23.5745" y1="85.0954" x2="89.6421" y2="38.5861" gradientUnits="userSpaceOnUse">
<stop stop-color="#FDFEFF"/>
<stop offset="0.99" stop-color="#FDFEFF"/>
</linearGradient>
</defs>
</svg>
