<svg width="20" height="20" viewBox="0 0 20 20" fill="none" xmlns="http://www.w3.org/2000/svg">
<g id="Icon-right">
<g id="icon">
<path d="M7.91671 5.83333C7.91671 6.29357 7.54361 6.66667 7.08337 6.66667H6.25004C5.7898 6.66667 5.41671 6.29357 5.41671 5.83333C5.41671 5.3731 5.7898 5 6.25004 5H7.08337C7.54361 5 7.91671 5.3731 7.91671 5.83333Z" fill="#667085"/>
<path d="M10.4167 9.16667C10.8769 9.16667 11.25 8.79357 11.25 8.33333C11.25 7.8731 10.8769 7.5 10.4167 7.5H9.58337C9.12314 7.5 8.75004 7.8731 8.75004 8.33333C8.75004 8.79357 9.12314 9.16667 9.58337 9.16667H10.4167Z" fill="#667085"/>
<path d="M7.91671 10.8333C7.91671 11.2936 7.54361 11.6667 7.08337 11.6667H6.25004C5.7898 11.6667 5.41671 11.2936 5.41671 10.8333C5.41671 10.3731 5.7898 10 6.25004 10H7.08337C7.54361 10 7.91671 10.3731 7.91671 10.8333Z" fill="#667085"/>
<path d="M10.4167 6.66667C10.8769 6.66667 11.25 6.29357 11.25 5.83333C11.25 5.3731 10.8769 5 10.4167 5H9.58337C9.12314 5 8.75004 5.3731 8.75004 5.83333C8.75004 6.29357 9.12314 6.66667 9.58337 6.66667H10.4167Z" fill="#667085"/>
<path d="M7.91671 8.33333C7.91671 8.79357 7.54361 9.16667 7.08337 9.16667H6.25004C5.7898 9.16667 5.41671 8.79357 5.41671 8.33333C5.41671 7.8731 5.7898 7.5 6.25004 7.5H7.08337C7.54361 7.5 7.91671 7.8731 7.91671 8.33333Z" fill="#667085"/>
<path d="M10.4167 11.6667C10.8769 11.6667 11.25 11.2936 11.25 10.8333C11.25 10.3731 10.8769 10 10.4167 10H9.58337C9.12314 10 8.75004 10.3731 8.75004 10.8333C8.75004 11.2936 9.12314 11.6667 9.58337 11.6667H10.4167Z" fill="#667085"/>
<path d="M7.91671 13.3333C7.91671 13.7936 7.54361 14.1667 7.08337 14.1667H6.25004C5.7898 14.1667 5.41671 13.7936 5.41671 13.3333C5.41671 12.8731 5.7898 12.5 6.25004 12.5H7.08337C7.54361 12.5 7.91671 12.8731 7.91671 13.3333Z" fill="#667085"/>
<path d="M10.4167 14.1667C10.8769 14.1667 11.25 13.7936 11.25 13.3333C11.25 12.8731 10.8769 12.5 10.4167 12.5H9.58337C9.12314 12.5 8.75004 12.8731 8.75004 13.3333C8.75004 13.7936 9.12314 14.1667 9.58337 14.1667H10.4167Z" fill="#667085"/>
<path fill-rule="evenodd" clip-rule="evenodd" d="M3.33337 4.16667C3.33337 3.24619 4.07957 2.5 5.00004 2.5H11.6667C12.5872 2.5 13.3334 3.24619 13.3334 4.16667V7.5H15.8334C16.7538 7.5 17.5 8.24619 17.5 9.16667V15.8333H18.3334C18.7936 15.8333 19.1667 16.2064 19.1667 16.6667C19.1667 17.1269 18.7936 17.5 18.3334 17.5H1.66671C1.20647 17.5 0.833374 17.1269 0.833374 16.6667C0.833374 16.2064 1.20647 15.8333 1.66671 15.8333H3.33337V4.16667ZM5.00004 15.8333H11.6667V4.16667H5.00004V15.8333ZM15.8334 12.5V11.6667H15.4167C14.9565 11.6667 14.5834 11.2936 14.5834 10.8333C14.5834 10.3731 14.9565 10 15.4167 10H15.8334V9.16667H13.3334V15.8333H15.8334V14.1667H15.4167C14.9565 14.1667 14.5834 13.7936 14.5834 13.3333C14.5834 12.8731 14.9565 12.5 15.4167 12.5H15.8334Z" fill="#667085"/>
</g>
</g>
</svg>
