<svg width="20" height="20" viewBox="0 0 20 20" fill="none" xmlns="http://www.w3.org/2000/svg">
<g id="Icon-right">
<g id="icon">
<path d="M3.57891 11.6523C3.81695 12.0462 3.69061 12.5585 3.29671 12.7965C2.90282 13.0346 2.39053 12.9082 2.15249 12.5143C1.81407 11.9544 1.58447 11.4718 1.44946 11.1603C1.25613 10.7143 1.28418 10.2121 1.5197 9.7915C1.87909 9.14973 2.78698 7.66611 4.18616 6.33307C5.58214 5.00308 7.54641 3.75 9.99982 3.75C12.4532 3.75 14.4175 5.00308 15.8135 6.33307C17.2127 7.66611 18.1206 9.14973 18.4799 9.7915C18.7155 10.2121 18.7435 10.7143 18.5502 11.1603C18.4152 11.4718 18.1856 11.9544 17.8472 12.5143C17.6091 12.9082 17.0968 13.0346 16.7029 12.7965C16.309 12.5585 16.1827 12.0462 16.4207 11.6523C16.6929 11.2019 16.8818 10.8124 16.9964 10.5537C16.6582 9.95778 15.8574 8.67693 14.6638 7.53975C13.4309 6.36513 11.8581 5.41667 9.99982 5.41667C8.14153 5.41667 6.56871 6.36513 5.33581 7.53975C4.14221 8.67693 3.34141 9.95778 3.00328 10.5537C3.11784 10.8124 3.30672 11.2019 3.57891 11.6523Z" fill="#667085"/>
<path fill-rule="evenodd" clip-rule="evenodd" d="M9.99982 6.66667C7.69864 6.66667 5.83316 8.53215 5.83316 10.8333C5.83316 13.1345 7.69864 15 9.99982 15C12.301 15 14.1665 13.1345 14.1665 10.8333C14.1665 8.53215 12.301 6.66667 9.99982 6.66667ZM7.49982 10.8333C7.49982 9.45262 8.61911 8.33333 9.99982 8.33333C11.3805 8.33333 12.4998 9.45262 12.4998 10.8333C12.4998 12.214 11.3805 13.3333 9.99982 13.3333C8.61911 13.3333 7.49982 12.214 7.49982 10.8333Z" fill="#667085"/>
</g>
</g>
</svg>
