<svg width="20" height="20" viewBox="0 0 20 20" fill="none" xmlns="http://www.w3.org/2000/svg">
<g id="Icon-right" clip-path="url(#clip0_111_4099)">
<path id="icon" fill-rule="evenodd" clip-rule="evenodd" d="M10 0.833252C7.0005 0.833252 4.33742 2.27483 2.66646 4.49944C1.51564 6.03156 0.833374 7.93726 0.833374 9.99992C0.833374 12.0626 1.51564 13.9683 2.66646 15.5004C4.33742 17.725 7.0005 19.1666 10 19.1666C12.9996 19.1666 15.6627 17.725 17.3336 15.5004C18.4844 13.9683 19.1667 12.0626 19.1667 9.99992C19.1667 7.93726 18.4844 6.03156 17.3336 4.49944C15.6627 2.27483 12.9996 0.833252 10 0.833252ZM4.08461 5.76459C4.27141 5.74726 4.49145 5.72736 4.73707 5.70603C4.66886 6.71819 4.60916 7.91205 4.58989 9.16658H2.54575C2.68287 7.92482 3.1229 6.77537 3.79051 5.79229C3.87589 5.78412 3.97445 5.7748 4.08461 5.76459ZM3.79051 14.2075C3.1229 13.2245 2.68287 12.075 2.54575 10.8333H4.58989C4.60916 12.0878 4.66886 13.2816 4.73707 14.2938C4.49145 14.2725 4.27141 14.2526 4.08461 14.2352C3.97445 14.225 3.87589 14.2157 3.79051 14.2075ZM6.25675 10.8333C6.27752 12.1454 6.34372 13.3927 6.4169 14.4269C7.31209 14.4905 8.28528 14.5469 9.16671 14.571V10.8333H6.25675ZM6.5995 16.5548C6.60454 16.6042 6.60936 16.6506 6.6139 16.694C7.39602 17.0904 8.25684 17.3536 9.16671 17.4542V16.2382C8.32301 16.2161 7.40653 16.1654 6.55549 16.1072C6.57054 16.2662 6.58463 16.4088 6.59732 16.5335C6.59805 16.5406 6.59878 16.5478 6.5995 16.5548ZM13.3862 16.694C12.6041 17.0904 11.7432 17.3536 10.8334 17.4542V16.2382C11.6771 16.2161 12.5935 16.1654 13.4446 16.1072C13.4295 16.2662 13.4154 16.4088 13.4028 16.5335C13.3969 16.5909 13.3914 16.6444 13.3862 16.694ZM13.5832 14.4269C12.688 14.4905 11.7148 14.5469 10.8334 14.571V10.8333H13.7433C13.7226 12.1454 13.6564 13.3927 13.5832 14.4269ZM13.5832 5.57297C13.6564 6.60709 13.7226 7.85441 13.7433 9.16658H10.8334V5.42888C11.7148 5.45291 12.688 5.50936 13.5832 5.57297ZM13.4446 3.89259C12.5935 3.83444 11.6771 3.7837 10.8334 3.76164V2.54566C11.7432 2.64619 12.6041 2.90941 13.3862 3.30582C13.3914 3.35539 13.3969 3.40896 13.4028 3.46637C13.4154 3.59101 13.4295 3.73368 13.4446 3.89259ZM6.55549 3.89259C7.40653 3.83444 8.32301 3.7837 9.16671 3.76164V2.54566C8.25684 2.64619 7.39602 2.90941 6.6139 3.30582C6.60871 3.35539 6.60316 3.40896 6.59732 3.46637C6.58463 3.59101 6.57054 3.73368 6.55549 3.89259ZM9.16671 5.42888C8.28528 5.45291 7.31209 5.50936 6.4169 5.57297C6.34372 6.60709 6.27752 7.85441 6.25675 9.16658H9.16671V5.42888ZM15.9155 5.76459C15.7287 5.74726 15.5086 5.72736 15.263 5.70603C15.3312 6.71819 15.3909 7.91205 15.4102 9.16658H17.4543C17.3172 7.92482 16.8772 6.77537 16.2096 5.79229C16.1242 5.78412 16.0256 5.7748 15.9155 5.76459ZM15.263 14.2938C15.3312 13.2816 15.3909 12.0878 15.4102 10.8333H17.4543C17.3172 12.075 16.8772 13.2245 16.2096 14.2075C16.1242 14.2157 16.0256 14.225 15.9155 14.2352C15.7287 14.2526 15.5086 14.2725 15.263 14.2938Z" fill="#667085"/>
</g>
<defs>
<clipPath id="clip0_111_4099">
<rect width="20" height="20" fill="white"/>
</clipPath>
</defs>
</svg>
