<svg width="24" height="26" viewBox="0 0 24 26" fill="none" xmlns="http://www.w3.org/2000/svg">
<path d="M13.1666 16.5001C13.1666 15.8558 12.6443 15.3334 11.9999 15.3334C11.3556 15.3334 10.8333 15.8558 10.8333 16.5001V18.8334C10.8333 19.4777 11.3556 20.0001 11.9999 20.0001C12.6442 20.0001 13.1666 19.4777 13.1666 18.8334V16.5001Z" fill="#004768"/>
<path fill-rule="evenodd" clip-rule="evenodd" d="M7.33325 6.87508C7.33325 4.45884 9.29201 2.50008 11.7083 2.50008C14.1245 2.50008 16.0833 4.45884 16.0833 6.87508V7.75008C16.0833 8.39441 16.6056 8.91675 17.2499 8.91675C17.8943 8.91675 18.4166 8.39441 18.4166 7.75008V6.87508C18.4166 3.17017 15.4132 0.166748 11.7083 0.166748C8.00334 0.166748 4.99992 3.17017 4.99992 6.87508V9.50008C2.42259 9.50008 0.333252 11.5894 0.333252 14.1667V21.1667C0.333252 23.7441 2.42259 25.8334 4.99992 25.8334H18.9999C21.5772 25.8334 23.6666 23.7441 23.6666 21.1667V14.1667C23.6666 11.5894 21.5772 9.50008 18.9999 9.50008H7.33325V6.87508ZM2.66659 14.1667C2.66659 12.8781 3.71125 11.8334 4.99992 11.8334H18.9999C20.2886 11.8334 21.3333 12.8781 21.3333 14.1667V21.1667C21.3333 22.4554 20.2886 23.5001 18.9999 23.5001H4.99992C3.71125 23.5001 2.66659 22.4554 2.66659 21.1667V14.1667Z" fill="#004768"/>
</svg>
