<svg width="28" height="28" viewBox="0 0 28 28" fill="none" xmlns="http://www.w3.org/2000/svg">
<g id="icon / mail">
<path id="icon" fill-rule="evenodd" clip-rule="evenodd" d="M22.167 24.5C24.7443 24.5 26.8336 22.4107 26.8336 19.8333V9.3598C26.8341 9.34196 26.8341 9.32407 26.8336 9.30615V8.16667C26.8336 5.58934 24.7443 3.5 22.167 3.5H5.83364C3.25631 3.5 1.16697 5.58934 1.16697 8.16667V9.30616C1.16656 9.32407 1.16656 9.34195 1.16697 9.35979V19.8333C1.16697 22.4107 3.25631 24.5 5.83364 24.5H22.167ZM3.50031 19.8333C3.50031 21.122 4.54498 22.1667 5.83364 22.1667H22.167C23.4556 22.1667 24.5003 21.122 24.5003 19.8333V11.0565L15.7335 14.5633C14.6209 15.0083 13.3797 15.0083 12.2671 14.5633L3.50031 11.0565V19.8333ZM14.8669 12.3968L24.5003 8.54346V8.16667C24.5003 6.878 23.4556 5.83333 22.167 5.83333H5.83364C4.54498 5.83333 3.50031 6.878 3.50031 8.16667V8.54346L13.1337 12.3968C13.69 12.6193 14.3106 12.6193 14.8669 12.3968Z" fill="#004768"/>
</g>
</svg>
