<svg width="28" height="28" viewBox="0 0 28 28" fill="none" xmlns="http://www.w3.org/2000/svg">
<g id="icon / shield-tick">
<g id="icon">
<path d="M17.1454 13.075C17.6011 12.6194 17.6011 11.8807 17.1455 11.4251C16.6898 10.9695 15.9511 10.9695 15.4955 11.4251L13.2337 13.6869L12.9048 13.3581C12.4492 12.9024 11.7105 12.9024 11.2549 13.3581C10.7993 13.8137 10.7993 14.5524 11.2549 15.008L12.4087 16.1618C12.8643 16.6174 13.603 16.6174 14.0586 16.1618L17.1454 13.075Z" fill="#0F973D"/>
<path fill-rule="evenodd" clip-rule="evenodd" d="M15.7356 2.35525C14.6216 1.90893 13.3784 1.90893 12.2644 2.35525L8.03342 4.0504C8.02026 4.05567 8.0072 4.06118 7.99424 4.06693L6.18878 4.86783C4.60536 5.57023 3.49985 7.11676 3.5 8.91769C3.50019 11.2128 3.66566 15.0974 4.74466 17.7628C5.4621 19.5351 6.75426 21.0711 8.06754 22.2987C9.39024 23.535 10.7994 24.5183 11.8359 25.1728C13.1642 26.0115 14.8358 26.0115 16.1641 25.1728C17.2006 24.5183 18.6098 23.535 19.9325 22.2987C21.2457 21.0711 22.5379 19.5351 23.2553 17.7628C24.3343 15.0974 24.4998 11.2128 24.5 8.91769C24.5002 7.11676 23.3946 5.57023 21.8112 4.86783L20.0058 4.06693C19.9928 4.06118 19.9797 4.05567 19.9666 4.0504L15.7356 2.35525ZM13.1322 4.52121C13.6892 4.29805 14.3108 4.29805 14.8678 4.52121L19.0791 6.20845L20.8651 7.00072C21.6687 7.3572 22.1667 8.10707 22.1667 8.91749C22.1665 11.2284 21.9818 14.6905 21.0925 16.8873C20.5535 18.2187 19.5285 19.4823 18.3391 20.5941C17.1592 21.697 15.8802 22.5925 14.9183 23.1999C14.3511 23.5581 13.6489 23.5581 13.0817 23.1999C12.1198 22.5925 10.8408 21.697 9.66087 20.5941C8.47148 19.4823 7.44646 18.2187 6.90749 16.8873C6.01821 14.6905 5.83353 11.2284 5.83333 8.91749C5.83327 8.10707 6.33132 7.3572 7.13493 7.00072L8.92095 6.20845L13.1322 4.52121Z" fill="#0F973D"/>
</g>
</g>
</svg>
